unsigned int Personal\Projects\StormTank\StormTankApp\Content_size=10498;
unsigned char Personal\Projects\StormTank\StormTankApp\Content[] = {
0x4d,0x54,0x68,0x64,0x00,0x00,0x00,0x06,0x00,0x01,0x00,0x05,0x00,0x60,0x4d,
0x54,0x72,0x6b,0x00,0x00,0x00,0x13,0x00,0xff,0x58,0x04,0x04,0x02,0x60,0x08,
0x00,0xff,0x51,0x03,0x08,0xb8,0x24,0x00,0xff,0x2f,0x00,0x4d,0x54,0x72,0x6b,
0x00,0x00,0x09,0x99,0x00,0xff,0x03,0x18,0x53,0x65,0x71,0x75,0x65,0x6e,0x63,
0x65,0x64,0x20,0x62,0x79,0x20,0x50,0x2e,0x4a,0x2e,0x20,0x42,0x61,0x72,0x6e,
0x65,0x73,0x00,0xb0,0x00,0x00,0x00,0xc0,0x1a,0x00,0xff,0x58,0x04,0x04,0x02,
0x60,0x08,0x00,0xff,0x51,0x03,0x08,0xb8,0x24,0x00,0x90,0x4c,0x40,0x10,0x80,
0x4c,0x40,0x08,0x90,0x4c,0x40,0x10,0x80,0x4c,0x40,0x20,0x90,0x4c,0x40,0x10,
0x80,0x4c,0x40,0x20,0x90,0x48,0x40,0x10,0x80,0x48,0x40,0x08,0x90,0x4c,0x40,
0x10,0x80,0x4c,0x40,0x20,0x90,0x4f,0x40,0x10,0x80,0x4f,0x40,0x81,0x30,0x90,
0x48,0x40,0x10,0x80,0x48,0x40,0x38,0x90,0x43,0x40,0x10,0x80,0x43,0x40,0x38,
0x90,0x40,0x40,0x10,0x80,0x40,0x40,0x38,0x90,0x45,0x40,0x10,0x80,0x45,0x40,
0x20,0x90,0x47,0x40,0x10,0x80,0x47,0x40,0x20,0x90,0x46,0x40,0x10,0x80,0x46,
0x40,0x08,0x90,0x45,0x40,0x10,0x80,0x45,0x40,0x20,0x90,0x43,0x40,0x10,0x80,
0x43,0x40,0x10,0x90,0x4c,0x40,0x10,0x80,0x4c,0x40,0x10,0x90,0x4f,0x40,0x10,
0x80,0x4f,0x40,0x10,0x90,0x51,0x40,0x10,0x80,0x51,0x40,0x20,0x90,0x4d,0x40,
0x10,0x80,0x4d,0x40,0x08,0x90,0x4f,0x40,0x10,0x80,0x4f,0x40,0x20,0x90,0x4c,
0x40,0x10,0x80,0x4c,0x40,0x20,0x90,0x48,0x40,0x10,0x80,0x48,0x40,0x08,0x90,
0x4a,0x40,0x10,0x80,0x4a,0x40,0x08,0x90,0x47,0x40,0x10,0x80,0x47,0x40,0x38,
0x90,0x48,0x40,0x10,0x80,0x48,0x40,0x38,0x90,0x43,0x40,0x10,0x80,0x43,0x40,
0x38,0x90,0x40,0x40,0x10,0x80,0x40,0x40,0x38,0x90,0x45,0x40,0x10,0x80,0x45,
0x40,0x20,0x90,0x47,0x40,0x10,0x80,0x47,0x40,0x20,0x90,0x46,0x40,0x10,0x80,
0x46,0x40,0x08,0x90,0x45,0x40,0x10,0x80,0x45,0x40,0x20,0x90,0x43,0x40,0x10,
0x80,0x43,0x40,0x10,0x90,0x4c,0x40,0x10,0x80,0x4c,0x40,0x10,0x90,0x4f,0x40,
0x10,0x80,0x4f,0x40,0x10,0x90,0x51,0x40,0x10,0x80,0x51,0x40,0x20,0x90,0x4d,
0x40,0x10,0x80,0x4d,0x40,0x08,0x90,0x4f,0x40,0x10,0x80,0x4f,0x40,0x20,0x90,
0x4c,0x40,0x10,0x80,0x4c,0x40,0x20,0x90,0x48,0x40,0x10,0x80,0x48,0x40,0x08,
0x90,0x4a,0x40,0x10,0x80,0x4a,0x40,0x08,0x90,0x47,0x40,0x10,0x80,0x47,0x40,
0x68,0x90,0x4f,0x40,0x10,0x80,0x4f,0x40,0x08,0x90,0x4e,0x40,0x10,0x80,0x4e,
0x40,0x08,0x90,0x4d,0x40,0x10,0x80,0x4d,0x40,0x08,0x90,0x4b,0x40,0x10,0x80,
0x4b,0x40,0x20,0x90,0x4c,0x40,0x10,0x80,0x4c,0x40,0x20,0x90,0x44,0x40,0x10,
0x80,0x44,0x40,0x08,0x90,0x45,0x40,0x10,0x80,0x45,0x40,0x08,0x90,0x48,0x40,
0x10,0x80,0x48,0x40,0x20,0x90,0x45,0x40,0x10,0x80,0x45,0x40,0x08,0x90,0x48,
0x40,0x10,0x80,0x48,0x40,0x08,0x90,0x4a,0x40,0x10,0x80,0x4a,0x40,0x38,0x90,
0x4f,0x40,0x10,0x80,0x4f,0x40,0x08,0x90,0x4e,0x40,0x10,0x80,0x4e,0x40,0x08,
0x90,0x4d,0x40,0x10,0x80,0x4d,0x40,0x08,0x90,0x4b,0x40,0x10,0x80,0x4b,0x40,
0x20,0x90,0x4c,0x40,0x10,0x80,0x4c,0x40,0x20,0x90,0x54,0x40,0x10,0x80,0x54,
0x40,0x20,0x90,0x54,0x40,0x10,0x80,0x54,0x40,0x08,0x90,0x54,0x40,0x10,0x80,
0x54,0x40,0x81,0x00,0x90,0x4f,0x40,0x10,0x80,0x4f,0x40,0x08,0x90,0x4e,0x40,
0x10,0x80,0x4e,0x40,0x08,0x90,0x4d,0x40,0x10,0x80,0x4d,0x40,0x08,0x90,0x4b,
0x40,0x10,0x80,0x4b,0x40,0x20,0x90,0x4c,0x40,0x10,0x80,0x4c,0x40,0x20,0x90,
0x44,0x40,0x10,0x80,0x44,0x40,0x08,0x90,0x45,0x40,0x10,0x80,0x45,0x40,0x08,
0x90,0x48,0x40,0x10,0x80,0x48,0x40,0x20,0x90,0x45,0x40,0x10,0x80,0x45,0x40,
0x08,0x90,0x48,0x40,0x10,0x80,0x48,0x40,0x08,0x90,0x4a,0x40,0x10,0x80,0x4a,
0x40,0x38,0x90,0x4b,0x40,0x10,0x80,0x4b,0x40,0x38,0x90,0x4a,0x40,0x10,0x80,
0x4a,0x40,0x38,0x90,0x48,0x40,0x10,0x80,0x48,0x40,0x81,0x60,0x90,0x4f,0x40,
0x10,0x80,0x4f,0x40,0x08,0x90,0x4e,0x40,0x10,0x80,0x4e,0x40,0x08,0x90,0x4d,
0x40,0x10,0x80,0x4d,0x40,0x08,0x90,0x4b,0x40,0x10,0x80,0x4b,0x40,0x20,0x90,
0x4c,0x40,0x10,0x80,0x4c,0x40,0x20,0x90,0x44,0x40,0x10,0x80,0x44,0x40,0x08,
0x90,0x45,0x40,0x10,0x80,0x45,0x40,0x08,0x90,0x48,0x40,0x10,0x80,0x48,0x40,
0x20,0x90,0x45,0x40,0x10,0x80,0x45,0x40,0x08,0x90,0x48,0x40,0x10,0x80,0x48,
0x40,0x08,0x90,0x4a,0x40,0x10,0x80,0x4a,0x40,0x38,0x90,0x4f,0x40,0x10,0x80,
0x4f,0x40,0x08,0x90,0x4e,0x40,0x10,0x80,0x4e,0x40,0x08,0x90,0x4d,0x40,0x10,
0x80,0x4d,0x40,0x08,0x90,0x4b,0x40,0x10,0x80,0x4b,0x40,0x20,0x90,0x4c,0x40,
0x10,0x80,0x4c,0x40,0x20,0x90,0x54,0x40,0x10,0x80,0x54,0x40,0x20,0x90,0x54,
0x40,0x10,0x80,0x54,0x40,0x08,0x90,0x54,0x40,0x10,0x80,0x54,0x40,0x81,0x00,
0x90,0x4f,0x40,0x10,0x80,0x4f,0x40,0x08,0x90,0x4e,0x40,0x10,0x80,0x4e,0x40,
0x08,0x90,0x4d,0x40,0x10,0x80,0x4d,0x40,0x08,0x90,0x4b,0x40,0x10,0x80,0x4b,
0x40,0x20,0x90,0x4c,0x40,0x10,0x80,0x4c,0x40,0x20,0x90,0x44,0x40,0x10,0x80,
0x44,0x40,0x08,0x90,0x45,0x40,0x10,0x80,0x45,0x40,0x08,0x90,0x48,0x40,0x10,
0x80,0x48,0x40,0x20,0x90,0x45,0x40,0x10,0x80,0x45,0x40,0x08,0x90,0x48,0x40,
0x10,0x80,0x48,0x40,0x08,0x90,0x4a,0x40,0x10,0x80,0x4a,0x40,0x38,0x90,0x4b,
0x40,0x10,0x80,0x4b,0x40,0x38,0x90,0x4a,0x40,0x10,0x80,0x4a,0x40,0x38,0x90,
0x48,0x40,0x10,0x80,0x48,0x40,0x81,0x30,0x90,0x48,0x40,0x10,0x80,0x48,0x40,
0x08,0x90,0x48,0x40,0x10,0x80,0x48,0x40,0x20,0x90,0x48,0x40,0x10,0x80,0x48,
0x40,0x20,0x90,0x48,0x40,0x10,0x80,0x48,0x40,0x08,0x90,0x4a,0x40,0x10,0x80,
0x4a,0x40,0x20,0x90,0x4c,0x40,0x10,0x80,0x4c,0x40,0x08,0x90,0x48,0x40,0x10,
0x80,0x48,0x40,0x20,0x90,0x45,0x40,0x10,0x80,0x45,0x40,0x08,0x90,0x43,0x40,
0x10,0x80,0x43,0x40,0x50,0x90,0x48,0x40,0x10,0x80,0x48,0x40,0x08,0x90,0x48,
0x40,0x10,0x80,0x48,0x40,0x20,0x90,0x48,0x40,0x10,0x80,0x48,0x40,0x20,0x90,
0x48,0x40,0x10,0x80,0x48,0x40,0x08,0x90,0x4a,0x40,0x10,0x80,0x4a,0x40,0x08,
0x90,0x4c,0x40,0x10,0x80,0x4c,0x40,0x81,0x48,0x90,0x48,0x40,0x10,0x80,0x48,
0x40,0x08,0x90,0x48,0x40,0x10,0x80,0x48,0x40,0x20,0x90,0x48,0x40,0x10,0x80,
0x48,0x40,0x20,0x90,0x48,0x40,0x10,0x80,0x48,0x40,0x08,0x90,0x4a,0x40,0x10,
0x80,0x4a,0x40,0x20,0x90,0x4c,0x40,0x10,0x80,0x4c,0x40,0x08,0x90,0x48,0x40,
0x10,0x80,0x48,0x40,0x20,0x90,0x45,0x40,0x10,0x80,0x45,0x40,0x08,0x90,0x43,
0x40,0x10,0x80,0x43,0x40,0x50,0x90,0x4c,0x40,0x10,0x80,0x4c,0x40,0x08,0x90,
0x4c,0x40,0x10,0x80,0x4c,0x40,0x20,0x90,0x4c,0x40,0x10,0x80,0x4c,0x40,0x20,
0x90,0x48,0x40,0x10,0x80,0x48,0x40,0x08,0x90,0x4c,0x40,0x10,0x80,0x4c,0x40,
0x20,0x90,0x4f,0x40,0x10,0x80,0x4f,0x40,0x81,0x30,0x90,0x48,0x40,0x10,0x80,
0x48,0x40,0x38,0x90,0x43,0x40,0x10,0x80,0x43,0x40,0x38,0x90,0x40,0x40,0x10,
0x80,0x40,0x40,0x38,0x90,0x45,0x40,0x10,0x80,0x45,0x40,0x20,0x90,0x47,0x40,
0x10,0x80,0x47,0x40,0x20,0x90,0x46,0x40,0x10,0x80,0x46,0x40,0x08,0x90,0x45,
0x40,0x10,0x80,0x45,0x40,0x20,0x90,0x43,0x40,0x10,0x80,0x43,0x40,0x10,0x90,
0x4c,0x40,0x10,0x80,0x4c,0x40,0x10,0x90,0x4f,0x40,0x10,0x80,0x4f,0x40,0x10,
0x90,0x51,0x40,0x10,0x80,0x51,0x40,0x20,0x90,0x4d,0x40,0x10,0x80,0x4d,0x40,
0x08,0x90,0x4f,0x40,0x10,0x80,0x4f,0x40,0x20,0x90,0x4c,0x40,0x10,0x80,0x4c,
0x40,0x20,0x90,0x48,0x40,0x10,0x80,0x48,0x40,0x08,0x90,0x4a,0x40,0x10,0x80,
0x4a,0x40,0x08,0x90,0x47,0x40,0x10,0x80,0x47,0x40,0x38,0x90,0x48,0x40,0x10,
0x80,0x48,0x40,0x38,0x90,0x43,0x40,0x10,0x80,0x43,0x40,0x38,0x90,0x40,0x40,
0x10,0x80,0x40,0x40,0x38,0x90,0x45,0x40,0x10,0x80,0x45,0x40,0x20,0x90,0x47,
0x40,0x10,0x80,0x47,0x40,0x20,0x90,0x46,0x40,0x10,0x80,0x46,0x40,0x08,0x90,
0x45,0x40,0x10,0x80,0x45,0x40,0x20,0x90,0x43,0x40,0x10,0x80,0x43,0x40,0x10,
0x90,0x4c,0x40,0x10,0x80,0x4c,0x40,0x10,0x90,0x4f,0x40,0x10,0x80,0x4f,0x40,
0x10,0x90,0x51,0x40,0x10,0x80,0x51,0x40,0x20,0x90,0x4d,0x40,0x10,0x80,0x4d,
0x40,0x08,0x90,0x4f,0x40,0x10,0x80,0x4f,0x40,0x20,0x90,0x4c,0x40,0x10,0x80,
0x4c,0x40,0x20,0x90,0x48,0x40,0x10,0x80,0x48,0x40,0x08,0x90,0x4a,0x40,0x10,
0x80,0x4a,0x40,0x08,0x90,0x47,0x40,0x10,0x80,0x47,0x40,0x38,0x90,0x4c,0x40,
0x10,0x80,0x4c,0x40,0x08,0x90,0x48,0x40,0x10,0x80,0x48,0x40,0x20,0x90,0x43,
0x40,0x10,0x80,0x43,0x40,0x38,0x90,0x44,0x40,0x10,0x80,0x44,0x40,0x20,0x90,
0x45,0x40,0x10,0x80,0x45,0x40,0x08,0x90,0x4d,0x40,0x10,0x80,0x4d,0x40,0x20,
0x90,0x4d,0x40,0x10,0x80,0x4d,0x40,0x08,0x90,0x45,0x40,0x10,0x80,0x45,0x40,
0x50,0x90,0x47,0x40,0x10,0x80,0x47,0x40,0x10,0x90,0x51,0x40,0x10,0x80,0x51,
0x40,0x10,0x90,0x51,0x40,0x10,0x80,0x51,0x40,0x10,0x90,0x51,0x40,0x10,0x80,
0x51,0x40,0x10,0x90,0x4f,0x40,0x10,0x80,0x4f,0x40,0x10,0x90,0x4d,0x40,0x10,
0x80,0x4d,0x40,0x10,0x90,0x4c,0x40,0x10,0x80,0x4c,0x40,0x08,0x90,0x48,0x40,
0x10,0x80,0x48,0x40,0x20,0x90,0x45,0x40,0x10,0x80,0x45,0x40,0x08,0x90,0x43,
0x40,0x10,0x80,0x43,0x40,0x50,0x90,0x4c,0x40,0x10,0x80,0x4c,0x40,0x08,0x90,
0x48,0x40,0x10,0x80,0x48,0x40,0x20,0x90,0x43,0x40,0x10,0x80,0x43,0x40,0x38,
0x90,0x44,0x40,0x10,0x80,0x44,0x40,0x20,0x90,0x45,0x40,0x10,0x80,0x45,0x40,
0x08,0x90,0x4d,0x40,0x10,0x80,0x4d,0x40,0x20,0x90,0x4d,0x40,0x10,0x80,0x4d,
0x40,0x08,0x90,0x45,0x40,0x10,0x80,0x45,0x40,0x50,0x90,0x47,0x40,0x10,0x80,
0x47,0x40,0x08,0x90,0x4d,0x40,0x10,0x80,0x4d,0x40,0x20,0x90,0x4d,0x40,0x10,
0x80,0x4d,0x40,0x08,0x90,0x4d,0x40,0x10,0x80,0x4d,0x40,0x10,0x90,0x4c,0x40,
0x10,0x80,0x4c,0x40,0x10,0x90,0x4a,0x40,0x10,0x80,0x4a,0x40,0x10,0x90,0x48,
0x40,0x10,0x80,0x48,0x40,0x81,0x30,0x90,0x4c,0x40,0x10,0x80,0x4c,0x40,0x08,
0x90,0x48,0x40,0x10,0x80,0x48,0x40,0x20,0x90,0x43,0x40,0x10,0x80,0x43,0x40,
0x38,0x90,0x44,0x40,0x10,0x80,0x44,0x40,0x20,0x90,0x45,0x40,0x10,0x80,0x45,
0x40,0x08,0x90,0x4d,0x40,0x10,0x80,0x4d,0x40,0x20,0x90,0x4d,0x40,0x10,0x80,
0x4d,0x40,0x08,0x90,0x45,0x40,0x10,0x80,0x45,0x40,0x50,0x90,0x47,0x40,0x10,
0x80,0x47,0x40,0x10,0x90,0x51,0x40,0x10,0x80,0x51,0x40,0x10,0x90,0x51,0x40,
0x10,0x80,0x51,0x40,0x10,0x90,0x51,0x40,0x10,0x80,0x51,0x40,0x10,0x90,0x4f,
0x40,0x10,0x80,0x4f,0x40,0x10,0x90,0x4d,0x40,0x10,0x80,0x4d,0x40,0x10,0x90,
0x4c,0x40,0x10,0x80,0x4c,0x40,0x08,0x90,0x48,0x40,0x10,0x80,0x48,0x40,0x20,
0x90,0x45,0x40,0x10,0x80,0x45,0x40,0x08,0x90,0x43,0x40,0x10,0x80,0x43,0x40,
0x50,0x90,0x4c,0x40,0x10,0x80,0x4c,0x40,0x08,0x90,0x48,0x40,0x10,0x80,0x48,
0x40,0x20,0x90,0x43,0x40,0x10,0x80,0x43,0x40,0x38,0x90,0x44,0x40,0x10,0x80,
0x44,0x40,0x20,0x90,0x45,0x40,0x10,0x80,0x45,0x40,0x08,0x90,0x4d,0x40,0x10,
0x80,0x4d,0x40,0x20,0x90,0x4d,0x40,0x10,0x80,0x4d,0x40,0x08,0x90,0x45,0x40,
0x10,0x80,0x45,0x40,0x50,0x90,0x47,0x40,0x10,0x80,0x47,0x40,0x08,0x90,0x4d,
0x40,0x10,0x80,0x4d,0x40,0x20,0x90,0x4d,0x40,0x10,0x80,0x4d,0x40,0x08,0x90,
0x4d,0x40,0x10,0x80,0x4d,0x40,0x10,0x90,0x4c,0x40,0x10,0x80,0x4c,0x40,0x10,
0x90,0x4a,0x40,0x10,0x80,0x4a,0x40,0x10,0x90,0x48,0x40,0x10,0x80,0x48,0x40,
0x81,0x30,0x90,0x48,0x40,0x10,0x80,0x48,0x40,0x08,0x90,0x48,0x40,0x10,0x80,
0x48,0x40,0x20,0x90,0x48,0x40,0x10,0x80,0x48,0x40,0x20,0x90,0x48,0x40,0x10,
0x80,0x48,0x40,0x08,0x90,0x4a,0x40,0x10,0x80,0x4a,0x40,0x20,0x90,0x4c,0x40,
0x10,0x80,0x4c,0x40,0x08,0x90,0x48,0x40,0x10,0x80,0x48,0x40,0x20,0x90,0x45,
0x40,0x10,0x80,0x45,0x40,0x08,0x90,0x43,0x40,0x10,0x80,0x43,0x40,0x50,0x90,
0x48,0x40,0x10,0x80,0x48,0x40,0x08,0x90,0x48,0x40,0x10,0x80,0x48,0x40,0x20,
0x90,0x48,0x40,0x10,0x80,0x48,0x40,0x20,0x90,0x48,0x40,0x10,0x80,0x48,0x40,
0x08,0x90,0x4a,0x40,0x10,0x80,0x4a,0x40,0x08,0x90,0x4c,0x40,0x10,0x80,0x4c,
0x40,0x81,0x48,0x90,0x48,0x40,0x10,0x80,0x48,0x40,0x08,0x90,0x48,0x40,0x10,
0x80,0x48,0x40,0x20,0x90,0x48,0x40,0x10,0x80,0x48,0x40,0x20,0x90,0x48,0x40,
0x10,0x80,0x48,0x40,0x08,0x90,0x4a,0x40,0x10,0x80,0x4a,0x40,0x20,0x90,0x4c,
0x40,0x10,0x80,0x4c,0x40,0x08,0x90,0x48,0x40,0x10,0x80,0x48,0x40,0x20,0x90,
0x45,0x40,0x10,0x80,0x45,0x40,0x08,0x90,0x43,0x40,0x10,0x80,0x43,0x40,0x50,
0x90,0x4c,0x40,0x10,0x80,0x4c,0x40,0x08,0x90,0x4c,0x40,0x10,0x80,0x4c,0x40,
0x20,0x90,0x4c,0x40,0x10,0x80,0x4c,0x40,0x20,0x90,0x48,0x40,0x10,0x80,0x48,
0x40,0x08,0x90,0x4c,0x40,0x10,0x80,0x4c,0x40,0x20,0x90,0x4f,0x40,0x10,0x80,
0x4f,0x40,0x81,0x30,0x90,0x4c,0x40,0x10,0x80,0x4c,0x40,0x08,0x90,0x48,0x40,
0x10,0x80,0x48,0x40,0x20,0x90,0x43,0x40,0x10,0x80,0x43,0x40,0x38,0x90,0x44,
0x40,0x10,0x80,0x44,0x40,0x20,0x90,0x45,0x40,0x10,0x80,0x45,0x40,0x08,0x90,
0x4d,0x40,0x10,0x80,0x4d,0x40,0x20,0x90,0x4d,0x40,0x10,0x80,0x4d,0x40,0x08,
0x90,0x45,0x40,0x10,0x80,0x45,0x40,0x50,0x90,0x47,0x40,0x10,0x80,0x47,0x40,
0x10,0x90,0x51,0x40,0x10,0x80,0x51,0x40,0x10,0x90,0x51,0x40,0x10,0x80,0x51,
0x40,0x10,0x90,0x51,0x40,0x10,0x80,0x51,0x40,0x10,0x90,0x4f,0x40,0x10,0x80,
0x4f,0x40,0x10,0x90,0x4d,0x40,0x10,0x80,0x4d,0x40,0x10,0x90,0x4c,0x40,0x10,
0x80,0x4c,0x40,0x08,0x90,0x48,0x40,0x10,0x80,0x48,0x40,0x20,0x90,0x45,0x40,
0x10,0x80,0x45,0x40,0x08,0x90,0x43,0x40,0x10,0x80,0x43,0x40,0x50,0x90,0x4c,
0x40,0x10,0x80,0x4c,0x40,0x08,0x90,0x48,0x40,0x10,0x80,0x48,0x40,0x20,0x90,
0x43,0x40,0x10,0x80,0x43,0x40,0x38,0x90,0x44,0x40,0x10,0x80,0x44,0x40,0x20,
0x90,0x45,0x40,0x10,0x80,0x45,0x40,0x08,0x90,0x4d,0x40,0x10,0x80,0x4d,0x40,
0x20,0x90,0x4d,0x40,0x10,0x80,0x4d,0x40,0x08,0x90,0x45,0x40,0x10,0x80,0x45,
0x40,0x50,0x90,0x47,0x40,0x10,0x80,0x47,0x40,0x08,0x90,0x4d,0x40,0x10,0x80,
0x4d,0x40,0x20,0x90,0x4d,0x40,0x10,0x80,0x4d,0x40,0x08,0x90,0x4d,0x40,0x10,
0x80,0x4d,0x40,0x10,0x90,0x4c,0x40,0x10,0x80,0x4c,0x40,0x10,0x90,0x4a,0x40,
0x10,0x80,0x4a,0x40,0x10,0x90,0x48,0x40,0x10,0x80,0x48,0x40,0x00,0xff,0x2f,
0x00,0x4d,0x54,0x72,0x6b,0x00,0x00,0x09,0xe9,0x00,0xff,0x03,0x0d,0x43,0x6f,
0x75,0x6e,0x74,0x65,0x72,0x6d,0x65,0x6c,0x6f,0x64,0x79,0x00,0xb1,0x00,0x00,
0x00,0xc1,0x1a,0x00,0xff,0x58,0x04,0x04,0x02,0x60,0x08,0x00,0xff,0x51,0x03,
0x08,0xb8,0x24,0x00,0x91,0x42,0x40,0x10,0x81,0x42,0x40,0x08,0x91,0x42,0x40,
0x10,0x81,0x42,0x40,0x20,0x91,0x42,0x40,0x10,0x81,0x42,0x40,0x20,0x91,0x42,
0x40,0x10,0x81,0x42,0x40,0x08,0x91,0x42,0x40,0x10,0x81,0x42,0x40,0x20,0x91,
0x47,0x40,0x10,0x81,0x47,0x40,0x50,0x91,0x43,0x40,0x10,0x81,0x43,0x40,0x50,
0x91,0x40,0x40,0x10,0x81,0x40,0x40,0x38,0x91,0x3c,0x40,0x10,0x81,0x3c,0x40,
0x38,0x91,0x37,0x40,0x10,0x81,0x37,0x40,0x38,0x91,0x3c,0x40,0x10,0x81,0x3c,
0x40,0x20,0x91,0x3e,0x40,0x10,0x81,0x3e,0x40,0x20,0x91,0x3d,0x40,0x10,0x81,
0x3d,0x40,0x08,0x91,0x3c,0x40,0x10,0x81,0x3c,0x40,0x20,0x91,0x3c,0x40,0x10,
0x81,0x3c,0x40,0x10,0x91,0x43,0x40,0x10,0x81,0x43,0x40,0x10,0x91,0x47,0x40,
0x10,0x81,0x47,0x40,0x10,0x91,0x48,0x40,0x10,0x81,0x48,0x40,0x20,0x91,0x45,
0x40,0x10,0x81,0x45,0x40,0x08,0x91,0x47,0x40,0x10,0x81,0x47,0x40,0x20,0x91,
0x45,0x40,0x10,0x81,0x45,0x40,0x20,0x91,0x40,0x40,0x10,0x81,0x40,0x40,0x08,
0x91,0x41,0x40,0x10,0x81,0x41,0x40,0x08,0x91,0x3e,0x40,0x10,0x81,0x3e,0x40,
0x38,0x91,0x40,0x40,0x10,0x81,0x40,0x40,0x38,0x91,0x3c,0x40,0x10,0x81,0x3c,
0x40,0x38,0x91,0x37,0x40,0x10,0x81,0x37,0x40,0x38,0x91,0x3c,0x40,0x10,0x81,
0x3c,0x40,0x20,0x91,0x3e,0x40,0x10,0x81,0x3e,0x40,0x20,0x91,0x3d,0x40,0x10,
0x81,0x3d,0x40,0x08,0x91,0x3c,0x40,0x10,0x81,0x3c,0x40,0x20,0x91,0x3c,0x40,
0x10,0x81,0x3c,0x40,0x10,0x91,0x43,0x40,0x10,0x81,0x43,0x40,0x10,0x91,0x47,
0x40,0x10,0x81,0x47,0x40,0x10,0x91,0x48,0x40,0x10,0x81,0x48,0x40,0x20,0x91,
0x45,0x40,0x10,0x81,0x45,0x40,0x08,0x91,0x47,0x40,0x10,0x81,0x47,0x40,0x20,
0x91,0x45,0x40,0x10,0x81,0x45,0x40,0x20,0x91,0x40,0x40,0x10,0x81,0x40,0x40,
0x08,0x91,0x41,0x40,0x10,0x81,0x41,0x40,0x08,0x91,0x3e,0x40,0x10,0x81,0x3e,
0x40,0x68,0x91,0x4c,0x40,0x10,0x81,0x4c,0x40,0x08,0x91,0x4b,0x40,0x10,0x81,
0x4b,0x40,0x08,0x91,0x4a,0x40,0x10,0x81,0x4a,0x40,0x08,0x91,0x47,0x40,0x10,
0x81,0x47,0x40,0x20,0x91,0x48,0x40,0x10,0x81,0x48,0x40,0x20,0x91,0x40,0x40,
0x10,0x81,0x40,0x40,0x08,0x91,0x41,0x40,0x10,0x81,0x41,0x40,0x08,0x91,0x43,
0x40,0x10,0x81,0x43,0x40,0x20,0x91,0x3c,0x40,0x10,0x81,0x3c,0x40,0x08,0x91,
0x40,0x40,0x10,0x81,0x40,0x40,0x08,0x91,0x41,0x40,0x10,0x81,0x41,0x40,0x38,
0x91,0x4c,0x40,0x10,0x81,0x4c,0x40,0x08,0x91,0x4b,0x40,0x10,0x81,0x4b,0x40,
0x08,0x91,0x4a,0x40,0x10,0x81,0x4a,0x40,0x08,0x91,0x47,0x40,0x10,0x81,0x47,
0x40,0x20,0x91,0x48,0x40,0x10,0x81,0x48,0x40,0x20,0x91,0x4d,0x40,0x10,0x81,
0x4d,0x40,0x20,0x91,0x4d,0x40,0x10,0x81,0x4d,0x40,0x08,0x91,0x4d,0x40,0x10,
0x81,0x4d,0x40,0x81,0x00,0x91,0x4c,0x40,0x10,0x81,0x4c,0x40,0x08,0x91,0x4b,
0x40,0x10,0x81,0x4b,0x40,0x08,0x91,0x4a,0x40,0x10,0x81,0x4a,0x40,0x08,0x91,
0x47,0x40,0x10,0x81,0x47,0x40,0x20,0x91,0x48,0x40,0x10,0x81,0x48,0x40,0x20,
0x91,0x40,0x40,0x10,0x81,0x40,0x40,0x08,0x91,0x41,0x40,0x10,0x81,0x41,0x40,
0x08,0x91,0x43,0x40,0x10,0x81,0x43,0x40,0x20,0x91,0x3c,0x40,0x10,0x81,0x3c,
0x40,0x08,0x91,0x40,0x40,0x10,0x81,0x40,0x40,0x08,0x91,0x41,0x40,0x10,0x81,
0x41,0x40,0x38,0x91,0x44,0x40,0x10,0x81,0x44,0x40,0x38,0x91,0x41,0x40,0x10,
0x81,0x41,0x40,0x38,0x91,0x40,0x40,0x10,0x81,0x40,0x40,0x81,0x60,0x91,0x4c,
0x40,0x10,0x81,0x4c,0x40,0x08,0x91,0x4b,0x40,0x10,0x81,0x4b,0x40,0x08,0x91,
0x4a,0x40,0x10,0x81,0x4a,0x40,0x08,0x91,0x47,0x40,0x10,0x81,0x47,0x40,0x20,
0x91,0x48,0x40,0x10,0x81,0x48,0x40,0x20,0x91,0x40,0x40,0x10,0x81,0x40,0x40,
0x08,0x91,0x41,0x40,0x10,0x81,0x41,0x40,0x08,0x91,0x43,0x40,0x10,0x81,0x43,
0x40,0x20,0x91,0x3c,0x40,0x10,0x81,0x3c,0x40,0x08,0x91,0x40,0x40,0x10,0x81,
0x40,0x40,0x08,0x91,0x41,0x40,0x10,0x81,0x41,0x40,0x38,0x91,0x4c,0x40,0x10,
0x81,0x4c,0x40,0x08,0x91,0x4b,0x40,0x10,0x81,0x4b,0x40,0x08,0x91,0x4a,0x40,
0x10,0x81,0x4a,0x40,0x08,0x91,0x47,0x40,0x10,0x81,0x47,0x40,0x20,0x91,0x48,
0x40,0x10,0x81,0x48,0x40,0x20,0x91,0x4d,0x40,0x10,0x81,0x4d,0x40,0x20,0x91,
0x4d,0x40,0x10,0x81,0x4d,0x40,0x08,0x91,0x4d,0x40,0x10,0x81,0x4d,0x40,0x81,
0x00,0x91,0x4c,0x40,0x10,0x81,0x4c,0x40,0x08,0x91,0x4b,0x40,0x10,0x81,0x4b,
0x40,0x08,0x91,0x4a,0x40,0x10,0x81,0x4a,0x40,0x08,0x91,0x47,0x40,0x10,0x81,
0x47,0x40,0x20,0x91,0x48,0x40,0x10,0x81,0x48,0x40,0x20,0x91,0x40,0x40,0x10,
0x81,0x40,0x40,0x08,0x91,0x41,0x40,0x10,0x81,0x41,0x40,0x08,0x91,0x43,0x40,
0x10,0x81,0x43,0x40,0x20,0x91,0x3c,0x40,0x10,0x81,0x3c,0x40,0x08,0x91,0x40,
0x40,0x10,0x81,0x40,0x40,0x08,0x91,0x41,0x40,0x10,0x81,0x41,0x40,0x38,0x91,
0x44,0x40,0x10,0x81,0x44,0x40,0x38,0x91,0x41,0x40,0x10,0x81,0x41,0x40,0x38,
0x91,0x40,0x40,0x10,0x81,0x40,0x40,0x81,0x30,0x91,0x44,0x40,0x10,0x81,0x44,
0x40,0x08,0x91,0x44,0x40,0x10,0x81,0x44,0x40,0x20,0x91,0x44,0x40,0x10,0x81,
0x44,0x40,0x20,0x91,0x44,0x40,0x10,0x81,0x44,0x40,0x08,0x91,0x46,0x40,0x10,
0x81,0x46,0x40,0x20,0x91,0x43,0x40,0x10,0x81,0x43,0x40,0x08,0x91,0x40,0x40,
0x10,0x81,0x40,0x40,0x20,0x91,0x40,0x40,0x10,0x81,0x40,0x40,0x08,0x91,0x3c,
0x40,0x10,0x81,0x3c,0x40,0x50,0x91,0x44,0x40,0x10,0x81,0x44,0x40,0x08,0x91,
0x44,0x40,0x10,0x81,0x44,0x40,0x20,0x91,0x44,0x40,0x10,0x81,0x44,0x40,0x20,
0x91,0x44,0x40,0x10,0x81,0x44,0x40,0x08,0x91,0x46,0x40,0x10,0x81,0x46,0x40,
0x08,0x91,0x43,0x40,0x10,0x81,0x43,0x40,0x81,0x48,0x91,0x44,0x40,0x10,0x81,
0x44,0x40,0x08,0x91,0x44,0x40,0x10,0x81,0x44,0x40,0x20,0x91,0x44,0x40,0x10,
0x81,0x44,0x40,0x20,0x91,0x44,0x40,0x10,0x81,0x44,0x40,0x08,0x91,0x46,0x40,
0x10,0x81,0x46,0x40,0x20,0x91,0x43,0x40,0x10,0x81,0x43,0x40,0x08,0x91,0x40,
0x40,0x10,0x81,0x40,0x40,0x20,0x91,0x40,0x40,0x10,0x81,0x40,0x40,0x08,0x91,
0x3c,0x40,0x10,0x81,0x3c,0x40,0x50,0x91,0x42,0x40,0x10,0x81,0x42,0x40,0x08,
0x91,0x42,0x40,0x10,0x81,0x42,0x40,0x20,0x91,0x42,0x40,0x10,0x81,0x42,0x40,
0x20,0x91,0x42,0x40,0x10,0x81,0x42,0x40,0x08,0x91,0x42,0x40,0x10,0x81,0x42,
0x40,0x20,0x91,0x47,0x40,0x10,0x81,0x47,0x40,0x50,0x91,0x43,0x40,0x10,0x81,
0x43,0x40,0x50,0x91,0x40,0x40,0x10,0x81,0x40,0x40,0x38,0x91,0x3c,0x40,0x10,
0x81,0x3c,0x40,0x38,0x91,0x37,0x40,0x10,0x81,0x37,0x40,0x38,0x91,0x3c,0x40,
0x10,0x81,0x3c,0x40,0x20,0x91,0x3e,0x40,0x10,0x81,0x3e,0x40,0x20,0x91,0x3d,
0x40,0x10,0x81,0x3d,0x40,0x08,0x91,0x3c,0x40,0x10,0x81,0x3c,0x40,0x20,0x91,
0x3c,0x40,0x10,0x81,0x3c,0x40,0x10,0x91,0x43,0x40,0x10,0x81,0x43,0x40,0x10,
0x91,0x47,0x40,0x10,0x81,0x47,0x40,0x10,0x91,0x48,0x40,0x10,0x81,0x48,0x40,
0x20,0x91,0x45,0x40,0x10,0x81,0x45,0x40,0x08,0x91,0x47,0x40,0x10,0x81,0x47,
0x40,0x20,0x91,0x45,0x40,0x10,0x81,0x45,0x40,0x20,0x91,0x40,0x40,0x10,0x81,
0x40,0x40,0x08,0x91,0x41,0x40,0x10,0x81,0x41,0x40,0x08,0x91,0x3e,0x40,0x10,
0x81,0x3e,0x40,0x38,0x91,0x40,0x40,0x10,0x81,0x40,0x40,0x38,0x91,0x3c,0x40,
0x10,0x81,0x3c,0x40,0x38,0x91,0x37,0x40,0x10,0x81,0x37,0x40,0x38,0x91,0x3c,
0x40,0x10,0x81,0x3c,0x40,0x20,0x91,0x3e,0x40,0x10,0x81,0x3e,0x40,0x20,0x91,
0x3d,0x40,0x10,0x81,0x3d,0x40,0x08,0x91,0x3c,0x40,0x10,0x81,0x3c,0x40,0x20,
0x91,0x3c,0x40,0x10,0x81,0x3c,0x40,0x10,0x91,0x43,0x40,0x10,0x81,0x43,0x40,
0x10,0x91,0x47,0x40,0x10,0x81,0x47,0x40,0x10,0x91,0x48,0x40,0x10,0x81,0x48,
0x40,0x20,0x91,0x45,0x40,0x10,0x81,0x45,0x40,0x08,0x91,0x47,0x40,0x10,0x81,
0x47,0x40,0x20,0x91,0x45,0x40,0x10,0x81,0x45,0x40,0x20,0x91,0x40,0x40,0x10,
0x81,0x40,0x40,0x08,0x91,0x41,0x40,0x10,0x81,0x41,0x40,0x08,0x91,0x3e,0x40,
0x10,0x81,0x3e,0x40,0x38,0x91,0x48,0x40,0x10,0x81,0x48,0x40,0x08,0x91,0x45,
0x40,0x10,0x81,0x45,0x40,0x20,0x91,0x40,0x40,0x10,0x81,0x40,0x40,0x38,0x91,
0x40,0x40,0x10,0x81,0x40,0x40,0x20,0x91,0x41,0x40,0x10,0x81,0x41,0x40,0x08,
0x91,0x48,0x40,0x10,0x81,0x48,0x40,0x20,0x91,0x48,0x40,0x10,0x81,0x48,0x40,
0x08,0x91,0x41,0x40,0x10,0x81,0x41,0x40,0x50,0x91,0x43,0x40,0x10,0x81,0x43,
0x40,0x10,0x91,0x4d,0x40,0x10,0x81,0x4d,0x40,0x10,0x91,0x4d,0x40,0x10,0x81,
0x4d,0x40,0x10,0x91,0x4d,0x40,0x10,0x81,0x4d,0x40,0x10,0x91,0x4c,0x40,0x10,
0x81,0x4c,0x40,0x10,0x91,0x4a,0x40,0x10,0x81,0x4a,0x40,0x10,0x91,0x48,0x40,
0x10,0x81,0x48,0x40,0x08,0x91,0x45,0x40,0x10,0x81,0x45,0x40,0x20,0x91,0x41,
0x40,0x10,0x81,0x41,0x40,0x08,0x91,0x40,0x40,0x10,0x81,0x40,0x40,0x50,0x91,
0x48,0x40,0x10,0x81,0x48,0x40,0x08,0x91,0x45,0x40,0x10,0x81,0x45,0x40,0x20,
0x91,0x40,0x40,0x10,0x81,0x40,0x40,0x38,0x91,0x40,0x40,0x10,0x81,0x40,0x40,
0x20,0x91,0x41,0x40,0x10,0x81,0x41,0x40,0x08,0x91,0x48,0x40,0x10,0x81,0x48,
0x40,0x20,0x91,0x48,0x40,0x10,0x81,0x48,0x40,0x08,0x91,0x41,0x40,0x10,0x81,
0x41,0x40,0x50,0x91,0x43,0x40,0x10,0x81,0x43,0x40,0x08,0x91,0x4a,0x40,0x10,
0x81,0x4a,0x40,0x20,0x91,0x4a,0x40,0x10,0x81,0x4a,0x40,0x08,0x91,0x4a,0x40,
0x10,0x81,0x4a,0x40,0x10,0x91,0x48,0x40,0x10,0x81,0x48,0x40,0x10,0x91,0x47,
0x40,0x10,0x81,0x47,0x40,0x10,0x91,0x43,0x40,0x10,0x81,0x43,0x40,0x08,0x91,
0x40,0x40,0x10,0x81,0x40,0x40,0x20,0x91,0x40,0x40,0x10,0x81,0x40,0x40,0x08,
0x91,0x3c,0x40,0x10,0x81,0x3c,0x40,0x50,0x91,0x48,0x40,0x10,0x81,0x48,0x40,
0x08,0x91,0x45,0x40,0x10,0x81,0x45,0x40,0x20,0x91,0x40,0x40,0x10,0x81,0x40,
0x40,0x38,0x91,0x40,0x40,0x10,0x81,0x40,0x40,0x20,0x91,0x41,0x40,0x10,0x81,
0x41,0x40,0x08,0x91,0x48,0x40,0x10,0x81,0x48,0x40,0x20,0x91,0x48,0x40,0x10,
0x81,0x48,0x40,0x08,0x91,0x41,0x40,0x10,0x81,0x41,0x40,0x50,0x91,0x43,0x40,
0x10,0x81,0x43,0x40,0x10,0x91,0x4d,0x40,0x10,0x81,0x4d,0x40,0x10,0x91,0x4d,
0x40,0x10,0x81,0x4d,0x40,0x10,0x91,0x4d,0x40,0x10,0x81,0x4d,0x40,0x10,0x91,
0x4c,0x40,0x10,0x81,0x4c,0x40,0x10,0x91,0x4a,0x40,0x10,0x81,0x4a,0x40,0x10,
0x91,0x48,0x40,0x10,0x81,0x48,0x40,0x08,0x91,0x45,0x40,0x10,0x81,0x45,0x40,
0x20,0x91,0x41,0x40,0x10,0x81,0x41,0x40,0x08,0x91,0x40,0x40,0x10,0x81,0x40,
0x40,0x50,0x91,0x48,0x40,0x10,0x81,0x48,0x40,0x08,0x91,0x45,0x40,0x10,0x81,
0x45,0x40,0x20,0x91,0x40,0x40,0x10,0x81,0x40,0x40,0x38,0x91,0x40,0x40,0x10,
0x81,0x40,0x40,0x20,0x91,0x41,0x40,0x10,0x81,0x41,0x40,0x08,0x91,0x48,0x40,
0x10,0x81,0x48,0x40,0x20,0x91,0x48,0x40,0x10,0x81,0x48,0x40,0x08,0x91,0x41,
0x40,0x10,0x81,0x41,0x40,0x50,0x91,0x43,0x40,0x10,0x81,0x43,0x40,0x08,0x91,
0x4a,0x40,0x10,0x81,0x4a,0x40,0x20,0x91,0x4a,0x40,0x10,0x81,0x4a,0x40,0x08,
0x91,0x4a,0x40,0x10,0x81,0x4a,0x40,0x10,0x91,0x48,0x40,0x10,0x81,0x48,0x40,
0x10,0x91,0x47,0x40,0x10,0x81,0x47,0x40,0x10,0x91,0x43,0x40,0x10,0x81,0x43,
0x40,0x08,0x91,0x40,0x40,0x10,0x81,0x40,0x40,0x20,0x91,0x40,0x40,0x10,0x81,
0x40,0x40,0x08,0x91,0x3c,0x40,0x10,0x81,0x3c,0x40,0x50,0x91,0x44,0x40,0x10,
0x81,0x44,0x40,0x08,0x91,0x44,0x40,0x10,0x81,0x44,0x40,0x20,0x91,0x44,0x40,
0x10,0x81,0x44,0x40,0x20,0x91,0x44,0x40,0x10,0x81,0x44,0x40,0x08,0x91,0x46,
0x40,0x10,0x81,0x46,0x40,0x20,0x91,0x43,0x40,0x10,0x81,0x43,0x40,0x08,0x91,
0x40,0x40,0x10,0x81,0x40,0x40,0x20,0x91,0x40,0x40,0x10,0x81,0x40,0x40,0x08,
0x91,0x3c,0x40,0x10,0x81,0x3c,0x40,0x50,0x91,0x44,0x40,0x10,0x81,0x44,0x40,
0x08,0x91,0x44,0x40,0x10,0x81,0x44,0x40,0x20,0x91,0x44,0x40,0x10,0x81,0x44,
0x40,0x20,0x91,0x44,0x40,0x10,0x81,0x44,0x40,0x08,0x91,0x46,0x40,0x10,0x81,
0x46,0x40,0x08,0x91,0x43,0x40,0x10,0x81,0x43,0x40,0x81,0x48,0x91,0x44,0x40,
0x10,0x81,0x44,0x40,0x08,0x91,0x44,0x40,0x10,0x81,0x44,0x40,0x20,0x91,0x44,
0x40,0x10,0x81,0x44,0x40,0x20,0x91,0x44,0x40,0x10,0x81,0x44,0x40,0x08,0x91,
0x46,0x40,0x10,0x81,0x46,0x40,0x20,0x91,0x43,0x40,0x10,0x81,0x43,0x40,0x08,
0x91,0x40,0x40,0x10,0x81,0x40,0x40,0x20,0x91,0x40,0x40,0x10,0x81,0x40,0x40,
0x08,0x91,0x3c,0x40,0x10,0x81,0x3c,0x40,0x50,0x91,0x42,0x40,0x10,0x81,0x42,
0x40,0x08,0x91,0x42,0x40,0x10,0x81,0x42,0x40,0x20,0x91,0x42,0x40,0x10,0x81,
0x42,0x40,0x20,0x91,0x42,0x40,0x10,0x81,0x42,0x40,0x08,0x91,0x42,0x40,0x10,
0x81,0x42,0x40,0x20,0x91,0x47,0x40,0x10,0x81,0x47,0x40,0x50,0x91,0x43,0x40,
0x10,0x81,0x43,0x40,0x50,0x91,0x48,0x40,0x10,0x81,0x48,0x40,0x08,0x91,0x45,
0x40,0x10,0x81,0x45,0x40,0x20,0x91,0x40,0x40,0x10,0x81,0x40,0x40,0x38,0x91,
0x40,0x40,0x10,0x81,0x40,0x40,0x20,0x91,0x41,0x40,0x10,0x81,0x41,0x40,0x08,
0x91,0x48,0x40,0x10,0x81,0x48,0x40,0x20,0x91,0x48,0x40,0x10,0x81,0x48,0x40,
0x08,0x91,0x41,0x40,0x10,0x81,0x41,0x40,0x50,0x91,0x43,0x40,0x10,0x81,0x43,
0x40,0x10,0x91,0x4d,0x40,0x10,0x81,0x4d,0x40,0x10,0x91,0x4d,0x40,0x10,0x81,
0x4d,0x40,0x10,0x91,0x4d,0x40,0x10,0x81,0x4d,0x40,0x10,0x91,0x4c,0x40,0x10,
0x81,0x4c,0x40,0x10,0x91,0x4a,0x40,0x10,0x81,0x4a,0x40,0x10,0x91,0x48,0x40,
0x10,0x81,0x48,0x40,0x08,0x91,0x45,0x40,0x10,0x81,0x45,0x40,0x20,0x91,0x41,
0x40,0x10,0x81,0x41,0x40,0x08,0x91,0x40,0x40,0x10,0x81,0x40,0x40,0x50,0x91,
0x48,0x40,0x10,0x81,0x48,0x40,0x08,0x91,0x45,0x40,0x10,0x81,0x45,0x40,0x20,
0x91,0x40,0x40,0x10,0x81,0x40,0x40,0x38,0x91,0x40,0x40,0x10,0x81,0x40,0x40,
0x20,0x91,0x41,0x40,0x10,0x81,0x41,0x40,0x08,0x91,0x48,0x40,0x10,0x81,0x48,
0x40,0x20,0x91,0x48,0x40,0x10,0x81,0x48,0x40,0x08,0x91,0x41,0x40,0x10,0x81,
0x41,0x40,0x50,0x91,0x43,0x40,0x10,0x81,0x43,0x40,0x08,0x91,0x4a,0x40,0x10,
0x81,0x4a,0x40,0x20,0x91,0x4a,0x40,0x10,0x81,0x4a,0x40,0x08,0x91,0x4a,0x40,
0x10,0x81,0x4a,0x40,0x10,0x91,0x48,0x40,0x10,0x81,0x48,0x40,0x10,0x91,0x47,
0x40,0x10,0x81,0x47,0x40,0x10,0x91,0x43,0x40,0x10,0x81,0x43,0x40,0x08,0x91,
0x40,0x40,0x10,0x81,0x40,0x40,0x20,0x91,0x40,0x40,0x10,0x81,0x40,0x40,0x08,
0x91,0x3c,0x40,0x10,0x81,0x3c,0x40,0x00,0xff,0x2f,0x00,0x4d,0x54,0x72,0x6b,
0x00,0x00,0x09,0x3f,0x00,0xff,0x03,0x09,0x42,0x61,0x73,0x73,0x20,0x4c,0x69,
0x6e,0x65,0x00,0xb2,0x00,0x00,0x00,0xc2,0x1a,0x00,0xff,0x58,0x04,0x04,0x02,
0x60,0x08,0x00,0xff,0x51,0x03,0x08,0xb8,0x24,0x00,0x92,0x32,0x40,0x10,0x82,
0x32,0x40,0x08,0x92,0x32,0x40,0x10,0x82,0x32,0x40,0x20,0x92,0x32,0x40,0x10,
0x82,0x32,0x40,0x20,0x92,0x32,0x40,0x10,0x82,0x32,0x40,0x08,0x92,0x32,0x40,
0x10,0x82,0x32,0x40,0x20,0x92,0x43,0x40,0x10,0x82,0x43,0x40,0x50,0x92,0x37,
0x40,0x10,0x82,0x37,0x40,0x50,0x92,0x37,0x40,0x10,0x82,0x37,0x40,0x38,0x92,
0x34,0x40,0x10,0x82,0x34,0x40,0x38,0x92,0x30,0x40,0x10,0x82,0x30,0x40,0x38,
0x92,0x35,0x40,0x10,0x82,0x35,0x40,0x20,0x92,0x37,0x40,0x10,0x82,0x37,0x40,
0x20,0x92,0x36,0x40,0x10,0x82,0x36,0x40,0x08,0x92,0x35,0x40,0x10,0x82,0x35,
0x40,0x20,0x92,0x34,0x40,0x10,0x82,0x34,0x40,0x10,0x92,0x3c,0x40,0x10,0x82,
0x3c,0x40,0x10,0x92,0x40,0x40,0x10,0x82,0x40,0x40,0x10,0x92,0x41,0x40,0x10,
0x82,0x41,0x40,0x20,0x92,0x3e,0x40,0x10,0x82,0x3e,0x40,0x08,0x92,0x40,0x40,
0x10,0x82,0x40,0x40,0x20,0x92,0x3c,0x40,0x10,0x82,0x3c,0x40,0x20,0x92,0x39,
0x40,0x10,0x82,0x39,0x40,0x08,0x92,0x3b,0x40,0x10,0x82,0x3b,0x40,0x08,0x92,
0x37,0x40,0x10,0x82,0x37,0x40,0x38,0x92,0x37,0x40,0x10,0x82,0x37,0x40,0x38,
0x92,0x34,0x40,0x10,0x82,0x34,0x40,0x38,0x92,0x30,0x40,0x10,0x82,0x30,0x40,
0x38,0x92,0x35,0x40,0x10,0x82,0x35,0x40,0x20,0x92,0x37,0x40,0x10,0x82,0x37,
0x40,0x20,0x92,0x36,0x40,0x10,0x82,0x36,0x40,0x08,0x92,0x35,0x40,0x10,0x82,
0x35,0x40,0x20,0x92,0x34,0x40,0x10,0x82,0x34,0x40,0x10,0x92,0x3c,0x40,0x10,
0x82,0x3c,0x40,0x10,0x92,0x40,0x40,0x10,0x82,0x40,0x40,0x10,0x92,0x41,0x40,
0x10,0x82,0x41,0x40,0x20,0x92,0x3e,0x40,0x10,0x82,0x3e,0x40,0x08,0x92,0x40,
0x40,0x10,0x82,0x40,0x40,0x20,0x92,0x3c,0x40,0x10,0x82,0x3c,0x40,0x20,0x92,
0x39,0x40,0x10,0x82,0x39,0x40,0x08,0x92,0x3b,0x40,0x10,0x82,0x3b,0x40,0x08,
0x92,0x37,0x40,0x10,0x82,0x37,0x40,0x38,0x92,0x30,0x40,0x10,0x82,0x30,0x40,
0x38,0x92,0x37,0x40,0x10,0x82,0x37,0x40,0x38,0x92,0x3c,0x40,0x10,0x82,0x3c,
0x40,0x20,0x92,0x35,0x40,0x10,0x82,0x35,0x40,0x38,0x92,0x3c,0x40,0x10,0x82,
0x3c,0x40,0x08,0x92,0x3c,0x40,0x10,0x82,0x3c,0x40,0x20,0x92,0x35,0x40,0x10,
0x82,0x35,0x40,0x20,0x92,0x30,0x40,0x10,0x82,0x30,0x40,0x38,0x92,0x34,0x40,
0x10,0x82,0x34,0x40,0x38,0x92,0x37,0x40,0x10,0x82,0x37,0x40,0x08,0x92,0x3c,
0x40,0x10,0x82,0x3c,0x40,0x20,0x92,0x4f,0x40,0x10,0x82,0x4f,0x40,0x20,0x92,
0x4f,0x40,0x10,0x82,0x4f,0x40,0x08,0x92,0x4f,0x40,0x10,0x82,0x4f,0x40,0x20,
0x92,0x37,0x40,0x10,0x82,0x37,0x40,0x20,0x92,0x30,0x40,0x10,0x82,0x30,0x40,
0x38,0x92,0x37,0x40,0x10,0x82,0x37,0x40,0x38,0x92,0x3c,0x40,0x10,0x82,0x3c,
0x40,0x20,0x92,0x35,0x40,0x10,0x82,0x35,0x40,0x38,0x92,0x3c,0x40,0x10,0x82,
0x3c,0x40,0x08,0x92,0x3c,0x40,0x10,0x82,0x3c,0x40,0x20,0x92,0x35,0x40,0x10,
0x82,0x35,0x40,0x20,0x92,0x30,0x40,0x10,0x82,0x30,0x40,0x20,0x92,0x38,0x40,
0x10,0x82,0x38,0x40,0x38,0x92,0x3a,0x40,0x10,0x82,0x3a,0x40,0x38,0x92,0x3c,
0x40,0x10,0x82,0x3c,0x40,0x38,0x92,0x37,0x40,0x10,0x82,0x37,0x40,0x08,0x92,
0x37,0x40,0x10,0x82,0x37,0x40,0x20,0x92,0x30,0x40,0x10,0x82,0x30,0x40,0x20,
0x92,0x30,0x40,0x10,0x82,0x30,0x40,0x38,0x92,0x37,0x40,0x10,0x82,0x37,0x40,
0x38,0x92,0x3c,0x40,0x10,0x82,0x3c,0x40,0x20,0x92,0x35,0x40,0x10,0x82,0x35,
0x40,0x38,0x92,0x3c,0x40,0x10,0x82,0x3c,0x40,0x08,0x92,0x3c,0x40,0x10,0x82,
0x3c,0x40,0x20,0x92,0x35,0x40,0x10,0x82,0x35,0x40,0x20,0x92,0x30,0x40,0x10,
0x82,0x30,0x40,0x38,0x92,0x34,0x40,0x10,0x82,0x34,0x40,0x38,0x92,0x37,0x40,
0x10,0x82,0x37,0x40,0x08,0x92,0x3c,0x40,0x10,0x82,0x3c,0x40,0x20,0x92,0x4f,
0x40,0x10,0x82,0x4f,0x40,0x20,0x92,0x4f,0x40,0x10,0x82,0x4f,0x40,0x08,0x92,
0x4f,0x40,0x10,0x82,0x4f,0x40,0x20,0x92,0x37,0x40,0x10,0x82,0x37,0x40,0x20,
0x92,0x30,0x40,0x10,0x82,0x30,0x40,0x38,0x92,0x37,0x40,0x10,0x82,0x37,0x40,
0x38,0x92,0x3c,0x40,0x10,0x82,0x3c,0x40,0x20,0x92,0x35,0x40,0x10,0x82,0x35,
0x40,0x38,0x92,0x3c,0x40,0x10,0x82,0x3c,0x40,0x08,0x92,0x3c,0x40,0x10,0x82,
0x3c,0x40,0x20,0x92,0x35,0x40,0x10,0x82,0x35,0x40,0x20,0x92,0x30,0x40,0x10,
0x82,0x30,0x40,0x20,0x92,0x38,0x40,0x10,0x82,0x38,0x40,0x38,0x92,0x3a,0x40,
0x10,0x82,0x3a,0x40,0x38,0x92,0x3c,0x40,0x10,0x82,0x3c,0x40,0x38,0x92,0x37,
0x40,0x10,0x82,0x37,0x40,0x08,0x92,0x37,0x40,0x10,0x82,0x37,0x40,0x20,0x92,
0x30,0x40,0x10,0x82,0x30,0x40,0x20,0x92,0x2c,0x40,0x10,0x82,0x2c,0x40,0x38,
0x92,0x33,0x40,0x10,0x82,0x33,0x40,0x38,0x92,0x38,0x40,0x10,0x82,0x38,0x40,
0x20,0x92,0x37,0x40,0x10,0x82,0x37,0x40,0x38,0x92,0x30,0x40,0x10,0x82,0x30,
0x40,0x38,0x92,0x2b,0x40,0x10,0x82,0x2b,0x40,0x20,0x92,0x2c,0x40,0x10,0x82,
0x2c,0x40,0x38,0x92,0x33,0x40,0x10,0x82,0x33,0x40,0x38,0x92,0x38,0x40,0x10,
0x82,0x38,0x40,0x20,0x92,0x37,0x40,0x10,0x82,0x37,0x40,0x38,0x92,0x30,0x40,
0x10,0x82,0x30,0x40,0x38,0x92,0x2b,0x40,0x10,0x82,0x2b,0x40,0x20,0x92,0x2c,
0x40,0x10,0x82,0x2c,0x40,0x38,0x92,0x33,0x40,0x10,0x82,0x33,0x40,0x38,0x92,
0x38,0x40,0x10,0x82,0x38,0x40,0x20,0x92,0x37,0x40,0x10,0x82,0x37,0x40,0x38,
0x92,0x30,0x40,0x10,0x82,0x30,0x40,0x38,0x92,0x2b,0x40,0x10,0x82,0x2b,0x40,
0x20,0x92,0x32,0x40,0x10,0x82,0x32,0x40,0x08,0x92,0x32,0x40,0x10,0x82,0x32,
0x40,0x20,0x92,0x32,0x40,0x10,0x82,0x32,0x40,0x20,0x92,0x32,0x40,0x10,0x82,
0x32,0x40,0x08,0x92,0x32,0x40,0x10,0x82,0x32,0x40,0x20,0x92,0x43,0x40,0x10,
0x82,0x43,0x40,0x50,0x92,0x37,0x40,0x10,0x82,0x37,0x40,0x50,0x92,0x37,0x40,
0x10,0x82,0x37,0x40,0x38,0x92,0x34,0x40,0x10,0x82,0x34,0x40,0x38,0x92,0x30,
0x40,0x10,0x82,0x30,0x40,0x38,0x92,0x35,0x40,0x10,0x82,0x35,0x40,0x20,0x92,
0x37,0x40,0x10,0x82,0x37,0x40,0x20,0x92,0x36,0x40,0x10,0x82,0x36,0x40,0x08,
0x92,0x35,0x40,0x10,0x82,0x35,0x40,0x20,0x92,0x34,0x40,0x10,0x82,0x34,0x40,
0x10,0x92,0x3c,0x40,0x10,0x82,0x3c,0x40,0x10,0x92,0x40,0x40,0x10,0x82,0x40,
0x40,0x10,0x92,0x41,0x40,0x10,0x82,0x41,0x40,0x20,0x92,0x3e,0x40,0x10,0x82,
0x3e,0x40,0x08,0x92,0x40,0x40,0x10,0x82,0x40,0x40,0x20,0x92,0x3c,0x40,0x10,
0x82,0x3c,0x40,0x20,0x92,0x39,0x40,0x10,0x82,0x39,0x40,0x08,0x92,0x3b,0x40,
0x10,0x82,0x3b,0x40,0x08,0x92,0x37,0x40,0x10,0x82,0x37,0x40,0x38,0x92,0x37,
0x40,0x10,0x82,0x37,0x40,0x38,0x92,0x34,0x40,0x10,0x82,0x34,0x40,0x38,0x92,
0x30,0x40,0x10,0x82,0x30,0x40,0x38,0x92,0x35,0x40,0x10,0x82,0x35,0x40,0x20,
0x92,0x37,0x40,0x10,0x82,0x37,0x40,0x20,0x92,0x36,0x40,0x10,0x82,0x36,0x40,
0x08,0x92,0x35,0x40,0x10,0x82,0x35,0x40,0x20,0x92,0x34,0x40,0x10,0x82,0x34,
0x40,0x10,0x92,0x3c,0x40,0x10,0x82,0x3c,0x40,0x10,0x92,0x40,0x40,0x10,0x82,
0x40,0x40,0x10,0x92,0x41,0x40,0x10,0x82,0x41,0x40,0x20,0x92,0x3e,0x40,0x10,
0x82,0x3e,0x40,0x08,0x92,0x40,0x40,0x10,0x82,0x40,0x40,0x20,0x92,0x3c,0x40,
0x10,0x82,0x3c,0x40,0x20,0x92,0x39,0x40,0x10,0x82,0x39,0x40,0x08,0x92,0x3b,
0x40,0x10,0x82,0x3b,0x40,0x08,0x92,0x37,0x40,0x10,0x82,0x37,0x40,0x38,0x92,
0x30,0x40,0x10,0x82,0x30,0x40,0x38,0x92,0x36,0x40,0x10,0x82,0x36,0x40,0x08,
0x92,0x37,0x40,0x10,0x82,0x37,0x40,0x20,0x92,0x3c,0x40,0x10,0x82,0x3c,0x40,
0x20,0x92,0x35,0x40,0x10,0x82,0x35,0x40,0x20,0x92,0x35,0x40,0x10,0x82,0x35,
0x40,0x20,0x92,0x3c,0x40,0x10,0x82,0x3c,0x40,0x08,0x92,0x3c,0x40,0x10,0x82,
0x3c,0x40,0x08,0x92,0x35,0x40,0x10,0x82,0x35,0x40,0x20,0x92,0x32,0x40,0x10,
0x82,0x32,0x40,0x38,0x92,0x35,0x40,0x10,0x82,0x35,0x40,0x08,0x92,0x37,0x40,
0x10,0x82,0x37,0x40,0x20,0x92,0x3b,0x40,0x10,0x82,0x3b,0x40,0x20,0x92,0x37,
0x40,0x10,0x82,0x37,0x40,0x20,0x92,0x37,0x40,0x10,0x82,0x37,0x40,0x20,0x92,
0x3c,0x40,0x10,0x82,0x3c,0x40,0x08,0x92,0x3c,0x40,0x10,0x82,0x3c,0x40,0x08,
0x92,0x37,0x40,0x10,0x82,0x37,0x40,0x20,0x92,0x30,0x40,0x10,0x82,0x30,0x40,
0x38,0x92,0x36,0x40,0x10,0x82,0x36,0x40,0x08,0x92,0x37,0x40,0x10,0x82,0x37,
0x40,0x20,0x92,0x3c,0x40,0x10,0x82,0x3c,0x40,0x20,0x92,0x35,0x40,0x10,0x82,
0x35,0x40,0x20,0x92,0x35,0x40,0x10,0x82,0x35,0x40,0x20,0x92,0x3c,0x40,0x10,
0x82,0x3c,0x40,0x08,0x92,0x3c,0x40,0x10,0x82,0x3c,0x40,0x08,0x92,0x35,0x40,
0x10,0x82,0x35,0x40,0x20,0x92,0x37,0x40,0x10,0x82,0x37,0x40,0x08,0x92,0x37,
0x40,0x10,0x82,0x37,0x40,0x20,0x92,0x37,0x40,0x10,0x82,0x37,0x40,0x08,0x92,
0x37,0x40,0x10,0x82,0x37,0x40,0x10,0x92,0x39,0x40,0x10,0x82,0x39,0x40,0x10,
0x92,0x3b,0x40,0x10,0x82,0x3b,0x40,0x10,0x92,0x3c,0x40,0x10,0x82,0x3c,0x40,
0x20,0x92,0x37,0x40,0x10,0x82,0x37,0x40,0x20,0x92,0x30,0x40,0x10,0x82,0x30,
0x40,0x50,0x92,0x30,0x40,0x10,0x82,0x30,0x40,0x38,0x92,0x36,0x40,0x10,0x82,
0x36,0x40,0x08,0x92,0x37,0x40,0x10,0x82,0x37,0x40,0x20,0x92,0x3c,0x40,0x10,
0x82,0x3c,0x40,0x20,0x92,0x35,0x40,0x10,0x82,0x35,0x40,0x20,0x92,0x35,0x40,
0x10,0x82,0x35,0x40,0x20,0x92,0x3c,0x40,0x10,0x82,0x3c,0x40,0x08,0x92,0x3c,
0x40,0x10,0x82,0x3c,0x40,0x08,0x92,0x35,0x40,0x10,0x82,0x35,0x40,0x20,0x92,
0x32,0x40,0x10,0x82,0x32,0x40,0x38,0x92,0x35,0x40,0x10,0x82,0x35,0x40,0x08,
0x92,0x37,0x40,0x10,0x82,0x37,0x40,0x20,0x92,0x3b,0x40,0x10,0x82,0x3b,0x40,
0x20,0x92,0x37,0x40,0x10,0x82,0x37,0x40,0x20,0x92,0x37,0x40,0x10,0x82,0x37,
0x40,0x20,0x92,0x3c,0x40,0x10,0x82,0x3c,0x40,0x08,0x92,0x3c,0x40,0x10,0x82,
0x3c,0x40,0x08,0x92,0x37,0x40,0x10,0x82,0x37,0x40,0x20,0x92,0x30,0x40,0x10,
0x82,0x30,0x40,0x38,0x92,0x36,0x40,0x10,0x82,0x36,0x40,0x08,0x92,0x37,0x40,
0x10,0x82,0x37,0x40,0x20,0x92,0x3c,0x40,0x10,0x82,0x3c,0x40,0x20,0x92,0x35,
0x40,0x10,0x82,0x35,0x40,0x20,0x92,0x35,0x40,0x10,0x82,0x35,0x40,0x20,0x92,
0x3c,0x40,0x10,0x82,0x3c,0x40,0x08,0x92,0x3c,0x40,0x10,0x82,0x3c,0x40,0x08,
0x92,0x35,0x40,0x10,0x82,0x35,0x40,0x20,0x92,0x37,0x40,0x10,0x82,0x37,0x40,
0x08,0x92,0x37,0x40,0x10,0x82,0x37,0x40,0x20,0x92,0x37,0x40,0x10,0x82,0x37,
0x40,0x08,0x92,0x37,0x40,0x10,0x82,0x37,0x40,0x10,0x92,0x39,0x40,0x10,0x82,
0x39,0x40,0x10,0x92,0x3b,0x40,0x10,0x82,0x3b,0x40,0x10,0x92,0x3c,0x40,0x10,
0x82,0x3c,0x40,0x20,0x92,0x37,0x40,0x10,0x82,0x37,0x40,0x20,0x92,0x30,0x40,
0x10,0x82,0x30,0x40,0x50,0x92,0x2c,0x40,0x10,0x82,0x2c,0x40,0x38,0x92,0x33,
0x40,0x10,0x82,0x33,0x40,0x38,0x92,0x38,0x40,0x10,0x82,0x38,0x40,0x20,0x92,
0x37,0x40,0x10,0x82,0x37,0x40,0x38,0x92,0x30,0x40,0x10,0x82,0x30,0x40,0x38,
0x92,0x2b,0x40,0x10,0x82,0x2b,0x40,0x20,0x92,0x2c,0x40,0x10,0x82,0x2c,0x40,
0x38,0x92,0x33,0x40,0x10,0x82,0x33,0x40,0x38,0x92,0x38,0x40,0x10,0x82,0x38,
0x40,0x20,0x92,0x37,0x40,0x10,0x82,0x37,0x40,0x38,0x92,0x30,0x40,0x10,0x82,
0x30,0x40,0x38,0x92,0x2b,0x40,0x10,0x82,0x2b,0x40,0x20,0x92,0x2c,0x40,0x10,
0x82,0x2c,0x40,0x38,0x92,0x33,0x40,0x10,0x82,0x33,0x40,0x38,0x92,0x38,0x40,
0x10,0x82,0x38,0x40,0x20,0x92,0x37,0x40,0x10,0x82,0x37,0x40,0x38,0x92,0x30,
0x40,0x10,0x82,0x30,0x40,0x38,0x92,0x2b,0x40,0x10,0x82,0x2b,0x40,0x20,0x92,
0x32,0x40,0x10,0x82,0x32,0x40,0x08,0x92,0x32,0x40,0x10,0x82,0x32,0x40,0x20,
0x92,0x32,0x40,0x10,0x82,0x32,0x40,0x20,0x92,0x32,0x40,0x10,0x82,0x32,0x40,
0x08,0x92,0x32,0x40,0x10,0x82,0x32,0x40,0x20,0x92,0x43,0x40,0x10,0x82,0x43,
0x40,0x50,0x92,0x37,0x40,0x10,0x82,0x37,0x40,0x50,0x92,0x30,0x40,0x10,0x82,
0x30,0x40,0x38,0x92,0x36,0x40,0x10,0x82,0x36,0x40,0x08,0x92,0x37,0x40,0x10,
0x82,0x37,0x40,0x20,0x92,0x3c,0x40,0x10,0x82,0x3c,0x40,0x20,0x92,0x35,0x40,
0x10,0x82,0x35,0x40,0x20,0x92,0x35,0x40,0x10,0x82,0x35,0x40,0x20,0x92,0x3c,
0x40,0x10,0x82,0x3c,0x40,0x08,0x92,0x3c,0x40,0x10,0x82,0x3c,0x40,0x08,0x92,
0x35,0x40,0x10,0x82,0x35,0x40,0x20,0x92,0x32,0x40,0x10,0x82,0x32,0x40,0x38,
0x92,0x35,0x40,0x10,0x82,0x35,0x40,0x08,0x92,0x37,0x40,0x10,0x82,0x37,0x40,
0x20,0x92,0x3b,0x40,0x10,0x82,0x3b,0x40,0x20,0x92,0x37,0x40,0x10,0x82,0x37,
0x40,0x20,0x92,0x37,0x40,0x10,0x82,0x37,0x40,0x20,0x92,0x3c,0x40,0x10,0x82,
0x3c,0x40,0x08,0x92,0x3c,0x40,0x10,0x82,0x3c,0x40,0x08,0x92,0x37,0x40,0x10,
0x82,0x37,0x40,0x20,0x92,0x30,0x40,0x10,0x82,0x30,0x40,0x38,0x92,0x36,0x40,
0x10,0x82,0x36,0x40,0x08,0x92,0x37,0x40,0x10,0x82,0x37,0x40,0x20,0x92,0x3c,
0x40,0x10,0x82,0x3c,0x40,0x20,0x92,0x35,0x40,0x10,0x82,0x35,0x40,0x20,0x92,
0x35,0x40,0x10,0x82,0x35,0x40,0x20,0x92,0x3c,0x40,0x10,0x82,0x3c,0x40,0x08,
0x92,0x3c,0x40,0x10,0x82,0x3c,0x40,0x08,0x92,0x35,0x40,0x10,0x82,0x35,0x40,
0x20,0x92,0x37,0x40,0x10,0x82,0x37,0x40,0x08,0x92,0x37,0x40,0x10,0x82,0x37,
0x40,0x20,0x92,0x37,0x40,0x10,0x82,0x37,0x40,0x08,0x92,0x37,0x40,0x10,0x82,
0x37,0x40,0x10,0x92,0x39,0x40,0x10,0x82,0x39,0x40,0x10,0x92,0x3b,0x40,0x10,
0x82,0x3b,0x40,0x10,0x92,0x3c,0x40,0x10,0x82,0x3c,0x40,0x20,0x92,0x37,0x40,
0x10,0x82,0x37,0x40,0x20,0x92,0x30,0x40,0x10,0x82,0x30,0x40,0x00,0xff,0x2f,
0x00,0x4d,0x54,0x72,0x6b,0x00,0x00,0x0b,0xf8,0x00,0xff,0x03,0x0a,0x50,0x65,
0x72,0x63,0x75,0x73,0x73,0x69,0x6f,0x6e,0x00,0xb9,0x00,0x00,0x00,0xc9,0x00,
0x00,0xff,0x58,0x04,0x04,0x02,0x60,0x08,0x00,0xff,0x51,0x03,0x08,0xb8,0x24,
0x00,0x99,0x2a,0x60,0x20,0x89,0x2a,0x40,0x10,0x99,0x2a,0x60,0x10,0x89,0x2a,
0x40,0x08,0x99,0x2a,0x60,0x20,0x89,0x2a,0x40,0x10,0x99,0x2a,0x60,0x10,0x89,
0x2a,0x40,0x08,0x99,0x2a,0x60,0x20,0x89,0x2a,0x40,0x10,0x99,0x2a,0x60,0x20,
0x89,0x2a,0x40,0x28,0x99,0x2a,0x60,0x20,0x89,0x2a,0x40,0x10,0x99,0x2a,0x60,
0x10,0x89,0x2a,0x40,0x08,0x99,0x2a,0x60,0x10,0x89,0x2a,0x40,0x08,0x99,0x2a,
0x60,0x10,0x89,0x2a,0x40,0x08,0x99,0x2a,0x60,0x10,0x89,0x2a,0x40,0x20,0x99,
0x2a,0x60,0x10,0x89,0x2a,0x40,0x10,0x99,0x2a,0x60,0x10,0x89,0x2a,0x40,0x00,
0x99,0x2a,0x60,0x20,0x89,0x2a,0x40,0x10,0x99,0x2a,0x60,0x10,0x89,0x2a,0x40,
0x10,0x99,0x2a,0x60,0x10,0x89,0x2a,0x40,0x00,0x99,0x2a,0x60,0x10,0x89,0x2a,
0x40,0x20,0x99,0x2a,0x60,0x10,0x89,0x2a,0x40,0x10,0x99,0x2a,0x60,0x10,0x89,
0x2a,0x40,0x00,0x99,0x2a,0x60,0x20,0x89,0x2a,0x40,0x10,0x99,0x2a,0x60,0x10,
0x89,0x2a,0x40,0x10,0x99,0x2a,0x60,0x10,0x89,0x2a,0x40,0x00,0x99,0x2a,0x60,
0x10,0x89,0x2a,0x40,0x20,0x99,0x2a,0x60,0x10,0x89,0x2a,0x40,0x10,0x99,0x2a,
0x60,0x10,0x89,0x2a,0x40,0x00,0x99,0x2a,0x60,0x20,0x89,0x2a,0x40,0x10,0x99,
0x2a,0x60,0x10,0x89,0x2a,0x40,0x10,0x99,0x2a,0x60,0x10,0x89,0x2a,0x40,0x00,
0x99,0x2a,0x60,0x10,0x89,0x2a,0x40,0x20,0x99,0x2a,0x60,0x10,0x89,0x2a,0x40,
0x10,0x99,0x2a,0x60,0x10,0x89,0x2a,0x40,0x00,0x99,0x2a,0x60,0x20,0x89,0x2a,
0x40,0x10,0x99,0x2a,0x60,0x10,0x89,0x2a,0x40,0x10,0x99,0x2a,0x60,0x10,0x89,
0x2a,0x40,0x00,0x99,0x2a,0x60,0x10,0x89,0x2a,0x40,0x20,0x99,0x2a,0x60,0x10,
0x89,0x2a,0x40,0x10,0x99,0x2a,0x60,0x10,0x89,0x2a,0x40,0x00,0x99,0x2a,0x60,
0x20,0x89,0x2a,0x40,0x10,0x99,0x2a,0x60,0x10,0x89,0x2a,0x40,0x10,0x99,0x2a,
0x60,0x10,0x89,0x2a,0x40,0x00,0x99,0x2a,0x60,0x10,0x89,0x2a,0x40,0x20,0x99,
0x2a,0x60,0x10,0x89,0x2a,0x40,0x10,0x99,0x2a,0x60,0x10,0x89,0x2a,0x40,0x00,
0x99,0x2a,0x60,0x20,0x89,0x2a,0x40,0x10,0x99,0x2a,0x60,0x10,0x89,0x2a,0x40,
0x10,0x99,0x2a,0x60,0x10,0x89,0x2a,0x40,0x00,0x99,0x2a,0x60,0x10,0x89,0x2a,
0x40,0x20,0x99,0x2a,0x60,0x10,0x89,0x2a,0x40,0x10,0x99,0x2a,0x60,0x10,0x89,
0x2a,0x40,0x00,0x99,0x2a,0x60,0x20,0x89,0x2a,0x40,0x10,0x99,0x2a,0x60,0x10,
0x89,0x2a,0x40,0x10,0x99,0x2a,0x60,0x10,0x89,0x2a,0x40,0x00,0x99,0x2a,0x60,
0x10,0x89,0x2a,0x40,0x20,0x99,0x2a,0x60,0x10,0x89,0x2a,0x40,0x10,0x99,0x2a,
0x60,0x10,0x89,0x2a,0x40,0x00,0x99,0x2a,0x60,0x20,0x89,0x2a,0x40,0x10,0x99,
0x2a,0x60,0x10,0x89,0x2a,0x40,0x10,0x99,0x2a,0x60,0x10,0x89,0x2a,0x40,0x00,
0x99,0x2a,0x60,0x10,0x89,0x2a,0x40,0x20,0x99,0x2a,0x60,0x10,0x89,0x2a,0x40,
0x10,0x99,0x2a,0x60,0x10,0x89,0x2a,0x40,0x00,0x99,0x2a,0x60,0x20,0x89,0x2a,
0x40,0x10,0x99,0x2a,0x60,0x10,0x89,0x2a,0x40,0x10,0x99,0x2a,0x60,0x10,0x89,
0x2a,0x40,0x00,0x99,0x2a,0x60,0x10,0x89,0x2a,0x40,0x20,0x99,0x2a,0x60,0x10,
0x89,0x2a,0x40,0x10,0x99,0x2a,0x60,0x10,0x89,0x2a,0x40,0x00,0x99,0x2a,0x60,
0x20,0x89,0x2a,0x40,0x10,0x99,0x2a,0x60,0x10,0x89,0x2a,0x40,0x10,0x99,0x2a,
0x60,0x10,0x89,0x2a,0x40,0x00,0x99,0x2a,0x60,0x10,0x89,0x2a,0x40,0x20,0x99,
0x2a,0x60,0x10,0x89,0x2a,0x40,0x10,0x99,0x2a,0x60,0x10,0x89,0x2a,0x40,0x00,
0x99,0x2a,0x60,0x20,0x89,0x2a,0x40,0x10,0x99,0x2a,0x60,0x10,0x89,0x2a,0x40,
0x10,0x99,0x2a,0x60,0x10,0x89,0x2a,0x40,0x00,0x99,0x2a,0x60,0x10,0x89,0x2a,
0x40,0x20,0x99,0x2a,0x60,0x10,0x89,0x2a,0x40,0x10,0x99,0x2a,0x60,0x10,0x89,
0x2a,0x40,0x00,0x99,0x2a,0x60,0x20,0x89,0x2a,0x40,0x10,0x99,0x2a,0x60,0x10,
0x89,0x2a,0x40,0x10,0x99,0x2a,0x60,0x10,0x89,0x2a,0x40,0x00,0x99,0x2a,0x60,
0x10,0x89,0x2a,0x40,0x20,0x99,0x2a,0x60,0x10,0x89,0x2a,0x40,0x10,0x99,0x2a,
0x60,0x10,0x89,0x2a,0x40,0x00,0x99,0x2a,0x60,0x20,0x89,0x2a,0x40,0x10,0x99,
0x2a,0x60,0x10,0x89,0x2a,0x40,0x10,0x99,0x2a,0x60,0x10,0x89,0x2a,0x40,0x00,
0x99,0x2a,0x60,0x10,0x89,0x2a,0x40,0x20,0x99,0x2a,0x60,0x10,0x89,0x2a,0x40,
0x10,0x99,0x2a,0x60,0x10,0x89,0x2a,0x40,0x00,0x99,0x2a,0x60,0x20,0x89,0x2a,
0x40,0x10,0x99,0x2a,0x60,0x10,0x89,0x2a,0x40,0x10,0x99,0x2a,0x60,0x10,0x89,
0x2a,0x40,0x00,0x99,0x2a,0x60,0x10,0x89,0x2a,0x40,0x20,0x99,0x2a,0x60,0x10,
0x89,0x2a,0x40,0x10,0x99,0x2a,0x60,0x10,0x89,0x2a,0x40,0x00,0x99,0x2a,0x60,
0x20,0x89,0x2a,0x40,0x10,0x99,0x2a,0x60,0x10,0x89,0x2a,0x40,0x10,0x99,0x2a,
0x60,0x10,0x89,0x2a,0x40,0x00,0x99,0x2a,0x60,0x10,0x89,0x2a,0x40,0x20,0x99,
0x2a,0x60,0x10,0x89,0x2a,0x40,0x10,0x99,0x2a,0x60,0x10,0x89,0x2a,0x40,0x00,
0x99,0x2a,0x60,0x20,0x89,0x2a,0x40,0x10,0x99,0x2a,0x60,0x10,0x89,0x2a,0x40,
0x10,0x99,0x2a,0x60,0x10,0x89,0x2a,0x40,0x00,0x99,0x2a,0x60,0x10,0x89,0x2a,
0x40,0x20,0x99,0x2a,0x60,0x10,0x89,0x2a,0x40,0x10,0x99,0x2a,0x60,0x10,0x89,
0x2a,0x40,0x00,0x99,0x2a,0x60,0x20,0x89,0x2a,0x40,0x10,0x99,0x2a,0x60,0x10,
0x89,0x2a,0x40,0x10,0x99,0x2a,0x60,0x10,0x89,0x2a,0x40,0x00,0x99,0x2a,0x60,
0x10,0x89,0x2a,0x40,0x20,0x99,0x2a,0x60,0x10,0x89,0x2a,0x40,0x10,0x99,0x2a,
0x60,0x10,0x89,0x2a,0x40,0x00,0x99,0x2a,0x60,0x20,0x89,0x2a,0x40,0x10,0x99,
0x2a,0x60,0x10,0x89,0x2a,0x40,0x10,0x99,0x2a,0x60,0x10,0x89,0x2a,0x40,0x00,
0x99,0x2a,0x60,0x10,0x89,0x2a,0x40,0x20,0x99,0x2a,0x60,0x10,0x89,0x2a,0x40,
0x10,0x99,0x2a,0x60,0x10,0x89,0x2a,0x40,0x00,0x99,0x2a,0x60,0x20,0x89,0x2a,
0x40,0x10,0x99,0x2a,0x60,0x10,0x89,0x2a,0x40,0x10,0x99,0x2a,0x60,0x10,0x89,
0x2a,0x40,0x00,0x99,0x2a,0x60,0x10,0x89,0x2a,0x40,0x20,0x99,0x2a,0x60,0x10,
0x89,0x2a,0x40,0x10,0x99,0x2a,0x60,0x10,0x89,0x2a,0x40,0x00,0x99,0x2a,0x60,
0x20,0x89,0x2a,0x40,0x10,0x99,0x2a,0x60,0x10,0x89,0x2a,0x40,0x10,0x99,0x2a,
0x60,0x10,0x89,0x2a,0x40,0x00,0x99,0x2a,0x60,0x10,0x89,0x2a,0x40,0x20,0x99,
0x2a,0x60,0x10,0x89,0x2a,0x40,0x10,0x99,0x2a,0x60,0x10,0x89,0x2a,0x40,0x00,
0x99,0x2a,0x60,0x20,0x89,0x2a,0x40,0x10,0x99,0x2a,0x60,0x10,0x89,0x2a,0x40,
0x10,0x99,0x2a,0x60,0x10,0x89,0x2a,0x40,0x00,0x99,0x2a,0x60,0x10,0x89,0x2a,
0x40,0x20,0x99,0x2a,0x60,0x10,0x89,0x2a,0x40,0x10,0x99,0x2a,0x60,0x10,0x89,
0x2a,0x40,0x00,0x99,0x2a,0x60,0x20,0x89,0x2a,0x40,0x10,0x99,0x2a,0x60,0x10,
0x89,0x2a,0x40,0x10,0x99,0x2a,0x60,0x10,0x89,0x2a,0x40,0x00,0x99,0x2a,0x60,
0x10,0x89,0x2a,0x40,0x20,0x99,0x2a,0x60,0x10,0x89,0x2a,0x40,0x10,0x99,0x2a,
0x60,0x10,0x89,0x2a,0x40,0x00,0x99,0x2a,0x60,0x20,0x89,0x2a,0x40,0x10,0x99,
0x2a,0x60,0x10,0x89,0x2a,0x40,0x10,0x99,0x2a,0x60,0x10,0x89,0x2a,0x40,0x00,
0x99,0x2a,0x60,0x10,0x89,0x2a,0x40,0x20,0x99,0x2a,0x60,0x10,0x89,0x2a,0x40,
0x10,0x99,0x2a,0x60,0x10,0x89,0x2a,0x40,0x00,0x99,0x2a,0x60,0x20,0x89,0x2a,
0x40,0x10,0x99,0x2a,0x60,0x10,0x89,0x2a,0x40,0x10,0x99,0x2a,0x60,0x10,0x89,
0x2a,0x40,0x00,0x99,0x2a,0x60,0x20,0x89,0x2a,0x40,0x10,0x99,0x2a,0x60,0x10,
0x89,0x2a,0x40,0x08,0x99,0x2a,0x60,0x20,0x89,0x2a,0x40,0x10,0x99,0x2a,0x60,
0x10,0x89,0x2a,0x40,0x08,0x99,0x2a,0x60,0x20,0x89,0x2a,0x40,0x10,0x99,0x2a,
0x60,0x20,0x89,0x2a,0x40,0x28,0x99,0x2a,0x60,0x20,0x89,0x2a,0x40,0x10,0x99,
0x2a,0x60,0x10,0x89,0x2a,0x40,0x08,0x99,0x2a,0x60,0x10,0x89,0x2a,0x40,0x08,
0x99,0x2a,0x60,0x10,0x89,0x2a,0x40,0x08,0x99,0x2a,0x60,0x20,0x89,0x2a,0x40,
0x10,0x99,0x2a,0x60,0x10,0x89,0x2a,0x40,0x08,0x99,0x2a,0x60,0x20,0x89,0x2a,
0x40,0x10,0x99,0x2a,0x60,0x10,0x89,0x2a,0x40,0x08,0x99,0x2a,0x60,0x20,0x89,
0x2a,0x40,0x10,0x99,0x2a,0x60,0x20,0x89,0x2a,0x40,0x28,0x99,0x2a,0x60,0x20,
0x89,0x2a,0x40,0x10,0x99,0x2a,0x60,0x10,0x89,0x2a,0x40,0x08,0x99,0x2a,0x60,
0x10,0x89,0x2a,0x40,0x08,0x99,0x2a,0x60,0x10,0x89,0x2a,0x40,0x08,0x99,0x2a,
0x60,0x20,0x89,0x2a,0x40,0x10,0x99,0x2a,0x60,0x10,0x89,0x2a,0x40,0x08,0x99,
0x2a,0x60,0x20,0x89,0x2a,0x40,0x10,0x99,0x2a,0x60,0x10,0x89,0x2a,0x40,0x08,
0x99,0x2a,0x60,0x20,0x89,0x2a,0x40,0x10,0x99,0x2a,0x60,0x20,0x89,0x2a,0x40,
0x28,0x99,0x2a,0x60,0x20,0x89,0x2a,0x40,0x10,0x99,0x2a,0x60,0x10,0x89,0x2a,
0x40,0x08,0x99,0x2a,0x60,0x10,0x89,0x2a,0x40,0x08,0x99,0x2a,0x60,0x10,0x89,
0x2a,0x40,0x08,0x99,0x2a,0x60,0x20,0x89,0x2a,0x40,0x10,0x99,0x2a,0x60,0x10,
0x89,0x2a,0x40,0x08,0x99,0x2a,0x60,0x20,0x89,0x2a,0x40,0x10,0x99,0x2a,0x60,
0x10,0x89,0x2a,0x40,0x08,0x99,0x2a,0x60,0x20,0x89,0x2a,0x40,0x10,0x99,0x2a,
0x60,0x20,0x89,0x2a,0x40,0x28,0x99,0x2a,0x60,0x20,0x89,0x2a,0x40,0x10,0x99,
0x2a,0x60,0x10,0x89,0x2a,0x40,0x08,0x99,0x2a,0x60,0x10,0x89,0x2a,0x40,0x08,
0x99,0x2a,0x60,0x10,0x89,0x2a,0x40,0x08,0x99,0x2a,0x60,0x10,0x89,0x2a,0x40,
0x20,0x99,0x2a,0x60,0x10,0x89,0x2a,0x40,0x10,0x99,0x2a,0x60,0x10,0x89,0x2a,
0x40,0x00,0x99,0x2a,0x60,0x20,0x89,0x2a,0x40,0x10,0x99,0x2a,0x60,0x10,0x89,
0x2a,0x40,0x10,0x99,0x2a,0x60,0x10,0x89,0x2a,0x40,0x00,0x99,0x2a,0x60,0x10,
0x89,0x2a,0x40,0x20,0x99,0x2a,0x60,0x10,0x89,0x2a,0x40,0x10,0x99,0x2a,0x60,
0x10,0x89,0x2a,0x40,0x00,0x99,0x2a,0x60,0x20,0x89,0x2a,0x40,0x10,0x99,0x2a,
0x60,0x10,0x89,0x2a,0x40,0x10,0x99,0x2a,0x60,0x10,0x89,0x2a,0x40,0x00,0x99,
0x2a,0x60,0x10,0x89,0x2a,0x40,0x20,0x99,0x2a,0x60,0x10,0x89,0x2a,0x40,0x10,
0x99,0x2a,0x60,0x10,0x89,0x2a,0x40,0x00,0x99,0x2a,0x60,0x20,0x89,0x2a,0x40,
0x10,0x99,0x2a,0x60,0x10,0x89,0x2a,0x40,0x10,0x99,0x2a,0x60,0x10,0x89,0x2a,
0x40,0x00,0x99,0x2a,0x60,0x10,0x89,0x2a,0x40,0x20,0x99,0x2a,0x60,0x10,0x89,
0x2a,0x40,0x10,0x99,0x2a,0x60,0x10,0x89,0x2a,0x40,0x00,0x99,0x2a,0x60,0x20,
0x89,0x2a,0x40,0x10,0x99,0x2a,0x60,0x10,0x89,0x2a,0x40,0x10,0x99,0x2a,0x60,
0x10,0x89,0x2a,0x40,0x00,0x99,0x2a,0x60,0x10,0x89,0x2a,0x40,0x20,0x99,0x2a,
0x60,0x10,0x89,0x2a,0x40,0x10,0x99,0x2a,0x60,0x10,0x89,0x2a,0x40,0x00,0x99,
0x2a,0x60,0x20,0x89,0x2a,0x40,0x10,0x99,0x2a,0x60,0x10,0x89,0x2a,0x40,0x10,
0x99,0x2a,0x60,0x10,0x89,0x2a,0x40,0x00,0x99,0x2a,0x60,0x10,0x89,0x2a,0x40,
0x20,0x99,0x2a,0x60,0x10,0x89,0x2a,0x40,0x10,0x99,0x2a,0x60,0x10,0x89,0x2a,
0x40,0x00,0x99,0x2a,0x60,0x20,0x89,0x2a,0x40,0x10,0x99,0x2a,0x60,0x10,0x89,
0x2a,0x40,0x10,0x99,0x2a,0x60,0x10,0x89,0x2a,0x40,0x00,0x99,0x2a,0x60,0x10,
0x89,0x2a,0x40,0x20,0x99,0x2a,0x60,0x10,0x89,0x2a,0x40,0x10,0x99,0x2a,0x60,
0x10,0x89,0x2a,0x40,0x00,0x99,0x2a,0x60,0x20,0x89,0x2a,0x40,0x10,0x99,0x2a,
0x60,0x10,0x89,0x2a,0x40,0x10,0x99,0x2a,0x60,0x10,0x89,0x2a,0x40,0x00,0x99,
0x2a,0x60,0x10,0x89,0x2a,0x40,0x20,0x99,0x2a,0x60,0x10,0x89,0x2a,0x40,0x10,
0x99,0x2a,0x60,0x10,0x89,0x2a,0x40,0x00,0x99,0x2a,0x60,0x20,0x89,0x2a,0x40,
0x10,0x99,0x2a,0x60,0x10,0x89,0x2a,0x40,0x10,0x99,0x2a,0x60,0x10,0x89,0x2a,
0x40,0x00,0x99,0x2a,0x60,0x10,0x89,0x2a,0x40,0x38,0x99,0x2a,0x60,0x10,0x89,
0x2a,0x40,0x08,0x99,0x2a,0x60,0x20,0x89,0x2a,0x40,0x10,0x99,0x2a,0x60,0x10,
0x89,0x2a,0x40,0x20,0x99,0x2a,0x60,0x10,0x89,0x2a,0x40,0x38,0x99,0x2a,0x60,
0x10,0x89,0x2a,0x40,0x08,0x99,0x2a,0x60,0x20,0x89,0x2a,0x40,0x10,0x99,0x2a,
0x60,0x10,0x89,0x2a,0x40,0x20,0x99,0x2a,0x60,0x10,0x89,0x2a,0x40,0x38,0x99,
0x2a,0x60,0x10,0x89,0x2a,0x40,0x08,0x99,0x2a,0x60,0x20,0x89,0x2a,0x40,0x10,
0x99,0x2a,0x60,0x10,0x89,0x2a,0x40,0x20,0x99,0x2a,0x60,0x10,0x89,0x2a,0x40,
0x38,0x99,0x2a,0x60,0x10,0x89,0x2a,0x40,0x08,0x99,0x2a,0x60,0x20,0x89,0x2a,
0x40,0x10,0x99,0x2a,0x60,0x10,0x89,0x2a,0x40,0x20,0x99,0x2a,0x60,0x10,0x89,
0x2a,0x40,0x38,0x99,0x2a,0x60,0x10,0x89,0x2a,0x40,0x08,0x99,0x2a,0x60,0x20,
0x89,0x2a,0x40,0x10,0x99,0x2a,0x60,0x10,0x89,0x2a,0x40,0x20,0x99,0x2a,0x60,
0x10,0x89,0x2a,0x40,0x38,0x99,0x2a,0x60,0x10,0x89,0x2a,0x40,0x08,0x99,0x2a,
0x60,0x20,0x89,0x2a,0x40,0x10,0x99,0x2a,0x60,0x10,0x89,0x2a,0x40,0x20,0x99,
0x2a,0x60,0x10,0x89,0x2a,0x40,0x38,0x99,0x2a,0x60,0x10,0x89,0x2a,0x40,0x08,
0x99,0x2a,0x60,0x20,0x89,0x2a,0x40,0x10,0x99,0x2a,0x60,0x10,0x89,0x2a,0x40,
0x20,0x99,0x2a,0x60,0x10,0x89,0x2a,0x40,0x38,0x99,0x2a,0x60,0x10,0x89,0x2a,
0x40,0x08,0x99,0x2a,0x60,0x20,0x89,0x2a,0x40,0x10,0x99,0x2a,0x60,0x10,0x89,
0x2a,0x40,0x20,0x99,0x2a,0x60,0x10,0x89,0x2a,0x40,0x38,0x99,0x2a,0x60,0x10,
0x89,0x2a,0x40,0x08,0x99,0x2a,0x60,0x20,0x89,0x2a,0x40,0x10,0x99,0x2a,0x60,
0x10,0x89,0x2a,0x40,0x20,0x99,0x2a,0x60,0x10,0x89,0x2a,0x40,0x38,0x99,0x2a,
0x60,0x10,0x89,0x2a,0x40,0x08,0x99,0x2a,0x60,0x20,0x89,0x2a,0x40,0x10,0x99,
0x2a,0x60,0x10,0x89,0x2a,0x40,0x20,0x99,0x2a,0x60,0x10,0x89,0x2a,0x40,0x38,
0x99,0x2a,0x60,0x10,0x89,0x2a,0x40,0x08,0x99,0x2a,0x60,0x20,0x89,0x2a,0x40,
0x10,0x99,0x2a,0x60,0x10,0x89,0x2a,0x40,0x20,0x99,0x2a,0x60,0x10,0x89,0x2a,
0x40,0x38,0x99,0x2a,0x60,0x10,0x89,0x2a,0x40,0x08,0x99,0x2a,0x60,0x20,0x89,
0x2a,0x40,0x10,0x99,0x2a,0x60,0x10,0x89,0x2a,0x40,0x20,0x99,0x2a,0x60,0x10,
0x89,0x2a,0x40,0x38,0x99,0x2a,0x60,0x10,0x89,0x2a,0x40,0x08,0x99,0x2a,0x60,
0x20,0x89,0x2a,0x40,0x10,0x99,0x2a,0x60,0x10,0x89,0x2a,0x40,0x20,0x99,0x2a,
0x60,0x10,0x89,0x2a,0x40,0x38,0x99,0x2a,0x60,0x10,0x89,0x2a,0x40,0x08,0x99,
0x2a,0x60,0x20,0x89,0x2a,0x40,0x10,0x99,0x2a,0x60,0x10,0x89,0x2a,0x40,0x20,
0x99,0x2a,0x60,0x10,0x89,0x2a,0x40,0x38,0x99,0x2a,0x60,0x10,0x89,0x2a,0x40,
0x08,0x99,0x2a,0x60,0x20,0x89,0x2a,0x40,0x10,0x99,0x2a,0x60,0x10,0x89,0x2a,
0x40,0x20,0x99,0x2a,0x60,0x10,0x89,0x2a,0x40,0x38,0x99,0x2a,0x60,0x10,0x89,
0x2a,0x40,0x08,0x99,0x2a,0x60,0x20,0x89,0x2a,0x40,0x10,0x99,0x2a,0x60,0x10,
0x89,0x2a,0x40,0x20,0x99,0x2a,0x60,0x20,0x89,0x2a,0x40,0x10,0x99,0x2a,0x60,
0x10,0x89,0x2a,0x40,0x08,0x99,0x2a,0x60,0x20,0x89,0x2a,0x40,0x10,0x99,0x2a,
0x60,0x10,0x89,0x2a,0x40,0x08,0x99,0x2a,0x60,0x20,0x89,0x2a,0x40,0x10,0x99,
0x2a,0x60,0x20,0x89,0x2a,0x40,0x28,0x99,0x2a,0x60,0x20,0x89,0x2a,0x40,0x10,
0x99,0x2a,0x60,0x10,0x89,0x2a,0x40,0x08,0x99,0x2a,0x60,0x10,0x89,0x2a,0x40,
0x08,0x99,0x2a,0x60,0x10,0x89,0x2a,0x40,0x08,0x99,0x2a,0x60,0x20,0x89,0x2a,
0x40,0x10,0x99,0x2a,0x60,0x10,0x89,0x2a,0x40,0x08,0x99,0x2a,0x60,0x20,0x89,
0x2a,0x40,0x10,0x99,0x2a,0x60,0x10,0x89,0x2a,0x40,0x08,0x99,0x2a,0x60,0x20,
0x89,0x2a,0x40,0x10,0x99,0x2a,0x60,0x20,0x89,0x2a,0x40,0x28,0x99,0x2a,0x60,
0x20,0x89,0x2a,0x40,0x10,0x99,0x2a,0x60,0x10,0x89,0x2a,0x40,0x08,0x99,0x2a,
0x60,0x10,0x89,0x2a,0x40,0x08,0x99,0x2a,0x60,0x10,0x89,0x2a,0x40,0x08,0x99,
0x2a,0x60,0x20,0x89,0x2a,0x40,0x10,0x99,0x2a,0x60,0x10,0x89,0x2a,0x40,0x08,
0x99,0x2a,0x60,0x20,0x89,0x2a,0x40,0x10,0x99,0x2a,0x60,0x10,0x89,0x2a,0x40,
0x08,0x99,0x2a,0x60,0x20,0x89,0x2a,0x40,0x10,0x99,0x2a,0x60,0x20,0x89,0x2a,
0x40,0x28,0x99,0x2a,0x60,0x20,0x89,0x2a,0x40,0x10,0x99,0x2a,0x60,0x10,0x89,
0x2a,0x40,0x08,0x99,0x2a,0x60,0x10,0x89,0x2a,0x40,0x08,0x99,0x2a,0x60,0x10,
0x89,0x2a,0x40,0x08,0x99,0x2a,0x60,0x20,0x89,0x2a,0x40,0x10,0x99,0x2a,0x60,
0x10,0x89,0x2a,0x40,0x08,0x99,0x2a,0x60,0x20,0x89,0x2a,0x40,0x10,0x99,0x2a,
0x60,0x10,0x89,0x2a,0x40,0x08,0x99,0x2a,0x60,0x20,0x89,0x2a,0x40,0x10,0x99,
0x2a,0x60,0x20,0x89,0x2a,0x40,0x28,0x99,0x2a,0x60,0x20,0x89,0x2a,0x40,0x10,
0x99,0x2a,0x60,0x10,0x89,0x2a,0x40,0x08,0x99,0x2a,0x60,0x10,0x89,0x2a,0x40,
0x08,0x99,0x2a,0x60,0x10,0x89,0x2a,0x40,0x08,0x99,0x2a,0x60,0x10,0x89,0x2a,
0x40,0x38,0x99,0x2a,0x60,0x10,0x89,0x2a,0x40,0x08,0x99,0x2a,0x60,0x20,0x89,
0x2a,0x40,0x10,0x99,0x2a,0x60,0x10,0x89,0x2a,0x40,0x20,0x99,0x2a,0x60,0x10,
0x89,0x2a,0x40,0x38,0x99,0x2a,0x60,0x10,0x89,0x2a,0x40,0x08,0x99,0x2a,0x60,
0x20,0x89,0x2a,0x40,0x10,0x99,0x2a,0x60,0x10,0x89,0x2a,0x40,0x20,0x99,0x2a,
0x60,0x10,0x89,0x2a,0x40,0x38,0x99,0x2a,0x60,0x10,0x89,0x2a,0x40,0x08,0x99,
0x2a,0x60,0x20,0x89,0x2a,0x40,0x10,0x99,0x2a,0x60,0x10,0x89,0x2a,0x40,0x20,
0x99,0x2a,0x60,0x10,0x89,0x2a,0x40,0x38,0x99,0x2a,0x60,0x10,0x89,0x2a,0x40,
0x08,0x99,0x2a,0x60,0x20,0x89,0x2a,0x40,0x10,0x99,0x2a,0x60,0x10,0x89,0x2a,
0x40,0x20,0x99,0x2a,0x60,0x10,0x89,0x2a,0x40,0x38,0x99,0x2a,0x60,0x10,0x89,
0x2a,0x40,0x08,0x99,0x2a,0x60,0x20,0x89,0x2a,0x40,0x10,0x99,0x2a,0x60,0x10,
0x89,0x2a,0x40,0x20,0x99,0x2a,0x60,0x10,0x89,0x2a,0x40,0x38,0x99,0x2a,0x60,
0x10,0x89,0x2a,0x40,0x08,0x99,0x2a,0x60,0x20,0x89,0x2a,0x40,0x10,0x99,0x2a,
0x60,0x10,0x89,0x2a,0x40,0x20,0x99,0x2a,0x60,0x10,0x89,0x2a,0x40,0x38,0x99,
0x2a,0x60,0x10,0x89,0x2a,0x40,0x08,0x99,0x2a,0x60,0x20,0x89,0x2a,0x40,0x10,
0x99,0x2a,0x60,0x10,0x89,0x2a,0x40,0x20,0x99,0x2a,0x60,0x10,0x89,0x2a,0x40,
0x38,0x99,0x2a,0x60,0x10,0x89,0x2a,0x40,0x08,0x99,0x2a,0x60,0x20,0x89,0x2a,
0x40,0x10,0x99,0x2a,0x60,0x10,0x89,0x2a,0x40,0x00,0xff,0x2f,0x00
};
