unsigned int MoonLte3_size=53412;
unsigned char MoonLte3[] = {
0x4d,0x54,0x68,0x64,0x00,0x00,0x00,0x06,0x00,0x01,0x00,0x02,0x01,0xe0,0x4d,
0x54,0x72,0x6b,0x00,0x00,0x01,0xff,0x00,0xff,0x03,0x08,0x33,0x72,0x64,0x20,
0x6d,0x76,0x6d,0x74,0x00,0xff,0x54,0x05,0x60,0x00,0x00,0x00,0x00,0x00,0xff,
0x58,0x04,0x04,0x02,0x18,0x08,0x00,0xff,0x59,0x02,0x04,0x01,0x00,0xff,0x51,
0x03,0x05,0xb8,0xd8,0xf8,0x00,0xff,0x51,0x03,0x0a,0x2c,0x2a,0x81,0x70,0xff,
0x51,0x03,0x05,0xb8,0xd8,0xcc,0x70,0xff,0x51,0x03,0x06,0x8a,0x1b,0x8b,0x20,
0xff,0x51,0x03,0x05,0xb8,0xd8,0x86,0xe9,0x60,0xff,0x51,0x03,0x0a,0x2c,0x2e,
0x81,0x70,0xff,0x51,0x03,0x05,0xb8,0xd8,0xcc,0x70,0xff,0x51,0x03,0x06,0x8a,
0x1b,0x8b,0x20,0xff,0x51,0x03,0x05,0xb8,0xd8,0x89,0xfe,0x60,0xff,0x51,0x03,
0x06,0x50,0x61,0x9e,0x00,0xff,0x51,0x03,0x05,0xb8,0xd8,0x81,0xc6,0x60,0xff,
0x51,0x03,0x07,0xa1,0x21,0x87,0x40,0xff,0x51,0x03,0x05,0xb8,0xd8,0x84,0xf2,
0x20,0xff,0x51,0x03,0x05,0xe8,0x18,0x9a,0x20,0xff,0x51,0x03,0x05,0xb8,0xd8,
0xce,0x60,0xff,0x51,0x03,0x0a,0x2c,0x2c,0x8f,0x00,0xff,0x51,0x03,0x05,0xb8,
0xd8,0x92,0x60,0xff,0x51,0x03,0x0a,0x2c,0x2b,0x8f,0x00,0xff,0x51,0x03,0x05,
0xb8,0xd8,0x82,0xbb,0x00,0xff,0x51,0x03,0x06,0xd9,0x9a,0x82,0x7c,0xff,0x51,
0x03,0x06,0xf6,0x3f,0x14,0xff,0x51,0x03,0x06,0xfd,0x5e,0x82,0x54,0xff,0x51,
0x03,0x07,0x0f,0xab,0x14,0xff,0x51,0x03,0x07,0x21,0xe1,0x82,0x40,0xff,0x51,
0x03,0x07,0x23,0xc0,0x14,0xff,0x51,0x03,0x07,0x47,0x1e,0x82,0x40,0xff,0x51,
0x03,0x07,0x56,0x53,0x14,0xff,0x51,0x03,0x07,0x6d,0x14,0x82,0x2c,0xff,0x51,
0x03,0x07,0x80,0x83,0x14,0xff,0x51,0x03,0x07,0x93,0xd6,0x82,0x18,0xff,0x51,
0x03,0x07,0x9d,0xc2,0x14,0xff,0x51,0x03,0x07,0xbb,0x6a,0x82,0x18,0xff,0x51,
0x03,0x07,0xd5,0xb5,0x14,0xff,0x51,0x03,0x07,0xe3,0xca,0x82,0x04,0xff,0x51,
0x03,0x07,0xfe,0x91,0x14,0xff,0x51,0x03,0x08,0x0c,0xef,0x81,0x70,0xff,0x51,
0x03,0x08,0x17,0x72,0x14,0xff,0x51,0x03,0x08,0x36,0xe7,0x81,0x70,0xff,0x51,
0x03,0x08,0x45,0xe8,0x14,0xff,0x51,0x03,0x08,0x61,0xc5,0x81,0x70,0xff,0x51,
0x03,0x08,0x8b,0x4a,0x14,0xff,0x51,0x03,0x08,0x8d,0x75,0x81,0x48,0xff,0x51,
0x03,0x08,0x8f,0xb2,0x14,0xff,0x51,0x03,0x08,0xb9,0xf7,0x81,0x5c,0xff,0x51,
0x03,0x08,0xd5,0x3a,0x14,0xff,0x51,0x03,0x08,0xe7,0x66,0x81,0x48,0xff,0x51,
0x03,0x09,0x00,0xf0,0x14,0xff,0x51,0x03,0x09,0x15,0xcc,0x81,0x48,0xff,0x51,
0x03,0x09,0x40,0x5d,0x14,0xff,0x51,0x03,0x09,0x45,0x15,0x81,0x34,0xff,0x51,
0x03,0x09,0x64,0x6c,0x14,0xff,0x51,0x03,0x09,0x75,0x4a,0x81,0x34,0xff,0x51,
0x03,0x09,0x9a,0x34,0x14,0xff,0x51,0x03,0x09,0xa6,0x78,0x81,0x20,0xff,0x51,
0x03,0x09,0xb0,0x8a,0x14,0xff,0x51,0x03,0x09,0xd8,0xb0,0x81,0x34,0xff,0x51,
0x03,0x0a,0x09,0x79,0x14,0xff,0x51,0x03,0x0a,0x0c,0x05,0x81,0x20,0xff,0x51,
0x03,0x0a,0x29,0x2f,0x14,0xff,0x51,0x03,0x0a,0x2c,0x2a,0xc2,0x70,0xff,0x51,
0x03,0x05,0xb8,0xd8,0x00,0xff,0x2f,0x00,0x4d,0x54,0x72,0x6b,0x00,0x00,0xce,
0x87,0x00,0xff,0x03,0x03,0x33,0x72,0x64,0x00,0xff,0x01,0x01,0x0d,0x28,0x90,
0x25,0x3a,0x61,0x90,0x2c,0x3a,0x6e,0x80,0x25,0x40,0x00,0x80,0x2c,0x40,0x0a,
0x90,0x2c,0x3a,0x17,0x90,0x31,0x3a,0x6e,0x80,0x31,0x40,0x0a,0x90,0x34,0x3a,
0x5d,0x80,0x2c,0x40,0x00,0x80,0x34,0x40,0x0a,0x90,0x25,0x3a,0x11,0x90,0x38,
0x3a,0x6e,0x80,0x38,0x40,0x0a,0x90,0x31,0x3a,0x5d,0x80,0x25,0x40,0x00,0x80,
0x31,0x40,0x0a,0x90,0x2c,0x3a,0x11,0x90,0x34,0x3a,0x6e,0x80,0x34,0x40,0x0a,
0x90,0x38,0x3a,0x5c,0x80,0x2c,0x40,0x00,0x80,0x38,0x40,0x0a,0x90,0x25,0x3a,
0x12,0x90,0x3d,0x3a,0x6e,0x80,0x3d,0x40,0x0a,0x90,0x34,0x3a,0x5c,0x80,0x25,
0x40,0x00,0x80,0x34,0x40,0x0a,0x90,0x2c,0x3a,0x12,0x90,0x38,0x3a,0x71,0x80,
0x38,0x40,0x0a,0x90,0x3d,0x3a,0x57,0x80,0x2c,0x40,0x00,0x80,0x3d,0x40,0x0a,
0x90,0x25,0x3a,0x17,0x90,0x40,0x3a,0x6e,0x80,0x40,0x40,0x0a,0x90,0x38,0x3a,
0x57,0x80,0x25,0x40,0x00,0x80,0x38,0x40,0x0a,0x90,0x2c,0x3a,0x14,0x90,0x3d,
0x3a,0x6e,0x80,0x3d,0x40,0x0a,0x90,0x40,0x3a,0x5d,0x80,0x2c,0x40,0x00,0x80,
0x40,0x40,0x0a,0x90,0x25,0x3a,0x11,0x90,0x44,0x3a,0x6e,0x80,0x44,0x40,0x0a,
0x90,0x3d,0x3a,0x5d,0x80,0x25,0x40,0x00,0x80,0x3d,0x40,0x0a,0x90,0x2c,0x3a,
0x11,0x90,0x40,0x3a,0x6e,0x80,0x40,0x40,0x0a,0x90,0x44,0x3a,0x5c,0x80,0x2c,
0x40,0x00,0x80,0x44,0x40,0x0a,0x90,0x25,0x3a,0x12,0x90,0x49,0x3a,0x6e,0x80,
0x49,0x40,0x0a,0x90,0x40,0x3a,0x5c,0x80,0x25,0x40,0x00,0x80,0x40,0x40,0x0a,
0x90,0x2c,0x3a,0x15,0x90,0x44,0x3a,0x6e,0x80,0x44,0x40,0x0a,0x90,0x49,0x3a,
0x57,0x80,0x2c,0x40,0x00,0x80,0x49,0x40,0x0a,0x90,0x25,0x3a,0x17,0x90,0x4c,
0x3a,0x6b,0x80,0x4c,0x40,0x0a,0x90,0x44,0x3a,0x5d,0x80,0x25,0x40,0x00,0x80,
0x44,0x40,0x0a,0x90,0x2c,0x3a,0x11,0x90,0x49,0x3a,0x6e,0x80,0x49,0x40,0x0a,
0x90,0x4c,0x3a,0x5d,0x80,0x2c,0x40,0x00,0x80,0x4c,0x40,0x0a,0xb0,0x40,0x7f,
0x00,0x90,0x50,0x47,0x00,0x90,0x25,0x47,0x00,0x90,0x44,0x47,0x00,0x90,0x49,
0x47,0x00,0x90,0x31,0x47,0x00,0x90,0x4c,0x47,0x81,0x65,0x80,0x50,0x40,0x00,
0x80,0x4c,0x40,0x00,0x80,0x31,0x40,0x00,0x80,0x49,0x40,0x00,0x80,0x44,0x40,
0x00,0x80,0x25,0x40,0x0a,0x90,0x44,0x47,0x00,0x90,0x49,0x47,0x00,0x90,0x4c,
0x47,0x00,0x90,0x50,0x47,0x00,0x90,0x2c,0x47,0x81,0x66,0x80,0x44,0x40,0x00,
0x80,0x2c,0x40,0x00,0x80,0x50,0x40,0x00,0x80,0x4c,0x40,0x00,0x80,0x49,0x40,
0x08,0xb0,0x40,0x00,0x02,0x90,0x24,0x3a,0x76,0x90,0x2c,0x3a,0x6e,0x80,0x24,
0x40,0x00,0x80,0x2c,0x40,0x0a,0x90,0x2c,0x3a,0x17,0x90,0x30,0x3a,0x6e,0x80,
0x30,0x40,0x0a,0x90,0x33,0x3a,0x57,0x80,0x2c,0x40,0x00,0x80,0x33,0x40,0x0a,
0x90,0x24,0x3a,0x14,0x90,0x38,0x3a,0x6e,0x80,0x38,0x40,0x0a,0x90,0x30,0x3a,
0x5d,0x80,0x24,0x40,0x00,0x80,0x30,0x40,0x0a,0x90,0x2c,0x3a,0x11,0x90,0x33,
0x3a,0x6e,0x80,0x33,0x40,0x0a,0x90,0x38,0x3a,0x5d,0x80,0x2c,0x40,0x00,0x80,
0x38,0x40,0x0a,0x90,0x24,0x3a,0x11,0x90,0x3c,0x3a,0x6e,0x80,0x3c,0x40,0x0a,
0x90,0x33,0x3a,0x5c,0x80,0x24,0x40,0x00,0x80,0x33,0x40,0x0a,0x90,0x2c,0x3a,
0x12,0x90,0x38,0x3a,0x6e,0x80,0x38,0x40,0x0a,0x90,0x3c,0x3a,0x5c,0x80,0x2c,
0x40,0x00,0x80,0x3c,0x40,0x0a,0x90,0x24,0x3a,0x12,0x90,0x3f,0x3a,0x71,0x80,
0x3f,0x40,0x0a,0x90,0x38,0x3a,0x57,0x80,0x24,0x40,0x00,0x80,0x38,0x40,0x0a,
0x90,0x2c,0x3a,0x17,0x90,0x3c,0x3a,0x6e,0x80,0x3c,0x40,0x0a,0x90,0x3f,0x3a,
0x57,0x80,0x2c,0x40,0x00,0x80,0x3f,0x40,0x0a,0x90,0x24,0x3a,0x14,0x90,0x44,
0x3a,0x6e,0x80,0x44,0x40,0x0a,0x90,0x3c,0x3a,0x5d,0x80,0x24,0x40,0x00,0x80,
0x3c,0x40,0x0a,0x90,0x2c,0x3a,0x11,0x90,0x3f,0x3a,0x6e,0x80,0x3f,0x40,0x0a,
0x90,0x44,0x3a,0x5d,0x80,0x2c,0x40,0x00,0x80,0x44,0x40,0x0a,0x90,0x24,0x3a,
0x11,0x90,0x48,0x3a,0x6e,0x80,0x48,0x40,0x0a,0x90,0x3f,0x3a,0x5c,0x80,0x24,
0x40,0x00,0x80,0x3f,0x40,0x0a,0x90,0x2c,0x3a,0x12,0x90,0x44,0x3a,0x6e,0x80,
0x44,0x40,0x0a,0x90,0x48,0x3a,0x5c,0x80,0x2c,0x40,0x00,0x80,0x48,0x40,0x0a,
0x90,0x24,0x3a,0x15,0x90,0x4b,0x3a,0x6e,0x80,0x4b,0x40,0x0a,0x90,0x44,0x3a,
0x57,0x80,0x24,0x40,0x00,0x80,0x44,0x40,0x0a,0x90,0x2c,0x3a,0x17,0x90,0x48,
0x3a,0x6b,0x80,0x48,0x40,0x0a,0x90,0x4b,0x3a,0x5d,0x80,0x2c,0x40,0x00,0x80,
0x4b,0x40,0x0a,0xb0,0x40,0x7f,0x00,0x90,0x30,0x47,0x00,0x90,0x44,0x47,0x00,
0x90,0x48,0x47,0x00,0x90,0x4b,0x47,0x00,0x90,0x50,0x47,0x00,0x90,0x24,0x47,
0x81,0x66,0x80,0x30,0x40,0x00,0x80,0x24,0x40,0x00,0x80,0x50,0x40,0x00,0x80,
0x4b,0x40,0x00,0x80,0x48,0x40,0x00,0x80,0x44,0x40,0x0a,0x90,0x44,0x47,0x00,
0x90,0x48,0x47,0x00,0x90,0x4b,0x47,0x00,0x90,0x50,0x47,0x00,0x90,0x2c,0x47,
0x81,0x66,0x80,0x44,0x40,0x00,0x80,0x2c,0x40,0x00,0x80,0x50,0x40,0x00,0x80,
0x4b,0x40,0x00,0x80,0x48,0x40,0x06,0xb0,0x40,0x00,0x04,0x90,0x23,0x3a,0x75,
0x90,0x31,0x3a,0x70,0x80,0x23,0x40,0x00,0x80,0x31,0x40,0x0a,0x90,0x2c,0x3a,
0x12,0x90,0x35,0x3a,0x71,0x80,0x35,0x40,0x0a,0x90,0x38,0x3a,0x57,0x80,0x2c,
0x40,0x00,0x80,0x38,0x40,0x0a,0x90,0x23,0x3a,0x17,0x90,0x3d,0x3a,0x6e,0x80,
0x3d,0x40,0x0a,0x90,0x35,0x3a,0x57,0x80,0x23,0x40,0x00,0x80,0x35,0x40,0x0a,
0x90,0x2c,0x3a,0x14,0x90,0x38,0x3a,0x6e,0x80,0x38,0x40,0x0a,0x90,0x3d,0x3a,
0x5d,0x80,0x2c,0x40,0x00,0x80,0x3d,0x40,0x0a,0x90,0x23,0x3a,0x11,0x90,0x41,
0x3a,0x6e,0x80,0x41,0x40,0x0a,0x90,0x38,0x3a,0x5d,0x80,0x23,0x40,0x00,0x80,
0x38,0x40,0x0a,0x90,0x2c,0x3a,0x11,0x90,0x3d,0x3a,0x6e,0x80,0x3d,0x40,0x0a,
0x90,0x41,0x3a,0x5c,0x80,0x2c,0x40,0x00,0x80,0x41,0x40,0x0a,0x90,0x23,0x3a,
0x12,0x90,0x44,0x3a,0x6e,0x80,0x44,0x40,0x0a,0x90,0x3d,0x3a,0x5c,0x80,0x23,
0x40,0x00,0x80,0x3d,0x40,0x0a,0x90,0x2c,0x3a,0x12,0x90,0x41,0x3a,0x71,0x80,
0x41,0x40,0x0a,0x90,0x44,0x3a,0x57,0x80,0x2c,0x40,0x00,0x80,0x44,0x40,0x0a,
0x90,0x23,0x3a,0x14,0x90,0x49,0x3a,0x71,0x80,0x49,0x40,0x0a,0x90,0x41,0x3a,
0x57,0x80,0x23,0x40,0x00,0x80,0x41,0x40,0x0a,0x90,0x2c,0x3a,0x14,0x90,0x44,
0x3a,0x6e,0x80,0x44,0x40,0x0a,0x90,0x49,0x3a,0x5d,0x80,0x2c,0x40,0x00,0x80,
0x49,0x40,0x0a,0x90,0x23,0x3a,0x11,0x90,0x4d,0x3a,0x6e,0x80,0x4d,0x40,0x0a,
0x90,0x44,0x3a,0x5d,0x80,0x23,0x40,0x00,0x80,0x44,0x40,0x0a,0x90,0x2c,0x3a,
0x11,0x90,0x49,0x3a,0x6e,0x80,0x49,0x40,0x0a,0x90,0x4d,0x3a,0x5c,0x80,0x2c,
0x40,0x00,0x80,0x4d,0x40,0x0a,0x90,0x23,0x3a,0x12,0x90,0x50,0x3a,0x6e,0x80,
0x50,0x40,0x0a,0x90,0x49,0x3a,0x5c,0x80,0x23,0x40,0x00,0x80,0x49,0x40,0x0a,
0x90,0x2c,0x3a,0x15,0x90,0x4d,0x3a,0x6e,0x80,0x4d,0x40,0x0a,0x90,0x50,0x3a,
0x57,0x80,0x2c,0x40,0x00,0x80,0x50,0x40,0x0a,0x90,0x23,0x47,0x02,0x90,0x50,
0x47,0x00,0x90,0x4d,0x47,0x01,0xb0,0x40,0x7f,0x02,0x90,0x49,0x47,0x00,0x90,
0x2f,0x47,0x0f,0x90,0x55,0x47,0x81,0x55,0x80,0x23,0x40,0x00,0x80,0x2f,0x40,
0x00,0x80,0x55,0x40,0x0a,0x90,0x2c,0x47,0x07,0x80,0x49,0x40,0x00,0x80,0x4d,
0x40,0x00,0x80,0x50,0x40,0x0a,0x90,0x55,0x47,0x02,0x90,0x50,0x47,0x00,0x90,
0x4d,0x47,0x03,0x90,0x49,0x47,0x81,0x50,0x80,0x2c,0x40,0x00,0x80,0x55,0x40,
0x00,0x80,0x50,0x40,0x06,0xb0,0x40,0x00,0x04,0x90,0x21,0x3a,0x6e,0x80,0x4d,
0x40,0x00,0x80,0x49,0x40,0x0a,0x90,0x31,0x3a,0x6b,0x80,0x21,0x40,0x0a,0x90,
0x36,0x3a,0x02,0x90,0x2d,0x3a,0x6c,0x80,0x31,0x40,0x0a,0x90,0x39,0x3a,0x70,
0x80,0x2d,0x40,0x00,0x80,0x39,0x40,0x00,0x80,0x36,0x40,0x0a,0x90,0x21,0x3a,
0x12,0x90,0x3d,0x3a,0x71,0x80,0x3d,0x40,0x0a,0x90,0x3d,0x3b,0x57,0x80,0x21,
0x40,0x0a,0x90,0x42,0x3b,0x00,0x90,0x2d,0x3a,0x6e,0x80,0x3d,0x40,0x0a,0x90,
0x45,0x3b,0x6e,0x80,0x2d,0x40,0x00,0x80,0x45,0x40,0x00,0x80,0x42,0x40,0x0a,
0x90,0x21,0x3a,0x14,0x90,0x49,0x3f,0x6e,0x80,0x49,0x40,0x0a,0x90,0x49,0x43,
0x5d,0x80,0x21,0x40,0x0a,0x90,0x4e,0x43,0x00,0x90,0x2d,0x3a,0x6e,0x80,0x49,
0x40,0x0a,0x90,0x51,0x43,0x6e,0x80,0x2d,0x40,0x00,0x80,0x51,0x40,0x00,0x80,
0x4e,0x40,0x0a,0xb0,0x40,0x7f,0x00,0x90,0x21,0x3a,0x00,0x90,0x4e,0x4f,0x03,
0x90,0x49,0x4f,0x0e,0x90,0x55,0x4f,0x81,0x52,0x80,0x21,0x40,0x00,0x80,0x55,
0x40,0x0a,0x90,0x2d,0x3a,0x0a,0x80,0x49,0x40,0x00,0x80,0x4e,0x40,0x0a,0x90,
0x55,0x4f,0x00,0x90,0x4e,0x4f,0x02,0x90,0x49,0x4f,0x81,0x52,0x80,0x2d,0x40,
0x00,0x80,0x49,0x40,0x00,0x80,0x4e,0x40,0x00,0x80,0x55,0x40,0x07,0xb0,0x40,
0x00,0x03,0x90,0x21,0x3a,0x76,0x90,0x31,0x3a,0x6e,0x80,0x21,0x40,0x0a,0x90,
0x34,0x3a,0x00,0x90,0x2d,0x3a,0x6e,0x80,0x31,0x40,0x0a,0x90,0x37,0x3a,0x71,
0x80,0x2d,0x40,0x00,0x80,0x37,0x40,0x00,0x80,0x34,0x40,0x0a,0x90,0x21,0x3a,
0x11,0x90,0x3d,0x3a,0x6e,0x80,0x3d,0x40,0x0a,0x90,0x3d,0x3b,0x5d,0x80,0x21,
0x40,0x0a,0x90,0x40,0x3b,0x00,0x90,0x2d,0x3a,0x6e,0x80,0x3d,0x40,0x0a,0x90,
0x43,0x3b,0x6d,0x80,0x2d,0x40,0x00,0x80,0x43,0x40,0x00,0x80,0x40,0x40,0x0a,
0x90,0x21,0x3a,0x12,0x90,0x49,0x3b,0x6e,0x80,0x49,0x40,0x0a,0x90,0x49,0x43,
0x5a,0x80,0x21,0x40,0x0a,0x90,0x4c,0x43,0x02,0x90,0x2d,0x3a,0x6c,0x80,0x49,
0x40,0x0a,0x90,0x4f,0x43,0x70,0x80,0x2d,0x40,0x00,0x80,0x4f,0x40,0x00,0x80,
0x4c,0x40,0x0a,0x90,0x21,0x3a,0x00,0x90,0x4f,0x4f,0x00,0x90,0x49,0x4f,0x01,
0xb0,0x40,0x7f,0x14,0x90,0x55,0x4f,0x81,0x4f,0x80,0x21,0x40,0x00,0x80,0x55,
0x40,0x0a,0x90,0x2d,0x3a,0x0d,0x80,0x49,0x40,0x00,0x80,0x4f,0x40,0x0a,0x90,
0x55,0x4f,0x00,0x90,0x4f,0x4f,0x00,0x90,0x49,0x4f,0x81,0x52,0x80,0x2d,0x40,
0x00,0x80,0x55,0x40,0x03,0x80,0x4f,0x40,0x00,0x80,0x49,0x40,0x03,0xb0,0x40,
0x00,0x04,0x90,0x2c,0x4b,0x03,0x90,0x20,0x4b,0x0e,0x90,0x54,0x4b,0x02,0x90,
0x50,0x4b,0x00,0x90,0x48,0x4b,0x81,0x64,0x80,0x2c,0x40,0x00,0x80,0x48,0x40,
0x00,0x80,0x50,0x40,0x00,0x80,0x54,0x40,0x00,0x80,0x20,0x40,0x0a,0x90,0x44,
0x4b,0x02,0x90,0x3c,0x4b,0x00,0x90,0x38,0x4b,0x6c,0x80,0x44,0x40,0x0a,0x90,
0x50,0x4b,0x6e,0x80,0x3c,0x40,0x00,0x80,0x50,0x40,0x0a,0x90,0x44,0x4b,0x00,
0x90,0x3c,0x4b,0x6e,0x80,0x44,0x40,0x0a,0x90,0x50,0x4b,0x6e,0x80,0x3c,0x40,
0x00,0x80,0x50,0x40,0x0a,0x90,0x46,0x4b,0x00,0x90,0x3d,0x4b,0x71,0x80,0x46,
0x40,0x0a,0x90,0x50,0x4b,0x6e,0x80,0x3d,0x40,0x00,0x80,0x50,0x40,0x0a,0x90,
0x48,0x4b,0x00,0x90,0x3f,0x4b,0x6e,0x80,0x48,0x40,0x0a,0x90,0x50,0x4b,0x6b,
0x80,0x3f,0x40,0x00,0x80,0x50,0x40,0x0a,0x90,0x49,0x4b,0x03,0x90,0x40,0x4b,
0x6b,0x80,0x49,0x40,0x0a,0x90,0x50,0x4b,0x6e,0x80,0x40,0x40,0x00,0x80,0x50,
0x40,0x0a,0x90,0x4b,0x4b,0x02,0x90,0x42,0x4b,0x6c,0x80,0x4b,0x40,0x0a,0x90,
0x50,0x4b,0x6e,0x80,0x42,0x40,0x00,0x80,0x50,0x40,0x0a,0x90,0x48,0x4b,0x00,
0x90,0x3f,0x4b,0x6e,0x80,0x48,0x40,0x0a,0x90,0x50,0x4b,0x6e,0x80,0x3f,0x40,
0x00,0x80,0x50,0x40,0x0a,0x90,0x4b,0x4b,0x00,0x90,0x42,0x4b,0x6e,0x80,0x4b,
0x40,0x0a,0x90,0x50,0x4b,0x6e,0x80,0x42,0x40,0x00,0x80,0x50,0x40,0x0a,0x90,
0x49,0x4b,0x00,0x90,0x40,0x4b,0x71,0x80,0x49,0x40,0x0a,0x90,0x50,0x4b,0x6b,
0x80,0x40,0x40,0x00,0x80,0x50,0x40,0x0a,0x90,0x4e,0x4b,0x03,0x90,0x45,0x4b,
0x6e,0x80,0x4e,0x40,0x0a,0x90,0x50,0x4b,0x6b,0x80,0x45,0x40,0x00,0x80,0x50,
0x40,0x0a,0x90,0x4c,0x4b,0x03,0x90,0x44,0x4b,0x6b,0x80,0x4c,0x40,0x0a,0x90,
0x50,0x4b,0x6e,0x80,0x44,0x40,0x00,0x80,0x50,0x40,0x0a,0x90,0x4b,0x4b,0x02,
0x90,0x42,0x4b,0x6c,0x80,0x4b,0x40,0x0a,0x90,0x50,0x4b,0x6e,0x80,0x42,0x40,
0x00,0x80,0x50,0x40,0x0a,0x90,0x49,0x4b,0x00,0x90,0x40,0x4b,0x6e,0x80,0x49,
0x40,0x0a,0x90,0x50,0x4b,0x6e,0x80,0x40,0x40,0x00,0x80,0x50,0x40,0x0a,0x90,
0x48,0x4b,0x00,0x90,0x3f,0x4b,0x6e,0x80,0x48,0x40,0x0a,0x90,0x50,0x4b,0x71,
0x80,0x3f,0x40,0x00,0x80,0x50,0x40,0x0a,0x90,0x45,0x4b,0x00,0x90,0x3d,0x4b,
0x6e,0x80,0x45,0x40,0x0a,0x90,0x4f,0x4b,0x6b,0x80,0x3d,0x40,0x00,0x80,0x4f,
0x40,0x00,0x80,0x38,0x40,0x0a,0x90,0x44,0x4b,0x00,0x90,0x3c,0x4b,0x00,0x90,
0x38,0x4b,0x6e,0x80,0x44,0x40,0x0a,0x90,0x50,0x4b,0x6e,0x80,0x3c,0x40,0x00,
0x80,0x50,0x40,0x0a,0x90,0x44,0x4b,0x02,0x90,0x3c,0x4b,0x6c,0x80,0x44,0x40,
0x0a,0x90,0x50,0x4b,0x6e,0x80,0x3c,0x40,0x00,0x80,0x50,0x40,0x0a,0x90,0x44,
0x4b,0x02,0x90,0x3c,0x4b,0x6c,0x80,0x44,0x40,0x0a,0x90,0x50,0x4b,0x6e,0x80,
0x3c,0x40,0x00,0x80,0x50,0x40,0x0a,0x90,0x46,0x4b,0x00,0x90,0x3d,0x4b,0x6e,
0x80,0x46,0x40,0x0a,0x90,0x50,0x4b,0x6e,0x80,0x3d,0x40,0x00,0x80,0x50,0x40,
0x0a,0x90,0x48,0x4b,0x00,0x90,0x3f,0x4b,0x71,0x80,0x48,0x40,0x0a,0x90,0x50,
0x4b,0x6e,0x80,0x3f,0x40,0x00,0x80,0x50,0x40,0x0a,0x90,0x49,0x4b,0x00,0x90,
0x40,0x4b,0x6e,0x80,0x49,0x40,0x0a,0x90,0x50,0x4b,0x6b,0x80,0x40,0x40,0x00,
0x80,0x50,0x40,0x0a,0x90,0x4b,0x4b,0x03,0x90,0x42,0x4b,0x6b,0x80,0x4b,0x40,
0x0a,0x90,0x50,0x4b,0x6e,0x80,0x42,0x40,0x00,0x80,0x50,0x40,0x0a,0x90,0x48,
0x4b,0x02,0x90,0x3f,0x4b,0x6c,0x80,0x48,0x40,0x0a,0x90,0x50,0x4b,0x6e,0x80,
0x3f,0x40,0x00,0x80,0x50,0x40,0x0a,0x90,0x4b,0x4b,0x02,0x90,0x42,0x4b,0x6c,
0x80,0x4b,0x40,0x0a,0x90,0x50,0x4b,0x6e,0x80,0x42,0x40,0x00,0x80,0x50,0x40,
0x0a,0x90,0x49,0x4b,0x00,0x90,0x40,0x4b,0x6e,0x80,0x49,0x40,0x0a,0x90,0x50,
0x4b,0x71,0x80,0x40,0x40,0x00,0x80,0x50,0x40,0x0a,0x90,0x4e,0x4b,0x00,0x90,
0x45,0x4b,0x6e,0x80,0x4e,0x40,0x0a,0x90,0x50,0x4b,0x6e,0x80,0x45,0x40,0x00,
0x80,0x50,0x40,0x0a,0x90,0x4c,0x4b,0x00,0x90,0x44,0x4b,0x6b,0x80,0x4c,0x40,
0x0a,0x90,0x50,0x4b,0x6e,0x80,0x44,0x40,0x00,0x80,0x50,0x40,0x0a,0x90,0x4b,
0x4b,0x02,0x90,0x42,0x4b,0x6c,0x80,0x4b,0x40,0x0a,0x90,0x50,0x4b,0x6e,0x80,
0x42,0x40,0x00,0x80,0x50,0x40,0x0a,0x90,0x49,0x4b,0x02,0x90,0x40,0x4b,0x6c,
0x80,0x49,0x40,0x0a,0x90,0x50,0x4b,0x6e,0x80,0x40,0x40,0x00,0x80,0x50,0x40,
0x0a,0x90,0x48,0x4b,0x00,0x90,0x3f,0x4b,0x6e,0x80,0x48,0x40,0x0a,0x90,0x50,
0x4b,0x6e,0x80,0x3f,0x40,0x00,0x80,0x50,0x40,0x0a,0x90,0x45,0x4b,0x00,0x90,
0x3d,0x4b,0x6e,0x80,0x45,0x40,0x0a,0x90,0x4f,0x4b,0x71,0x80,0x3d,0x40,0x00,
0x80,0x4f,0x40,0x00,0x80,0x38,0x40,0x0a,0x90,0x44,0x4b,0x00,0x90,0x3c,0x4b,
0x00,0x90,0x38,0x4b,0x6e,0x80,0x44,0x40,0x0a,0x90,0x50,0x4b,0x6e,0x80,0x38,
0x40,0x00,0x80,0x50,0x40,0x00,0x80,0x3c,0x40,0x0a,0x90,0x45,0x4b,0x00,0x90,
0x3d,0x4b,0x00,0x90,0x38,0x4b,0x6b,0x80,0x45,0x40,0x0a,0x90,0x4f,0x4b,0x6e,
0x80,0x38,0x40,0x00,0x80,0x4f,0x40,0x00,0x80,0x3d,0x40,0x0a,0x90,0x44,0x4b,
0x02,0x90,0x3c,0x4b,0x00,0x90,0x38,0x4b,0x6c,0x80,0x44,0x40,0x0a,0x90,0x50,
0x4b,0x6e,0x80,0x38,0x40,0x00,0x80,0x50,0x40,0x00,0x80,0x3c,0x40,0x0a,0x90,
0x45,0x4b,0x02,0x90,0x3d,0x4b,0x00,0x90,0x38,0x4b,0x6c,0x80,0x45,0x40,0x0a,
0x90,0x4f,0x4b,0x6e,0x80,0x38,0x40,0x00,0x80,0x4f,0x40,0x00,0x80,0x3d,0x40,
0x0a,0x90,0x44,0x4b,0x00,0x90,0x3c,0x4b,0x02,0x90,0x38,0x4b,0x6c,0x80,0x44,
0x40,0x0a,0x90,0x50,0x4b,0x6e,0x80,0x38,0x40,0x00,0x80,0x50,0x40,0x00,0x80,
0x3c,0x40,0x0a,0x90,0x45,0x4b,0x00,0x90,0x3d,0x4b,0x02,0x90,0x38,0x4b,0x6f,
0x80,0x45,0x40,0x0a,0x90,0x4f,0x4b,0x6e,0x80,0x38,0x40,0x00,0x80,0x4f,0x40,
0x00,0x80,0x3d,0x40,0x0a,0x90,0x44,0x4b,0x00,0x90,0x3c,0x4b,0x00,0x90,0x38,
0x4b,0x6e,0x80,0x44,0x40,0x0a,0x90,0x50,0x4b,0x6b,0x80,0x38,0x40,0x00,0x80,
0x50,0x40,0x00,0x80,0x3c,0x40,0x0a,0x90,0x45,0x4b,0x03,0x90,0x3d,0x4b,0x00,
0x90,0x38,0x4b,0x6b,0x80,0x45,0x40,0x0a,0x90,0x4f,0x4b,0x6e,0x80,0x38,0x40,
0x00,0x80,0x4f,0x40,0x00,0x80,0x3d,0x40,0x0a,0x90,0x50,0x4b,0x02,0x90,0x3c,
0x4b,0x00,0x90,0x38,0x4b,0x83,0x53,0x80,0x50,0x40,0x00,0x80,0x38,0x40,0x00,
0x80,0x3c,0x40,0x0a,0x90,0x20,0x4b,0x00,0x90,0x2c,0x4b,0x00,0x90,0x38,0x4b,
0x8e,0x59,0x90,0x25,0x3a,0x57,0x80,0x20,0x40,0x00,0x80,0x2c,0x40,0x00,0x80,
0x38,0x40,0x0a,0x90,0x2c,0x3a,0x6e,0x80,0x25,0x40,0x00,0x80,0x2c,0x40,0x0a,
0x90,0x2c,0x3a,0x17,0x90,0x31,0x3a,0x6b,0x80,0x31,0x40,0x0a,0x90,0x34,0x3a,
0x5d,0x80,0x2c,0x40,0x00,0x80,0x34,0x40,0x0a,0x90,0x25,0x3a,0x11,0x90,0x38,
0x3a,0x6e,0x80,0x38,0x40,0x0a,0x90,0x31,0x3a,0x5d,0x80,0x25,0x40,0x00,0x80,
0x31,0x40,0x0a,0x90,0x2c,0x3a,0x11,0x90,0x34,0x3a,0x6e,0x80,0x34,0x40,0x0a,
0x90,0x38,0x3a,0x5d,0x80,0x2c,0x40,0x00,0x80,0x38,0x40,0x0a,0x90,0x25,0x3a,
0x11,0x90,0x3d,0x3a,0x6e,0x80,0x3d,0x40,0x0a,0x90,0x34,0x3a,0x5c,0x80,0x25,
0x40,0x00,0x80,0x34,0x40,0x0a,0x90,0x2c,0x3a,0x12,0x90,0x38,0x3a,0x71,0x80,
0x38,0x40,0x0a,0x90,0x40,0x3a,0x57,0x80,0x2c,0x40,0x00,0x80,0x40,0x40,0x0a,
0x90,0x25,0x3a,0x17,0x90,0x44,0x3a,0x6e,0x80,0x44,0x40,0x0a,0x90,0x38,0x3a,
0x57,0x80,0x25,0x40,0x00,0x80,0x38,0x40,0x0a,0x90,0x2c,0x3a,0x14,0x90,0x3d,
0x3a,0x6e,0x80,0x3d,0x40,0x0a,0x90,0x40,0x3a,0x5d,0x80,0x2c,0x40,0x00,0x80,
0x40,0x40,0x0a,0x90,0x25,0x3a,0x11,0x90,0x44,0x3a,0x6e,0x80,0x44,0x40,0x0a,
0x90,0x3d,0x3a,0x5d,0x80,0x25,0x40,0x00,0x80,0x3d,0x40,0x0a,0x90,0x2c,0x3a,
0x11,0x90,0x40,0x3a,0x6e,0x80,0x40,0x40,0x0a,0x90,0x44,0x3a,0x5c,0x80,0x2c,
0x40,0x00,0x80,0x44,0x40,0x0a,0x90,0x25,0x3a,0x12,0x90,0x49,0x3a,0x6e,0x80,
0x49,0x40,0x0a,0x90,0x40,0x3a,0x5c,0x80,0x25,0x40,0x00,0x80,0x40,0x40,0x0a,
0x90,0x2c,0x3a,0x15,0x90,0x44,0x3a,0x6e,0x80,0x44,0x40,0x0a,0x90,0x49,0x3a,
0x57,0x80,0x2c,0x40,0x00,0x80,0x49,0x40,0x0a,0x90,0x25,0x3a,0x14,0x90,0x4c,
0x3a,0x6e,0x80,0x4c,0x40,0x0a,0x90,0x4c,0x3a,0x5d,0x80,0x25,0x40,0x00,0x80,
0x4c,0x40,0x0a,0x90,0x2c,0x3a,0x11,0x90,0x50,0x3a,0x6e,0x80,0x50,0x40,0x0a,
0x90,0x55,0x3a,0x5d,0x80,0x2c,0x40,0x00,0x80,0x55,0x40,0x0a,0xb0,0x40,0x7f,
0x00,0x90,0x25,0x47,0x00,0x90,0x31,0x47,0x03,0x90,0x4c,0x47,0x0e,0x90,0x58,
0x47,0x81,0x54,0x80,0x25,0x40,0x00,0x80,0x58,0x40,0x00,0x80,0x4c,0x40,0x00,
0x80,0x31,0x40,0x0a,0x90,0x2c,0x47,0x12,0x90,0x58,0x47,0x00,0x90,0x4c,0x47,
0x81,0x54,0x80,0x2c,0x40,0x00,0x80,0x4c,0x40,0x00,0x80,0x58,0x40,0x07,0xb0,
0x40,0x00,0x03,0x90,0x22,0x3a,0x76,0x90,0x34,0x3a,0x6e,0x80,0x22,0x40,0x00,
0x80,0x34,0x40,0x0a,0x90,0x31,0x3a,0x17,0x90,0x37,0x3a,0x6e,0x80,0x37,0x40,
0x0a,0x90,0x3d,0x3a,0x57,0x80,0x31,0x40,0x00,0x80,0x3d,0x40,0x0a,0x90,0x2e,
0x3a,0x17,0x90,0x40,0x3a,0x6b,0x80,0x40,0x40,0x0a,0x90,0x37,0x3a,0x5d,0x80,
0x2e,0x40,0x00,0x80,0x37,0x40,0x0a,0x90,0x31,0x3a,0x11,0x90,0x3d,0x3a,0x6e,
0x80,0x3d,0x40,0x0a,0x90,0x40,0x3a,0x5d,0x80,0x31,0x40,0x00,0x80,0x40,0x40,
0x0a,0x90,0x2e,0x3a,0x11,0x90,0x43,0x3a,0x6e,0x80,0x43,0x40,0x0a,0x90,0x3d,
0x3a,0x5c,0x80,0x2e,0x40,0x00,0x80,0x3d,0x40,0x0a,0x90,0x31,0x3a,0x12,0x90,
0x40,0x3a,0x6e,0x80,0x40,0x40,0x0a,0x90,0x43,0x3a,0x5c,0x80,0x31,0x40,0x00,
0x80,0x43,0x40,0x0a,0x90,0x2e,0x3a,0x12,0x90,0x49,0x3a,0x71,0x80,0x49,0x40,
0x0a,0x90,0x40,0x3a,0x57,0x80,0x2e,0x40,0x00,0x80,0x40,0x40,0x0a,0x90,0x31,
0x3a,0x17,0x90,0x43,0x3a,0x6e,0x80,0x43,0x40,0x0a,0x90,0x49,0x3a,0x57,0x80,
0x31,0x40,0x00,0x80,0x49,0x40,0x0a,0x90,0x2e,0x3a,0x14,0x90,0x4c,0x3a,0x6e,
0x80,0x4c,0x40,0x0a,0x90,0x43,0x3a,0x5d,0x80,0x2e,0x40,0x00,0x80,0x43,0x40,
0x0a,0x90,0x31,0x3a,0x11,0x90,0x49,0x3a,0x6e,0x80,0x49,0x40,0x0a,0x90,0x4c,
0x3a,0x5d,0x80,0x31,0x40,0x00,0x80,0x4c,0x40,0x0a,0x90,0x2e,0x3a,0x11,0x90,
0x4f,0x3a,0x6e,0x80,0x4f,0x40,0x0a,0x90,0x49,0x3a,0x5c,0x80,0x2e,0x40,0x00,
0x80,0x49,0x40,0x0a,0x90,0x31,0x3a,0x12,0x90,0x4c,0x3a,0x6e,0x80,0x4c,0x40,
0x0a,0x90,0x4f,0x3a,0x5c,0x80,0x31,0x40,0x00,0x80,0x4f,0x40,0x0a,0x90,0x2e,
0x3a,0x15,0x90,0x55,0x3a,0x6e,0x80,0x55,0x40,0x0a,0x90,0x4c,0x3a,0x57,0x80,
0x2e,0x40,0x00,0x80,0x4c,0x40,0x0a,0x90,0x31,0x3a,0x17,0x90,0x4f,0x3a,0x6b,
0x80,0x4f,0x40,0x0a,0x90,0x55,0x3a,0x5d,0x80,0x31,0x40,0x00,0x80,0x55,0x40,
0x0a,0xb0,0x40,0x7f,0x00,0x90,0x2e,0x47,0x03,0x90,0x22,0x47,0x00,0x90,0x4c,
0x47,0x0e,0x90,0x58,0x47,0x81,0x55,0x80,0x2e,0x40,0x00,0x80,0x58,0x40,0x00,
0x80,0x4c,0x40,0x00,0x80,0x22,0x40,0x0a,0x90,0x31,0x47,0x11,0x90,0x58,0x47,
0x02,0x90,0x4c,0x47,0x81,0x52,0x80,0x31,0x40,0x00,0x80,0x58,0x40,0x07,0xb0,
0x40,0x00,0x03,0x90,0x1f,0x3a,0x6c,0x80,0x4c,0x40,0x0a,0x90,0x33,0x3a,0x70,
0x80,0x1f,0x40,0x00,0x80,0x33,0x40,0x0a,0x90,0x33,0x3a,0x12,0x90,0x3a,0x3a,
0x6e,0x80,0x3a,0x40,0x0a,0x90,0x3d,0x3a,0x5a,0x80,0x33,0x40,0x00,0x80,0x3d,
0x40,0x0a,0x90,0x2b,0x3a,0x17,0x90,0x3f,0x3a,0x6e,0x80,0x3f,0x40,0x0a,0x90,
0x3a,0x3a,0x57,0x80,0x2b,0x40,0x00,0x80,0x3a,0x40,0x0a,0x90,0x33,0x3a,0x17,
0x90,0x3d,0x3a,0x6b,0x80,0x3d,0x40,0x0a,0x90,0x3f,0x3a,0x5d,0x80,0x33,0x40,
0x00,0x80,0x3f,0x40,0x0a,0x90,0x2b,0x3b,0x11,0x90,0x46,0x3a,0x6e,0x80,0x46,
0x40,0x0a,0x90,0x3d,0x3b,0x5d,0x80,0x2b,0x40,0x00,0x80,0x3d,0x40,0x0a,0x90,
0x33,0x3b,0x11,0x90,0x3f,0x3b,0x6e,0x80,0x3f,0x40,0x0a,0x90,0x46,0x3b,0x5c,
0x80,0x33,0x40,0x00,0x80,0x46,0x40,0x0a,0x90,0x2b,0x3d,0x12,0x90,0x49,0x3b,
0x6e,0x80,0x49,0x40,0x0a,0x90,0x3f,0x3d,0x5c,0x80,0x2b,0x40,0x00,0x80,0x3f,
0x40,0x0a,0x90,0x33,0x3d,0x12,0x90,0x46,0x3d,0x71,0x80,0x46,0x40,0x0a,0x90,
0x49,0x3d,0x57,0x80,0x33,0x40,0x00,0x80,0x49,0x40,0x0a,0x90,0x2b,0x3d,0x17,
0x90,0x4b,0x3d,0x6e,0x80,0x4b,0x40,0x0a,0x90,0x46,0x3d,0x57,0x80,0x2b,0x40,
0x00,0x80,0x46,0x40,0x0a,0x90,0x33,0x3d,0x14,0x90,0x49,0x3d,0x6e,0x80,0x49,
0x40,0x0a,0x90,0x4b,0x3d,0x5d,0x80,0x33,0x40,0x00,0x80,0x4b,0x40,0x0a,0x90,
0x2b,0x3d,0x11,0x90,0x52,0x3d,0x6e,0x80,0x52,0x40,0x0a,0x90,0x49,0x3d,0x5d,
0x80,0x2b,0x40,0x00,0x80,0x49,0x40,0x0a,0x90,0x33,0x3d,0x11,0x90,0x4b,0x3d,
0x6e,0x80,0x4b,0x40,0x0a,0x90,0x52,0x3d,0x5c,0x80,0x33,0x40,0x00,0x80,0x52,
0x40,0x0a,0x90,0x2b,0x3d,0x12,0x90,0x55,0x3d,0x6e,0x80,0x55,0x40,0x0a,0x90,
0x52,0x3d,0x5c,0x80,0x2b,0x40,0x00,0x80,0x52,0x40,0x0a,0x90,0x33,0x3d,0x15,
0x90,0x4b,0x3d,0x6e,0x80,0x4b,0x40,0x0a,0x90,0x49,0x3d,0x57,0x80,0x33,0x40,
0x00,0x80,0x49,0x40,0x0a,0x90,0x2b,0x3d,0x17,0x90,0x52,0x3d,0x6b,0x80,0x52,
0x40,0x0a,0x90,0x4b,0x3d,0x5d,0x80,0x2b,0x40,0x00,0x80,0x4b,0x40,0x0a,0x90,
0x33,0x3d,0x11,0x90,0x49,0x3d,0x6e,0x80,0x49,0x40,0x0a,0x90,0x46,0x3d,0x5d,
0x80,0x33,0x40,0x00,0x80,0x46,0x40,0x0a,0x90,0x2c,0x3a,0x11,0x90,0x47,0x3f,
0x6e,0x80,0x2c,0x40,0x0a,0x90,0x33,0x3a,0x6e,0x80,0x33,0x40,0x0a,0x90,0x2f,
0x3a,0x6e,0x80,0x47,0x40,0x00,0x80,0x2f,0x40,0x0a,0x90,0x33,0x3a,0x64,0x90,
0x4b,0x3c,0x0a,0x80,0x33,0x40,0x0a,0x90,0x2c,0x3a,0x6e,0x80,0x2c,0x40,0x0a,
0x90,0x33,0x3a,0x71,0x80,0x33,0x40,0x0a,0x90,0x2f,0x3a,0x6e,0x80,0x2f,0x40,
0x0a,0x90,0x33,0x3a,0x6e,0x80,0x33,0x40,0x0a,0x90,0x2c,0x3a,0x6b,0x80,0x2c,
0x40,0x0a,0x90,0x33,0x3a,0x6e,0x80,0x33,0x40,0x0a,0x90,0x2f,0x3a,0x6e,0x80,
0x2f,0x40,0x0a,0x90,0x33,0x3a,0x6e,0x80,0x4b,0x40,0x00,0x80,0x33,0x40,0x0a,
0x90,0x47,0x3c,0x02,0x90,0x2c,0x3a,0x6c,0x80,0x2c,0x40,0x0a,0x90,0x33,0x3a,
0x6e,0x80,0x33,0x40,0x0a,0x90,0x2f,0x3a,0x6e,0x80,0x47,0x40,0x00,0x80,0x2f,
0x40,0x0a,0x90,0x44,0x3c,0x00,0x90,0x33,0x3a,0x6e,0x80,0x44,0x40,0x00,0x80,
0x33,0x40,0x0a,0x90,0x43,0x3f,0x00,0x90,0x2e,0x3a,0x48,0x80,0x43,0x40,0x0a,
0x90,0x44,0x3f,0x1f,0x80,0x2e,0x40,0x0a,0x90,0x33,0x3a,0x1b,0x80,0x44,0x40,
0x0a,0x90,0x46,0x3f,0x49,0x80,0x33,0x40,0x00,0x80,0x46,0x40,0x0a,0x90,0x44,
0x3f,0x00,0x90,0x31,0x3a,0x6e,0x80,0x31,0x40,0x0a,0x90,0x33,0x3a,0x6b,0x80,
0x44,0x40,0x00,0x80,0x33,0x40,0x0a,0x90,0x43,0x3c,0x03,0x90,0x2e,0x3a,0x6b,
0x80,0x2e,0x40,0x0a,0x90,0x33,0x3a,0x6e,0x80,0x33,0x40,0x0a,0x90,0x31,0x3a,
0x6e,0x80,0x31,0x40,0x0a,0x90,0x33,0x3a,0x6e,0x80,0x33,0x40,0x0a,0x90,0x2e,
0x3a,0x6e,0x80,0x2e,0x40,0x0a,0x90,0x33,0x3a,0x6e,0x80,0x43,0x40,0x00,0x80,
0x33,0x40,0x0a,0x90,0x43,0x3f,0x00,0x90,0x31,0x3a,0x6e,0x80,0x31,0x40,0x0a,
0x90,0x33,0x3a,0x71,0x80,0x43,0x40,0x00,0x80,0x33,0x40,0x0a,0x90,0x4b,0x3f,
0x00,0x90,0x2e,0x3a,0x6e,0x80,0x2e,0x40,0x0a,0x90,0x33,0x3a,0x6e,0x80,0x33,
0x40,0x0a,0x90,0x31,0x3a,0x6b,0x80,0x4b,0x40,0x00,0x80,0x31,0x40,0x0a,0x90,
0x43,0x3f,0x03,0x90,0x33,0x3a,0x6b,0x80,0x43,0x40,0x00,0x80,0x33,0x40,0x0a,
0x90,0x46,0x3f,0x02,0x90,0x2f,0x3a,0x6c,0x80,0x2f,0x40,0x0a,0x90,0x33,0x3a,
0x6e,0x80,0x33,0x40,0x0a,0x90,0x2f,0x3a,0x6e,0x80,0x2f,0x40,0x0a,0x90,0x33,
0x3a,0x6e,0x80,0x46,0x40,0x00,0x80,0x33,0x40,0x0a,0x90,0x44,0x3c,0x00,0x90,
0x2f,0x3a,0x6e,0x80,0x2f,0x40,0x0a,0x90,0x33,0x3a,0x6e,0x80,0x33,0x40,0x0a,
0x90,0x2f,0x3a,0x6e,0x80,0x2f,0x40,0x0a,0x90,0x33,0x3a,0x71,0x80,0x33,0x40,
0x0a,0x90,0x2f,0x3a,0x6e,0x80,0x2f,0x40,0x0a,0x90,0x33,0x3a,0x6e,0x80,0x44,
0x40,0x00,0x80,0x33,0x40,0x0a,0x90,0x44,0x3f,0x00,0x90,0x2f,0x3a,0x6b,0x80,
0x2f,0x40,0x0a,0x90,0x33,0x3a,0x6e,0x80,0x44,0x40,0x00,0x80,0x33,0x40,0x0a,
0x90,0x4b,0x3f,0x02,0x90,0x2f,0x3a,0x6c,0x80,0x2f,0x40,0x0a,0x90,0x33,0x3a,
0x6e,0x80,0x33,0x40,0x0a,0x90,0x2f,0x3a,0x6e,0x80,0x4b,0x40,0x00,0x80,0x2f,
0x40,0x0a,0x90,0x44,0x3f,0x00,0x90,0x33,0x3a,0x6e,0x80,0x44,0x40,0x00,0x80,
0x33,0x40,0x0a,0x90,0x47,0x3f,0x00,0x90,0x2b,0x3a,0x6e,0x80,0x2b,0x40,0x0a,
0x90,0x33,0x3a,0x6e,0x80,0x33,0x40,0x0a,0x90,0x2b,0x3a,0x71,0x80,0x2b,0x40,
0x0a,0x90,0x33,0x3a,0x6e,0x80,0x47,0x40,0x00,0x80,0x33,0x40,0x0a,0x90,0x46,
0x3c,0x00,0x90,0x2b,0x3a,0x6e,0x80,0x2b,0x40,0x0a,0x90,0x33,0x3a,0x6b,0x80,
0x33,0x40,0x0a,0x90,0x2b,0x3a,0x6e,0x80,0x2b,0x40,0x0a,0x90,0x33,0x3a,0x6e,
0x80,0x33,0x40,0x0a,0x90,0x2b,0x3a,0x6e,0x80,0x2b,0x40,0x0a,0x90,0x33,0x3a,
0x6e,0x80,0x46,0x40,0x00,0x80,0x33,0x40,0x0a,0x90,0x46,0x3f,0x00,0x90,0x2b,
0x3a,0x6e,0x80,0x2b,0x40,0x0a,0x90,0x33,0x3a,0x6e,0x80,0x46,0x40,0x00,0x80,
0x33,0x40,0x0a,0x90,0x4b,0x3f,0x00,0x90,0x2b,0x3a,0x6e,0x80,0x2b,0x40,0x0a,
0x90,0x33,0x3a,0x71,0x80,0x33,0x40,0x0a,0x90,0x2b,0x3a,0x6e,0x80,0x4b,0x40,
0x00,0x80,0x2b,0x40,0x0a,0x90,0x46,0x3f,0x00,0x90,0x33,0x3a,0x6b,0x80,0x46,
0x40,0x00,0x80,0x33,0x40,0x0a,0x90,0x47,0x3f,0x03,0x90,0x2c,0x3a,0x6b,0x80,
0x2c,0x40,0x0a,0x90,0x33,0x3a,0x5d,0x80,0x47,0x40,0x00,0x80,0x33,0x40,0x0a,
0x90,0x57,0x3f,0x03,0x90,0x4b,0x3f,0x0e,0x90,0x2f,0x3a,0x6e,0x80,0x2f,0x40,
0x0a,0x90,0x33,0x3a,0x6e,0x80,0x33,0x40,0x0a,0x90,0x2c,0x3a,0x6e,0x80,0x2c,
0x40,0x0a,0x90,0x33,0x3a,0x6e,0x80,0x57,0x40,0x00,0x80,0x33,0x40,0x00,0x80,
0x4b,0x40,0x0a,0x90,0x57,0x3f,0x00,0x90,0x2f,0x3a,0x02,0x90,0x4b,0x3f,0x6c,
0x80,0x2f,0x40,0x0a,0x90,0x33,0x3a,0x6e,0x80,0x33,0x40,0x0a,0x90,0x2c,0x3a,
0x6e,0x80,0x2c,0x40,0x0a,0x90,0x33,0x3a,0x71,0x80,0x4b,0x40,0x00,0x80,0x33,
0x40,0x00,0x80,0x57,0x40,0x0a,0x90,0x57,0x3f,0x00,0x90,0x2f,0x3a,0x00,0x90,
0x4b,0x3f,0x6e,0x80,0x2f,0x40,0x0a,0x90,0x33,0x3a,0x57,0x80,0x4b,0x40,0x00,
0x80,0x33,0x40,0x00,0x80,0x57,0x40,0x0a,0x90,0x53,0x3f,0x02,0x90,0x47,0x3f,
0x15,0x90,0x2c,0x3a,0x6b,0x80,0x2c,0x40,0x0a,0x90,0x33,0x3a,0x5d,0x80,0x53,
0x40,0x00,0x80,0x33,0x40,0x00,0x80,0x47,0x40,0x0a,0x90,0x50,0x3f,0x00,0x90,
0x44,0x3f,0x11,0x90,0x2f,0x3a,0x6e,0x80,0x2f,0x40,0x0a,0x90,0x33,0x3a,0x5d,
0x80,0x50,0x40,0x00,0x80,0x33,0x40,0x00,0x80,0x44,0x40,0x0a,0x90,0x50,0x3f,
0x00,0x90,0x44,0x3f,0x11,0x90,0x2e,0x3a,0x6e,0x80,0x2e,0x40,0x0a,0x90,0x33,
0x3a,0x5a,0x80,0x50,0x40,0x00,0x80,0x44,0x40,0x03,0x80,0x33,0x40,0x07,0x90,
0x4f,0x3f,0x03,0x90,0x43,0x3f,0x11,0x90,0x31,0x3a,0x6e,0x80,0x31,0x40,0x0a,
0x90,0x33,0x3a,0x6e,0x80,0x33,0x40,0x0a,0x90,0x2e,0x3a,0x71,0x80,0x2e,0x40,
0x0a,0x90,0x33,0x3a,0x6e,0x80,0x4f,0x40,0x00,0x80,0x33,0x40,0x00,0x80,0x43,
0x40,0x0a,0x90,0x4f,0x3f,0x00,0x90,0x31,0x3a,0x00,0x90,0x43,0x3f,0x6e,0x80,
0x31,0x40,0x0a,0x90,0x33,0x3a,0x6b,0x80,0x33,0x40,0x0a,0x90,0x2e,0x3a,0x6e,
0x80,0x2e,0x40,0x0a,0x90,0x33,0x3a,0x6e,0x80,0x43,0x40,0x00,0x80,0x33,0x40,
0x00,0x80,0x4f,0x40,0x0a,0x90,0x4f,0x3f,0x02,0x90,0x31,0x3a,0x00,0x90,0x43,
0x3f,0x6c,0x80,0x31,0x40,0x0a,0x90,0x33,0x3a,0x5a,0x80,0x43,0x40,0x00,0x80,
0x4f,0x40,0x03,0x80,0x33,0x40,0x07,0x90,0x57,0x3f,0x03,0x90,0x4b,0x3f,0x11,
0x90,0x2e,0x3a,0x6e,0x80,0x2e,0x40,0x0a,0x90,0x33,0x3a,0x5a,0x80,0x57,0x40,
0x00,0x80,0x4b,0x40,0x02,0x80,0x33,0x40,0x08,0x90,0x4f,0x3f,0x02,0x90,0x43,
0x3f,0x12,0x90,0x31,0x3a,0x6e,0x80,0x31,0x40,0x0a,0x90,0x33,0x3a,0x5a,0x80,
0x4f,0x40,0x00,0x80,0x43,0x40,0x02,0x80,0x33,0x40,0x08,0x90,0x52,0x3f,0x02,
0x90,0x46,0x3f,0x15,0x90,0x2f,0x3a,0x6e,0x80,0x2f,0x40,0x0a,0x90,0x33,0x3a,
0x57,0x80,0x52,0x40,0x00,0x80,0x33,0x40,0x00,0x80,0x46,0x40,0x0a,0x90,0x50,
0x3f,0x02,0x90,0x44,0x3f,0x15,0x90,0x2f,0x3a,0x6b,0x80,0x2f,0x40,0x0a,0x90,
0x33,0x3a,0x6e,0x80,0x33,0x40,0x0a,0x90,0x2f,0x3a,0x6e,0x80,0x2f,0x40,0x0a,
0x90,0x33,0x3a,0x6e,0x80,0x50,0x40,0x00,0x80,0x33,0x40,0x00,0x80,0x44,0x40,
0x0a,0x90,0x50,0x3f,0x02,0x90,0x2f,0x3a,0x00,0x90,0x44,0x3f,0x6c,0x80,0x2f,
0x40,0x0a,0x90,0x33,0x3a,0x6e,0x80,0x33,0x40,0x0a,0x90,0x2f,0x3a,0x6e,0x80,
0x2f,0x40,0x0a,0x90,0x33,0x3a,0x6e,0x80,0x44,0x40,0x00,0x80,0x33,0x40,0x00,
0x80,0x50,0x40,0x0a,0x90,0x50,0x3f,0x00,0x90,0x2f,0x3a,0x02,0x90,0x44,0x3f,
0x6c,0x80,0x2f,0x40,0x0a,0x90,0x33,0x3a,0x5a,0x80,0x44,0x40,0x00,0x80,0x33,
0x40,0x00,0x80,0x50,0x40,0x0a,0x90,0x57,0x3f,0x02,0x90,0x4b,0x3f,0x15,0x90,
0x2f,0x3a,0x6e,0x80,0x2f,0x40,0x0a,0x90,0x33,0x3a,0x57,0x80,0x57,0x40,0x00,
0x80,0x33,0x40,0x00,0x80,0x4b,0x40,0x0a,0x90,0x50,0x3f,0x02,0x90,0x44,0x3f,
0x15,0x90,0x2f,0x3a,0x6b,0x80,0x2f,0x40,0x0a,0x90,0x33,0x3a,0x5d,0x80,0x50,
0x40,0x00,0x80,0x33,0x40,0x00,0x80,0x44,0x40,0x0a,0x90,0x53,0x3f,0x00,0x90,
0x47,0x3f,0x11,0x90,0x2b,0x3a,0x6e,0x80,0x2b,0x40,0x0a,0x90,0x33,0x3a,0x5d,
0x80,0x53,0x40,0x00,0x80,0x33,0x40,0x00,0x80,0x47,0x40,0x0a,0x90,0x52,0x3f,
0x00,0x90,0x46,0x3f,0x11,0x90,0x2b,0x3a,0x6e,0x80,0x2b,0x40,0x0a,0x90,0x33,
0x3a,0x6e,0x80,0x33,0x40,0x0a,0x90,0x2b,0x3a,0x6e,0x80,0x2b,0x40,0x0a,0x90,
0x33,0x3a,0x6e,0x80,0x52,0x40,0x00,0x80,0x33,0x40,0x00,0x80,0x46,0x40,0x0a,
0x90,0x52,0x3f,0x00,0x90,0x2b,0x3a,0x02,0x90,0x46,0x3f,0x6f,0x80,0x2b,0x40,
0x0a,0x90,0x33,0x3a,0x6e,0x80,0x33,0x40,0x0a,0x90,0x2b,0x3a,0x6e,0x80,0x2b,
0x40,0x0a,0x90,0x33,0x3a,0x6b,0x80,0x46,0x40,0x00,0x80,0x33,0x40,0x00,0x80,
0x52,0x40,0x0a,0x90,0x52,0x3f,0x03,0x90,0x2b,0x3a,0x00,0x90,0x46,0x3f,0x6b,
0x80,0x2b,0x40,0x0a,0x90,0x33,0x3a,0x5d,0x80,0x46,0x40,0x00,0x80,0x33,0x40,
0x00,0x80,0x52,0x40,0x0a,0x90,0x57,0x3f,0x00,0x90,0x4b,0x3f,0x11,0x90,0x2b,
0x3a,0x6e,0x80,0x2b,0x40,0x0a,0x90,0x33,0x3a,0x5a,0x80,0x57,0x40,0x00,0x80,
0x4b,0x40,0x03,0x80,0x33,0x40,0x07,0x90,0x52,0x3f,0x03,0x90,0x46,0x3f,0x11,
0x90,0x2b,0x3a,0x6e,0x80,0x2b,0x40,0x0a,0x90,0x33,0x3a,0x5a,0x80,0x52,0x40,
0x00,0x80,0x46,0x40,0x02,0x80,0x33,0x40,0x08,0x90,0x54,0x4f,0x02,0x90,0x48,
0x4f,0x12,0x90,0x2a,0x3a,0x6e,0x80,0x2a,0x40,0x0a,0x90,0x33,0x3a,0x71,0x80,
0x33,0x40,0x0a,0x90,0x2c,0x3a,0x6e,0x80,0x2c,0x40,0x0a,0x90,0x33,0x3a,0x6e,
0x80,0x33,0x40,0x0a,0x90,0x2a,0x3a,0x6b,0x80,0x2a,0x40,0x0a,0x90,0x33,0x3a,
0x6e,0x80,0x33,0x40,0x0a,0x90,0x2c,0x3a,0x6e,0x80,0x2c,0x40,0x0a,0x90,0x33,
0x3a,0x6e,0x80,0x54,0x40,0x00,0x80,0x33,0x40,0x00,0x80,0x48,0x40,0x0a,0x90,
0x55,0x4f,0x02,0x90,0x28,0x3a,0x00,0x90,0x49,0x4f,0x6c,0x80,0x28,0x40,0x0a,
0x90,0x31,0x3a,0x6e,0x80,0x31,0x40,0x0a,0x90,0x2c,0x3a,0x6e,0x80,0x2c,0x40,
0x0a,0x90,0x31,0x3a,0x6e,0x80,0x31,0x40,0x0a,0x90,0x28,0x3a,0x71,0x80,0x28,
0x40,0x0a,0x90,0x31,0x3a,0x6e,0x80,0x31,0x40,0x0a,0x90,0x2c,0x3a,0x6e,0x80,
0x2c,0x40,0x0a,0x90,0x31,0x3a,0x6b,0x80,0x49,0x40,0x00,0x80,0x31,0x40,0x00,
0x80,0x55,0x40,0x0a,0x90,0x52,0x47,0x03,0x90,0x28,0x3a,0x00,0x90,0x46,0x47,
0x43,0x80,0x52,0x40,0x0a,0x90,0x53,0x47,0x1e,0x80,0x28,0x40,0x0a,0x90,0x31,
0x3a,0x21,0x80,0x53,0x40,0x0a,0x90,0x52,0x47,0x43,0x80,0x31,0x40,0x00,0x80,
0x52,0x40,0x0a,0x90,0x50,0x47,0x02,0x90,0x2a,0x3a,0x6c,0x80,0x50,0x40,0x00,
0x80,0x2a,0x40,0x0a,0x90,0x52,0x47,0x02,0x90,0x31,0x3a,0x6c,0x80,0x46,0x40,
0x00,0x80,0x31,0x40,0x00,0x80,0x52,0x40,0x0a,0x90,0x53,0x4f,0x02,0x90,0x27,
0x3a,0x00,0x90,0x47,0x4f,0x6c,0x80,0x27,0x40,0x0a,0x90,0x2f,0x3a,0x6e,0x80,
0x2f,0x40,0x0a,0x90,0x2a,0x3a,0x6e,0x80,0x2a,0x40,0x0a,0x90,0x2f,0x3a,0x6e,
0x80,0x2f,0x40,0x0a,0x90,0x27,0x3a,0x71,0x80,0x27,0x40,0x0a,0x90,0x2f,0x3a,
0x6e,0x80,0x2f,0x40,0x0a,0x90,0x2a,0x3a,0x6e,0x80,0x2a,0x40,0x0a,0x90,0x2f,
0x3a,0x6b,0x80,0x2f,0x40,0x0a,0x90,0x27,0x3a,0x6e,0x80,0x27,0x40,0x0a,0x90,
0x2f,0x3a,0x6e,0x80,0x2f,0x40,0x0a,0x90,0x2a,0x3a,0x6e,0x80,0x2a,0x40,0x0a,
0x90,0x2f,0x3a,0x6e,0x80,0x47,0x40,0x00,0x80,0x2f,0x40,0x00,0x80,0x53,0x40,
0x0a,0x90,0x50,0x4f,0x00,0x90,0x26,0x3a,0x02,0x90,0x44,0x4f,0x6c,0x80,0x26,
0x40,0x0a,0x90,0x2f,0x3a,0x6e,0x80,0x2f,0x40,0x0a,0x90,0x28,0x3a,0x6e,0x80,
0x28,0x40,0x0a,0x90,0x2f,0x3a,0x71,0x80,0x2f,0x40,0x0a,0x90,0x26,0x3a,0x6e,
0x80,0x26,0x40,0x0a,0x90,0x2f,0x3a,0x6e,0x80,0x2f,0x40,0x0a,0x90,0x28,0x3a,
0x6b,0x80,0x28,0x40,0x0a,0x90,0x2f,0x3a,0x6e,0x80,0x44,0x40,0x00,0x80,0x2f,
0x40,0x00,0x80,0x50,0x40,0x0a,0x90,0x51,0x4f,0x02,0x90,0x25,0x3a,0x00,0x90,
0x45,0x4f,0x6c,0x80,0x25,0x40,0x0a,0x90,0x2d,0x3a,0x6e,0x80,0x2d,0x40,0x0a,
0x90,0x28,0x3a,0x6e,0x80,0x28,0x40,0x0a,0x90,0x2d,0x3a,0x6e,0x80,0x2d,0x40,
0x0a,0x90,0x25,0x3a,0x6e,0x80,0x25,0x40,0x0a,0x90,0x2d,0x3a,0x6e,0x80,0x2d,
0x40,0x0a,0x90,0x28,0x3a,0x71,0x80,0x28,0x40,0x0a,0x90,0x2d,0x3a,0x6b,0x80,
0x45,0x40,0x00,0x80,0x2d,0x40,0x00,0x80,0x51,0x40,0x0a,0x90,0x4f,0x47,0x00,
0x90,0x25,0x3a,0x00,0x90,0x43,0x47,0x46,0x80,0x4f,0x40,0x0a,0x90,0x50,0x47,
0x21,0x80,0x25,0x40,0x0a,0x90,0x2e,0x3a,0x1b,0x80,0x50,0x40,0x0a,0x90,0x4f,
0x47,0x46,0x80,0x2e,0x40,0x00,0x80,0x4f,0x40,0x0a,0x90,0x4d,0x47,0x03,0x90,
0x27,0x3a,0x6b,0x80,0x4d,0x40,0x00,0x80,0x27,0x40,0x0a,0x90,0x4f,0x47,0x02,
0x90,0x2e,0x3a,0x6c,0x80,0x43,0x40,0x00,0x80,0x2e,0x40,0x00,0x80,0x4f,0x40,
0x0a,0x90,0x50,0x4f,0x02,0x90,0x23,0x3a,0x00,0x90,0x44,0x4f,0x6c,0x80,0x23,
0x40,0x0a,0x90,0x2c,0x3a,0x6e,0x80,0x2c,0x40,0x0a,0x90,0x27,0x3a,0x6e,0x80,
0x27,0x40,0x0a,0x90,0x2c,0x3a,0x6e,0x80,0x2c,0x40,0x0a,0x90,0x23,0x3a,0x6e,
0x80,0x23,0x40,0x0a,0x90,0x2c,0x3a,0x6e,0x80,0x2c,0x40,0x0a,0x90,0x27,0x3a,
0x6e,0x80,0x27,0x40,0x0a,0x90,0x2c,0x3a,0x71,0x80,0x2c,0x40,0x0a,0x90,0x23,
0x3a,0x6e,0x80,0x23,0x40,0x0a,0x90,0x2c,0x3a,0x6b,0x80,0x2c,0x40,0x0a,0x90,
0x27,0x3a,0x6e,0x80,0x27,0x40,0x0a,0x90,0x2c,0x3a,0x60,0x80,0x44,0x40,0x00,
0x80,0x2c,0x40,0x00,0x80,0x50,0x40,0x0a,0x90,0x45,0x57,0x00,0x90,0x31,0x57,
0x04,0x90,0x2d,0x57,0x00,0x90,0x28,0x57,0x00,0x90,0x25,0x57,0x0a,0x90,0x51,
0x57,0x02,0x90,0x4c,0x57,0x00,0x90,0x49,0x57,0x88,0x2c,0x80,0x45,0x40,0x00,
0x80,0x49,0x40,0x00,0x80,0x4c,0x40,0x00,0x80,0x51,0x40,0x0a,0x90,0x4c,0x3a,
0x6e,0x80,0x4c,0x40,0x0a,0x90,0x4e,0x3a,0x6e,0x80,0x4e,0x40,0x0a,0x90,0x50,
0x3a,0x6e,0x80,0x25,0x40,0x00,0x80,0x50,0x40,0x00,0x80,0x31,0x40,0x00,0x80,
0x2d,0x40,0x00,0x80,0x28,0x40,0x0a,0x90,0x51,0x3a,0x6e,0x80,0x51,0x40,0x0a,
0x90,0x53,0x3a,0x6e,0x80,0x53,0x40,0x0a,0x90,0x55,0x3a,0x6e,0x80,0x55,0x40,
0x0a,0x90,0x53,0x3a,0x5c,0x80,0x53,0x40,0x0a,0x90,0x45,0x3a,0x00,0x90,0x40,
0x3a,0x00,0x90,0x3d,0x3a,0x12,0x90,0x51,0x3a,0x71,0x80,0x51,0x40,0x0a,0x90,
0x4c,0x3a,0x6e,0x80,0x4c,0x40,0x0a,0x90,0x4e,0x3a,0x6e,0x80,0x4e,0x40,0x0a,
0x90,0x50,0x3a,0x6e,0x80,0x40,0x40,0x00,0x80,0x50,0x40,0x00,0x80,0x3d,0x40,
0x00,0x80,0x45,0x40,0x0a,0x90,0x51,0x3a,0x6b,0x80,0x51,0x40,0x0a,0x90,0x53,
0x3a,0x6e,0x80,0x53,0x40,0x0a,0x90,0x55,0x3a,0x6e,0x80,0x55,0x40,0x0a,0x90,
0x53,0x3a,0x5d,0x80,0x53,0x40,0x0a,0x90,0x45,0x3a,0x00,0x90,0x40,0x3a,0x03,
0x90,0x3d,0x3a,0x0e,0x90,0x51,0x3a,0x6e,0x80,0x51,0x40,0x0a,0x90,0x4c,0x3a,
0x6e,0x80,0x4c,0x40,0x0a,0x90,0x4e,0x3a,0x6e,0x80,0x4e,0x40,0x0a,0x90,0x50,
0x3a,0x6e,0x80,0x40,0x40,0x00,0x80,0x50,0x40,0x00,0x80,0x3d,0x40,0x00,0x80,
0x45,0x40,0x0a,0x90,0x51,0x3a,0x71,0x80,0x51,0x40,0x0a,0x90,0x53,0x3a,0x6e,
0x80,0x53,0x40,0x0a,0x90,0x55,0x3a,0x6e,0x80,0x55,0x40,0x0a,0x90,0x53,0x3a,
0x57,0x80,0x53,0x40,0x0a,0x90,0x45,0x3a,0x02,0x90,0x40,0x3a,0x00,0x90,0x3d,
0x3a,0x12,0x90,0x51,0x3a,0x6e,0x80,0x51,0x40,0x0a,0x90,0x4c,0x3a,0x6e,0x80,
0x4c,0x40,0x0a,0x90,0x4e,0x3a,0x6e,0x80,0x4e,0x40,0x0a,0x90,0x50,0x3a,0x6e,
0x80,0x40,0x40,0x00,0x80,0x50,0x40,0x00,0x80,0x3d,0x40,0x00,0x80,0x45,0x40,
0x0a,0x90,0x51,0x3a,0x00,0x90,0x45,0x3a,0x02,0x90,0x40,0x3a,0x00,0x90,0x3d,
0x3a,0x6c,0x80,0x51,0x40,0x0a,0x90,0x53,0x3a,0x6e,0x80,0x53,0x40,0x0a,0x90,
0x55,0x3a,0x6e,0x80,0x55,0x40,0x0a,0x90,0x56,0x3a,0x71,0x80,0x3d,0x40,0x00,
0x80,0x56,0x40,0x00,0x80,0x40,0x40,0x00,0x80,0x45,0x40,0x0a,0x90,0x58,0x3b,
0x00,0x90,0x45,0x3a,0x03,0x90,0x40,0x3a,0x00,0x90,0x3d,0x3a,0x6b,0x80,0x58,
0x40,0x0a,0x90,0x57,0x3b,0x6e,0x80,0x57,0x40,0x0a,0x90,0x58,0x3b,0x6b,0x80,
0x58,0x40,0x0a,0x90,0x57,0x3b,0x6e,0x80,0x3d,0x40,0x00,0x80,0x57,0x40,0x00,
0x80,0x40,0x40,0x00,0x80,0x45,0x40,0x0a,0x90,0x58,0x3d,0x02,0x90,0x45,0x3a,
0x00,0x90,0x40,0x3a,0x03,0x90,0x3d,0x3a,0x69,0x80,0x58,0x40,0x0a,0x90,0x55,
0x3d,0x6e,0x80,0x55,0x40,0x0a,0x90,0x53,0x3d,0x6e,0x80,0x53,0x40,0x0a,0x90,
0x51,0x3d,0x6e,0x80,0x3d,0x40,0x00,0x80,0x51,0x40,0x00,0x80,0x40,0x40,0x00,
0x80,0x45,0x40,0x0a,0x90,0x50,0x3a,0x00,0x90,0x3f,0x3a,0x6e,0x80,0x3f,0x40,
0x0a,0x90,0x47,0x3a,0x6e,0x80,0x47,0x40,0x0a,0x90,0x44,0x3a,0x71,0x80,0x44,
0x40,0x0a,0x90,0x47,0x3a,0x6e,0x80,0x47,0x40,0x0a,0x90,0x3f,0x3a,0x6e,0x80,
0x3f,0x40,0x0a,0x90,0x47,0x3a,0x6b,0x80,0x47,0x40,0x0a,0x90,0x44,0x3a,0x6e,
0x80,0x44,0x40,0x0a,0x90,0x47,0x3a,0x6e,0x80,0x50,0x40,0x00,0x80,0x47,0x40,
0x0a,0x90,0x52,0x3a,0x02,0x90,0x3f,0x3a,0x44,0x80,0x52,0x40,0x0a,0x90,0x53,
0x3a,0x1e,0x80,0x3f,0x40,0x0a,0x90,0x49,0x3a,0x21,0x80,0x53,0x40,0x0a,0x90,
0x52,0x3a,0x43,0x80,0x49,0x40,0x00,0x80,0x52,0x40,0x0a,0x90,0x53,0x3a,0x02,
0x90,0x43,0x3a,0x47,0x80,0x53,0x40,0x0a,0x90,0x52,0x3a,0x1b,0x80,0x43,0x40,
0x0a,0x90,0x49,0x3a,0x1e,0x80,0x52,0x40,0x0a,0x90,0x53,0x3a,0x46,0x80,0x49,
0x40,0x00,0x80,0x53,0x40,0x0a,0x90,0x52,0x3a,0x00,0x90,0x3f,0x3a,0x49,0x80,
0x52,0x40,0x0a,0x90,0x53,0x3a,0x1b,0x80,0x3f,0x40,0x0a,0x90,0x49,0x3a,0x1e,
0x80,0x53,0x40,0x0a,0x90,0x52,0x3a,0x46,0x80,0x49,0x40,0x00,0x80,0x52,0x40,
0x0a,0x90,0x50,0x3a,0x00,0x90,0x43,0x3a,0x71,0x80,0x50,0x40,0x00,0x80,0x43,
0x40,0x0a,0x90,0x52,0x3a,0x00,0x90,0x49,0x3a,0x59,0x80,0x52,0x40,0x00,0x80,
0x49,0x40,0x0a,0x90,0x44,0x3a,0x00,0x90,0x40,0x3a,0x15,0x90,0x50,0x3a,0x00,
0x90,0x47,0x3a,0x83,0x42,0x80,0x44,0x40,0x00,0x80,0x47,0x40,0x00,0x80,0x50,
0x40,0x00,0x80,0x40,0x40,0x0a,0x90,0x45,0x57,0x00,0x90,0x40,0x57,0x00,0x90,
0x3d,0x57,0x07,0x90,0x39,0x57,0x00,0x90,0x31,0x57,0x03,0x90,0x2d,0x57,0x00,
0x90,0x28,0x57,0x00,0x90,0x25,0x57,0x84,0x55,0x80,0x45,0x40,0x00,0x80,0x40,
0x40,0x00,0x80,0x39,0x40,0x00,0x80,0x3d,0x40,0x0a,0x90,0x40,0x3a,0x71,0x80,
0x40,0x40,0x0a,0x90,0x42,0x3a,0x6e,0x80,0x42,0x40,0x0a,0x90,0x44,0x3a,0x6e,
0x80,0x31,0x40,0x00,0x80,0x44,0x40,0x00,0x80,0x25,0x40,0x00,0x80,0x2d,0x40,
0x00,0x80,0x28,0x40,0x0a,0x90,0x45,0x3a,0x6b,0x80,0x45,0x40,0x0a,0x90,0x47,
0x3a,0x6e,0x80,0x47,0x40,0x0a,0x90,0x49,0x3a,0x6e,0x80,0x49,0x40,0x0a,0x90,
0x47,0x3a,0x6e,0x80,0x47,0x40,0x0a,0x90,0x45,0x3a,0x6e,0x80,0x45,0x40,0x0a,
0x90,0x40,0x3a,0x6e,0x80,0x40,0x40,0x0a,0x90,0x42,0x3a,0x6e,0x80,0x42,0x40,
0x0a,0x90,0x44,0x3a,0x5c,0x80,0x44,0x40,0x0a,0x90,0x39,0x3a,0x00,0x90,0x34,
0x3a,0x00,0x90,0x31,0x3a,0x12,0x90,0x45,0x3a,0x71,0x80,0x45,0x40,0x0a,0x90,
0x47,0x3a,0x6e,0x80,0x47,0x40,0x0a,0x90,0x49,0x3a,0x6e,0x80,0x49,0x40,0x0a,
0x90,0x47,0x3a,0x6b,0x80,0x34,0x40,0x00,0x80,0x47,0x40,0x00,0x80,0x31,0x40,
0x00,0x80,0x39,0x40,0x0a,0x90,0x45,0x3a,0x6e,0x80,0x45,0x40,0x0a,0x90,0x40,
0x3a,0x6e,0x80,0x40,0x40,0x0a,0x90,0x42,0x3a,0x6e,0x80,0x42,0x40,0x0a,0x90,
0x44,0x3a,0x5d,0x80,0x44,0x40,0x0a,0x90,0x39,0x3a,0x00,0x90,0x34,0x3a,0x03,
0x90,0x31,0x3a,0x0e,0x90,0x45,0x3a,0x6e,0x80,0x45,0x40,0x0a,0x90,0x47,0x3a,
0x6e,0x80,0x47,0x40,0x0a,0x90,0x49,0x3a,0x6e,0x80,0x49,0x40,0x0a,0x90,0x47,
0x3a,0x71,0x80,0x34,0x40,0x00,0x80,0x47,0x40,0x00,0x80,0x31,0x40,0x00,0x80,
0x39,0x40,0x0a,0x90,0x45,0x3a,0x6e,0x80,0x45,0x40,0x0a,0x90,0x40,0x3a,0x57,
0x80,0x40,0x40,0x0a,0x90,0x39,0x3a,0x02,0x90,0x34,0x3a,0x00,0x90,0x31,0x3a,
0x15,0x90,0x42,0x3a,0x6b,0x80,0x42,0x40,0x0a,0x90,0x44,0x3a,0x6e,0x80,0x34,
0x40,0x00,0x80,0x44,0x40,0x00,0x80,0x31,0x40,0x00,0x80,0x39,0x40,0x0a,0x90,
0x45,0x3a,0x6e,0x80,0x45,0x40,0x0a,0x90,0x47,0x3b,0x5d,0x80,0x47,0x40,0x0a,
0x90,0x39,0x3b,0x00,0x90,0x34,0x3b,0x03,0x90,0x31,0x3b,0x0e,0x90,0x49,0x3b,
0x6e,0x80,0x49,0x40,0x0a,0x90,0x47,0x3b,0x6e,0x80,0x34,0x40,0x00,0x80,0x47,
0x40,0x00,0x80,0x31,0x40,0x00,0x80,0x39,0x40,0x0a,0x90,0x45,0x3b,0x6e,0x80,
0x45,0x40,0x0a,0x90,0x40,0x3b,0x5c,0x80,0x40,0x40,0x0a,0x90,0x39,0x3f,0x00,
0x90,0x34,0x3f,0x00,0x90,0x31,0x3f,0x12,0x90,0x42,0x3f,0x6e,0x80,0x42,0x40,
0x0a,0x90,0x44,0x3f,0x71,0x80,0x34,0x40,0x00,0x80,0x44,0x40,0x00,0x80,0x31,
0x40,0x00,0x80,0x39,0x40,0x0a,0x90,0x45,0x3f,0x6e,0x80,0x45,0x40,0x0a,0x90,
0x47,0x3f,0x57,0x80,0x47,0x40,0x0a,0x90,0x39,0x43,0x02,0x90,0x34,0x43,0x00,
0x90,0x31,0x43,0x15,0x90,0x49,0x3f,0x6b,0x80,0x49,0x40,0x0a,0x90,0x47,0x3f,
0x6e,0x80,0x34,0x40,0x00,0x80,0x47,0x40,0x00,0x80,0x31,0x40,0x00,0x80,0x39,
0x40,0x0a,0x90,0x45,0x43,0x02,0x90,0x39,0x43,0x00,0x90,0x34,0x43,0x00,0x90,
0x31,0x43,0x6c,0x80,0x45,0x40,0x0a,0x90,0x40,0x43,0x6e,0x80,0x40,0x40,0x0a,
0x90,0x42,0x43,0x6e,0x80,0x42,0x40,0x0a,0x90,0x44,0x43,0x6e,0x80,0x31,0x40,
0x00,0x80,0x44,0x40,0x00,0x80,0x34,0x40,0x00,0x80,0x39,0x40,0x0a,0x90,0x45,
0x43,0x6e,0x80,0x45,0x40,0x0a,0x90,0x47,0x43,0x6e,0x80,0x47,0x40,0x0a,0x90,
0x49,0x47,0x71,0x80,0x49,0x40,0x0a,0x90,0x4a,0x47,0x6e,0x80,0x4a,0x40,0x0a,
0x90,0x4c,0x47,0x6e,0x80,0x4c,0x40,0x0a,0x90,0x4e,0x47,0x6b,0x80,0x4e,0x40,
0x0a,0x90,0x50,0x47,0x6e,0x80,0x50,0x40,0x0a,0x90,0x51,0x47,0x6e,0x80,0x51,
0x40,0x0a,0x90,0x53,0x47,0x6e,0x80,0x53,0x40,0x0a,0x90,0x55,0x47,0x6e,0x80,
0x55,0x40,0x0a,0x90,0x56,0x47,0x6e,0x80,0x56,0x40,0x0a,0x90,0x57,0x47,0x5c,
0x80,0x57,0x40,0x0a,0x90,0x4c,0x4f,0x00,0x90,0x31,0x47,0x12,0x90,0x58,0x4f,
0x6e,0x80,0x31,0x40,0x0a,0x90,0x39,0x47,0x71,0x80,0x39,0x40,0x0a,0x90,0x34,
0x47,0x6e,0x80,0x34,0x40,0x0a,0x90,0x39,0x47,0x6e,0x80,0x39,0x40,0x0a,0x90,
0x31,0x47,0x6e,0x80,0x31,0x40,0x0a,0x90,0x39,0x47,0x6b,0x80,0x39,0x40,0x0a,
0x90,0x34,0x47,0x6e,0x80,0x34,0x40,0x0a,0x90,0x39,0x47,0x6e,0x80,0x58,0x40,
0x00,0x80,0x39,0x40,0x00,0x80,0x4c,0x40,0x0a,0x90,0x50,0x4f,0x02,0x90,0x44,
0x4f,0x00,0x90,0x32,0x47,0x6c,0x80,0x32,0x40,0x0a,0x90,0x3b,0x47,0x6e,0x80,
0x3b,0x40,0x0a,0x90,0x35,0x47,0x6e,0x80,0x35,0x40,0x0a,0x90,0x3b,0x47,0x6e,
0x80,0x3b,0x40,0x0a,0x90,0x32,0x47,0x6e,0x80,0x32,0x40,0x0a,0x90,0x3b,0x47,
0x71,0x80,0x3b,0x40,0x0a,0x90,0x35,0x47,0x6e,0x80,0x35,0x40,0x0a,0x90,0x3b,
0x47,0x6e,0x80,0x50,0x40,0x00,0x80,0x3b,0x40,0x00,0x80,0x44,0x40,0x0a,0x90,
0x53,0x4f,0x00,0x90,0x47,0x4f,0x00,0x90,0x33,0x47,0x6e,0x80,0x33,0x40,0x0a,
0x90,0x3b,0x47,0x6b,0x80,0x3b,0x40,0x0a,0x90,0x38,0x47,0x6e,0x80,0x38,0x40,
0x0a,0x90,0x3b,0x47,0x6e,0x80,0x3b,0x40,0x0a,0x90,0x33,0x47,0x6e,0x80,0x33,
0x40,0x0a,0x90,0x3b,0x47,0x6e,0x80,0x3b,0x40,0x0a,0x90,0x38,0x47,0x6e,0x80,
0x38,0x40,0x0a,0x90,0x3b,0x47,0x5c,0x80,0x53,0x40,0x00,0x80,0x3b,0x40,0x00,
0x80,0x47,0x40,0x0a,0x90,0x3d,0x43,0x12,0x90,0x43,0x4f,0x00,0x90,0x37,0x4f,
0x02,0x90,0x27,0x47,0x6f,0x80,0x27,0x40,0x0a,0x90,0x33,0x47,0x6e,0x80,0x33,
0x40,0x0a,0x90,0x32,0x47,0x6e,0x80,0x32,0x40,0x0a,0x90,0x33,0x47,0x6e,0x80,
0x33,0x40,0x0a,0x90,0x32,0x47,0x6b,0x80,0x32,0x40,0x0a,0x90,0x33,0x47,0x6e,
0x80,0x33,0x40,0x0a,0x90,0x32,0x47,0x6e,0x80,0x32,0x40,0x0a,0x90,0x33,0x47,
0x6e,0x80,0x43,0x40,0x00,0x80,0x33,0x40,0x00,0x80,0x37,0x40,0x00,0x80,0x3d,
0x40,0x0a,0x90,0x44,0x4f,0x00,0x90,0x3b,0x4f,0x02,0x90,0x38,0x43,0x00,0x90,
0x2c,0x47,0x81,0x64,0x80,0x44,0x40,0x00,0x80,0x2c,0x40,0x00,0x80,0x38,0x40,
0x00,0x80,0x3b,0x40,0x0a,0x90,0x47,0x3a,0x00,0x90,0x3f,0x3a,0x02,0x90,0x38,
0x3a,0x81,0x50,0x80,0x47,0x40,0x00,0x80,0x38,0x40,0x00,0x80,0x3f,0x40,0x0a,
0x90,0x47,0x3a,0x02,0x90,0x3f,0x3a,0x00,0x90,0x38,0x3a,0x81,0x64,0x80,0x47,
0x40,0x00,0x80,0x38,0x40,0x00,0x80,0x3f,0x40,0x0a,0x90,0x47,0x3a,0x00,0x90,
0x3f,0x3a,0x02,0x90,0x38,0x3a,0x81,0x67,0x80,0x47,0x40,0x00,0x80,0x38,0x40,
0x00,0x80,0x3f,0x40,0x0a,0x90,0x47,0x3a,0x00,0x90,0x3f,0x3a,0x03,0x90,0x38,
0x3a,0x81,0x63,0x80,0x47,0x40,0x00,0x80,0x38,0x40,0x00,0x80,0x3f,0x40,0x0a,
0x90,0x47,0x3a,0x00,0x90,0x3f,0x3a,0x00,0x90,0x38,0x3a,0x81,0x63,0x80,0x47,
0x40,0x00,0x80,0x38,0x40,0x00,0x80,0x3f,0x40,0x0a,0x90,0x46,0x3a,0x02,0x90,
0x3f,0x3a,0x00,0x90,0x3a,0x3a,0x81,0x64,0x80,0x46,0x40,0x00,0x80,0x3a,0x40,
0x00,0x80,0x3f,0x40,0x0a,0x90,0x44,0x3a,0x02,0x90,0x3f,0x3a,0x00,0x90,0x3b,
0x3a,0x81,0x64,0x80,0x44,0x40,0x00,0x80,0x3b,0x40,0x00,0x80,0x3f,0x40,0x0a,
0x90,0x43,0x3a,0x00,0x90,0x3f,0x3a,0x02,0x90,0x3d,0x3a,0x00,0x90,0x33,0x3a,
0x81,0x7b,0x80,0x43,0x40,0x00,0x80,0x33,0x40,0x00,0x80,0x3d,0x40,0x00,0x80,
0x3f,0x40,0x0a,0x90,0x4b,0x3a,0x00,0x90,0x43,0x3a,0x00,0x90,0x3d,0x3a,0x03,
0x90,0x3f,0x3a,0x81,0x60,0x80,0x4b,0x40,0x00,0x80,0x3f,0x40,0x00,0x80,0x3d,
0x40,0x00,0x80,0x43,0x40,0x0a,0x90,0x4b,0x3a,0x02,0x90,0x43,0x3a,0x00,0x90,
0x3d,0x3a,0x00,0x90,0x3f,0x3a,0x81,0x64,0x80,0x4b,0x40,0x00,0x80,0x3f,0x40,
0x00,0x80,0x3d,0x40,0x00,0x80,0x43,0x40,0x0a,0x90,0x4b,0x3a,0x02,0x90,0x43,
0x3a,0x00,0x90,0x3d,0x3a,0x00,0x90,0x3f,0x3a,0x81,0x64,0x80,0x4b,0x40,0x00,
0x80,0x3f,0x40,0x00,0x80,0x3d,0x40,0x00,0x80,0x43,0x40,0x0a,0x90,0x4b,0x3a,
0x00,0x90,0x43,0x3a,0x02,0x90,0x3d,0x3a,0x00,0x90,0x3f,0x3a,0x81,0x64,0x80,
0x4b,0x40,0x00,0x80,0x3f,0x40,0x00,0x80,0x3d,0x40,0x00,0x80,0x43,0x40,0x0a,
0x90,0x4b,0x3a,0x00,0x90,0x43,0x3a,0x02,0x90,0x3d,0x3a,0x00,0x90,0x3f,0x3a,
0x81,0x67,0x80,0x4b,0x40,0x00,0x80,0x3f,0x40,0x00,0x80,0x3d,0x40,0x00,0x80,
0x43,0x40,0x0a,0x90,0x4b,0x3a,0x00,0x90,0x44,0x3a,0x00,0x90,0x3b,0x3a,0x03,
0x90,0x3f,0x3a,0x81,0x60,0x80,0x4b,0x40,0x00,0x80,0x3f,0x40,0x00,0x80,0x3b,
0x40,0x00,0x80,0x44,0x40,0x0a,0x90,0x4b,0x3a,0x03,0x90,0x46,0x3a,0x00,0x90,
0x3a,0x3a,0x03,0x90,0x3f,0x3a,0x81,0x60,0x80,0x4b,0x40,0x00,0x80,0x3f,0x40,
0x00,0x80,0x3a,0x40,0x00,0x80,0x46,0x40,0x0a,0x90,0x4b,0x3a,0x02,0x90,0x47,
0x3a,0x00,0x90,0x38,0x3a,0x00,0x90,0x2c,0x3a,0x81,0x64,0x80,0x4b,0x40,0x00,
0x80,0x2c,0x40,0x00,0x80,0x38,0x40,0x00,0x80,0x47,0x40,0x0a,0x90,0x47,0x3a,
0x00,0x90,0x3f,0x3a,0x02,0x90,0x38,0x3a,0x81,0x64,0x80,0x47,0x40,0x00,0x80,
0x38,0x40,0x00,0x80,0x3f,0x40,0x0a,0x90,0x47,0x3a,0x00,0x90,0x3f,0x3a,0x02,
0x90,0x38,0x3a,0x81,0x67,0x80,0x47,0x40,0x00,0x80,0x38,0x40,0x00,0x80,0x3f,
0x40,0x0a,0x90,0x47,0x3a,0x00,0x90,0x3f,0x3a,0x03,0x90,0x38,0x3a,0x81,0x60,
0x80,0x47,0x40,0x00,0x80,0x38,0x40,0x00,0x80,0x3f,0x40,0x0a,0x90,0x47,0x3a,
0x03,0x90,0x3f,0x3a,0x00,0x90,0x38,0x3a,0x81,0x63,0x80,0x47,0x40,0x00,0x80,
0x38,0x40,0x00,0x80,0x3f,0x40,0x0a,0x90,0x47,0x3a,0x02,0x90,0x3f,0x3a,0x00,
0x90,0x38,0x3a,0x81,0x64,0x80,0x47,0x40,0x00,0x80,0x38,0x40,0x00,0x80,0x3f,
0x40,0x0a,0x90,0x46,0x3a,0x02,0x90,0x3f,0x3a,0x00,0x90,0x3a,0x3a,0x81,0x64,
0x80,0x46,0x40,0x00,0x80,0x3a,0x40,0x00,0x80,0x3f,0x40,0x0a,0x90,0x44,0x3a,
0x00,0x90,0x3f,0x3a,0x02,0x90,0x3b,0x3a,0x81,0x52,0x80,0x44,0x40,0x00,0x80,
0x3b,0x40,0x00,0x80,0x3f,0x40,0x0a,0x90,0x33,0x3a,0x12,0x90,0x43,0x3a,0x00,
0x90,0x3f,0x3a,0x02,0x90,0x3d,0x3a,0x81,0x67,0x80,0x33,0x40,0x00,0x80,0x3d,
0x40,0x00,0x80,0x3f,0x40,0x00,0x80,0x43,0x40,0x0a,0x90,0x4b,0x3a,0x00,0x90,
0x43,0x3a,0x00,0x90,0x3d,0x3a,0x03,0x90,0x3f,0x3a,0x81,0x63,0x80,0x4b,0x40,
0x00,0x80,0x3f,0x40,0x00,0x80,0x3d,0x40,0x00,0x80,0x43,0x40,0x0a,0x90,0x4b,
0x3a,0x00,0x90,0x43,0x3a,0x00,0x90,0x3d,0x3a,0x03,0x90,0x3f,0x3a,0x81,0x60,
0x80,0x4b,0x40,0x00,0x80,0x3f,0x40,0x00,0x80,0x3d,0x40,0x00,0x80,0x43,0x40,
0x0a,0x90,0x4b,0x3a,0x02,0x90,0x43,0x3a,0x00,0x90,0x3d,0x3a,0x00,0x90,0x3f,
0x3a,0x81,0x64,0x80,0x4b,0x40,0x00,0x80,0x3f,0x40,0x00,0x80,0x3d,0x40,0x00,
0x80,0x43,0x40,0x0a,0x90,0x4b,0x3a,0x02,0x90,0x43,0x3a,0x00,0x90,0x3d,0x3a,
0x00,0x90,0x3f,0x3a,0x81,0x64,0x80,0x4b,0x40,0x00,0x80,0x3f,0x40,0x00,0x80,
0x3d,0x40,0x00,0x80,0x43,0x40,0x0a,0x90,0x4b,0x3a,0x00,0x90,0x43,0x3a,0x02,
0x90,0x3d,0x3a,0x00,0x90,0x3f,0x3a,0x81,0x64,0x80,0x4b,0x40,0x00,0x80,0x3f,
0x40,0x00,0x80,0x3d,0x40,0x00,0x80,0x43,0x40,0x0a,0x90,0x4b,0x3a,0x00,0x90,
0x44,0x3a,0x02,0x90,0x3b,0x3a,0x00,0x90,0x3f,0x3a,0x81,0x67,0x80,0x4b,0x40,
0x00,0x80,0x3f,0x40,0x00,0x80,0x3b,0x40,0x00,0x80,0x44,0x40,0x0a,0x90,0x4b,
0x3a,0x00,0x90,0x46,0x3a,0x00,0x90,0x3a,0x3a,0x03,0x90,0x3f,0x3a,0x81,0x60,
0x80,0x4b,0x40,0x00,0x80,0x3f,0x40,0x00,0x80,0x3a,0x40,0x00,0x80,0x46,0x40,
0x0a,0x90,0x4b,0x3a,0x03,0x90,0x47,0x3a,0x00,0x90,0x2c,0x3a,0x81,0x52,0x80,
0x4b,0x40,0x00,0x80,0x2c,0x40,0x00,0x80,0x47,0x40,0x0a,0x90,0x4b,0x3a,0x00,
0x90,0x47,0x3a,0x00,0x90,0x3b,0x3a,0x03,0x90,0x38,0x3a,0x81,0x60,0x80,0x4b,
0x40,0x00,0x80,0x38,0x40,0x00,0x80,0x3b,0x40,0x00,0x80,0x47,0x40,0x0a,0x90,
0x4b,0x3a,0x03,0x90,0x47,0x3a,0x00,0x90,0x3b,0x3a,0x03,0x90,0x38,0x3a,0x81,
0x74,0x80,0x4b,0x40,0x00,0x80,0x38,0x40,0x00,0x80,0x3b,0x40,0x00,0x80,0x47,
0x40,0x0a,0x90,0x47,0x3a,0x00,0x90,0x44,0x3a,0x02,0x90,0x3f,0x3a,0x00,0x90,
0x3b,0x3a,0x81,0x67,0x80,0x47,0x40,0x00,0x80,0x3b,0x40,0x00,0x80,0x3f,0x40,
0x00,0x80,0x44,0x40,0x0a,0x90,0x31,0x3a,0x81,0x4f,0x80,0x31,0x40,0x0a,0x90,
0x4c,0x3a,0x00,0x90,0x49,0x3a,0x02,0x90,0x3d,0x3a,0x00,0x90,0x38,0x3a,0x81,
0x67,0x80,0x4c,0x40,0x00,0x80,0x38,0x40,0x00,0x80,0x3d,0x40,0x00,0x80,0x49,
0x40,0x0a,0x90,0x4c,0x3a,0x00,0x90,0x49,0x3a,0x03,0x90,0x3d,0x3a,0x00,0x90,
0x38,0x3a,0x81,0x74,0x80,0x4c,0x40,0x00,0x80,0x38,0x40,0x00,0x80,0x3d,0x40,
0x00,0x80,0x49,0x40,0x0a,0x90,0x49,0x3a,0x02,0x90,0x44,0x3a,0x00,0x90,0x40,
0x3a,0x00,0x90,0x3d,0x3a,0x81,0x64,0x80,0x49,0x40,0x00,0x80,0x3d,0x40,0x00,
0x80,0x40,0x40,0x00,0x80,0x44,0x40,0x0a,0x90,0x33,0x3a,0x81,0x52,0x80,0x33,
0x40,0x0a,0x90,0x4b,0x3a,0x02,0x90,0x47,0x3a,0x00,0x90,0x3b,0x3a,0x00,0x90,
0x38,0x3a,0x81,0x64,0x80,0x4b,0x40,0x00,0x80,0x38,0x40,0x00,0x80,0x3b,0x40,
0x00,0x80,0x47,0x40,0x0a,0x90,0x4b,0x3a,0x00,0x90,0x47,0x3a,0x02,0x90,0x3b,
0x3a,0x00,0x90,0x38,0x3a,0x81,0x7b,0x80,0x4b,0x40,0x00,0x80,0x38,0x40,0x00,
0x80,0x3b,0x40,0x00,0x80,0x47,0x40,0x0a,0x90,0x47,0x3a,0x00,0x90,0x44,0x3a,
0x00,0x90,0x3f,0x3a,0x03,0x90,0x3b,0x3a,0x81,0x60,0x80,0x47,0x40,0x00,0x80,
0x3b,0x40,0x00,0x80,0x3f,0x40,0x00,0x80,0x44,0x40,0x0a,0x90,0x33,0x3a,0x81,
0x55,0x80,0x33,0x40,0x0a,0x90,0x4b,0x3a,0x00,0x90,0x46,0x3a,0x00,0x90,0x3a,
0x3a,0x03,0x90,0x37,0x3a,0x81,0x60,0x80,0x4b,0x40,0x00,0x80,0x37,0x40,0x00,
0x80,0x3a,0x40,0x00,0x80,0x46,0x40,0x0a,0x90,0x4b,0x3a,0x02,0x90,0x46,0x3a,
0x00,0x90,0x3a,0x3a,0x03,0x90,0x37,0x3a,0x81,0x75,0x80,0x4b,0x40,0x00,0x80,
0x37,0x40,0x00,0x80,0x3a,0x40,0x00,0x80,0x46,0x40,0x0a,0x90,0x46,0x3a,0x00,
0x90,0x43,0x3a,0x02,0x90,0x3f,0x3a,0x00,0x90,0x3a,0x3a,0x81,0x55,0x80,0x46,
0x40,0x00,0x80,0x3a,0x40,0x00,0x80,0x3f,0x40,0x00,0x80,0x43,0x40,0x0a,0x90,
0x20,0x3a,0x12,0x90,0x47,0x3a,0x00,0x90,0x44,0x3a,0x00,0x90,0x2c,0x3a,0x81,
0x51,0x80,0x20,0x40,0x00,0x80,0x2c,0x40,0x00,0x80,0x44,0x40,0x00,0x80,0x47,
0x40,0x0a,0x90,0x47,0x3a,0x12,0x90,0x53,0x3a,0x03,0x90,0x4b,0x3a,0x00,0x90,
0x2c,0x3a,0x03,0x90,0x33,0x3a,0x81,0x60,0x80,0x47,0x40,0x00,0x80,0x33,0x40,
0x00,0x80,0x2c,0x40,0x00,0x80,0x4b,0x40,0x00,0x80,0x53,0x40,0x0a,0x90,0x53,
0x3d,0x02,0x90,0x4b,0x3d,0x00,0x90,0x47,0x3d,0x00,0x90,0x2c,0x3d,0x03,0x90,
0x33,0x3d,0x81,0x61,0x80,0x53,0x40,0x00,0x80,0x33,0x40,0x00,0x80,0x2c,0x40,
0x00,0x80,0x47,0x40,0x00,0x80,0x4b,0x40,0x0a,0x90,0x53,0x40,0x00,0x90,0x4b,
0x40,0x02,0x90,0x47,0x40,0x00,0x90,0x2c,0x40,0x03,0x90,0x33,0x40,0x81,0x61,
0x80,0x53,0x40,0x00,0x80,0x33,0x40,0x00,0x80,0x2c,0x40,0x00,0x80,0x47,0x40,
0x00,0x80,0x4b,0x40,0x0a,0x90,0x53,0x43,0x00,0x90,0x4b,0x43,0x02,0x90,0x47,
0x43,0x00,0x90,0x2c,0x43,0x00,0x90,0x33,0x43,0x81,0x67,0x80,0x53,0x40,0x00,
0x80,0x33,0x40,0x00,0x80,0x2c,0x40,0x00,0x80,0x47,0x40,0x00,0x80,0x4b,0x40,
0x0a,0x90,0x53,0x46,0x00,0x90,0x4b,0x46,0x03,0x90,0x47,0x46,0x00,0x90,0x2c,
0x46,0x00,0x90,0x33,0x46,0x81,0x63,0x80,0x53,0x40,0x00,0x80,0x33,0x40,0x00,
0x80,0x2c,0x40,0x00,0x80,0x47,0x40,0x00,0x80,0x4b,0x40,0x0a,0x90,0x52,0x49,
0x00,0x90,0x49,0x49,0x00,0x90,0x46,0x49,0x03,0x90,0x2e,0x49,0x00,0x90,0x33,
0x49,0x81,0x60,0x80,0x52,0x40,0x00,0x80,0x33,0x40,0x00,0x80,0x2e,0x40,0x00,
0x80,0x46,0x40,0x00,0x80,0x49,0x40,0x0a,0x90,0x50,0x4b,0x02,0x90,0x47,0x4b,
0x00,0x90,0x44,0x4b,0x03,0x90,0x2f,0x4b,0x00,0x90,0x33,0x4b,0x81,0x57,0x80,
0x50,0x40,0x00,0x80,0x33,0x40,0x00,0x80,0x2f,0x40,0x00,0x80,0x44,0x40,0x00,
0x80,0x47,0x40,0x0a,0x90,0x27,0x4b,0x0a,0x90,0x4f,0x4d,0x02,0x90,0x46,0x4d,
0x00,0x90,0x43,0x4d,0x00,0x90,0x33,0x4d,0x03,0x90,0x31,0x4d,0x81,0x61,0x80,
0x27,0x40,0x00,0x80,0x31,0x40,0x00,0x80,0x33,0x40,0x00,0x80,0x43,0x40,0x00,
0x80,0x46,0x40,0x00,0x80,0x4f,0x40,0x0a,0x90,0x58,0x4f,0x00,0x90,0x4f,0x4f,
0x02,0x90,0x4c,0x4f,0x00,0x90,0x33,0x4f,0x03,0x90,0x3d,0x4f,0x81,0x61,0x80,
0x58,0x40,0x00,0x80,0x3d,0x40,0x00,0x80,0x33,0x40,0x00,0x80,0x4c,0x40,0x00,
0x80,0x4f,0x40,0x0a,0x90,0x58,0x4f,0x00,0x90,0x4f,0x4f,0x02,0x90,0x4c,0x4f,
0x00,0x90,0x33,0x4f,0x00,0x90,0x3d,0x4f,0x81,0x67,0x80,0x58,0x40,0x00,0x80,
0x3d,0x40,0x00,0x80,0x33,0x40,0x00,0x80,0x4c,0x40,0x00,0x80,0x4f,0x40,0x0a,
0x90,0x58,0x4f,0x00,0x90,0x4f,0x4f,0x00,0x90,0x4c,0x4f,0x03,0x90,0x33,0x4f,
0x00,0x90,0x3d,0x4f,0x81,0x60,0x80,0x58,0x40,0x00,0x80,0x3d,0x40,0x00,0x80,
0x33,0x40,0x00,0x80,0x4c,0x40,0x00,0x80,0x4f,0x40,0x0a,0x90,0x58,0x4f,0x00,
0x90,0x4f,0x4f,0x00,0x90,0x4c,0x4f,0x02,0x90,0x33,0x4f,0x00,0x90,0x3d,0x4f,
0x81,0x64,0x80,0x58,0x40,0x00,0x80,0x3d,0x40,0x00,0x80,0x33,0x40,0x00,0x80,
0x4c,0x40,0x00,0x80,0x4f,0x40,0x0a,0x90,0x58,0x4f,0x02,0x90,0x4f,0x4f,0x00,
0x90,0x4c,0x4f,0x00,0x90,0x33,0x4f,0x03,0x90,0x3d,0x4f,0x81,0x61,0x80,0x58,
0x40,0x00,0x80,0x3d,0x40,0x00,0x80,0x33,0x40,0x00,0x80,0x4c,0x40,0x00,0x80,
0x4f,0x40,0x0a,0x90,0x57,0x4f,0x02,0x90,0x4f,0x4f,0x00,0x90,0x4b,0x4f,0x00,
0x90,0x33,0x4f,0x03,0x90,0x3b,0x4f,0x81,0x61,0x80,0x57,0x40,0x00,0x80,0x3b,
0x40,0x00,0x80,0x33,0x40,0x00,0x80,0x4b,0x40,0x00,0x80,0x4f,0x40,0x0a,0x90,
0x55,0x4f,0x00,0x90,0x4f,0x4f,0x02,0x90,0x49,0x4f,0x00,0x90,0x33,0x4f,0x03,
0x90,0x3a,0x4f,0x81,0x61,0x80,0x55,0x40,0x00,0x80,0x3a,0x40,0x00,0x80,0x33,
0x40,0x00,0x80,0x49,0x40,0x00,0x80,0x4f,0x40,0x0a,0x90,0x53,0x4f,0x00,0x90,
0x50,0x4f,0x02,0x90,0x47,0x4f,0x00,0x90,0x2c,0x4f,0x00,0x90,0x20,0x4f,0x81,
0x67,0x80,0x53,0x40,0x00,0x80,0x20,0x40,0x00,0x80,0x2c,0x40,0x00,0x80,0x47,
0x40,0x00,0x80,0x50,0x40,0x0a,0x90,0x53,0x3a,0x00,0x90,0x4b,0x3a,0x00,0x90,
0x47,0x3a,0x03,0x90,0x2c,0x3a,0x00,0x90,0x33,0x3a,0x81,0x60,0x80,0x53,0x40,
0x00,0x80,0x33,0x40,0x00,0x80,0x2c,0x40,0x00,0x80,0x47,0x40,0x00,0x80,0x4b,
0x40,0x0a,0x90,0x53,0x3a,0x03,0x90,0x4b,0x3a,0x00,0x90,0x47,0x3a,0x03,0x90,
0x2c,0x3a,0x00,0x90,0x33,0x3a,0x81,0x60,0x80,0x53,0x40,0x00,0x80,0x33,0x40,
0x00,0x80,0x2c,0x40,0x00,0x80,0x47,0x40,0x00,0x80,0x4b,0x40,0x0a,0x90,0x53,
0x3d,0x02,0x90,0x4b,0x3d,0x00,0x90,0x47,0x3d,0x00,0x90,0x2c,0x3d,0x03,0x90,
0x33,0x3d,0x81,0x61,0x80,0x53,0x40,0x00,0x80,0x33,0x40,0x00,0x80,0x2c,0x40,
0x00,0x80,0x47,0x40,0x00,0x80,0x4b,0x40,0x0a,0x90,0x53,0x40,0x00,0x90,0x4b,
0x40,0x02,0x90,0x47,0x40,0x00,0x90,0x2c,0x40,0x03,0x90,0x33,0x40,0x81,0x61,
0x80,0x53,0x40,0x00,0x80,0x33,0x40,0x00,0x80,0x2c,0x40,0x00,0x80,0x47,0x40,
0x00,0x80,0x4b,0x40,0x0a,0x90,0x53,0x43,0x00,0x90,0x4b,0x43,0x02,0x90,0x47,
0x43,0x00,0x90,0x2c,0x43,0x00,0x90,0x33,0x43,0x81,0x67,0x80,0x53,0x40,0x00,
0x80,0x33,0x40,0x00,0x80,0x2c,0x40,0x00,0x80,0x47,0x40,0x00,0x80,0x4b,0x40,
0x0a,0x90,0x52,0x46,0x00,0x90,0x49,0x46,0x00,0x90,0x46,0x46,0x03,0x90,0x2e,
0x46,0x00,0x90,0x33,0x46,0x81,0x63,0x80,0x52,0x40,0x00,0x80,0x33,0x40,0x00,
0x80,0x2e,0x40,0x00,0x80,0x46,0x40,0x00,0x80,0x49,0x40,0x0a,0x90,0x50,0x49,
0x00,0x90,0x47,0x49,0x00,0x90,0x44,0x49,0x03,0x90,0x2f,0x49,0x00,0x90,0x33,
0x49,0x81,0x56,0x80,0x50,0x40,0x00,0x80,0x33,0x40,0x00,0x80,0x2f,0x40,0x00,
0x80,0x44,0x40,0x00,0x80,0x47,0x40,0x0a,0x90,0x27,0x4c,0x0a,0x90,0x4f,0x4c,
0x02,0x90,0x46,0x4c,0x00,0x90,0x43,0x4c,0x03,0x90,0x33,0x4c,0x00,0x90,0x31,
0x4c,0x81,0x61,0x80,0x27,0x40,0x00,0x80,0x31,0x40,0x00,0x80,0x33,0x40,0x00,
0x80,0x43,0x40,0x00,0x80,0x46,0x40,0x00,0x80,0x4f,0x40,0x0a,0x90,0x4f,0x4f,
0x02,0x90,0x58,0x4f,0x00,0x90,0x4c,0x4f,0x00,0x90,0x33,0x4f,0x03,0x90,0x3d,
0x4f,0x81,0x61,0x80,0x4f,0x40,0x00,0x80,0x3d,0x40,0x00,0x80,0x33,0x40,0x00,
0x80,0x4c,0x40,0x00,0x80,0x58,0x40,0x0a,0x90,0x4f,0x4f,0x00,0x90,0x58,0x4f,
0x02,0x90,0x4c,0x4f,0x00,0x90,0x33,0x4f,0x03,0x90,0x3d,0x4f,0x81,0x61,0x80,
0x4f,0x40,0x00,0x80,0x3d,0x40,0x00,0x80,0x33,0x40,0x00,0x80,0x4c,0x40,0x00,
0x80,0x58,0x40,0x0a,0x90,0x4f,0x4f,0x00,0x90,0x58,0x4f,0x02,0x90,0x4c,0x4f,
0x00,0x90,0x33,0x4f,0x00,0x90,0x3d,0x4f,0x81,0x67,0x80,0x4f,0x40,0x00,0x80,
0x3d,0x40,0x00,0x80,0x33,0x40,0x00,0x80,0x4c,0x40,0x00,0x80,0x58,0x40,0x0a,
0x90,0x4f,0x4f,0x00,0x90,0x58,0x4f,0x00,0x90,0x4c,0x4f,0x03,0x90,0x33,0x4f,
0x00,0x90,0x3d,0x4f,0x81,0x60,0x80,0x4f,0x40,0x00,0x80,0x3d,0x40,0x00,0x80,
0x33,0x40,0x00,0x80,0x4c,0x40,0x00,0x80,0x58,0x40,0x0a,0x90,0x4f,0x4f,0x03,
0x90,0x58,0x4f,0x00,0x90,0x4c,0x4f,0x03,0x90,0x33,0x4f,0x00,0x90,0x3d,0x4f,
0x81,0x60,0x80,0x4f,0x40,0x00,0x80,0x3d,0x40,0x00,0x80,0x33,0x40,0x00,0x80,
0x4c,0x40,0x00,0x80,0x58,0x40,0x0a,0x90,0x4f,0x4f,0x02,0x90,0x57,0x4f,0x00,
0x90,0x4b,0x4f,0x00,0x90,0x33,0x4f,0x03,0x90,0x3b,0x4f,0x81,0x61,0x80,0x4f,
0x40,0x00,0x80,0x3b,0x40,0x00,0x80,0x33,0x40,0x00,0x80,0x4b,0x40,0x00,0x80,
0x57,0x40,0x0a,0x90,0x4f,0x4f,0x02,0x90,0x55,0x4f,0x00,0x90,0x49,0x4f,0x00,
0x90,0x33,0x4f,0x03,0x90,0x3a,0x4f,0x81,0x61,0x80,0x4f,0x40,0x00,0x80,0x3a,
0x40,0x00,0x80,0x33,0x40,0x00,0x80,0x49,0x40,0x00,0x80,0x55,0x40,0x0a,0x90,
0x53,0x4f,0x00,0x90,0x50,0x4f,0x02,0x90,0x47,0x4f,0x00,0x90,0x38,0x4f,0x00,
0x90,0x2c,0x4f,0x81,0x64,0x80,0x53,0x40,0x00,0x80,0x2c,0x40,0x00,0x80,0x38,
0x40,0x00,0x80,0x47,0x40,0x00,0x80,0x50,0x40,0x0a,0x90,0x53,0x3a,0x00,0x90,
0x50,0x3a,0x02,0x90,0x3f,0x3a,0x00,0x90,0x3b,0x3a,0x81,0x50,0x80,0x53,0x40,
0x00,0x80,0x3b,0x40,0x00,0x80,0x3f,0x40,0x00,0x80,0x50,0x40,0x0a,0x90,0x53,
0x3a,0x00,0x90,0x50,0x3a,0x02,0x90,0x3f,0x3a,0x00,0x90,0x3b,0x3a,0x81,0x78,
0x80,0x53,0x40,0x00,0x80,0x3b,0x40,0x00,0x80,0x3f,0x40,0x00,0x80,0x50,0x40,
0x0a,0x90,0x57,0x3a,0x03,0x90,0x53,0x3a,0x00,0x90,0x3b,0x3a,0x03,0x90,0x38,
0x3a,0x81,0x60,0x80,0x57,0x40,0x00,0x80,0x38,0x40,0x00,0x80,0x3b,0x40,0x00,
0x80,0x53,0x40,0x0a,0x90,0x31,0x3f,0x81,0x52,0x80,0x31,0x40,0x0a,0x90,0x55,
0x3a,0x03,0x90,0x50,0x3a,0x00,0x90,0x40,0x3a,0x03,0x90,0x3d,0x3a,0x81,0x60,
0x80,0x55,0x40,0x00,0x80,0x3d,0x40,0x00,0x80,0x40,0x40,0x00,0x80,0x50,0x40,
0x0a,0x90,0x55,0x3a,0x02,0x90,0x50,0x3a,0x00,0x90,0x40,0x3a,0x00,0x90,0x3d,
0x3a,0x81,0x7b,0x80,0x55,0x40,0x00,0x80,0x3d,0x40,0x00,0x80,0x40,0x40,0x00,
0x80,0x50,0x40,0x0a,0x90,0x58,0x3a,0x00,0x90,0x55,0x3a,0x00,0x90,0x3d,0x3a,
0x03,0x90,0x38,0x3a,0x81,0x4e,0x80,0x58,0x40,0x00,0x80,0x38,0x40,0x00,0x80,
0x3d,0x40,0x00,0x80,0x55,0x40,0x0a,0x90,0x33,0x3f,0x81,0x67,0x80,0x33,0x40,
0x0a,0x90,0x53,0x3a,0x00,0x90,0x50,0x3a,0x03,0x90,0x3f,0x3a,0x00,0x90,0x3b,
0x3a,0x81,0x63,0x80,0x53,0x40,0x00,0x80,0x3b,0x40,0x00,0x80,0x3f,0x40,0x00,
0x80,0x50,0x40,0x0a,0x90,0x53,0x3a,0x00,0x90,0x50,0x3a,0x00,0x90,0x3f,0x3a,
0x03,0x90,0x3b,0x3a,0x81,0x74,0x80,0x53,0x40,0x00,0x80,0x3b,0x40,0x00,0x80,
0x3f,0x40,0x00,0x80,0x50,0x40,0x0a,0x90,0x57,0x3a,0x00,0x90,0x53,0x3a,0x02,
0x90,0x3b,0x3a,0x00,0x90,0x38,0x3a,0x81,0x64,0x80,0x57,0x40,0x00,0x80,0x38,
0x40,0x00,0x80,0x3b,0x40,0x00,0x80,0x53,0x40,0x0a,0x90,0x31,0x3f,0x81,0x52,
0x80,0x31,0x40,0x0a,0x90,0x52,0x3a,0x00,0x90,0x4f,0x3a,0x02,0x90,0x3f,0x3a,
0x00,0x90,0x3a,0x3a,0x81,0x64,0x80,0x52,0x40,0x00,0x80,0x3a,0x40,0x00,0x80,
0x3f,0x40,0x00,0x80,0x4f,0x40,0x0a,0x90,0x52,0x3a,0x00,0x90,0x4f,0x3a,0x02,
0x90,0x3f,0x3a,0x00,0x90,0x3a,0x3a,0x81,0x78,0x80,0x52,0x40,0x00,0x80,0x3a,
0x40,0x00,0x80,0x3f,0x40,0x00,0x80,0x4f,0x40,0x0a,0x90,0x57,0x3a,0x02,0x90,
0x52,0x3a,0x00,0x90,0x3a,0x3a,0x00,0x90,0x37,0x3a,0x81,0x64,0x80,0x57,0x40,
0x00,0x80,0x37,0x40,0x00,0x80,0x3a,0x40,0x00,0x80,0x52,0x40,0x0a,0x90,0x2f,
0x3f,0x81,0x52,0x80,0x2f,0x40,0x0a,0x90,0x53,0x3a,0x02,0x90,0x4b,0x3a,0x00,
0x90,0x44,0x3a,0x03,0x90,0x3f,0x3a,0x81,0x61,0x80,0x53,0x40,0x00,0x80,0x3f,
0x40,0x00,0x80,0x44,0x40,0x00,0x80,0x4b,0x40,0x0a,0x90,0x53,0x3a,0x02,0x90,
0x4b,0x3a,0x00,0x90,0x44,0x3a,0x00,0x90,0x3f,0x3a,0x81,0x6e,0x90,0x57,0x3a,
0x00,0x90,0x50,0x3a,0x02,0x90,0x3f,0x3a,0x00,0x90,0x3b,0x3a,0x81,0x78,0x80,
0x53,0x40,0x00,0x80,0x3b,0x40,0x00,0x80,0x3f,0x40,0x00,0x80,0x50,0x40,0x00,
0x80,0x57,0x40,0x00,0x80,0x3f,0x40,0x00,0x80,0x44,0x40,0x00,0x80,0x4b,0x40,
0x0a,0x90,0x31,0x42,0x81,0x55,0x80,0x31,0x40,0x0a,0x90,0x51,0x3a,0x00,0x90,
0x49,0x3a,0x00,0x90,0x45,0x3a,0x03,0x90,0x40,0x3a,0x81,0x60,0x80,0x51,0x40,
0x00,0x80,0x40,0x40,0x00,0x80,0x45,0x40,0x00,0x80,0x49,0x40,0x0a,0x90,0x51,
0x3a,0x03,0x90,0x49,0x3a,0x00,0x90,0x45,0x3a,0x03,0x90,0x40,0x3a,0x81,0x6a,
0x90,0x55,0x3a,0x02,0x90,0x4c,0x3a,0x00,0x90,0x40,0x3a,0x00,0x90,0x3d,0x3a,
0x81,0x7b,0x80,0x51,0x40,0x00,0x80,0x3d,0x40,0x00,0x80,0x40,0x40,0x00,0x80,
0x4c,0x40,0x00,0x80,0x55,0x40,0x00,0x80,0x40,0x40,0x00,0x80,0x45,0x40,0x00,
0x80,0x49,0x40,0x0a,0x90,0x33,0x44,0x81,0x4f,0x80,0x33,0x40,0x0a,0x90,0x50,
0x3c,0x00,0x90,0x47,0x3c,0x02,0x90,0x44,0x3c,0x00,0x90,0x3f,0x3c,0x81,0x67,
0x80,0x50,0x40,0x00,0x80,0x3f,0x40,0x00,0x80,0x44,0x40,0x00,0x80,0x47,0x40,
0x0a,0x90,0x50,0x3c,0x00,0x90,0x47,0x3c,0x03,0x90,0x44,0x3c,0x00,0x90,0x3f,
0x3c,0x81,0x6d,0x90,0x53,0x3c,0x00,0x90,0x4b,0x3c,0x00,0x90,0x3f,0x3c,0x03,
0x90,0x3b,0x3c,0x81,0x74,0x80,0x50,0x40,0x00,0x80,0x3b,0x40,0x00,0x80,0x3f,
0x40,0x00,0x80,0x4b,0x40,0x00,0x80,0x53,0x40,0x00,0x80,0x3f,0x40,0x00,0x80,
0x44,0x40,0x00,0x80,0x47,0x40,0x0a,0x90,0x33,0x3f,0x81,0x52,0x80,0x33,0x40,
0x0a,0x90,0x4f,0x3a,0x02,0x90,0x46,0x3a,0x00,0x90,0x43,0x3a,0x00,0x90,0x3d,
0x3a,0x81,0x64,0x80,0x4f,0x40,0x00,0x80,0x3d,0x40,0x00,0x80,0x43,0x40,0x00,
0x80,0x46,0x40,0x0a,0x90,0x4f,0x3a,0x00,0x90,0x46,0x3a,0x02,0x90,0x43,0x3a,
0x00,0x90,0x3d,0x3a,0x81,0x78,0x80,0x4f,0x40,0x00,0x80,0x3d,0x40,0x00,0x80,
0x43,0x40,0x00,0x80,0x46,0x40,0x0a,0x90,0x52,0x3a,0x03,0x90,0x49,0x3a,0x00,
0x90,0x3d,0x3a,0x03,0x90,0x3a,0x3a,0x81,0x60,0x80,0x52,0x40,0x00,0x80,0x3a,
0x40,0x00,0x80,0x3d,0x40,0x00,0x80,0x49,0x40,0x0a,0x90,0x50,0x3f,0x02,0x90,
0x47,0x3a,0x00,0x90,0x2c,0x3a,0x6c,0x80,0x2c,0x40,0x0a,0x90,0x38,0x3a,0x6e,
0x80,0x38,0x40,0x0a,0x90,0x33,0x3a,0x6e,0x80,0x33,0x40,0x0a,0x90,0x38,0x3a,
0x6e,0x80,0x50,0x40,0x00,0x80,0x38,0x40,0x00,0x80,0x47,0x40,0x0a,0x90,0x2c,
0x3a,0x6e,0x80,0x2c,0x40,0x0a,0x90,0x38,0x3a,0x6e,0x80,0x38,0x40,0x0a,0x90,
0x33,0x3a,0x71,0x80,0x33,0x40,0x0a,0x90,0x38,0x3a,0x6b,0x80,0x38,0x40,0x0a,
0x90,0x2c,0x3a,0x71,0x80,0x2c,0x40,0x0a,0x90,0x38,0x3a,0x6b,0x80,0x38,0x40,
0x0a,0x90,0x33,0x3a,0x6e,0x80,0x33,0x40,0x0a,0x90,0x38,0x3a,0x5d,0x80,0x38,
0x40,0x0a,0x90,0x47,0x3f,0x11,0x90,0x2c,0x3a,0x6e,0x80,0x2c,0x40,0x0a,0x90,
0x38,0x3a,0x6e,0x80,0x38,0x40,0x0a,0x90,0x33,0x3a,0x6e,0x80,0x47,0x40,0x00,
0x80,0x33,0x40,0x0a,0x90,0x44,0x3f,0x00,0x90,0x38,0x3a,0x5c,0x80,0x44,0x40,
0x00,0x80,0x38,0x40,0x0a,0x90,0x2c,0x3a,0x12,0x90,0x43,0x3f,0x6e,0x80,0x2c,
0x40,0x0a,0x90,0x3a,0x3a,0x71,0x80,0x3a,0x40,0x0a,0x90,0x33,0x3a,0x6e,0x80,
0x33,0x40,0x0a,0x90,0x3a,0x3a,0x57,0x80,0x43,0x40,0x02,0x80,0x3a,0x40,0x08,
0x90,0x43,0x3a,0x02,0x90,0x3d,0x3a,0x15,0x90,0x4b,0x3f,0x00,0x90,0x2c,0x3a,
0x6e,0x80,0x2c,0x40,0x0a,0x90,0x3a,0x3a,0x6b,0x80,0x3a,0x40,0x0a,0x90,0x33,
0x3a,0x6e,0x80,0x43,0x40,0x00,0x80,0x33,0x40,0x00,0x80,0x4b,0x40,0x00,0x80,
0x3d,0x40,0x0a,0x90,0x3a,0x3a,0x67,0x90,0x4b,0x3f,0x00,0x90,0x43,0x3a,0x00,
0x90,0x3d,0x3a,0x07,0x80,0x3a,0x40,0x0a,0x90,0x2c,0x3a,0x6e,0x80,0x2c,0x40,
0x0a,0x90,0x3a,0x3a,0x6e,0x80,0x3a,0x40,0x0a,0x90,0x33,0x3a,0x6e,0x80,0x3d,
0x40,0x00,0x80,0x33,0x40,0x00,0x80,0x43,0x40,0x00,0x80,0x4b,0x40,0x0a,0x90,
0x3a,0x3a,0x5c,0x80,0x3a,0x40,0x08,0x90,0x4b,0x3f,0x02,0x90,0x43,0x3a,0x00,
0x90,0x3d,0x3a,0x12,0x90,0x2c,0x3a,0x71,0x80,0x2c,0x40,0x0a,0x90,0x3a,0x3a,
0x6e,0x80,0x3a,0x40,0x0a,0x90,0x33,0x3a,0x6e,0x80,0x4b,0x40,0x00,0x80,0x33,
0x40,0x00,0x80,0x3d,0x40,0x00,0x80,0x43,0x40,0x0a,0x90,0x3a,0x3a,0x57,0x80,
0x3a,0x40,0x0a,0x90,0x3b,0x3f,0x17,0x90,0x2c,0x3a,0x5a,0x80,0x2c,0x40,0x0a,
0x90,0x44,0x3f,0x09,0x80,0x3b,0x40,0x0a,0x90,0x38,0x3a,0x5b,0x80,0x38,0x40,
0x0a,0x90,0x4b,0x3f,0x09,0x80,0x44,0x40,0x0a,0x90,0x33,0x3a,0x6c,0x80,0x33,
0x40,0x0a,0x90,0x38,0x3a,0x6e,0x80,0x38,0x40,0x0a,0x90,0x2c,0x3a,0x6e,0x80,
0x2c,0x40,0x0a,0x90,0x38,0x3a,0x6e,0x80,0x38,0x40,0x0a,0x90,0x33,0x3a,0x6e,
0x80,0x33,0x40,0x0a,0x90,0x38,0x3a,0x71,0x80,0x38,0x40,0x0a,0x90,0x2c,0x3a,
0x6e,0x80,0x2c,0x40,0x0a,0x90,0x38,0x3a,0x6e,0x80,0x38,0x40,0x0a,0x90,0x33,
0x3a,0x6e,0x80,0x33,0x40,0x0a,0x90,0x38,0x3a,0x6b,0x80,0x4b,0x40,0x00,0x80,
0x38,0x40,0x0a,0x90,0x53,0x3f,0x03,0x90,0x2c,0x3a,0x6b,0x80,0x2c,0x40,0x0a,
0x90,0x38,0x3a,0x6e,0x80,0x38,0x40,0x0a,0x90,0x33,0x3a,0x6e,0x80,0x53,0x40,
0x00,0x80,0x33,0x40,0x0a,0x90,0x50,0x3f,0x02,0x90,0x38,0x3a,0x6c,0x80,0x50,
0x40,0x00,0x80,0x38,0x40,0x0a,0x90,0x4f,0x3f,0x00,0x90,0x2c,0x3a,0x6e,0x80,
0x2c,0x40,0x0a,0x90,0x3a,0x3a,0x6e,0x80,0x3a,0x40,0x0a,0x90,0x33,0x3a,0x6e,
0x80,0x33,0x40,0x0a,0x90,0x3a,0x3a,0x5c,0x80,0x4f,0x40,0x00,0x80,0x3a,0x40,
0x0a,0x90,0x4f,0x3a,0x00,0x90,0x49,0x3a,0x15,0x90,0x57,0x3f,0x00,0x90,0x2c,
0x3a,0x6e,0x80,0x2c,0x40,0x0a,0x90,0x3a,0x3a,0x6e,0x80,0x3a,0x40,0x0a,0x90,
0x33,0x3a,0x6e,0x80,0x4f,0x40,0x00,0x80,0x33,0x40,0x00,0x80,0x57,0x40,0x00,
0x80,0x49,0x40,0x0a,0x90,0x3a,0x3a,0x5d,0x80,0x3a,0x40,0x07,0x90,0x57,0x3f,
0x00,0x90,0x4f,0x3a,0x03,0x90,0x49,0x3a,0x0e,0x90,0x2c,0x3a,0x6e,0x80,0x2c,
0x40,0x0a,0x90,0x3a,0x3a,0x6e,0x80,0x3a,0x40,0x0a,0x90,0x33,0x3a,0x6e,0x80,
0x57,0x40,0x00,0x80,0x33,0x40,0x00,0x80,0x49,0x40,0x00,0x80,0x4f,0x40,0x0a,
0x90,0x3a,0x3a,0x64,0x90,0x57,0x3f,0x02,0x90,0x4f,0x3a,0x00,0x90,0x49,0x3a,
0x08,0x80,0x3a,0x40,0x0a,0x90,0x2c,0x3a,0x6e,0x80,0x2c,0x40,0x0a,0x90,0x3a,
0x3a,0x6e,0x80,0x3a,0x40,0x0a,0x90,0x33,0x3a,0x71,0x80,0x49,0x40,0x00,0x80,
0x33,0x40,0x00,0x80,0x4f,0x40,0x00,0x80,0x57,0x40,0x0a,0x90,0x3a,0x3a,0x57,
0x80,0x3a,0x40,0x0a,0x90,0x47,0x3f,0x17,0x90,0x2c,0x3a,0x57,0x80,0x2c,0x40,
0x0a,0x90,0x50,0x3f,0x0a,0x80,0x47,0x40,0x0a,0x90,0x38,0x3a,0x5a,0x80,0x38,
0x40,0x0a,0x90,0x57,0x3f,0x0a,0x80,0x50,0x40,0x0a,0x90,0x33,0x3a,0x6e,0x80,
0x33,0x40,0x0a,0x90,0x38,0x3a,0x6e,0x80,0x38,0x40,0x0a,0x90,0x2c,0x3a,0x6e,
0x80,0x2c,0x40,0x0a,0x90,0x38,0x3a,0x6e,0x80,0x38,0x40,0x0a,0x90,0x33,0x3a,
0x6e,0x80,0x33,0x40,0x0a,0x90,0x38,0x3a,0x6e,0x80,0x57,0x40,0x00,0x80,0x38,
0x40,0x0a,0x90,0x49,0x3f,0x00,0x90,0x2c,0x3a,0x64,0x90,0x4f,0x3f,0x0a,0x80,
0x49,0x40,0x00,0x80,0x2c,0x40,0x0a,0x90,0x3a,0x3a,0x64,0x90,0x57,0x3f,0x0a,
0x80,0x4f,0x40,0x00,0x80,0x3a,0x40,0x0a,0x90,0x33,0x3a,0x71,0x80,0x33,0x40,
0x0a,0x90,0x3a,0x3a,0x6e,0x80,0x3a,0x40,0x0a,0x90,0x2c,0x3a,0x6e,0x80,0x2c,
0x40,0x0a,0x90,0x3a,0x3a,0x6b,0x80,0x3a,0x40,0x0a,0x90,0x33,0x3a,0x6e,0x80,
0x33,0x40,0x0a,0x90,0x3a,0x3a,0x6e,0x80,0x57,0x40,0x00,0x80,0x3a,0x40,0x0a,
0x90,0x47,0x3f,0x02,0x90,0x2c,0x3a,0x5b,0x80,0x2c,0x40,0x0a,0x90,0x50,0x3f,
0x07,0x80,0x47,0x40,0x0a,0x90,0x38,0x3a,0x64,0x90,0x57,0x3f,0x0a,0x80,0x50,
0x40,0x00,0x80,0x38,0x40,0x0a,0x90,0x33,0x3a,0x6e,0x80,0x33,0x40,0x0a,0x90,
0x38,0x3a,0x6e,0x80,0x38,0x40,0x0a,0x90,0x2c,0x3a,0x6e,0x80,0x2c,0x40,0x0a,
0x90,0x38,0x3a,0x71,0x80,0x38,0x40,0x0a,0x90,0x33,0x3a,0x6e,0x80,0x33,0x40,
0x0a,0x90,0x38,0x3a,0x6e,0x80,0x57,0x40,0x00,0x80,0x38,0x40,0x0a,0x90,0x49,
0x3f,0x00,0x90,0x2c,0x3a,0x57,0x80,0x2c,0x40,0x0a,0x90,0x4f,0x3f,0x0d,0x80,
0x49,0x40,0x0a,0x90,0x3a,0x3a,0x5a,0x80,0x3a,0x40,0x0a,0x90,0x57,0x3f,0x09,
0x80,0x4f,0x40,0x0a,0x90,0x33,0x3a,0x6c,0x80,0x33,0x40,0x0a,0x90,0x3a,0x3a,
0x6e,0x80,0x3a,0x40,0x0a,0x90,0x2c,0x3a,0x6e,0x80,0x2c,0x40,0x0a,0x90,0x3a,
0x3a,0x6e,0x80,0x3a,0x40,0x0a,0x90,0x33,0x3a,0x6e,0x80,0x33,0x40,0x0a,0x90,
0x3a,0x3a,0x6e,0x80,0x57,0x40,0x00,0x80,0x3a,0x40,0x0a,0x90,0x3b,0x3f,0x00,
0x90,0x2c,0x3a,0x71,0x80,0x3b,0x40,0x00,0x80,0x2c,0x40,0x0a,0x90,0x44,0x3f,
0x00,0x90,0x38,0x3a,0x6e,0x80,0x44,0x40,0x00,0x80,0x38,0x40,0x0a,0x90,0x3f,
0x3f,0x00,0x90,0x33,0x3a,0x6e,0x80,0x3f,0x40,0x00,0x80,0x33,0x40,0x0a,0x90,
0x44,0x3f,0x00,0x90,0x38,0x3a,0x6b,0x80,0x44,0x40,0x00,0x80,0x38,0x40,0x0a,
0x90,0x3b,0x3f,0x03,0x90,0x2c,0x3a,0x6b,0x80,0x3b,0x40,0x00,0x80,0x2c,0x40,
0x0a,0x90,0x44,0x3f,0x02,0x90,0x38,0x3a,0x6c,0x80,0x44,0x40,0x00,0x80,0x38,
0x40,0x0a,0x90,0x3f,0x3f,0x02,0x90,0x33,0x3a,0x6c,0x80,0x3f,0x40,0x00,0x80,
0x33,0x40,0x0a,0x90,0x44,0x3f,0x02,0x90,0x38,0x3a,0x6c,0x80,0x44,0x40,0x00,
0x80,0x38,0x40,0x0a,0x90,0x3b,0x3a,0x00,0x90,0x2c,0x3a,0x6e,0x80,0x3b,0x40,
0x00,0x80,0x2c,0x40,0x0a,0x90,0x44,0x3a,0x00,0x90,0x38,0x3a,0x6e,0x80,0x44,
0x40,0x00,0x80,0x38,0x40,0x0a,0x90,0x3f,0x3a,0x00,0x90,0x33,0x3a,0x6e,0x80,
0x3f,0x40,0x00,0x80,0x33,0x40,0x0a,0x90,0x44,0x3a,0x00,0x90,0x38,0x3a,0x71,
0x80,0x44,0x40,0x00,0x80,0x38,0x40,0x0a,0x90,0x3b,0x3a,0x00,0x90,0x2c,0x3a,
0x6e,0x80,0x3b,0x40,0x00,0x80,0x2c,0x40,0x0a,0x90,0x44,0x3a,0x00,0x90,0x38,
0x3a,0x6e,0x80,0x44,0x40,0x00,0x80,0x38,0x40,0x0a,0x90,0x3f,0x3a,0x00,0x90,
0x33,0x3a,0x6e,0x80,0x3f,0x40,0x00,0x80,0x33,0x40,0x0a,0x90,0x44,0x3a,0x00,
0x90,0x38,0x3a,0x6b,0x80,0x44,0x40,0x00,0x80,0x38,0x40,0x0a,0x90,0x3c,0x3d,
0x02,0x90,0x2c,0x3d,0x6c,0x80,0x3c,0x40,0x00,0x80,0x2c,0x40,0x0a,0x90,0x42,
0x3d,0x02,0x90,0x36,0x3d,0x6c,0x80,0x42,0x40,0x00,0x80,0x36,0x40,0x0a,0x90,
0x3f,0x3d,0x02,0x90,0x33,0x3d,0x6c,0x80,0x3f,0x40,0x00,0x80,0x33,0x40,0x0a,
0x90,0x42,0x3d,0x02,0x90,0x36,0x3d,0x6c,0x80,0x42,0x40,0x00,0x80,0x36,0x40,
0x0a,0x90,0x3c,0x3d,0x00,0x90,0x2c,0x3d,0x6e,0x80,0x3c,0x40,0x00,0x80,0x2c,
0x40,0x0a,0x90,0x42,0x3d,0x00,0x90,0x36,0x3d,0x6e,0x80,0x42,0x40,0x00,0x80,
0x36,0x40,0x0a,0x90,0x3f,0x3d,0x00,0x90,0x33,0x3d,0x6e,0x80,0x3f,0x40,0x00,
0x80,0x33,0x40,0x0a,0x90,0x42,0x3d,0x00,0x90,0x36,0x3d,0x71,0x80,0x42,0x40,
0x00,0x80,0x36,0x40,0x0a,0x90,0x3c,0x40,0x00,0x90,0x2c,0x40,0x6e,0x80,0x3c,
0x40,0x00,0x80,0x2c,0x40,0x0a,0x90,0x42,0x40,0x00,0x90,0x36,0x40,0x6e,0x80,
0x42,0x40,0x00,0x80,0x36,0x40,0x0a,0x90,0x3f,0x40,0x00,0x90,0x33,0x40,0x6b,
0x80,0x3f,0x40,0x00,0x80,0x33,0x40,0x0a,0x90,0x42,0x40,0x03,0x90,0x36,0x40,
0x6b,0x80,0x42,0x40,0x00,0x80,0x36,0x40,0x0a,0x90,0x3c,0x40,0x02,0x90,0x2c,
0x40,0x6c,0x80,0x3c,0x40,0x00,0x80,0x2c,0x40,0x0a,0x90,0x42,0x40,0x02,0x90,
0x36,0x40,0x6c,0x80,0x42,0x40,0x00,0x80,0x36,0x40,0x0a,0x90,0x3f,0x40,0x02,
0x90,0x33,0x40,0x6c,0x80,0x3f,0x40,0x00,0x80,0x33,0x40,0x0a,0x90,0x42,0x40,
0x00,0x90,0x36,0x40,0x5f,0x80,0x42,0x40,0x00,0x80,0x36,0x40,0x0a,0x90,0x3d,
0x47,0x00,0x90,0x38,0x47,0x03,0x90,0x34,0x47,0x0c,0x90,0x40,0x47,0x00,0x90,
0x25,0x47,0x6e,0x80,0x3d,0x40,0x00,0x80,0x38,0x40,0x00,0x80,0x40,0x40,0x00,
0x80,0x34,0x40,0x0a,0x90,0x2c,0x3a,0x5c,0x80,0x25,0x40,0x00,0x80,0x2c,0x40,
0x0a,0x90,0x2c,0x3a,0x12,0x90,0x31,0x3a,0x71,0x80,0x31,0x40,0x0a,0x90,0x34,
0x3a,0x57,0x80,0x2c,0x40,0x00,0x80,0x34,0x40,0x0a,0x90,0x25,0x3a,0x17,0x90,
0x38,0x3a,0x6e,0x80,0x38,0x40,0x0a,0x90,0x31,0x3a,0x57,0x80,0x25,0x40,0x00,
0x80,0x31,0x40,0x0a,0x90,0x2c,0x3a,0x14,0x90,0x34,0x3a,0x6e,0x80,0x34,0x40,
0x0a,0x90,0x38,0x3a,0x5d,0x80,0x2c,0x40,0x00,0x80,0x38,0x40,0x0a,0x90,0x25,
0x3a,0x11,0x90,0x3d,0x3a,0x6e,0x80,0x3d,0x40,0x0a,0x90,0x34,0x3a,0x5d,0x80,
0x25,0x40,0x00,0x80,0x34,0x40,0x0a,0x90,0x2c,0x3a,0x11,0x90,0x38,0x3a,0x6e,
0x80,0x38,0x40,0x0a,0x90,0x3d,0x3a,0x5c,0x80,0x2c,0x40,0x00,0x80,0x3d,0x40,
0x0a,0x90,0x25,0x3a,0x12,0x90,0x40,0x3a,0x6e,0x80,0x40,0x40,0x0a,0x90,0x38,
0x3a,0x5c,0x80,0x25,0x40,0x00,0x80,0x38,0x40,0x0a,0x90,0x2c,0x3a,0x12,0x90,
0x3d,0x3a,0x71,0x80,0x3d,0x40,0x0a,0x90,0x40,0x3a,0x59,0x80,0x2c,0x40,0x00,
0x80,0x40,0x40,0x0a,0x90,0x25,0x3a,0x12,0x90,0x44,0x3a,0x6e,0x80,0x44,0x40,
0x0a,0x90,0x3d,0x3a,0x5d,0x80,0x25,0x40,0x00,0x80,0x3d,0x40,0x0a,0x90,0x2c,
0x3a,0x11,0x90,0x40,0x3a,0x6e,0x80,0x40,0x40,0x0a,0x90,0x44,0x3a,0x5d,0x80,
0x2c,0x40,0x00,0x80,0x44,0x40,0x0a,0x90,0x25,0x3a,0x11,0x90,0x49,0x3a,0x6e,
0x80,0x49,0x40,0x0a,0x90,0x40,0x3a,0x5c,0x80,0x25,0x40,0x00,0x80,0x40,0x40,
0x0a,0x90,0x2c,0x3a,0x12,0x90,0x44,0x3a,0x6e,0x80,0x44,0x40,0x0a,0x90,0x49,
0x3a,0x5c,0x80,0x2c,0x40,0x00,0x80,0x49,0x40,0x0a,0x90,0x25,0x3a,0x12,0x90,
0x4c,0x3a,0x6e,0x80,0x4c,0x40,0x0a,0x90,0x44,0x3a,0x5a,0x80,0x25,0x40,0x00,
0x80,0x44,0x40,0x0a,0x90,0x2c,0x3a,0x17,0x90,0x49,0x3a,0x6e,0x80,0x49,0x40,
0x0a,0x90,0x4c,0x3a,0x57,0x80,0x2c,0x40,0x00,0x80,0x4c,0x40,0x0a,0x90,0x31,
0x47,0x02,0x90,0x4c,0x47,0x00,0x90,0x49,0x47,0x01,0xb0,0x40,0x7f,0x02,0x90,
0x44,0x47,0x00,0x90,0x25,0x47,0x12,0x90,0x50,0x47,0x81,0x52,0x80,0x31,0x40,
0x00,0x80,0x25,0x40,0x00,0x80,0x50,0x40,0x0a,0x90,0x2c,0x47,0x07,0x80,0x44,
0x40,0x00,0x80,0x49,0x40,0x00,0x80,0x4c,0x40,0x0a,0x90,0x50,0x47,0x02,0x90,
0x4c,0x47,0x00,0x90,0x49,0x47,0x00,0x90,0x44,0x47,0x81,0x53,0x80,0x2c,0x40,
0x00,0x80,0x50,0x40,0x00,0x80,0x4c,0x40,0x06,0xb0,0x40,0x00,0x04,0x90,0x24,
0x3a,0x6e,0x80,0x49,0x40,0x00,0x80,0x44,0x40,0x0a,0x90,0x2c,0x3a,0x6d,0x80,
0x24,0x40,0x00,0x80,0x2c,0x40,0x0a,0x90,0x2c,0x3a,0x12,0x90,0x30,0x3a,0x6e,
0x80,0x30,0x40,0x0a,0x90,0x33,0x3a,0x5c,0x80,0x2c,0x40,0x00,0x80,0x33,0x40,
0x0a,0x90,0x24,0x3a,0x12,0x90,0x38,0x3a,0x71,0x80,0x38,0x40,0x0a,0x90,0x30,
0x3a,0x57,0x80,0x24,0x40,0x00,0x80,0x30,0x40,0x0a,0x90,0x2c,0x3a,0x17,0x90,
0x33,0x3a,0x6e,0x80,0x33,0x40,0x0a,0x90,0x38,0x3a,0x57,0x80,0x2c,0x40,0x00,
0x80,0x38,0x40,0x0a,0x90,0x24,0x3a,0x14,0x90,0x3c,0x3a,0x6e,0x80,0x3c,0x40,
0x0a,0x90,0x33,0x3a,0x5d,0x80,0x24,0x40,0x00,0x80,0x33,0x40,0x0a,0x90,0x2c,
0x3a,0x11,0x90,0x38,0x3a,0x6e,0x80,0x38,0x40,0x0a,0x90,0x3c,0x3a,0x5d,0x80,
0x2c,0x40,0x00,0x80,0x3c,0x40,0x0a,0x90,0x24,0x3a,0x11,0x90,0x3f,0x3a,0x6e,
0x80,0x3f,0x40,0x0a,0x90,0x38,0x3a,0x5c,0x80,0x24,0x40,0x00,0x80,0x38,0x40,
0x0a,0x90,0x2c,0x3a,0x12,0x90,0x3c,0x3a,0x6e,0x80,0x3c,0x40,0x0a,0x90,0x3f,
0x3a,0x5c,0x80,0x2c,0x40,0x00,0x80,0x3f,0x40,0x0a,0x90,0x24,0x3a,0x15,0x90,
0x44,0x3a,0x6e,0x80,0x44,0x40,0x0a,0x90,0x3c,0x3a,0x57,0x80,0x24,0x40,0x00,
0x80,0x3c,0x40,0x0a,0x90,0x2c,0x3a,0x17,0x90,0x3f,0x3a,0x6b,0x80,0x3f,0x40,
0x0a,0x90,0x44,0x3a,0x5d,0x80,0x2c,0x40,0x00,0x80,0x44,0x40,0x0a,0x90,0x24,
0x3a,0x11,0x90,0x48,0x3a,0x6e,0x80,0x48,0x40,0x0a,0x90,0x3f,0x3a,0x5d,0x80,
0x24,0x40,0x00,0x80,0x3f,0x40,0x0a,0x90,0x2c,0x3a,0x11,0x90,0x44,0x3a,0x6e,
0x80,0x44,0x40,0x0a,0x90,0x48,0x3a,0x5d,0x80,0x2c,0x40,0x00,0x80,0x48,0x40,
0x0a,0x90,0x24,0x3a,0x11,0x90,0x4b,0x3a,0x6e,0x80,0x4b,0x40,0x0a,0x90,0x44,
0x3a,0x5c,0x80,0x24,0x40,0x00,0x80,0x44,0x40,0x0a,0x90,0x2c,0x3a,0x12,0x90,
0x48,0x3a,0x6e,0x80,0x48,0x40,0x0a,0x90,0x4b,0x3a,0x5c,0x80,0x2c,0x40,0x00,
0x80,0x4b,0x40,0x0a,0x90,0x24,0x47,0x00,0x90,0x4b,0x47,0x00,0x90,0x48,0x47,
0x01,0xb0,0x40,0x7f,0x02,0x90,0x44,0x47,0x00,0x90,0x30,0x47,0x12,0x90,0x50,
0x47,0x81,0x4f,0x80,0x24,0x40,0x00,0x80,0x50,0x40,0x0a,0x90,0x2c,0x47,0x0d,
0x80,0x30,0x40,0x00,0x80,0x4b,0x40,0x00,0x80,0x44,0x40,0x00,0x80,0x48,0x40,
0x0a,0x90,0x50,0x47,0x00,0x90,0x4b,0x47,0x00,0x90,0x48,0x47,0x03,0x90,0x44,
0x47,0x81,0x4f,0x80,0x2c,0x40,0x00,0x80,0x50,0x40,0x06,0xb0,0x40,0x00,0x04,
0x90,0x23,0x3a,0x6e,0x80,0x48,0x40,0x00,0x80,0x44,0x40,0x00,0x80,0x4b,0x40,
0x0a,0x90,0x31,0x3a,0x6e,0x80,0x23,0x40,0x00,0x80,0x31,0x40,0x0a,0x90,0x2c,
0x3a,0x11,0x90,0x35,0x3a,0x6e,0x80,0x35,0x40,0x0a,0x90,0x38,0x3a,0x5d,0x80,
0x2c,0x40,0x00,0x80,0x38,0x40,0x0a,0x90,0x23,0x3a,0x11,0x90,0x3d,0x3a,0x6e,
0x80,0x3d,0x40,0x0a,0x90,0x35,0x3a,0x5c,0x80,0x23,0x40,0x00,0x80,0x35,0x40,
0x0a,0x90,0x2c,0x3a,0x12,0x90,0x38,0x3a,0x71,0x80,0x38,0x40,0x0a,0x90,0x3d,
0x3a,0x57,0x80,0x2c,0x40,0x00,0x80,0x3d,0x40,0x0a,0x90,0x23,0x3a,0x17,0x90,
0x41,0x3a,0x6e,0x80,0x41,0x40,0x0a,0x90,0x38,0x3a,0x57,0x80,0x23,0x40,0x00,
0x80,0x38,0x40,0x0a,0x90,0x2c,0x3a,0x14,0x90,0x3d,0x3a,0x6e,0x80,0x3d,0x40,
0x0a,0x90,0x41,0x3a,0x5d,0x80,0x2c,0x40,0x00,0x80,0x41,0x40,0x0a,0x90,0x23,
0x3a,0x11,0x90,0x44,0x3a,0x6e,0x80,0x44,0x40,0x0a,0x90,0x3d,0x3a,0x5d,0x80,
0x23,0x40,0x00,0x80,0x3d,0x40,0x0a,0x90,0x2c,0x3a,0x11,0x90,0x41,0x3a,0x6e,
0x80,0x41,0x40,0x0a,0x90,0x44,0x3a,0x5c,0x80,0x2c,0x40,0x00,0x80,0x44,0x40,
0x0a,0x90,0x23,0x3a,0x12,0x90,0x49,0x3a,0x6e,0x80,0x49,0x40,0x0a,0x90,0x41,
0x3a,0x5c,0x80,0x23,0x40,0x00,0x80,0x41,0x40,0x0a,0x90,0x2c,0x3a,0x15,0x90,
0x44,0x3a,0x6e,0x80,0x44,0x40,0x0a,0x90,0x49,0x3a,0x57,0x80,0x2c,0x40,0x00,
0x80,0x49,0x40,0x0a,0x90,0x23,0x3a,0x17,0x90,0x4d,0x3a,0x6b,0x80,0x4d,0x40,
0x0a,0x90,0x44,0x3a,0x5d,0x80,0x23,0x40,0x00,0x80,0x44,0x40,0x0a,0x90,0x2c,
0x3a,0x11,0x90,0x49,0x3a,0x6e,0x80,0x49,0x40,0x0a,0x90,0x4d,0x3a,0x5d,0x80,
0x2c,0x40,0x00,0x80,0x4d,0x40,0x0a,0x90,0x23,0x3a,0x11,0x90,0x50,0x3a,0x6e,
0x80,0x50,0x40,0x0a,0x90,0x49,0x3a,0x5c,0x80,0x23,0x40,0x00,0x80,0x49,0x40,
0x0a,0x90,0x2c,0x3a,0x12,0x90,0x4d,0x3a,0x6e,0x80,0x4d,0x40,0x0a,0x90,0x50,
0x3a,0x5c,0x80,0x2c,0x40,0x00,0x80,0x50,0x40,0x0a,0x90,0x23,0x47,0x00,0x90,
0x50,0x47,0x00,0x90,0x4d,0x47,0x01,0xb0,0x40,0x7f,0x02,0x90,0x49,0x47,0x00,
0x90,0x2f,0x47,0x0f,0x90,0x55,0x47,0x81,0x52,0x80,0x23,0x40,0x00,0x80,0x2f,
0x40,0x00,0x80,0x55,0x40,0x0a,0x90,0x2c,0x47,0x0d,0x80,0x49,0x40,0x00,0x80,
0x4d,0x40,0x00,0x80,0x50,0x40,0x0a,0x90,0x55,0x47,0x00,0x90,0x50,0x47,0x00,
0x90,0x4d,0x47,0x03,0x90,0x49,0x47,0x81,0x4c,0x80,0x2c,0x40,0x00,0x80,0x55,
0x40,0x09,0xb0,0x40,0x00,0x01,0x90,0x21,0x3a,0x6e,0x80,0x4d,0x40,0x00,0x80,
0x49,0x40,0x00,0x80,0x50,0x40,0x0a,0x90,0x31,0x3a,0x71,0x80,0x21,0x40,0x0a,
0x90,0x36,0x3a,0x00,0x90,0x2d,0x3a,0x6e,0x80,0x31,0x40,0x0a,0x90,0x39,0x3a,
0x6e,0x80,0x2d,0x40,0x00,0x80,0x39,0x40,0x00,0x80,0x36,0x40,0x0a,0x90,0x21,
0x3a,0x11,0x90,0x3d,0x3a,0x6e,0x80,0x3d,0x40,0x0a,0x90,0x3d,0x3b,0x5a,0x80,
0x21,0x40,0x0a,0x90,0x42,0x3b,0x02,0x90,0x2d,0x3a,0x6c,0x80,0x3d,0x40,0x0a,
0x90,0x45,0x3b,0x70,0x80,0x2d,0x40,0x00,0x80,0x45,0x40,0x00,0x80,0x42,0x40,
0x0a,0x90,0x21,0x3a,0x12,0x90,0x49,0x3f,0x71,0x80,0x49,0x40,0x0a,0x90,0x49,
0x43,0x57,0x80,0x21,0x40,0x0a,0x90,0x4e,0x43,0x00,0x90,0x2d,0x3a,0x6e,0x80,
0x49,0x40,0x0a,0x90,0x51,0x43,0x6e,0x80,0x2d,0x40,0x00,0x80,0x51,0x40,0x00,
0x80,0x4e,0x40,0x0a,0x90,0x21,0x3a,0x02,0x90,0x4e,0x4f,0x00,0x90,0x49,0x4f,
0x01,0xb0,0x40,0x7f,0x11,0x90,0x55,0x4f,0x81,0x55,0x80,0x21,0x40,0x00,0x80,
0x55,0x40,0x00,0x80,0x4e,0x40,0x0a,0x90,0x2d,0x3a,0x07,0x80,0x49,0x40,0x0a,
0x90,0x55,0x4f,0x02,0x90,0x4e,0x4f,0x00,0x90,0x49,0x4f,0x81,0x53,0x80,0x2d,
0x40,0x00,0x80,0x55,0x40,0x00,0x80,0x4e,0x40,0x06,0xb0,0x40,0x00,0x04,0x90,
0x21,0x3a,0x6b,0x80,0x49,0x40,0x0a,0x90,0x31,0x3a,0x6e,0x80,0x21,0x40,0x0a,
0x90,0x34,0x3a,0x02,0x90,0x2d,0x3a,0x6c,0x80,0x31,0x40,0x0a,0x90,0x37,0x3a,
0x70,0x80,0x2d,0x40,0x00,0x80,0x37,0x40,0x00,0x80,0x34,0x40,0x0a,0x90,0x21,
0x3a,0x15,0x90,0x3d,0x3a,0x6e,0x80,0x3d,0x40,0x0a,0x90,0x3d,0x3b,0x57,0x80,
0x21,0x40,0x0a,0x90,0x40,0x3b,0x00,0x90,0x2d,0x3a,0x6e,0x80,0x3d,0x40,0x0a,
0x90,0x43,0x3b,0x71,0x80,0x2d,0x40,0x00,0x80,0x43,0x40,0x00,0x80,0x40,0x40,
0x0a,0x90,0x21,0x3a,0x11,0x90,0x49,0x3b,0x6e,0x80,0x49,0x40,0x0a,0x90,0x49,
0x43,0x5d,0x80,0x21,0x40,0x0a,0x90,0x4c,0x43,0x00,0x90,0x2d,0x3a,0x6e,0x80,
0x49,0x40,0x0a,0x90,0x4f,0x43,0x6d,0x80,0x2d,0x40,0x00,0x80,0x4f,0x40,0x00,
0x80,0x4c,0x40,0x0a,0x90,0x21,0x3a,0x00,0x90,0x4f,0x4f,0x01,0xb0,0x40,0x7f,
0x02,0x90,0x49,0x4f,0x0f,0x90,0x55,0x4f,0x81,0x54,0x80,0x21,0x40,0x00,0x80,
0x55,0x40,0x00,0x80,0x49,0x40,0x00,0x80,0x4f,0x40,0x0a,0x90,0x2d,0x3a,0x12,
0x90,0x55,0x4f,0x00,0x90,0x4f,0x4f,0x02,0x90,0x49,0x4f,0x81,0x52,0x80,0x2d,
0x40,0x00,0x80,0x49,0x40,0x00,0x80,0x4f,0x40,0x00,0x80,0x55,0x40,0x07,0xb0,
0x40,0x00,0x03,0x90,0x2c,0x4b,0x03,0x90,0x20,0x4b,0x12,0x90,0x54,0x4b,0x00,
0x90,0x50,0x4b,0x00,0x90,0x48,0x4b,0x81,0x66,0x80,0x2c,0x40,0x00,0x80,0x48,
0x40,0x00,0x80,0x50,0x40,0x00,0x80,0x54,0x40,0x00,0x80,0x20,0x40,0x0a,0x90,
0x44,0x4b,0x00,0x90,0x3c,0x4b,0x00,0x90,0x38,0x4b,0x6b,0x80,0x44,0x40,0x0a,
0x90,0x50,0x4b,0x6e,0x80,0x3c,0x40,0x00,0x80,0x50,0x40,0x0a,0x90,0x44,0x4b,
0x02,0x90,0x3c,0x4b,0x6c,0x80,0x44,0x40,0x0a,0x90,0x50,0x4b,0x6e,0x80,0x3c,
0x40,0x00,0x80,0x50,0x40,0x0a,0x90,0x46,0x4b,0x02,0x90,0x3d,0x4b,0x6c,0x80,
0x46,0x40,0x0a,0x90,0x50,0x4b,0x6e,0x80,0x3d,0x40,0x00,0x80,0x50,0x40,0x0a,
0x90,0x48,0x4b,0x00,0x90,0x3f,0x4b,0x6e,0x80,0x48,0x40,0x0a,0x90,0x50,0x4b,
0x6e,0x80,0x3f,0x40,0x00,0x80,0x50,0x40,0x0a,0x90,0x49,0x4b,0x00,0x90,0x40,
0x4b,0x71,0x80,0x49,0x40,0x0a,0x90,0x50,0x4b,0x6e,0x80,0x40,0x40,0x00,0x80,
0x50,0x40,0x0a,0x90,0x4b,0x4b,0x00,0x90,0x42,0x4b,0x6e,0x80,0x4b,0x40,0x0a,
0x90,0x50,0x4b,0x6b,0x80,0x42,0x40,0x00,0x80,0x50,0x40,0x0a,0x90,0x48,0x4b,
0x03,0x90,0x3f,0x4b,0x6b,0x80,0x48,0x40,0x0a,0x90,0x50,0x4b,0x6e,0x80,0x3f,
0x40,0x00,0x80,0x50,0x40,0x0a,0x90,0x4b,0x4b,0x02,0x90,0x42,0x4b,0x6c,0x80,
0x4b,0x40,0x0a,0x90,0x50,0x4b,0x6e,0x80,0x42,0x40,0x00,0x80,0x50,0x40,0x0a,
0x90,0x49,0x4b,0x00,0x90,0x40,0x4b,0x6e,0x80,0x49,0x40,0x0a,0x90,0x50,0x4b,
0x6e,0x80,0x40,0x40,0x00,0x80,0x50,0x40,0x0a,0x90,0x4e,0x4b,0x00,0x90,0x45,
0x4b,0x6e,0x80,0x4e,0x40,0x0a,0x90,0x50,0x4b,0x71,0x80,0x45,0x40,0x00,0x80,
0x50,0x40,0x0a,0x90,0x4c,0x4b,0x00,0x90,0x44,0x4b,0x6e,0x80,0x4c,0x40,0x0a,
0x90,0x50,0x4b,0x6e,0x80,0x44,0x40,0x00,0x80,0x50,0x40,0x0a,0x90,0x4b,0x4b,
0x00,0x90,0x42,0x4b,0x6b,0x80,0x4b,0x40,0x0a,0x90,0x50,0x4b,0x6e,0x80,0x42,
0x40,0x00,0x80,0x50,0x40,0x0a,0x90,0x49,0x4b,0x02,0x90,0x40,0x4b,0x6c,0x80,
0x49,0x40,0x0a,0x90,0x50,0x4b,0x6e,0x80,0x40,0x40,0x00,0x80,0x50,0x40,0x0a,
0x90,0x48,0x4b,0x02,0x90,0x3f,0x4b,0x6c,0x80,0x48,0x40,0x0a,0x90,0x50,0x4b,
0x6e,0x80,0x3f,0x40,0x00,0x80,0x50,0x40,0x0a,0x90,0x45,0x4b,0x00,0x90,0x3d,
0x4b,0x6e,0x80,0x45,0x40,0x0a,0x90,0x4f,0x4b,0x6e,0x80,0x3d,0x40,0x00,0x80,
0x4f,0x40,0x00,0x80,0x38,0x40,0x0a,0x90,0x44,0x4b,0x00,0x90,0x3c,0x4b,0x02,
0x90,0x38,0x4b,0x6c,0x80,0x44,0x40,0x0a,0x90,0x50,0x4b,0x71,0x80,0x3c,0x40,
0x00,0x80,0x50,0x40,0x0a,0x90,0x44,0x4b,0x00,0x90,0x3c,0x4b,0x6e,0x80,0x44,
0x40,0x0a,0x90,0x50,0x4b,0x6b,0x80,0x3c,0x40,0x00,0x80,0x50,0x40,0x0a,0x90,
0x44,0x4b,0x03,0x90,0x3c,0x4b,0x6b,0x80,0x44,0x40,0x0a,0x90,0x50,0x4b,0x6e,
0x80,0x3c,0x40,0x00,0x80,0x50,0x40,0x0a,0x90,0x46,0x4b,0x02,0x90,0x3d,0x4b,
0x6c,0x80,0x46,0x40,0x0a,0x90,0x50,0x4b,0x6e,0x80,0x3d,0x40,0x00,0x80,0x50,
0x40,0x0a,0x90,0x48,0x4b,0x02,0x90,0x3f,0x4b,0x6c,0x80,0x48,0x40,0x0a,0x90,
0x50,0x4b,0x6e,0x80,0x3f,0x40,0x00,0x80,0x50,0x40,0x0a,0x90,0x49,0x4b,0x00,
0x90,0x40,0x4b,0x6e,0x80,0x49,0x40,0x0a,0x90,0x50,0x4b,0x6e,0x80,0x40,0x40,
0x00,0x80,0x50,0x40,0x0a,0x90,0x4b,0x4b,0x00,0x90,0x42,0x4b,0x71,0x80,0x4b,
0x40,0x0a,0x90,0x50,0x4b,0x6e,0x80,0x42,0x40,0x00,0x80,0x50,0x40,0x0a,0x90,
0x48,0x4b,0x00,0x90,0x3f,0x4b,0x6e,0x80,0x48,0x40,0x0a,0x90,0x50,0x4b,0x6b,
0x80,0x3f,0x40,0x00,0x80,0x50,0x40,0x0a,0x90,0x4b,0x4b,0x03,0x90,0x42,0x4b,
0x6b,0x80,0x4b,0x40,0x0a,0x90,0x50,0x4b,0x6e,0x80,0x42,0x40,0x00,0x80,0x50,
0x40,0x0a,0x90,0x49,0x4b,0x02,0x90,0x40,0x4b,0x6c,0x80,0x49,0x40,0x0a,0x90,
0x50,0x4b,0x6e,0x80,0x40,0x40,0x00,0x80,0x50,0x40,0x0a,0x90,0x4e,0x4b,0x00,
0x90,0x45,0x4b,0x6e,0x80,0x4e,0x40,0x0a,0x90,0x50,0x4b,0x6e,0x80,0x45,0x40,
0x00,0x80,0x50,0x40,0x0a,0x90,0x4c,0x4b,0x00,0x90,0x44,0x4b,0x6e,0x80,0x4c,
0x40,0x0a,0x90,0x50,0x4b,0x71,0x80,0x44,0x40,0x00,0x80,0x50,0x40,0x0a,0x90,
0x4b,0x4b,0x00,0x90,0x42,0x4b,0x6e,0x80,0x4b,0x40,0x0a,0x90,0x50,0x4b,0x6e,
0x80,0x42,0x40,0x00,0x80,0x50,0x40,0x0a,0x90,0x49,0x4b,0x00,0x90,0x40,0x4b,
0x6b,0x80,0x49,0x40,0x0a,0x90,0x50,0x4b,0x6e,0x80,0x40,0x40,0x00,0x80,0x50,
0x40,0x0a,0x90,0x48,0x4b,0x02,0x90,0x3f,0x4b,0x6c,0x80,0x48,0x40,0x0a,0x90,
0x50,0x4b,0x6e,0x80,0x3f,0x40,0x00,0x80,0x50,0x40,0x0a,0x90,0x45,0x4b,0x02,
0x90,0x3d,0x4b,0x6c,0x80,0x45,0x40,0x0a,0x90,0x4f,0x4b,0x6e,0x80,0x3d,0x40,
0x00,0x80,0x4f,0x40,0x00,0x80,0x38,0x40,0x0a,0x90,0x44,0x4b,0x00,0x90,0x3c,
0x4b,0x02,0x90,0x38,0x4b,0x6c,0x80,0x44,0x40,0x0a,0x90,0x50,0x4b,0x6e,0x80,
0x38,0x40,0x00,0x80,0x50,0x40,0x00,0x80,0x3c,0x40,0x0a,0x90,0x45,0x4b,0x00,
0x90,0x3d,0x4b,0x02,0x90,0x38,0x4b,0x6c,0x80,0x45,0x40,0x0a,0x90,0x4f,0x4b,
0x71,0x80,0x38,0x40,0x00,0x80,0x4f,0x40,0x00,0x80,0x3d,0x40,0x0a,0x90,0x44,
0x4b,0x00,0x90,0x3c,0x4b,0x00,0x90,0x38,0x4b,0x6e,0x80,0x44,0x40,0x0a,0x90,
0x50,0x4b,0x6b,0x80,0x38,0x40,0x00,0x80,0x50,0x40,0x00,0x80,0x3c,0x40,0x0a,
0x90,0x45,0x4b,0x03,0x90,0x3d,0x4b,0x00,0x90,0x38,0x4b,0x6b,0x80,0x45,0x40,
0x0a,0x90,0x4f,0x4b,0x6e,0x80,0x38,0x40,0x00,0x80,0x4f,0x40,0x00,0x80,0x3d,
0x40,0x0a,0x90,0x44,0x4b,0x02,0x90,0x3c,0x4b,0x00,0x90,0x38,0x4b,0x6c,0x80,
0x44,0x40,0x0a,0x90,0x50,0x4b,0x6e,0x80,0x38,0x40,0x00,0x80,0x50,0x40,0x00,
0x80,0x3c,0x40,0x0a,0x90,0x45,0x4b,0x02,0x90,0x3d,0x4b,0x00,0x90,0x38,0x4b,
0x6c,0x80,0x45,0x40,0x0a,0x90,0x4f,0x4b,0x6e,0x80,0x38,0x40,0x00,0x80,0x4f,
0x40,0x00,0x80,0x3d,0x40,0x0a,0x90,0x44,0x4b,0x00,0x90,0x3c,0x4b,0x02,0x90,
0x38,0x4b,0x6c,0x80,0x44,0x40,0x0a,0x90,0x50,0x4b,0x6e,0x80,0x38,0x40,0x00,
0x80,0x50,0x40,0x00,0x80,0x3c,0x40,0x0a,0x90,0x45,0x4b,0x00,0x90,0x3d,0x4b,
0x02,0x90,0x38,0x4b,0x6f,0x80,0x45,0x40,0x0a,0x90,0x4f,0x4b,0x6e,0x80,0x38,
0x40,0x00,0x80,0x4f,0x40,0x00,0x80,0x3d,0x40,0x0a,0x90,0x50,0x4b,0x00,0x90,
0x3c,0x4b,0x00,0x90,0x38,0x4b,0x83,0x52,0x80,0x50,0x40,0x00,0x80,0x38,0x40,
0x00,0x80,0x3c,0x40,0x0a,0x90,0x20,0x4b,0x00,0x90,0x2c,0x4b,0x00,0x90,0x38,
0x4b,0x8e,0x7a,0x80,0x20,0x40,0x00,0x80,0x38,0x40,0x00,0x80,0x2c,0x40,0x0a,
0x90,0x25,0x3a,0x64,0x90,0x2c,0x3a,0x70,0x80,0x25,0x40,0x00,0x80,0x2c,0x40,
0x0a,0x90,0x2c,0x3a,0x12,0x90,0x31,0x3a,0x71,0x80,0x31,0x40,0x0a,0x90,0x34,
0x3a,0x57,0x80,0x2c,0x40,0x00,0x80,0x34,0x40,0x0a,0x90,0x25,0x3a,0x17,0x90,
0x38,0x3a,0x6e,0x80,0x38,0x40,0x0a,0x90,0x31,0x3a,0x57,0x80,0x25,0x40,0x00,
0x80,0x31,0x40,0x0a,0x90,0x2c,0x3a,0x14,0x90,0x34,0x3a,0x6e,0x80,0x34,0x40,
0x0a,0x90,0x38,0x3a,0x5d,0x80,0x2c,0x40,0x00,0x80,0x38,0x40,0x0a,0x90,0x25,
0x3a,0x11,0x90,0x3d,0x3a,0x6e,0x80,0x3d,0x40,0x0a,0x90,0x34,0x3a,0x5d,0x80,
0x25,0x40,0x00,0x80,0x34,0x40,0x0a,0x90,0x2c,0x3a,0x11,0x90,0x38,0x3a,0x6e,
0x80,0x38,0x40,0x0a,0x90,0x40,0x3a,0x5d,0x80,0x2c,0x40,0x00,0x80,0x40,0x40,
0x0a,0x90,0x25,0x3a,0x11,0x90,0x44,0x3a,0x6e,0x80,0x44,0x40,0x0a,0x90,0x38,
0x3a,0x5c,0x80,0x25,0x40,0x00,0x80,0x38,0x40,0x0a,0x90,0x2c,0x3a,0x12,0x90,
0x3d,0x3a,0x71,0x80,0x3d,0x40,0x0a,0x90,0x40,0x3a,0x57,0x80,0x2c,0x40,0x00,
0x80,0x40,0x40,0x0a,0x90,0x25,0x3a,0x17,0x90,0x44,0x3a,0x6e,0x80,0x44,0x40,
0x0a,0x90,0x3d,0x3a,0x57,0x80,0x25,0x40,0x00,0x80,0x3d,0x40,0x0a,0x90,0x2c,
0x3a,0x14,0x90,0x40,0x3a,0x6e,0x80,0x40,0x40,0x0a,0x90,0x44,0x3a,0x5d,0x80,
0x2c,0x40,0x00,0x80,0x44,0x40,0x0a,0x90,0x25,0x3a,0x11,0x90,0x49,0x3a,0x6e,
0x80,0x49,0x40,0x0a,0x90,0x40,0x3a,0x5d,0x80,0x25,0x40,0x00,0x80,0x40,0x40,
0x0a,0x90,0x2c,0x3a,0x11,0x90,0x44,0x3a,0x6e,0x80,0x44,0x40,0x0a,0x90,0x49,
0x3a,0x5c,0x80,0x2c,0x40,0x00,0x80,0x49,0x40,0x0a,0x90,0x25,0x3a,0x12,0x90,
0x4c,0x3a,0x6e,0x80,0x4c,0x40,0x0a,0x90,0x4c,0x3a,0x5c,0x80,0x25,0x40,0x00,
0x80,0x4c,0x40,0x0a,0x90,0x2c,0x3a,0x15,0x90,0x50,0x3a,0x6e,0x80,0x50,0x40,
0x0a,0x90,0x55,0x3a,0x57,0x80,0x2c,0x40,0x00,0x80,0x55,0x40,0x0a,0x90,0x25,
0x47,0x02,0x90,0x31,0x47,0x00,0x90,0x4c,0x47,0x01,0xb0,0x40,0x7f,0x14,0x90,
0x58,0x47,0x81,0x52,0x80,0x25,0x40,0x00,0x80,0x58,0x40,0x00,0x80,0x31,0x40,
0x0a,0x90,0x2c,0x47,0x07,0x80,0x4c,0x40,0x0a,0x90,0x58,0x47,0x02,0x90,0x4c,
0x47,0x81,0x53,0x80,0x2c,0x40,0x00,0x80,0x58,0x40,0x06,0xb0,0x40,0x00,0x04,
0x90,0x22,0x3a,0x6e,0x80,0x4c,0x40,0x0a,0x90,0x34,0x3a,0x6d,0x80,0x22,0x40,
0x00,0x80,0x34,0x40,0x0a,0x90,0x31,0x3a,0x12,0x90,0x37,0x3a,0x6e,0x80,0x37,
0x40,0x0a,0x90,0x3d,0x3a,0x5c,0x80,0x31,0x40,0x00,0x80,0x3d,0x40,0x0a,0x90,
0x2e,0x3a,0x12,0x90,0x40,0x3a,0x71,0x80,0x40,0x40,0x0a,0x90,0x37,0x3a,0x57,
0x80,0x2e,0x40,0x00,0x80,0x37,0x40,0x0a,0x90,0x31,0x3a,0x17,0x90,0x3d,0x3a,
0x6e,0x80,0x3d,0x40,0x0a,0x90,0x40,0x3a,0x57,0x80,0x31,0x40,0x00,0x80,0x40,
0x40,0x0a,0x90,0x2e,0x3a,0x14,0x90,0x43,0x3a,0x6e,0x80,0x43,0x40,0x0a,0x90,
0x3d,0x3a,0x5d,0x80,0x2e,0x40,0x00,0x80,0x3d,0x40,0x0a,0x90,0x31,0x3a,0x11,
0x90,0x40,0x3a,0x6e,0x80,0x40,0x40,0x0a,0x90,0x43,0x3a,0x5d,0x80,0x31,0x40,
0x00,0x80,0x43,0x40,0x0a,0x90,0x2e,0x3a,0x11,0x90,0x49,0x3a,0x6e,0x80,0x49,
0x40,0x0a,0x90,0x40,0x3a,0x5c,0x80,0x2e,0x40,0x00,0x80,0x40,0x40,0x0a,0x90,
0x31,0x3a,0x12,0x90,0x43,0x3a,0x6e,0x80,0x43,0x40,0x0a,0x90,0x49,0x3a,0x5c,
0x80,0x31,0x40,0x00,0x80,0x49,0x40,0x0a,0x90,0x2e,0x3a,0x12,0x90,0x4c,0x3a,
0x71,0x80,0x4c,0x40,0x0a,0x90,0x43,0x3a,0x57,0x80,0x2e,0x40,0x00,0x80,0x43,
0x40,0x0a,0x90,0x31,0x3a,0x17,0x90,0x49,0x3a,0x6e,0x80,0x49,0x40,0x0a,0x90,
0x4c,0x3a,0x57,0x80,0x31,0x40,0x00,0x80,0x4c,0x40,0x0a,0x90,0x2e,0x3a,0x14,
0x90,0x4f,0x3a,0x6e,0x80,0x4f,0x40,0x0a,0x90,0x49,0x3a,0x5d,0x80,0x2e,0x40,
0x00,0x80,0x49,0x40,0x0a,0x90,0x31,0x3a,0x11,0x90,0x4c,0x3a,0x6e,0x80,0x4c,
0x40,0x0a,0x90,0x4f,0x3a,0x5d,0x80,0x31,0x40,0x00,0x80,0x4f,0x40,0x0a,0x90,
0x2e,0x3a,0x11,0x90,0x55,0x3a,0x6e,0x80,0x55,0x40,0x0a,0x90,0x4c,0x3a,0x5c,
0x80,0x2e,0x40,0x00,0x80,0x4c,0x40,0x0a,0x90,0x31,0x3a,0x12,0x90,0x4f,0x3a,
0x6e,0x80,0x4f,0x40,0x0a,0x90,0x55,0x3a,0x5c,0x80,0x31,0x40,0x00,0x80,0x55,
0x40,0x0a,0x90,0x2e,0x47,0x00,0x90,0x22,0x47,0x00,0x90,0x4c,0x47,0x01,0xb0,
0x40,0x7f,0x14,0x90,0x58,0x47,0x81,0x4f,0x80,0x2e,0x40,0x00,0x80,0x58,0x40,
0x00,0x80,0x22,0x40,0x0a,0x90,0x31,0x47,0x0d,0x80,0x4c,0x40,0x0a,0x90,0x58,
0x47,0x00,0x90,0x4c,0x47,0x81,0x52,0x80,0x31,0x40,0x00,0x80,0x58,0x40,0x06,
0xb0,0x40,0x00,0x04,0x90,0x1f,0x3a,0x6e,0x80,0x4c,0x40,0x0a,0x90,0x33,0x3a,
0x6e,0x80,0x1f,0x40,0x00,0x80,0x33,0x40,0x0a,0x90,0x33,0x3a,0x11,0x90,0x3a,
0x3a,0x6e,0x80,0x3a,0x40,0x0a,0x90,0x3d,0x3a,0x5c,0x80,0x33,0x40,0x00,0x80,
0x3d,0x40,0x0a,0x90,0x2b,0x3a,0x12,0x90,0x3f,0x3a,0x6e,0x80,0x3f,0x40,0x0a,
0x90,0x3a,0x3a,0x5c,0x80,0x2b,0x40,0x00,0x80,0x3a,0x40,0x0a,0x90,0x33,0x3a,
0x12,0x90,0x3d,0x3a,0x71,0x80,0x3d,0x40,0x0a,0x90,0x3f,0x3a,0x57,0x80,0x33,
0x40,0x00,0x80,0x3f,0x40,0x0a,0x90,0x2b,0x3b,0x17,0x90,0x46,0x3a,0x6e,0x80,
0x46,0x40,0x0a,0x90,0x3d,0x3b,0x57,0x80,0x2b,0x40,0x00,0x80,0x3d,0x40,0x0a,
0x90,0x33,0x3b,0x14,0x90,0x3f,0x3b,0x6e,0x80,0x3f,0x40,0x0a,0x90,0x46,0x3b,
0x5d,0x80,0x33,0x40,0x00,0x80,0x46,0x40,0x0a,0x90,0x2b,0x3d,0x11,0x90,0x49,
0x3b,0x6e,0x80,0x49,0x40,0x0a,0x90,0x3f,0x3d,0x5d,0x80,0x2b,0x40,0x00,0x80,
0x3f,0x40,0x0a,0x90,0x33,0x3d,0x11,0x90,0x46,0x3d,0x6e,0x80,0x46,0x40,0x0a,
0x90,0x49,0x3d,0x5c,0x80,0x33,0x40,0x00,0x80,0x49,0x40,0x0a,0x90,0x2b,0x3d,
0x12,0x90,0x4b,0x3d,0x6e,0x80,0x4b,0x40,0x0a,0x90,0x46,0x3d,0x5c,0x80,0x2b,
0x40,0x00,0x80,0x46,0x40,0x0a,0x90,0x33,0x3d,0x12,0x90,0x49,0x3d,0x71,0x80,
0x49,0x40,0x0a,0x90,0x4b,0x3d,0x57,0x80,0x33,0x40,0x00,0x80,0x4b,0x40,0x0a,
0x90,0x2b,0x3d,0x17,0x90,0x52,0x3d,0x6e,0x80,0x52,0x40,0x0a,0x90,0x49,0x3d,
0x57,0x80,0x2b,0x40,0x00,0x80,0x49,0x40,0x0a,0x90,0x33,0x3d,0x14,0x90,0x4b,
0x3d,0x6e,0x80,0x4b,0x40,0x0a,0x90,0x52,0x3d,0x5d,0x80,0x33,0x40,0x00,0x80,
0x52,0x40,0x0a,0x90,0x2b,0x3d,0x11,0x90,0x55,0x3d,0x6e,0x80,0x55,0x40,0x0a,
0x90,0x52,0x3d,0x5d,0x80,0x2b,0x40,0x00,0x80,0x52,0x40,0x0a,0x90,0x33,0x3d,
0x11,0x90,0x4b,0x3d,0x6e,0x80,0x4b,0x40,0x0a,0x90,0x49,0x3d,0x5c,0x80,0x33,
0x40,0x00,0x80,0x49,0x40,0x0a,0x90,0x2b,0x3d,0x12,0x90,0x52,0x3d,0x6e,0x80,
0x52,0x40,0x0a,0x90,0x4b,0x3d,0x5c,0x80,0x2b,0x40,0x00,0x80,0x4b,0x40,0x0a,
0x90,0x33,0x3d,0x15,0x90,0x49,0x3d,0x6e,0x80,0x49,0x40,0x0a,0x90,0x46,0x3d,
0x57,0x80,0x33,0x40,0x00,0x80,0x46,0x40,0x0a,0x90,0x2c,0x3a,0x17,0x90,0x47,
0x3f,0x6b,0x80,0x2c,0x40,0x0a,0x90,0x33,0x3a,0x6e,0x80,0x33,0x40,0x0a,0x90,
0x2f,0x3a,0x6e,0x80,0x47,0x40,0x00,0x80,0x2f,0x40,0x0a,0x90,0x33,0x3a,0x5d,
0x80,0x33,0x40,0x0a,0x90,0x4b,0x3c,0x11,0x90,0x2c,0x3a,0x6e,0x80,0x2c,0x40,
0x0a,0x90,0x33,0x3a,0x6e,0x80,0x33,0x40,0x0a,0x90,0x2f,0x3a,0x6e,0x80,0x2f,
0x40,0x0a,0x90,0x33,0x3a,0x6e,0x80,0x33,0x40,0x0a,0x90,0x2c,0x3a,0x71,0x80,
0x2c,0x40,0x0a,0x90,0x33,0x3a,0x6e,0x80,0x33,0x40,0x0a,0x90,0x2f,0x3a,0x6e,
0x80,0x2f,0x40,0x0a,0x90,0x33,0x3a,0x6b,0x80,0x4b,0x40,0x00,0x80,0x33,0x40,
0x0a,0x90,0x47,0x3c,0x03,0x90,0x2c,0x3a,0x6b,0x80,0x2c,0x40,0x0a,0x90,0x33,
0x3a,0x6e,0x80,0x33,0x40,0x0a,0x90,0x2f,0x3a,0x6e,0x80,0x47,0x40,0x00,0x80,
0x2f,0x40,0x0a,0x90,0x44,0x3c,0x02,0x90,0x33,0x3a,0x6c,0x80,0x44,0x40,0x00,
0x80,0x33,0x40,0x0a,0x90,0x43,0x3f,0x02,0x90,0x2e,0x3a,0x47,0x80,0x43,0x40,
0x0a,0x90,0x44,0x3f,0x1b,0x80,0x2e,0x40,0x0a,0x90,0x33,0x3a,0x1e,0x80,0x44,
0x40,0x0a,0x90,0x46,0x3f,0x46,0x80,0x33,0x40,0x00,0x80,0x46,0x40,0x0a,0x90,
0x44,0x3f,0x00,0x90,0x31,0x3a,0x6e,0x80,0x31,0x40,0x0a,0x90,0x33,0x3a,0x6e,
0x80,0x44,0x40,0x00,0x80,0x33,0x40,0x0a,0x90,0x43,0x3c,0x00,0x90,0x2e,0x3a,
0x71,0x80,0x2e,0x40,0x0a,0x90,0x33,0x3a,0x6e,0x80,0x33,0x40,0x0a,0x90,0x31,
0x3a,0x6e,0x80,0x31,0x40,0x0a,0x90,0x33,0x3a,0x6b,0x80,0x33,0x40,0x0a,0x90,
0x2e,0x3a,0x6e,0x80,0x2e,0x40,0x0a,0x90,0x33,0x3a,0x6e,0x80,0x43,0x40,0x00,
0x80,0x33,0x40,0x0a,0x90,0x43,0x3f,0x02,0x90,0x31,0x3a,0x6c,0x80,0x31,0x40,
0x0a,0x90,0x33,0x3a,0x6e,0x80,0x43,0x40,0x00,0x80,0x33,0x40,0x0a,0x90,0x4b,
0x3f,0x00,0x90,0x2e,0x3a,0x6e,0x80,0x2e,0x40,0x0a,0x90,0x33,0x3a,0x6e,0x80,
0x33,0x40,0x0a,0x90,0x31,0x3a,0x6e,0x80,0x4b,0x40,0x00,0x80,0x31,0x40,0x0a,
0x90,0x43,0x3f,0x00,0x90,0x33,0x3a,0x71,0x80,0x43,0x40,0x00,0x80,0x33,0x40,
0x0a,0x90,0x46,0x3f,0x00,0x90,0x2f,0x3a,0x6e,0x80,0x2f,0x40,0x0a,0x90,0x33,
0x3a,0x6e,0x80,0x33,0x40,0x0a,0x90,0x2f,0x3a,0x6b,0x80,0x2f,0x40,0x0a,0x90,
0x33,0x3a,0x6e,0x80,0x46,0x40,0x00,0x80,0x33,0x40,0x0a,0x90,0x44,0x3c,0x02,
0x90,0x2f,0x3a,0x6c,0x80,0x2f,0x40,0x0a,0x90,0x33,0x3a,0x6e,0x80,0x33,0x40,
0x0a,0x90,0x2f,0x3a,0x6e,0x80,0x2f,0x40,0x0a,0x90,0x33,0x3a,0x6e,0x80,0x33,
0x40,0x0a,0x90,0x2f,0x3a,0x6e,0x80,0x2f,0x40,0x0a,0x90,0x33,0x3a,0x6e,0x80,
0x44,0x40,0x00,0x80,0x33,0x40,0x0a,0x90,0x44,0x3f,0x00,0x90,0x2f,0x3a,0x71,
0x80,0x2f,0x40,0x0a,0x90,0x33,0x3a,0x6e,0x80,0x44,0x40,0x00,0x80,0x33,0x40,
0x0a,0x90,0x4b,0x3f,0x00,0x90,0x2f,0x3a,0x6e,0x80,0x2f,0x40,0x0a,0x90,0x33,
0x3a,0x6b,0x80,0x33,0x40,0x0a,0x90,0x2f,0x3a,0x6e,0x80,0x4b,0x40,0x00,0x80,
0x2f,0x40,0x0a,0x90,0x44,0x3f,0x02,0x90,0x33,0x3a,0x6c,0x80,0x44,0x40,0x00,
0x80,0x33,0x40,0x0a,0x90,0x47,0x3f,0x02,0x90,0x2b,0x3a,0x6c,0x80,0x2b,0x40,
0x0a,0x90,0x33,0x3a,0x6e,0x80,0x33,0x40,0x0a,0x90,0x2b,0x3a,0x6e,0x80,0x2b,
0x40,0x0a,0x90,0x33,0x3a,0x6e,0x80,0x47,0x40,0x00,0x80,0x33,0x40,0x0a,0x90,
0x46,0x3c,0x00,0x90,0x2b,0x3a,0x6e,0x80,0x2b,0x40,0x0a,0x90,0x33,0x3a,0x6e,
0x80,0x33,0x40,0x0a,0x90,0x2b,0x3a,0x71,0x80,0x2b,0x40,0x0a,0x90,0x33,0x3a,
0x6e,0x80,0x33,0x40,0x0a,0x90,0x2b,0x3a,0x6e,0x80,0x2b,0x40,0x0a,0x90,0x33,
0x3a,0x6b,0x80,0x46,0x40,0x00,0x80,0x33,0x40,0x0a,0x90,0x46,0x3f,0x02,0x90,
0x2b,0x3a,0x6c,0x80,0x2b,0x40,0x0a,0x90,0x33,0x3a,0x6e,0x80,0x46,0x40,0x00,
0x80,0x33,0x40,0x0a,0x90,0x4b,0x3f,0x02,0x90,0x2b,0x3a,0x6c,0x80,0x2b,0x40,
0x0a,0x90,0x33,0x3a,0x6e,0x80,0x33,0x40,0x0a,0x90,0x2b,0x3a,0x6e,0x80,0x4b,
0x40,0x00,0x80,0x2b,0x40,0x0a,0x90,0x46,0x3f,0x00,0x90,0x33,0x3a,0x6e,0x80,
0x46,0x40,0x00,0x80,0x33,0x40,0x0a,0x90,0x47,0x3f,0x00,0x90,0x2c,0x3a,0x6e,
0x80,0x2c,0x40,0x0a,0x90,0x33,0x3a,0x5a,0x80,0x47,0x40,0x02,0x80,0x33,0x40,
0x08,0x90,0x57,0x3f,0x02,0x90,0x4b,0x3f,0x15,0x90,0x2f,0x3a,0x6e,0x80,0x2f,
0x40,0x0a,0x90,0x33,0x3a,0x6e,0x80,0x33,0x40,0x0a,0x90,0x2c,0x3a,0x6b,0x80,
0x2c,0x40,0x0a,0x90,0x33,0x3a,0x6e,0x80,0x57,0x40,0x00,0x80,0x33,0x40,0x00,
0x80,0x4b,0x40,0x0a,0x90,0x57,0x3f,0x02,0x90,0x2f,0x3a,0x00,0x90,0x4b,0x3f,
0x6c,0x80,0x2f,0x40,0x0a,0x90,0x33,0x3a,0x6e,0x80,0x33,0x40,0x0a,0x90,0x2c,
0x3a,0x6e,0x80,0x2c,0x40,0x0a,0x90,0x33,0x3a,0x6e,0x80,0x4b,0x40,0x00,0x80,
0x33,0x40,0x00,0x80,0x57,0x40,0x0a,0x90,0x57,0x3f,0x00,0x90,0x2f,0x3a,0x02,
0x90,0x4b,0x3f,0x6c,0x80,0x2f,0x40,0x0a,0x90,0x33,0x3a,0x5a,0x80,0x4b,0x40,
0x00,0x80,0x57,0x40,0x02,0x80,0x33,0x40,0x08,0x90,0x53,0x3f,0x02,0x90,0x47,
0x3f,0x12,0x90,0x2c,0x3a,0x71,0x80,0x2c,0x40,0x0a,0x90,0x33,0x3a,0x57,0x80,
0x53,0x40,0x00,0x80,0x33,0x40,0x00,0x80,0x47,0x40,0x0a,0x90,0x50,0x3f,0x02,
0x90,0x44,0x3f,0x15,0x90,0x2f,0x3a,0x6e,0x80,0x2f,0x40,0x0a,0x90,0x33,0x3a,
0x57,0x80,0x50,0x40,0x00,0x80,0x33,0x40,0x00,0x80,0x44,0x40,0x0a,0x90,0x50,
0x3f,0x02,0x90,0x44,0x3f,0x12,0x90,0x2e,0x3a,0x6e,0x80,0x2e,0x40,0x0a,0x90,
0x33,0x3a,0x5d,0x80,0x50,0x40,0x00,0x80,0x33,0x40,0x00,0x80,0x44,0x40,0x0a,
0x90,0x4f,0x3f,0x00,0x90,0x43,0x3f,0x11,0x90,0x31,0x3a,0x6e,0x80,0x31,0x40,
0x0a,0x90,0x33,0x3a,0x6e,0x80,0x33,0x40,0x0a,0x90,0x2e,0x3a,0x6e,0x80,0x2e,
0x40,0x0a,0x90,0x33,0x3a,0x6e,0x80,0x4f,0x40,0x00,0x80,0x33,0x40,0x00,0x80,
0x43,0x40,0x0a,0x90,0x4f,0x3f,0x00,0x90,0x31,0x3a,0x02,0x90,0x43,0x3f,0x6c,
0x80,0x31,0x40,0x0a,0x90,0x33,0x3a,0x6e,0x80,0x33,0x40,0x0a,0x90,0x2e,0x3a,
0x71,0x80,0x2e,0x40,0x0a,0x90,0x33,0x3a,0x6e,0x80,0x43,0x40,0x00,0x80,0x33,
0x40,0x00,0x80,0x4f,0x40,0x0a,0x90,0x4f,0x3f,0x00,0x90,0x31,0x3a,0x00,0x90,
0x43,0x3f,0x6e,0x80,0x31,0x40,0x0a,0x90,0x33,0x3a,0x5a,0x80,0x43,0x40,0x00,
0x80,0x33,0x40,0x00,0x80,0x4f,0x40,0x0a,0x90,0x57,0x3f,0x03,0x90,0x4b,0x3f,
0x0e,0x90,0x2e,0x3a,0x6e,0x80,0x2e,0x40,0x0a,0x90,0x33,0x3a,0x5d,0x80,0x57,
0x40,0x00,0x80,0x33,0x40,0x00,0x80,0x4b,0x40,0x0a,0x90,0x4f,0x3f,0x00,0x90,
0x43,0x3f,0x11,0x90,0x31,0x3a,0x6e,0x80,0x31,0x40,0x0a,0x90,0x33,0x3a,0x5a,
0x80,0x4f,0x40,0x00,0x80,0x43,0x40,0x03,0x80,0x33,0x40,0x07,0x90,0x52,0x3f,
0x03,0x90,0x46,0x3f,0x11,0x90,0x2f,0x3a,0x6e,0x80,0x2f,0x40,0x0a,0x90,0x33,
0x3a,0x5a,0x80,0x52,0x40,0x00,0x80,0x46,0x40,0x02,0x80,0x33,0x40,0x08,0x90,
0x50,0x3f,0x02,0x90,0x44,0x3f,0x12,0x90,0x2f,0x3a,0x6e,0x80,0x2f,0x40,0x0a,
0x90,0x33,0x3a,0x71,0x80,0x33,0x40,0x0a,0x90,0x2f,0x3a,0x6e,0x80,0x2f,0x40,
0x0a,0x90,0x33,0x3a,0x6e,0x80,0x50,0x40,0x00,0x80,0x33,0x40,0x00,0x80,0x44,
0x40,0x0a,0x90,0x50,0x3f,0x00,0x90,0x2f,0x3a,0x00,0x90,0x44,0x3f,0x6b,0x80,
0x2f,0x40,0x0a,0x90,0x33,0x3a,0x6e,0x80,0x33,0x40,0x0a,0x90,0x2f,0x3a,0x6e,
0x80,0x2f,0x40,0x0a,0x90,0x33,0x3a,0x6e,0x80,0x44,0x40,0x00,0x80,0x33,0x40,
0x00,0x80,0x50,0x40,0x0a,0x90,0x50,0x3f,0x02,0x90,0x2f,0x3a,0x00,0x90,0x44,
0x3f,0x6c,0x80,0x2f,0x40,0x0a,0x90,0x33,0x3a,0x5a,0x80,0x44,0x40,0x00,0x80,
0x50,0x40,0x02,0x80,0x33,0x40,0x08,0x90,0x57,0x3f,0x02,0x90,0x4b,0x3f,0x12,
0x90,0x2f,0x3a,0x6e,0x80,0x2f,0x40,0x0a,0x90,0x33,0x3a,0x5a,0x80,0x57,0x40,
0x00,0x80,0x4b,0x40,0x02,0x80,0x33,0x40,0x08,0x90,0x50,0x3f,0x02,0x90,0x44,
0x3f,0x12,0x90,0x2f,0x3a,0x71,0x80,0x2f,0x40,0x0a,0x90,0x33,0x3a,0x57,0x80,
0x50,0x40,0x00,0x80,0x33,0x40,0x00,0x80,0x44,0x40,0x0a,0x90,0x53,0x3f,0x02,
0x90,0x47,0x3f,0x15,0x90,0x2b,0x3a,0x6e,0x80,0x2b,0x40,0x0a,0x90,0x33,0x3a,
0x57,0x80,0x53,0x40,0x00,0x80,0x33,0x40,0x00,0x80,0x47,0x40,0x0a,0x90,0x52,
0x3f,0x02,0x90,0x46,0x3f,0x12,0x90,0x2b,0x3a,0x6e,0x80,0x2b,0x40,0x0a,0x90,
0x33,0x3a,0x6e,0x80,0x33,0x40,0x0a,0x90,0x2b,0x3a,0x6e,0x80,0x2b,0x40,0x0a,
0x90,0x33,0x3a,0x6e,0x80,0x52,0x40,0x00,0x80,0x33,0x40,0x00,0x80,0x46,0x40,
0x0a,0x90,0x52,0x3f,0x00,0x90,0x2b,0x3a,0x02,0x90,0x46,0x3f,0x6c,0x80,0x2b,
0x40,0x0a,0x90,0x33,0x3a,0x6e,0x80,0x33,0x40,0x0a,0x90,0x2b,0x3a,0x6e,0x80,
0x2b,0x40,0x0a,0x90,0x33,0x3a,0x71,0x80,0x46,0x40,0x00,0x80,0x33,0x40,0x00,
0x80,0x52,0x40,0x0a,0x90,0x52,0x3f,0x00,0x90,0x2b,0x3a,0x03,0x90,0x46,0x3f,
0x6b,0x80,0x2b,0x40,0x0a,0x90,0x33,0x3a,0x57,0x80,0x46,0x40,0x00,0x80,0x33,
0x40,0x00,0x80,0x52,0x40,0x0a,0x90,0x57,0x3f,0x02,0x90,0x4b,0x3f,0x15,0x90,
0x2b,0x3a,0x6e,0x80,0x2b,0x40,0x0a,0x90,0x33,0x3a,0x5a,0x80,0x57,0x40,0x00,
0x80,0x33,0x40,0x00,0x80,0x4b,0x40,0x0a,0x90,0x52,0x3f,0x03,0x90,0x46,0x3f,
0x0e,0x90,0x2b,0x3a,0x6e,0x80,0x2b,0x40,0x0a,0x90,0x33,0x3a,0x5d,0x80,0x52,
0x40,0x00,0x80,0x33,0x40,0x00,0x80,0x46,0x40,0x0a,0x90,0x54,0x4f,0x00,0x90,
0x48,0x4f,0x11,0x90,0x2a,0x3a,0x6e,0x80,0x2a,0x40,0x0a,0x90,0x33,0x3a,0x6e,
0x80,0x33,0x40,0x0a,0x90,0x2c,0x3a,0x6e,0x80,0x2c,0x40,0x0a,0x90,0x33,0x3a,
0x6e,0x80,0x33,0x40,0x0a,0x90,0x2a,0x3a,0x6e,0x80,0x2a,0x40,0x0a,0x90,0x33,
0x3a,0x71,0x80,0x33,0x40,0x0a,0x90,0x2c,0x3a,0x6e,0x80,0x2c,0x40,0x0a,0x90,
0x33,0x3a,0x6e,0x80,0x54,0x40,0x00,0x80,0x33,0x40,0x00,0x80,0x48,0x40,0x0a,
0x90,0x55,0x4f,0x00,0x90,0x28,0x3a,0x00,0x90,0x49,0x4f,0x6b,0x80,0x28,0x40,
0x0a,0x90,0x31,0x3a,0x6e,0x80,0x31,0x40,0x0a,0x90,0x2c,0x3a,0x6e,0x80,0x2c,
0x40,0x0a,0x90,0x31,0x3a,0x6e,0x80,0x31,0x40,0x0a,0x90,0x28,0x3a,0x6e,0x80,
0x28,0x40,0x0a,0x90,0x31,0x3a,0x6e,0x80,0x31,0x40,0x0a,0x90,0x2c,0x3a,0x6e,
0x80,0x2c,0x40,0x0a,0x90,0x31,0x3a,0x6e,0x80,0x49,0x40,0x00,0x80,0x31,0x40,
0x00,0x80,0x55,0x40,0x0a,0x90,0x52,0x47,0x00,0x90,0x28,0x3a,0x02,0x90,0x46,
0x47,0x44,0x80,0x52,0x40,0x0a,0x90,0x53,0x47,0x21,0x80,0x28,0x40,0x0a,0x90,
0x31,0x3a,0x1b,0x80,0x53,0x40,0x0a,0x90,0x52,0x47,0x49,0x80,0x31,0x40,0x00,
0x80,0x52,0x40,0x0a,0x90,0x50,0x47,0x00,0x90,0x2a,0x3a,0x6e,0x80,0x50,0x40,
0x00,0x80,0x2a,0x40,0x0a,0x90,0x52,0x47,0x00,0x90,0x31,0x3a,0x6b,0x80,0x46,
0x40,0x00,0x80,0x31,0x40,0x00,0x80,0x52,0x40,0x0a,0x90,0x53,0x4f,0x00,0x90,
0x27,0x3a,0x00,0x90,0x47,0x4f,0x6e,0x80,0x27,0x40,0x0a,0x90,0x2f,0x3a,0x6e,
0x80,0x2f,0x40,0x0a,0x90,0x2a,0x3a,0x6e,0x80,0x2a,0x40,0x0a,0x90,0x2f,0x3a,
0x6e,0x80,0x2f,0x40,0x0a,0x90,0x27,0x3a,0x6e,0x80,0x27,0x40,0x0a,0x90,0x2f,
0x3a,0x6e,0x80,0x2f,0x40,0x0a,0x90,0x2a,0x3a,0x6e,0x80,0x2a,0x40,0x0a,0x90,
0x2f,0x3a,0x71,0x80,0x2f,0x40,0x0a,0x90,0x27,0x3a,0x6e,0x80,0x27,0x40,0x0a,
0x90,0x2f,0x3a,0x6e,0x80,0x2f,0x40,0x0a,0x90,0x2a,0x3a,0x6b,0x80,0x2a,0x40,
0x0a,0x90,0x2f,0x3a,0x6e,0x80,0x47,0x40,0x00,0x80,0x2f,0x40,0x00,0x80,0x53,
0x40,0x0a,0x90,0x50,0x4f,0x02,0x90,0x26,0x3a,0x00,0x90,0x44,0x4f,0x6c,0x80,
0x26,0x40,0x0a,0x90,0x2f,0x3a,0x6e,0x80,0x2f,0x40,0x0a,0x90,0x28,0x3a,0x6e,
0x80,0x28,0x40,0x0a,0x90,0x2f,0x3a,0x6e,0x80,0x2f,0x40,0x0a,0x90,0x26,0x3a,
0x6e,0x80,0x26,0x40,0x0a,0x90,0x2f,0x3a,0x6e,0x80,0x2f,0x40,0x0a,0x90,0x28,
0x3a,0x6e,0x80,0x28,0x40,0x0a,0x90,0x2f,0x3a,0x71,0x80,0x44,0x40,0x00,0x80,
0x2f,0x40,0x00,0x80,0x50,0x40,0x0a,0x90,0x51,0x4f,0x00,0x90,0x25,0x3a,0x00,
0x90,0x45,0x4f,0x6e,0x80,0x25,0x40,0x0a,0x90,0x2d,0x3a,0x6e,0x80,0x2d,0x40,
0x0a,0x90,0x28,0x3a,0x6b,0x80,0x28,0x40,0x0a,0x90,0x2d,0x3a,0x6e,0x80,0x2d,
0x40,0x0a,0x90,0x25,0x3a,0x6e,0x80,0x25,0x40,0x0a,0x90,0x2d,0x3a,0x6e,0x80,
0x2d,0x40,0x0a,0x90,0x28,0x3a,0x6e,0x80,0x28,0x40,0x0a,0x90,0x2d,0x3a,0x6e,
0x80,0x45,0x40,0x00,0x80,0x2d,0x40,0x00,0x80,0x51,0x40,0x0a,0x90,0x4f,0x47,
0x00,0x90,0x25,0x3a,0x02,0x90,0x43,0x47,0x47,0x80,0x4f,0x40,0x0a,0x90,0x50,
0x47,0x1b,0x80,0x25,0x40,0x0a,0x90,0x2e,0x3a,0x1e,0x80,0x50,0x40,0x0a,0x90,
0x4f,0x47,0x46,0x80,0x2e,0x40,0x00,0x80,0x4f,0x40,0x0a,0x90,0x4d,0x47,0x00,
0x90,0x27,0x3a,0x71,0x80,0x4d,0x40,0x00,0x80,0x27,0x40,0x0a,0x90,0x4f,0x47,
0x00,0x90,0x2e,0x3a,0x6e,0x80,0x43,0x40,0x00,0x80,0x2e,0x40,0x00,0x80,0x4f,
0x40,0x0a,0x90,0x50,0x4f,0x00,0x90,0x23,0x3a,0x00,0x90,0x44,0x4f,0x6e,0x80,
0x23,0x40,0x0a,0x90,0x2c,0x3a,0x6b,0x80,0x2c,0x40,0x0a,0x90,0x27,0x3a,0x6e,
0x80,0x27,0x40,0x0a,0x90,0x2c,0x3a,0x6e,0x80,0x2c,0x40,0x0a,0x90,0x23,0x3a,
0x6e,0x80,0x23,0x40,0x0a,0x90,0x2c,0x3a,0x6e,0x80,0x2c,0x40,0x0a,0x90,0x27,
0x3a,0x6e,0x80,0x27,0x40,0x0a,0x90,0x2c,0x3a,0x6e,0x80,0x2c,0x40,0x0a,0x90,
0x23,0x3a,0x6e,0x80,0x23,0x40,0x0a,0x90,0x2c,0x3a,0x71,0x80,0x2c,0x40,0x0a,
0x90,0x27,0x3a,0x6e,0x80,0x27,0x40,0x0a,0x90,0x2c,0x3a,0x59,0x80,0x44,0x40,
0x00,0x80,0x2c,0x40,0x00,0x80,0x50,0x40,0x0a,0x90,0x45,0x57,0x06,0x90,0x31,
0x57,0x00,0x90,0x2d,0x57,0x00,0x90,0x28,0x57,0x00,0x90,0x25,0x57,0x0f,0x90,
0x51,0x57,0x00,0x90,0x4c,0x57,0x00,0x90,0x49,0x57,0x88,0x2b,0x80,0x45,0x40,
0x00,0x80,0x49,0x40,0x00,0x80,0x4c,0x40,0x00,0x80,0x51,0x40,0x0a,0x90,0x4c,
0x3a,0x71,0x80,0x4c,0x40,0x0a,0x90,0x4e,0x3a,0x6e,0x80,0x4e,0x40,0x0a,0x90,
0x50,0x3a,0x6e,0x80,0x25,0x40,0x00,0x80,0x50,0x40,0x00,0x80,0x31,0x40,0x00,
0x80,0x2d,0x40,0x00,0x80,0x28,0x40,0x0a,0x90,0x51,0x3a,0x6b,0x80,0x51,0x40,
0x0a,0x90,0x53,0x3a,0x6e,0x80,0x53,0x40,0x0a,0x90,0x55,0x3a,0x6e,0x80,0x55,
0x40,0x0a,0x90,0x53,0x3a,0x5d,0x80,0x53,0x40,0x0a,0x90,0x45,0x3a,0x00,0x90,
0x40,0x3a,0x03,0x90,0x3d,0x3a,0x0e,0x90,0x51,0x3a,0x6e,0x80,0x51,0x40,0x0a,
0x90,0x4c,0x3a,0x6e,0x80,0x4c,0x40,0x0a,0x90,0x4e,0x3a,0x6e,0x80,0x4e,0x40,
0x0a,0x90,0x50,0x3a,0x6e,0x80,0x40,0x40,0x00,0x80,0x50,0x40,0x00,0x80,0x3d,
0x40,0x00,0x80,0x45,0x40,0x0a,0x90,0x51,0x3a,0x71,0x80,0x51,0x40,0x0a,0x90,
0x53,0x3a,0x6e,0x80,0x53,0x40,0x0a,0x90,0x55,0x3a,0x6e,0x80,0x55,0x40,0x0a,
0x90,0x53,0x3a,0x57,0x80,0x53,0x40,0x0a,0x90,0x45,0x3a,0x02,0x90,0x40,0x3a,
0x00,0x90,0x3d,0x3a,0x12,0x90,0x51,0x3a,0x6e,0x80,0x51,0x40,0x0a,0x90,0x4c,
0x3a,0x6e,0x80,0x4c,0x40,0x0a,0x90,0x4e,0x3a,0x6e,0x80,0x4e,0x40,0x0a,0x90,
0x50,0x3a,0x6e,0x80,0x40,0x40,0x00,0x80,0x50,0x40,0x00,0x80,0x3d,0x40,0x00,
0x80,0x45,0x40,0x0a,0x90,0x51,0x3a,0x6e,0x80,0x51,0x40,0x0a,0x90,0x53,0x3a,
0x6e,0x80,0x53,0x40,0x0a,0x90,0x55,0x3a,0x6e,0x80,0x55,0x40,0x0a,0x90,0x53,
0x3a,0x5c,0x80,0x53,0x40,0x0a,0x90,0x45,0x3a,0x00,0x90,0x40,0x3a,0x00,0x90,
0x3d,0x3a,0x15,0x90,0x51,0x3a,0x6e,0x80,0x51,0x40,0x0a,0x90,0x4c,0x3a,0x6e,
0x80,0x4c,0x40,0x0a,0x90,0x4e,0x3a,0x6b,0x80,0x4e,0x40,0x0a,0x90,0x50,0x3a,
0x6e,0x80,0x40,0x40,0x00,0x80,0x50,0x40,0x00,0x80,0x3d,0x40,0x00,0x80,0x45,
0x40,0x0a,0x90,0x51,0x3a,0x02,0x90,0x45,0x3a,0x00,0x90,0x40,0x3a,0x03,0x90,
0x3d,0x3a,0x69,0x80,0x51,0x40,0x0a,0x90,0x53,0x3a,0x6e,0x80,0x53,0x40,0x0a,
0x90,0x55,0x3a,0x6e,0x80,0x55,0x40,0x0a,0x90,0x56,0x3a,0x6e,0x80,0x3d,0x40,
0x00,0x80,0x56,0x40,0x00,0x80,0x40,0x40,0x00,0x80,0x45,0x40,0x0a,0x90,0x58,
0x3b,0x00,0x90,0x45,0x3a,0x02,0x90,0x40,0x3a,0x00,0x90,0x3d,0x3a,0x6c,0x80,
0x58,0x40,0x0a,0x90,0x57,0x3b,0x6e,0x80,0x57,0x40,0x0a,0x90,0x58,0x3b,0x6e,
0x80,0x58,0x40,0x0a,0x90,0x57,0x3b,0x71,0x80,0x3d,0x40,0x00,0x80,0x57,0x40,
0x00,0x80,0x40,0x40,0x00,0x80,0x45,0x40,0x0a,0x90,0x58,0x3d,0x00,0x90,0x45,
0x3a,0x00,0x90,0x40,0x3a,0x03,0x90,0x3d,0x3a,0x6b,0x80,0x58,0x40,0x0a,0x90,
0x55,0x3d,0x6b,0x80,0x55,0x40,0x0a,0x90,0x53,0x3d,0x6e,0x80,0x53,0x40,0x0a,
0x90,0x51,0x3d,0x6e,0x80,0x3d,0x40,0x00,0x80,0x51,0x40,0x00,0x80,0x40,0x40,
0x00,0x80,0x45,0x40,0x0a,0x90,0x50,0x3a,0x02,0x90,0x3f,0x3a,0x6c,0x80,0x3f,
0x40,0x0a,0x90,0x47,0x3a,0x6e,0x80,0x47,0x40,0x0a,0x90,0x44,0x3a,0x6e,0x80,
0x44,0x40,0x0a,0x90,0x47,0x3a,0x6e,0x80,0x47,0x40,0x0a,0x90,0x3f,0x3a,0x6e,
0x80,0x3f,0x40,0x0a,0x90,0x47,0x3a,0x6e,0x80,0x47,0x40,0x0a,0x90,0x44,0x3a,
0x71,0x80,0x44,0x40,0x0a,0x90,0x47,0x3a,0x6e,0x80,0x50,0x40,0x00,0x80,0x47,
0x40,0x0a,0x90,0x52,0x3a,0x00,0x90,0x3f,0x3a,0x43,0x80,0x52,0x40,0x0a,0x90,
0x53,0x3a,0x21,0x80,0x3f,0x40,0x0a,0x90,0x49,0x3a,0x1b,0x80,0x53,0x40,0x0a,
0x90,0x52,0x3a,0x46,0x80,0x49,0x40,0x00,0x80,0x52,0x40,0x0a,0x90,0x53,0x3a,
0x03,0x90,0x43,0x3a,0x43,0x80,0x53,0x40,0x0a,0x90,0x52,0x3a,0x1e,0x80,0x43,
0x40,0x0a,0x90,0x49,0x3a,0x21,0x80,0x52,0x40,0x0a,0x90,0x53,0x3a,0x43,0x80,
0x49,0x40,0x00,0x80,0x53,0x40,0x0a,0x90,0x52,0x3a,0x02,0x90,0x3f,0x3a,0x44,
0x80,0x52,0x40,0x0a,0x90,0x53,0x3a,0x1e,0x80,0x3f,0x40,0x0a,0x90,0x49,0x3a,
0x1e,0x80,0x53,0x40,0x0a,0x90,0x52,0x3a,0x46,0x80,0x49,0x40,0x00,0x80,0x52,
0x40,0x0a,0x90,0x50,0x3a,0x00,0x90,0x43,0x3a,0x6e,0x80,0x50,0x40,0x00,0x80,
0x43,0x40,0x0a,0x90,0x52,0x3a,0x00,0x90,0x49,0x3a,0x5c,0x80,0x52,0x40,0x00,
0x80,0x49,0x40,0x0a,0x90,0x44,0x3a,0x00,0x90,0x40,0x3a,0x12,0x90,0x50,0x3a,
0x00,0x90,0x47,0x3a,0x83,0x42,0x80,0x44,0x40,0x00,0x80,0x47,0x40,0x00,0x80,
0x50,0x40,0x00,0x80,0x40,0x40,0x0a,0x90,0x45,0x57,0x00,0x90,0x40,0x57,0x02,
0x90,0x3d,0x57,0x00,0x90,0x39,0x57,0x03,0x90,0x31,0x57,0x00,0x90,0x2d,0x57,
0x00,0x90,0x28,0x57,0x03,0x90,0x25,0x57,0x84,0x5a,0x80,0x45,0x40,0x00,0x80,
0x40,0x40,0x00,0x80,0x39,0x40,0x00,0x80,0x3d,0x40,0x0a,0x90,0x40,0x3a,0x6e,
0x80,0x40,0x40,0x0a,0x90,0x42,0x3a,0x6e,0x80,0x42,0x40,0x0a,0x90,0x44,0x3a,
0x6e,0x80,0x31,0x40,0x00,0x80,0x44,0x40,0x00,0x80,0x25,0x40,0x00,0x80,0x2d,
0x40,0x00,0x80,0x28,0x40,0x0a,0x90,0x45,0x3a,0x6e,0x80,0x45,0x40,0x0a,0x90,
0x47,0x3a,0x71,0x80,0x47,0x40,0x0a,0x90,0x49,0x3a,0x6e,0x80,0x49,0x40,0x0a,
0x90,0x47,0x3a,0x6e,0x80,0x47,0x40,0x0a,0x90,0x45,0x3a,0x6b,0x80,0x45,0x40,
0x0a,0x90,0x40,0x3a,0x6e,0x80,0x40,0x40,0x0a,0x90,0x42,0x3a,0x6e,0x80,0x42,
0x40,0x0a,0x90,0x44,0x3a,0x5d,0x80,0x44,0x40,0x0a,0x90,0x39,0x3a,0x00,0x90,
0x34,0x3a,0x03,0x90,0x31,0x3a,0x0e,0x90,0x45,0x3a,0x6e,0x80,0x45,0x40,0x0a,
0x90,0x47,0x3a,0x6e,0x80,0x47,0x40,0x0a,0x90,0x49,0x3a,0x6e,0x80,0x49,0x40,
0x0a,0x90,0x47,0x3a,0x6e,0x80,0x34,0x40,0x00,0x80,0x47,0x40,0x00,0x80,0x31,
0x40,0x00,0x80,0x39,0x40,0x0a,0x90,0x45,0x3a,0x71,0x80,0x45,0x40,0x0a,0x90,
0x40,0x3a,0x6e,0x80,0x40,0x40,0x0a,0x90,0x42,0x3a,0x6e,0x80,0x42,0x40,0x0a,
0x90,0x44,0x3a,0x57,0x80,0x44,0x40,0x0a,0x90,0x39,0x3a,0x02,0x90,0x34,0x3a,
0x00,0x90,0x31,0x3a,0x12,0x90,0x45,0x3a,0x6e,0x80,0x45,0x40,0x0a,0x90,0x47,
0x3a,0x6e,0x80,0x47,0x40,0x0a,0x90,0x49,0x3a,0x6e,0x80,0x49,0x40,0x0a,0x90,
0x47,0x3a,0x6e,0x80,0x34,0x40,0x00,0x80,0x47,0x40,0x00,0x80,0x31,0x40,0x00,
0x80,0x39,0x40,0x0a,0x90,0x45,0x3a,0x6e,0x80,0x45,0x40,0x0a,0x90,0x40,0x3a,
0x5c,0x80,0x40,0x40,0x0a,0x90,0x39,0x3a,0x00,0x90,0x34,0x3a,0x00,0x90,0x31,
0x3a,0x12,0x90,0x42,0x3a,0x6e,0x80,0x42,0x40,0x0a,0x90,0x44,0x3a,0x71,0x80,
0x34,0x40,0x00,0x80,0x44,0x40,0x00,0x80,0x31,0x40,0x00,0x80,0x39,0x40,0x0a,
0x90,0x45,0x3a,0x6e,0x80,0x45,0x40,0x0a,0x90,0x47,0x3b,0x57,0x80,0x47,0x40,
0x0a,0x90,0x39,0x3b,0x02,0x90,0x34,0x3b,0x00,0x90,0x31,0x3b,0x15,0x90,0x49,
0x3b,0x6b,0x80,0x49,0x40,0x0a,0x90,0x47,0x3b,0x6e,0x80,0x34,0x40,0x00,0x80,
0x47,0x40,0x00,0x80,0x31,0x40,0x00,0x80,0x39,0x40,0x0a,0x90,0x45,0x3b,0x6e,
0x80,0x45,0x40,0x0a,0x90,0x40,0x3b,0x5d,0x80,0x40,0x40,0x0a,0x90,0x39,0x3f,
0x00,0x90,0x34,0x3f,0x03,0x90,0x31,0x3f,0x0e,0x90,0x42,0x3f,0x6e,0x80,0x42,
0x40,0x0a,0x90,0x44,0x3f,0x6e,0x80,0x34,0x40,0x00,0x80,0x44,0x40,0x00,0x80,
0x31,0x40,0x00,0x80,0x39,0x40,0x0a,0x90,0x45,0x3f,0x6e,0x80,0x45,0x40,0x0a,
0x90,0x47,0x3f,0x5c,0x80,0x47,0x40,0x0a,0x90,0x39,0x43,0x00,0x90,0x34,0x43,
0x00,0x90,0x31,0x43,0x12,0x90,0x49,0x3f,0x6e,0x80,0x49,0x40,0x0a,0x90,0x47,
0x3f,0x71,0x80,0x34,0x40,0x00,0x80,0x47,0x40,0x00,0x80,0x31,0x40,0x00,0x80,
0x39,0x40,0x0a,0x90,0x45,0x43,0x00,0x90,0x39,0x43,0x00,0x90,0x34,0x43,0x03,
0x90,0x31,0x43,0x6b,0x80,0x45,0x40,0x0a,0x90,0x40,0x43,0x6b,0x80,0x40,0x40,
0x0a,0x90,0x42,0x43,0x6e,0x80,0x42,0x40,0x0a,0x90,0x44,0x43,0x6e,0x80,0x31,
0x40,0x00,0x80,0x44,0x40,0x00,0x80,0x34,0x40,0x00,0x80,0x39,0x40,0x0a,0x90,
0x45,0x43,0x6e,0x80,0x45,0x40,0x0a,0x90,0x47,0x43,0x6e,0x80,0x47,0x40,0x0a,
0x90,0x49,0x47,0x6e,0x80,0x49,0x40,0x0a,0x90,0x4a,0x47,0x6e,0x80,0x4a,0x40,
0x0a,0x90,0x4c,0x47,0x6e,0x80,0x4c,0x40,0x0a,0x90,0x4e,0x47,0x6e,0x80,0x4e,
0x40,0x0a,0x90,0x50,0x47,0x71,0x80,0x50,0x40,0x0a,0x90,0x51,0x47,0x6e,0x80,
0x51,0x40,0x0a,0x90,0x53,0x47,0x6e,0x80,0x53,0x40,0x0a,0x90,0x55,0x47,0x6b,
0x80,0x55,0x40,0x0a,0x90,0x56,0x47,0x6e,0x80,0x56,0x40,0x0a,0x90,0x57,0x47,
0x5d,0x80,0x57,0x40,0x0a,0x90,0x4c,0x4f,0x03,0x90,0x31,0x47,0x0e,0x90,0x58,
0x4f,0x6e,0x80,0x31,0x40,0x0a,0x90,0x39,0x47,0x6e,0x80,0x39,0x40,0x0a,0x90,
0x34,0x47,0x6e,0x80,0x34,0x40,0x0a,0x90,0x39,0x47,0x6e,0x80,0x39,0x40,0x0a,
0x90,0x31,0x47,0x6e,0x80,0x31,0x40,0x0a,0x90,0x39,0x47,0x71,0x80,0x39,0x40,
0x0a,0x90,0x34,0x47,0x6e,0x80,0x34,0x40,0x0a,0x90,0x39,0x47,0x6e,0x80,0x58,
0x40,0x00,0x80,0x39,0x40,0x00,0x80,0x4c,0x40,0x0a,0x90,0x50,0x4f,0x00,0x90,
0x44,0x4f,0x00,0x90,0x32,0x47,0x6e,0x80,0x32,0x40,0x0a,0x90,0x3b,0x47,0x6b,
0x80,0x3b,0x40,0x0a,0x90,0x35,0x47,0x6e,0x80,0x35,0x40,0x0a,0x90,0x3b,0x47,
0x6e,0x80,0x3b,0x40,0x0a,0x90,0x32,0x47,0x00,0x90,0x25,0x3a,0x6e,0x80,0x32,
0x40,0x00,0x80,0x25,0x40,0x0a,0x90,0x3b,0x47,0x6e,0x80,0x3b,0x40,0x0a,0x90,
0x35,0x47,0x6e,0x80,0x35,0x40,0x0a,0x90,0x3b,0x47,0x6e,0x80,0x50,0x40,0x00,
0x80,0x3b,0x40,0x00,0x80,0x44,0x40,0x0a,0x90,0x53,0x4f,0x00,0x90,0x47,0x4f,
0x02,0x90,0x33,0x47,0x6f,0x80,0x33,0x40,0x0a,0x90,0x3b,0x47,0x6e,0x80,0x3b,
0x40,0x0a,0x90,0x38,0x47,0x6e,0x80,0x38,0x40,0x0a,0x90,0x3b,0x47,0x6e,0x80,
0x3b,0x40,0x0a,0x90,0x33,0x47,0x6b,0x80,0x33,0x40,0x0a,0x90,0x3b,0x47,0x6e,
0x80,0x3b,0x40,0x0a,0x90,0x38,0x47,0x6e,0x80,0x38,0x40,0x0a,0x90,0x3b,0x47,
0x5d,0x80,0x53,0x40,0x00,0x80,0x47,0x40,0x0a,0x90,0x3d,0x43,0x07,0x80,0x3b,
0x40,0x0a,0x90,0x43,0x4f,0x02,0x90,0x37,0x4f,0x00,0x90,0x27,0x47,0x6c,0x80,
0x27,0x40,0x0a,0x90,0x33,0x47,0x6e,0x80,0x33,0x40,0x0a,0x90,0x32,0x47,0x6e,
0x80,0x32,0x40,0x0a,0x90,0x33,0x47,0x6e,0x80,0x33,0x40,0x0a,0x90,0x32,0x47,
0x71,0x80,0x32,0x40,0x0a,0x90,0x33,0x47,0x6e,0x80,0x33,0x40,0x0a,0x90,0x32,
0x47,0x6e,0x80,0x32,0x40,0x0a,0x90,0x33,0x47,0x6b,0x80,0x43,0x40,0x00,0x80,
0x33,0x40,0x00,0x80,0x37,0x40,0x00,0x80,0x3d,0x40,0x0a,0x90,0x44,0x4f,0x03,
0x90,0x3b,0x4f,0x00,0x90,0x38,0x43,0x03,0x90,0x2c,0x47,0x81,0x60,0x80,0x44,
0x40,0x00,0x80,0x2c,0x40,0x00,0x80,0x38,0x40,0x00,0x80,0x3b,0x40,0x0a,0x90,
0x47,0x3a,0x02,0x90,0x3f,0x3a,0x00,0x90,0x38,0x3a,0x81,0x50,0x80,0x47,0x40,
0x00,0x80,0x38,0x40,0x00,0x80,0x3f,0x40,0x0a,0x90,0x47,0x3a,0x03,0x90,0x3f,
0x3a,0x00,0x90,0x38,0x3a,0x81,0x63,0x80,0x47,0x40,0x00,0x80,0x38,0x40,0x00,
0x80,0x3f,0x40,0x0a,0x90,0x47,0x3a,0x02,0x90,0x3f,0x3a,0x00,0x90,0x38,0x3a,
0x81,0x64,0x80,0x47,0x40,0x00,0x80,0x38,0x40,0x00,0x80,0x3f,0x40,0x0a,0x90,
0x47,0x3a,0x02,0x90,0x3f,0x3a,0x00,0x90,0x38,0x3a,0x81,0x64,0x80,0x47,0x40,
0x00,0x80,0x38,0x40,0x00,0x80,0x3f,0x40,0x0a,0x90,0x47,0x3a,0x00,0x90,0x3f,
0x3a,0x02,0x90,0x38,0x3a,0x81,0x67,0x80,0x47,0x40,0x00,0x80,0x38,0x40,0x00,
0x80,0x3f,0x40,0x0a,0x90,0x46,0x3a,0x00,0x90,0x3f,0x3a,0x03,0x90,0x3a,0x3a,
0x81,0x63,0x80,0x46,0x40,0x00,0x80,0x3a,0x40,0x00,0x80,0x3f,0x40,0x0a,0x90,
0x44,0x3a,0x00,0x90,0x3f,0x3a,0x00,0x90,0x3b,0x3a,0x81,0x63,0x80,0x44,0x40,
0x00,0x80,0x3b,0x40,0x00,0x80,0x3f,0x40,0x0a,0x90,0x43,0x3a,0x02,0x90,0x3f,
0x3a,0x00,0x90,0x3d,0x3a,0x03,0x90,0x33,0x3a,0x81,0x75,0x80,0x43,0x40,0x00,
0x80,0x33,0x40,0x00,0x80,0x3d,0x40,0x00,0x80,0x3f,0x40,0x0a,0x90,0x4b,0x3a,
0x00,0x90,0x43,0x3a,0x02,0x90,0x3d,0x3a,0x00,0x90,0x3f,0x3a,0x81,0x67,0x80,
0x4b,0x40,0x00,0x80,0x3f,0x40,0x00,0x80,0x3d,0x40,0x00,0x80,0x43,0x40,0x0a,
0x90,0x4b,0x3a,0x00,0x90,0x43,0x3a,0x00,0x90,0x3d,0x3a,0x03,0x90,0x3f,0x3a,
0x81,0x60,0x80,0x4b,0x40,0x00,0x80,0x3f,0x40,0x00,0x80,0x3d,0x40,0x00,0x80,
0x43,0x40,0x0a,0x90,0x4b,0x3a,0x03,0x90,0x43,0x3a,0x00,0x90,0x3d,0x3a,0x03,
0x90,0x3f,0x3a,0x81,0x60,0x80,0x4b,0x40,0x00,0x80,0x3f,0x40,0x00,0x80,0x3d,
0x40,0x00,0x80,0x43,0x40,0x0a,0x90,0x4b,0x3a,0x02,0x90,0x43,0x3a,0x00,0x90,
0x3d,0x3a,0x00,0x90,0x3f,0x3a,0x81,0x64,0x80,0x4b,0x40,0x00,0x80,0x3f,0x40,
0x00,0x80,0x3d,0x40,0x00,0x80,0x43,0x40,0x0a,0x90,0x4b,0x3a,0x02,0x90,0x43,
0x3a,0x00,0x90,0x3d,0x3a,0x00,0x90,0x3f,0x3a,0x81,0x64,0x80,0x4b,0x40,0x00,
0x80,0x3f,0x40,0x00,0x80,0x3d,0x40,0x00,0x80,0x43,0x40,0x0a,0x90,0x4b,0x3a,
0x00,0x90,0x44,0x3a,0x02,0x90,0x3b,0x3a,0x00,0x90,0x3f,0x3a,0x81,0x64,0x80,
0x4b,0x40,0x00,0x80,0x3f,0x40,0x00,0x80,0x3b,0x40,0x00,0x80,0x44,0x40,0x0a,
0x90,0x4b,0x3a,0x00,0x90,0x46,0x3a,0x02,0x90,0x3a,0x3a,0x00,0x90,0x3f,0x3a,
0x81,0x67,0x80,0x4b,0x40,0x00,0x80,0x3f,0x40,0x00,0x80,0x3a,0x40,0x00,0x80,
0x46,0x40,0x0a,0x90,0x4b,0x3a,0x00,0x90,0x47,0x3a,0x00,0x90,0x38,0x3a,0x03,
0x90,0x2c,0x3a,0x81,0x60,0x80,0x4b,0x40,0x00,0x80,0x2c,0x40,0x00,0x80,0x38,
0x40,0x00,0x80,0x47,0x40,0x0a,0x90,0x47,0x3a,0x03,0x90,0x3f,0x3a,0x00,0x90,
0x38,0x3a,0x81,0x63,0x80,0x47,0x40,0x00,0x80,0x38,0x40,0x00,0x80,0x3f,0x40,
0x0a,0x90,0x47,0x3a,0x02,0x90,0x3f,0x3a,0x00,0x90,0x38,0x3a,0x81,0x64,0x80,
0x47,0x40,0x00,0x80,0x38,0x40,0x00,0x80,0x3f,0x40,0x0a,0x90,0x47,0x3a,0x00,
0x90,0x3f,0x3a,0x02,0x90,0x38,0x3a,0x81,0x64,0x80,0x47,0x40,0x00,0x80,0x38,
0x40,0x00,0x80,0x3f,0x40,0x0a,0x90,0x47,0x3a,0x00,0x90,0x3f,0x3a,0x02,0x90,
0x38,0x3a,0x81,0x67,0x80,0x47,0x40,0x00,0x80,0x38,0x40,0x00,0x80,0x3f,0x40,
0x0a,0x90,0x47,0x3a,0x00,0x90,0x3f,0x3a,0x00,0x90,0x38,0x3a,0x81,0x66,0x80,
0x47,0x40,0x00,0x80,0x38,0x40,0x00,0x80,0x3f,0x40,0x0a,0x90,0x46,0x3a,0x00,
0x90,0x3f,0x3a,0x00,0x90,0x3a,0x3a,0x81,0x63,0x80,0x46,0x40,0x00,0x80,0x3a,
0x40,0x00,0x80,0x3f,0x40,0x0a,0x90,0x44,0x3a,0x02,0x90,0x3f,0x3a,0x00,0x90,
0x3b,0x3a,0x81,0x56,0x80,0x44,0x40,0x00,0x80,0x3b,0x40,0x00,0x80,0x3f,0x40,
0x0a,0x90,0x33,0x3a,0x0e,0x90,0x43,0x3a,0x02,0x90,0x3f,0x3a,0x00,0x90,0x3d,
0x3a,0x81,0x64,0x80,0x33,0x40,0x00,0x80,0x3d,0x40,0x00,0x80,0x3f,0x40,0x00,
0x80,0x43,0x40,0x0a,0x90,0x4b,0x3a,0x00,0x90,0x43,0x3a,0x02,0x90,0x3d,0x3a,
0x00,0x90,0x3f,0x3a,0x81,0x64,0x80,0x4b,0x40,0x00,0x80,0x3f,0x40,0x00,0x80,
0x3d,0x40,0x00,0x80,0x43,0x40,0x0a,0x90,0x4b,0x3a,0x00,0x90,0x43,0x3a,0x02,
0x90,0x3d,0x3a,0x00,0x90,0x3f,0x3a,0x81,0x67,0x80,0x4b,0x40,0x00,0x80,0x3f,
0x40,0x00,0x80,0x3d,0x40,0x00,0x80,0x43,0x40,0x0a,0x90,0x4b,0x3a,0x00,0x90,
0x43,0x3a,0x00,0x90,0x3d,0x3a,0x03,0x90,0x3f,0x3a,0x81,0x60,0x80,0x4b,0x40,
0x00,0x80,0x3f,0x40,0x00,0x80,0x3d,0x40,0x00,0x80,0x43,0x40,0x0a,0x90,0x4b,
0x3a,0x03,0x90,0x43,0x3a,0x00,0x90,0x3d,0x3a,0x03,0x90,0x3f,0x3a,0x81,0x60,
0x80,0x4b,0x40,0x00,0x80,0x3f,0x40,0x00,0x80,0x3d,0x40,0x00,0x80,0x43,0x40,
0x0a,0x90,0x4b,0x3a,0x02,0x90,0x43,0x3a,0x00,0x90,0x3d,0x3a,0x00,0x90,0x3f,
0x3a,0x81,0x64,0x80,0x4b,0x40,0x00,0x80,0x3f,0x40,0x00,0x80,0x3d,0x40,0x00,
0x80,0x43,0x40,0x0a,0x90,0x4b,0x3a,0x02,0x90,0x44,0x3a,0x00,0x90,0x3b,0x3a,
0x00,0x90,0x3f,0x3a,0x81,0x64,0x80,0x4b,0x40,0x00,0x80,0x3f,0x40,0x00,0x80,
0x3b,0x40,0x00,0x80,0x44,0x40,0x0a,0x90,0x4b,0x3a,0x00,0x90,0x46,0x3a,0x02,
0x90,0x3a,0x3a,0x00,0x90,0x3f,0x3a,0x81,0x64,0x80,0x4b,0x40,0x00,0x80,0x3f,
0x40,0x00,0x80,0x3a,0x40,0x00,0x80,0x46,0x40,0x0a,0x90,0x4b,0x3a,0x00,0x90,
0x47,0x3a,0x02,0x90,0x2c,0x3a,0x81,0x50,0x80,0x4b,0x40,0x00,0x80,0x2c,0x40,
0x00,0x80,0x47,0x40,0x0a,0x90,0x4b,0x3a,0x00,0x90,0x47,0x3a,0x02,0x90,0x3b,
0x3a,0x00,0x90,0x38,0x3a,0x81,0x67,0x80,0x4b,0x40,0x00,0x80,0x38,0x40,0x00,
0x80,0x3b,0x40,0x00,0x80,0x47,0x40,0x0a,0x90,0x4b,0x3a,0x00,0x90,0x47,0x3a,
0x03,0x90,0x3b,0x3a,0x00,0x90,0x38,0x3a,0x81,0x74,0x80,0x4b,0x40,0x00,0x80,
0x38,0x40,0x00,0x80,0x3b,0x40,0x00,0x80,0x47,0x40,0x0a,0x90,0x47,0x3a,0x02,
0x90,0x44,0x3a,0x00,0x90,0x3f,0x3a,0x00,0x90,0x3b,0x3a,0x81,0x64,0x80,0x47,
0x40,0x00,0x80,0x3b,0x40,0x00,0x80,0x3f,0x40,0x00,0x80,0x44,0x40,0x0a,0x90,
0x31,0x3a,0x81,0x52,0x80,0x31,0x40,0x0a,0x90,0x4c,0x3a,0x02,0x90,0x49,0x3a,
0x00,0x90,0x3d,0x3a,0x00,0x90,0x38,0x3a,0x81,0x64,0x80,0x4c,0x40,0x00,0x80,
0x38,0x40,0x00,0x80,0x3d,0x40,0x00,0x80,0x49,0x40,0x0a,0x90,0x4c,0x3a,0x02,
0x90,0x49,0x3a,0x00,0x90,0x3d,0x3a,0x00,0x90,0x38,0x3a,0x81,0x7b,0x80,0x4c,
0x40,0x00,0x80,0x38,0x40,0x00,0x80,0x3d,0x40,0x00,0x80,0x49,0x40,0x0a,0x90,
0x49,0x3a,0x00,0x90,0x44,0x3a,0x00,0x90,0x40,0x3a,0x03,0x90,0x3d,0x3a,0x81,
0x60,0x80,0x49,0x40,0x00,0x80,0x3d,0x40,0x00,0x80,0x40,0x40,0x00,0x80,0x44,
0x40,0x0a,0x90,0x33,0x3a,0x81,0x55,0x80,0x33,0x40,0x0a,0x90,0x4b,0x3a,0x00,
0x90,0x47,0x3a,0x00,0x90,0x3b,0x3a,0x03,0x90,0x38,0x3a,0x81,0x60,0x80,0x4b,
0x40,0x00,0x80,0x38,0x40,0x00,0x80,0x3b,0x40,0x00,0x80,0x47,0x40,0x0a,0x90,
0x4b,0x3a,0x03,0x90,0x47,0x3a,0x00,0x90,0x3b,0x3a,0x03,0x90,0x38,0x3a,0x81,
0x74,0x80,0x4b,0x40,0x00,0x80,0x38,0x40,0x00,0x80,0x3b,0x40,0x00,0x80,0x47,
0x40,0x0a,0x90,0x47,0x3a,0x00,0x90,0x44,0x3a,0x02,0x90,0x3f,0x3a,0x00,0x90,
0x3b,0x3a,0x81,0x67,0x80,0x47,0x40,0x00,0x80,0x3b,0x40,0x00,0x80,0x3f,0x40,
0x00,0x80,0x44,0x40,0x0a,0x90,0x33,0x3a,0x81,0x4f,0x80,0x33,0x40,0x0a,0x90,
0x4b,0x3a,0x00,0x90,0x46,0x3a,0x02,0x90,0x3a,0x3a,0x00,0x90,0x37,0x3a,0x81,
0x67,0x80,0x4b,0x40,0x00,0x80,0x37,0x40,0x00,0x80,0x3a,0x40,0x00,0x80,0x46,
0x40,0x0a,0x90,0x4b,0x3a,0x00,0x90,0x46,0x3a,0x00,0x90,0x3a,0x3a,0x03,0x90,
0x37,0x3a,0x81,0x74,0x80,0x4b,0x40,0x00,0x80,0x37,0x40,0x00,0x80,0x3a,0x40,
0x00,0x80,0x46,0x40,0x0a,0x90,0x46,0x3a,0x00,0x90,0x43,0x3a,0x02,0x90,0x3f,
0x3a,0x00,0x90,0x3a,0x3a,0x81,0x55,0x80,0x46,0x40,0x00,0x80,0x3a,0x40,0x00,
0x80,0x3f,0x40,0x00,0x80,0x43,0x40,0x0a,0x90,0x20,0x3a,0x0f,0x90,0x47,0x3a,
0x00,0x90,0x44,0x3a,0x02,0x90,0x2c,0x3a,0x81,0x52,0x80,0x47,0x40,0x00,0x80,
0x2c,0x40,0x00,0x80,0x44,0x40,0x0a,0x90,0x47,0x3a,0x08,0x80,0x20,0x40,0x0a,
0x90,0x53,0x3a,0x00,0x90,0x4b,0x3a,0x02,0x90,0x2c,0x3a,0x00,0x90,0x33,0x3a,
0x81,0x67,0x80,0x47,0x40,0x00,0x80,0x33,0x40,0x00,0x80,0x2c,0x40,0x00,0x80,
0x4b,0x40,0x00,0x80,0x53,0x40,0x0a,0x90,0x53,0x3d,0x00,0x90,0x4b,0x3d,0x00,
0x90,0x47,0x3d,0x03,0x90,0x2c,0x3d,0x00,0x90,0x33,0x3d,0x81,0x60,0x80,0x53,
0x40,0x00,0x80,0x33,0x40,0x00,0x80,0x2c,0x40,0x00,0x80,0x47,0x40,0x00,0x80,
0x4b,0x40,0x0a,0x90,0x53,0x40,0x03,0x90,0x4b,0x40,0x00,0x90,0x47,0x40,0x03,
0x90,0x2c,0x40,0x00,0x90,0x33,0x40,0x81,0x60,0x80,0x53,0x40,0x00,0x80,0x33,
0x40,0x00,0x80,0x2c,0x40,0x00,0x80,0x47,0x40,0x00,0x80,0x4b,0x40,0x0a,0x90,
0x53,0x43,0x02,0x90,0x4b,0x43,0x00,0x90,0x47,0x43,0x00,0x90,0x2c,0x43,0x03,
0x90,0x33,0x43,0x81,0x61,0x80,0x53,0x40,0x00,0x80,0x33,0x40,0x00,0x80,0x2c,
0x40,0x00,0x80,0x47,0x40,0x00,0x80,0x4b,0x40,0x0a,0x90,0x53,0x46,0x00,0x90,
0x4b,0x46,0x02,0x90,0x47,0x46,0x00,0x90,0x2c,0x46,0x03,0x90,0x33,0x46,0x81,
0x61,0x80,0x53,0x40,0x00,0x80,0x33,0x40,0x00,0x80,0x2c,0x40,0x00,0x80,0x47,
0x40,0x00,0x80,0x4b,0x40,0x0a,0x90,0x52,0x49,0x00,0x90,0x49,0x49,0x02,0x90,
0x46,0x49,0x00,0x90,0x2e,0x49,0x00,0x90,0x33,0x49,0x81,0x67,0x80,0x52,0x40,
0x00,0x80,0x33,0x40,0x00,0x80,0x2e,0x40,0x00,0x80,0x46,0x40,0x00,0x80,0x49,
0x40,0x0a,0x90,0x50,0x4b,0x00,0x90,0x47,0x4b,0x00,0x90,0x44,0x4b,0x03,0x90,
0x2f,0x4b,0x00,0x90,0x33,0x4b,0x81,0x51,0x80,0x50,0x40,0x00,0x80,0x33,0x40,
0x00,0x80,0x2f,0x40,0x00,0x80,0x44,0x40,0x00,0x80,0x47,0x40,0x0a,0x90,0x27,
0x4b,0x12,0x90,0x4f,0x4d,0x00,0x90,0x46,0x4d,0x00,0x90,0x43,0x4d,0x03,0x90,
0x33,0x4d,0x00,0x90,0x31,0x4d,0x81,0x60,0x80,0x27,0x40,0x00,0x80,0x31,0x40,
0x00,0x80,0x33,0x40,0x00,0x80,0x43,0x40,0x00,0x80,0x46,0x40,0x00,0x80,0x4f,
0x40,0x0a,0x90,0x58,0x4f,0x02,0x90,0x4f,0x4f,0x00,0x90,0x4c,0x4f,0x03,0x90,
0x33,0x4f,0x00,0x90,0x3d,0x4f,0x81,0x61,0x80,0x58,0x40,0x00,0x80,0x3d,0x40,
0x00,0x80,0x33,0x40,0x00,0x80,0x4c,0x40,0x00,0x80,0x4f,0x40,0x0a,0x90,0x58,
0x4f,0x02,0x90,0x4f,0x4f,0x00,0x90,0x4c,0x4f,0x00,0x90,0x33,0x4f,0x03,0x90,
0x3d,0x4f,0x81,0x61,0x80,0x58,0x40,0x00,0x80,0x3d,0x40,0x00,0x80,0x33,0x40,
0x00,0x80,0x4c,0x40,0x00,0x80,0x4f,0x40,0x0a,0x90,0x58,0x4f,0x00,0x90,0x4f,
0x4f,0x02,0x90,0x4c,0x4f,0x00,0x90,0x33,0x4f,0x03,0x90,0x3d,0x4f,0x81,0x61,
0x80,0x58,0x40,0x00,0x80,0x3d,0x40,0x00,0x80,0x33,0x40,0x00,0x80,0x4c,0x40,
0x00,0x80,0x4f,0x40,0x0a,0x90,0x58,0x4f,0x00,0x90,0x4f,0x4f,0x02,0x90,0x4c,
0x4f,0x00,0x90,0x33,0x4f,0x00,0x90,0x3d,0x4f,0x81,0x67,0x80,0x58,0x40,0x00,
0x80,0x3d,0x40,0x00,0x80,0x33,0x40,0x00,0x80,0x4c,0x40,0x00,0x80,0x4f,0x40,
0x0a,0x90,0x58,0x4f,0x00,0x90,0x4f,0x4f,0x00,0x90,0x4c,0x4f,0x03,0x90,0x33,
0x4f,0x00,0x90,0x3d,0x4f,0x81,0x60,0x80,0x58,0x40,0x00,0x80,0x3d,0x40,0x00,
0x80,0x33,0x40,0x00,0x80,0x4c,0x40,0x00,0x80,0x4f,0x40,0x0a,0x90,0x57,0x4f,
0x03,0x90,0x4f,0x4f,0x00,0x90,0x4b,0x4f,0x03,0x90,0x33,0x4f,0x00,0x90,0x3b,
0x4f,0x81,0x60,0x80,0x57,0x40,0x00,0x80,0x3b,0x40,0x00,0x80,0x33,0x40,0x00,
0x80,0x4b,0x40,0x00,0x80,0x4f,0x40,0x0a,0x90,0x55,0x4f,0x02,0x90,0x4f,0x4f,
0x00,0x90,0x49,0x4f,0x00,0x90,0x33,0x4f,0x03,0x90,0x3a,0x4f,0x81,0x61,0x80,
0x55,0x40,0x00,0x80,0x3a,0x40,0x00,0x80,0x33,0x40,0x00,0x80,0x49,0x40,0x00,
0x80,0x4f,0x40,0x0a,0x90,0x53,0x4f,0x02,0x90,0x50,0x4f,0x00,0x90,0x47,0x4f,
0x00,0x90,0x2c,0x4f,0x03,0x90,0x20,0x4f,0x81,0x61,0x80,0x53,0x40,0x00,0x80,
0x20,0x40,0x00,0x80,0x2c,0x40,0x00,0x80,0x47,0x40,0x00,0x80,0x50,0x40,0x0a,
0x90,0x53,0x3a,0x00,0x90,0x4b,0x3a,0x02,0x90,0x47,0x3a,0x00,0x90,0x2c,0x3a,
0x00,0x90,0x33,0x3a,0x81,0x64,0x80,0x53,0x40,0x00,0x80,0x33,0x40,0x00,0x80,
0x2c,0x40,0x00,0x80,0x47,0x40,0x00,0x80,0x4b,0x40,0x0a,0x90,0x53,0x3a,0x00,
0x90,0x4b,0x3a,0x02,0x90,0x47,0x3a,0x00,0x90,0x2c,0x3a,0x00,0x90,0x33,0x3a,
0x81,0x67,0x80,0x53,0x40,0x00,0x80,0x33,0x40,0x00,0x80,0x2c,0x40,0x00,0x80,
0x47,0x40,0x00,0x80,0x4b,0x40,0x0a,0x90,0x53,0x3d,0x00,0x90,0x4b,0x3d,0x00,
0x90,0x47,0x3d,0x03,0x90,0x2c,0x3d,0x00,0x90,0x33,0x3d,0x81,0x60,0x80,0x53,
0x40,0x00,0x80,0x33,0x40,0x00,0x80,0x2c,0x40,0x00,0x80,0x47,0x40,0x00,0x80,
0x4b,0x40,0x0a,0x90,0x53,0x40,0x02,0x90,0x4b,0x40,0x00,0x90,0x47,0x40,0x03,
0x90,0x2c,0x40,0x00,0x90,0x33,0x40,0x81,0x61,0x80,0x53,0x40,0x00,0x80,0x33,
0x40,0x00,0x80,0x2c,0x40,0x00,0x80,0x47,0x40,0x00,0x80,0x4b,0x40,0x0a,0x90,
0x53,0x43,0x02,0x90,0x4b,0x43,0x00,0x90,0x47,0x43,0x00,0x90,0x2c,0x43,0x03,
0x90,0x33,0x43,0x81,0x61,0x80,0x53,0x40,0x00,0x80,0x33,0x40,0x00,0x80,0x2c,
0x40,0x00,0x80,0x47,0x40,0x00,0x80,0x4b,0x40,0x0a,0x90,0x52,0x46,0x00,0x90,
0x49,0x46,0x02,0x90,0x46,0x46,0x00,0x90,0x2e,0x46,0x03,0x90,0x33,0x46,0x81,
0x61,0x80,0x52,0x40,0x00,0x80,0x33,0x40,0x00,0x80,0x2e,0x40,0x00,0x80,0x46,
0x40,0x00,0x80,0x49,0x40,0x0a,0x90,0x50,0x49,0x00,0x90,0x47,0x49,0x02,0x90,
0x44,0x49,0x00,0x90,0x2f,0x49,0x00,0x90,0x33,0x49,0x81,0x55,0x80,0x50,0x40,
0x00,0x80,0x33,0x40,0x00,0x80,0x2f,0x40,0x00,0x80,0x44,0x40,0x00,0x80,0x47,
0x40,0x0a,0x90,0x27,0x4c,0x12,0x90,0x4f,0x4c,0x00,0x90,0x46,0x4c,0x00,0x90,
0x43,0x4c,0x03,0x90,0x33,0x4c,0x00,0x90,0x31,0x4c,0x81,0x63,0x80,0x27,0x40,
0x00,0x80,0x31,0x40,0x00,0x80,0x33,0x40,0x00,0x80,0x43,0x40,0x00,0x80,0x46,
0x40,0x00,0x80,0x4f,0x40,0x0a,0x90,0x4f,0x4f,0x00,0x90,0x58,0x4f,0x00,0x90,
0x4c,0x4f,0x03,0x90,0x33,0x4f,0x00,0x90,0x3d,0x4f,0x81,0x60,0x80,0x4f,0x40,
0x00,0x80,0x3d,0x40,0x00,0x80,0x33,0x40,0x00,0x80,0x4c,0x40,0x00,0x80,0x58,
0x40,0x0a,0x90,0x4f,0x4f,0x02,0x90,0x58,0x4f,0x00,0x90,0x4c,0x4f,0x03,0x90,
0x33,0x4f,0x00,0x90,0x3d,0x4f,0x81,0x61,0x80,0x4f,0x40,0x00,0x80,0x3d,0x40,
0x00,0x80,0x33,0x40,0x00,0x80,0x4c,0x40,0x00,0x80,0x58,0x40,0x0a,0x90,0x4f,
0x4f,0x02,0x90,0x58,0x4f,0x00,0x90,0x4c,0x4f,0x00,0x90,0x33,0x4f,0x03,0x90,
0x3d,0x4f,0x81,0x61,0x80,0x4f,0x40,0x00,0x80,0x3d,0x40,0x00,0x80,0x33,0x40,
0x00,0x80,0x4c,0x40,0x00,0x80,0x58,0x40,0x0a,0x90,0x4f,0x4f,0x00,0x90,0x58,
0x4f,0x02,0x90,0x4c,0x4f,0x00,0x90,0x33,0x4f,0x03,0x90,0x3d,0x4f,0x81,0x61,
0x80,0x4f,0x40,0x00,0x80,0x3d,0x40,0x00,0x80,0x33,0x40,0x00,0x80,0x4c,0x40,
0x00,0x80,0x58,0x40,0x0a,0x90,0x4f,0x4f,0x00,0x90,0x58,0x4f,0x02,0x90,0x4c,
0x4f,0x00,0x90,0x33,0x4f,0x00,0x90,0x3d,0x4f,0x81,0x67,0x80,0x4f,0x40,0x00,
0x80,0x3d,0x40,0x00,0x80,0x33,0x40,0x00,0x80,0x4c,0x40,0x00,0x80,0x58,0x40,
0x0a,0x90,0x4f,0x4f,0x00,0x90,0x57,0x4f,0x00,0x90,0x4b,0x4f,0x03,0x90,0x33,
0x4f,0x00,0x90,0x3b,0x4f,0x81,0x60,0x80,0x4f,0x40,0x00,0x80,0x3b,0x40,0x00,
0x80,0x33,0x40,0x00,0x80,0x4b,0x40,0x00,0x80,0x57,0x40,0x0a,0x90,0x4f,0x4f,
0x03,0x90,0x55,0x4f,0x00,0x90,0x49,0x4f,0x03,0x90,0x33,0x4f,0x00,0x90,0x3a,
0x4f,0x81,0x60,0x80,0x4f,0x40,0x00,0x80,0x3a,0x40,0x00,0x80,0x33,0x40,0x00,
0x80,0x49,0x40,0x00,0x80,0x55,0x40,0x0a,0x90,0x53,0x4f,0x02,0x90,0x50,0x4f,
0x00,0x90,0x47,0x4f,0x00,0x90,0x38,0x4f,0x03,0x90,0x2c,0x4f,0x81,0x61,0x80,
0x53,0x40,0x00,0x80,0x2c,0x40,0x00,0x80,0x38,0x40,0x00,0x80,0x47,0x40,0x00,
0x80,0x50,0x40,0x0a,0x90,0x53,0x3a,0x02,0x90,0x50,0x3a,0x00,0x90,0x3f,0x3a,
0x00,0x90,0x3b,0x3a,0x81,0x50,0x80,0x53,0x40,0x00,0x80,0x3b,0x40,0x00,0x80,
0x3f,0x40,0x00,0x80,0x50,0x40,0x0a,0x90,0x53,0x3a,0x02,0x90,0x50,0x3a,0x00,
0x90,0x3f,0x3a,0x00,0x90,0x3b,0x3a,0x81,0x7b,0x80,0x53,0x40,0x00,0x80,0x3b,
0x40,0x00,0x80,0x3f,0x40,0x00,0x80,0x50,0x40,0x0a,0x90,0x57,0x3a,0x00,0x90,
0x53,0x3a,0x03,0x90,0x3b,0x3a,0x00,0x90,0x38,0x3a,0x81,0x63,0x80,0x57,0x40,
0x00,0x80,0x38,0x40,0x00,0x80,0x3b,0x40,0x00,0x80,0x53,0x40,0x0a,0x90,0x31,
0x3f,0x81,0x52,0x80,0x31,0x40,0x0a,0x90,0x55,0x3a,0x00,0x90,0x50,0x3a,0x03,
0x90,0x40,0x3a,0x00,0x90,0x3d,0x3a,0x81,0x63,0x80,0x55,0x40,0x00,0x80,0x3d,
0x40,0x00,0x80,0x40,0x40,0x00,0x80,0x50,0x40,0x0a,0x90,0x55,0x3a,0x00,0x90,
0x50,0x3a,0x00,0x90,0x40,0x3a,0x03,0x90,0x3d,0x3a,0x81,0x74,0x80,0x55,0x40,
0x00,0x80,0x3d,0x40,0x00,0x80,0x40,0x40,0x00,0x80,0x50,0x40,0x0a,0x90,0x58,
0x3a,0x00,0x90,0x55,0x3a,0x02,0x90,0x3d,0x3a,0x00,0x90,0x38,0x3a,0x81,0x52,
0x80,0x58,0x40,0x00,0x80,0x55,0x40,0x00,0x80,0x3d,0x40,0x0a,0x90,0x33,0x3f,
0x81,0x64,0x80,0x38,0x40,0x00,0x80,0x33,0x40,0x0a,0x90,0x53,0x3a,0x00,0x90,
0x50,0x3a,0x02,0x90,0x3f,0x3a,0x00,0x90,0x3b,0x3a,0x81,0x64,0x80,0x53,0x40,
0x00,0x80,0x3b,0x40,0x00,0x80,0x3f,0x40,0x00,0x80,0x50,0x40,0x0a,0x90,0x53,
0x3a,0x00,0x90,0x50,0x3a,0x02,0x90,0x3f,0x3a,0x00,0x90,0x3b,0x3a,0x81,0x78,
0x80,0x53,0x40,0x00,0x80,0x3b,0x40,0x00,0x80,0x3f,0x40,0x00,0x80,0x50,0x40,
0x0a,0x90,0x57,0x3a,0x02,0x90,0x53,0x3a,0x00,0x90,0x3b,0x3a,0x00,0x90,0x38,
0x3a,0x81,0x64,0x80,0x57,0x40,0x00,0x80,0x38,0x40,0x00,0x80,0x3b,0x40,0x00,
0x80,0x53,0x40,0x0a,0x90,0x31,0x3f,0x81,0x52,0x80,0x31,0x40,0x0a,0x90,0x52,
0x3a,0x02,0x90,0x4f,0x3a,0x00,0x90,0x3f,0x3a,0x03,0x90,0x3a,0x3a,0x81,0x61,
0x80,0x52,0x40,0x00,0x80,0x3a,0x40,0x00,0x80,0x3f,0x40,0x00,0x80,0x4f,0x40,
0x0a,0x90,0x52,0x3a,0x02,0x90,0x4f,0x3a,0x00,0x90,0x3f,0x3a,0x00,0x90,0x3a,
0x3a,0x81,0x7b,0x80,0x52,0x40,0x00,0x80,0x3a,0x40,0x00,0x80,0x3f,0x40,0x00,
0x80,0x4f,0x40,0x0a,0x90,0x57,0x3a,0x00,0x90,0x52,0x3a,0x00,0x90,0x3a,0x3a,
0x03,0x90,0x37,0x3a,0x81,0x63,0x80,0x57,0x40,0x00,0x80,0x37,0x40,0x00,0x80,
0x3a,0x40,0x00,0x80,0x52,0x40,0x0a,0x90,0x2f,0x3f,0x81,0x52,0x80,0x2f,0x40,
0x0a,0x90,0x53,0x3a,0x00,0x90,0x4b,0x3a,0x00,0x90,0x44,0x3a,0x03,0x90,0x3f,
0x3a,0x81,0x63,0x80,0x53,0x40,0x00,0x80,0x3f,0x40,0x00,0x80,0x44,0x40,0x00,
0x80,0x4b,0x40,0x0a,0x90,0x53,0x3a,0x00,0x90,0x4b,0x3a,0x00,0x90,0x44,0x3a,
0x03,0x90,0x3f,0x3a,0x81,0x6a,0x90,0x57,0x3a,0x02,0x90,0x50,0x3a,0x00,0x90,
0x3f,0x3a,0x00,0x90,0x3b,0x3a,0x81,0x7b,0x80,0x53,0x40,0x00,0x80,0x3b,0x40,
0x00,0x80,0x3f,0x40,0x00,0x80,0x50,0x40,0x00,0x80,0x57,0x40,0x00,0x80,0x3f,
0x40,0x00,0x80,0x44,0x40,0x00,0x80,0x4b,0x40,0x0a,0x90,0x31,0x42,0x81,0x4f,
0x80,0x31,0x40,0x0a,0x90,0x51,0x3a,0x00,0x90,0x49,0x3a,0x02,0x90,0x45,0x3a,
0x00,0x90,0x40,0x3a,0x81,0x67,0x80,0x51,0x40,0x00,0x80,0x40,0x40,0x00,0x80,
0x45,0x40,0x00,0x80,0x49,0x40,0x0a,0x90,0x51,0x3a,0x00,0x90,0x49,0x3a,0x03,
0x90,0x45,0x3a,0x00,0x90,0x40,0x3a,0x81,0x6d,0x90,0x55,0x3a,0x00,0x90,0x4c,
0x3a,0x00,0x90,0x40,0x3a,0x03,0x90,0x3d,0x3a,0x81,0x74,0x80,0x51,0x40,0x00,
0x80,0x3d,0x40,0x00,0x80,0x40,0x40,0x00,0x80,0x4c,0x40,0x00,0x80,0x55,0x40,
0x00,0x80,0x40,0x40,0x00,0x80,0x45,0x40,0x00,0x80,0x49,0x40,0x0a,0x90,0x33,
0x44,0x81,0x52,0x80,0x33,0x40,0x0a,0x90,0x50,0x3c,0x02,0x90,0x47,0x3c,0x00,
0x90,0x44,0x3c,0x00,0x90,0x3f,0x3c,0x81,0x64,0x80,0x50,0x40,0x00,0x80,0x3f,
0x40,0x00,0x80,0x44,0x40,0x00,0x80,0x47,0x40,0x0a,0x90,0x50,0x3c,0x00,0x90,
0x47,0x3c,0x02,0x90,0x44,0x3c,0x00,0x90,0x3f,0x3c,0x81,0x6e,0x90,0x53,0x3c,
0x00,0x90,0x4b,0x3c,0x02,0x90,0x3f,0x3c,0x00,0x90,0x3b,0x3c,0x81,0x78,0x80,
0x50,0x40,0x00,0x80,0x3b,0x40,0x00,0x80,0x3f,0x40,0x00,0x80,0x4b,0x40,0x00,
0x80,0x53,0x40,0x00,0x80,0x3f,0x40,0x00,0x80,0x44,0x40,0x00,0x80,0x47,0x40,
0x0a,0x90,0x33,0x3f,0x81,0x55,0x80,0x33,0x40,0x0a,0x90,0x4f,0x3a,0x00,0x90,
0x46,0x3a,0x00,0x90,0x43,0x3a,0x03,0x90,0x3d,0x3a,0x81,0x60,0x80,0x4f,0x40,
0x00,0x80,0x3d,0x40,0x00,0x80,0x43,0x40,0x00,0x80,0x46,0x40,0x0a,0x90,0x4f,
0x3a,0x02,0x90,0x46,0x3a,0x00,0x90,0x43,0x3a,0x03,0x90,0x3d,0x3a,0x81,0x75,
0x80,0x4f,0x40,0x00,0x80,0x3d,0x40,0x00,0x80,0x43,0x40,0x00,0x80,0x46,0x40,
0x0a,0x90,0x52,0x3a,0x00,0x90,0x49,0x3a,0x02,0x90,0x3d,0x3a,0x00,0x90,0x3a,
0x3a,0x81,0x67,0x80,0x52,0x40,0x00,0x80,0x3a,0x40,0x00,0x80,0x3d,0x40,0x00,
0x80,0x49,0x40,0x0a,0x90,0x50,0x3f,0x00,0x90,0x47,0x3a,0x00,0x90,0x2c,0x3a,
0x6e,0x80,0x2c,0x40,0x0a,0x90,0x38,0x3a,0x6e,0x80,0x38,0x40,0x0a,0x90,0x33,
0x3a,0x6b,0x80,0x33,0x40,0x0a,0x90,0x38,0x3a,0x6e,0x80,0x50,0x40,0x00,0x80,
0x38,0x40,0x00,0x80,0x47,0x40,0x0a,0x90,0x2c,0x3a,0x6e,0x80,0x2c,0x40,0x0a,
0x90,0x38,0x3a,0x6e,0x80,0x38,0x40,0x0a,0x90,0x33,0x3a,0x6e,0x80,0x33,0x40,
0x0a,0x90,0x38,0x3a,0x6e,0x80,0x38,0x40,0x0a,0x90,0x2c,0x3a,0x6e,0x80,0x2c,
0x40,0x0a,0x90,0x38,0x3a,0x71,0x80,0x38,0x40,0x0a,0x90,0x33,0x3a,0x6e,0x80,
0x33,0x40,0x0a,0x90,0x38,0x3a,0x57,0x80,0x38,0x40,0x0a,0x90,0x47,0x3f,0x17,
0x90,0x2c,0x3a,0x6e,0x80,0x2c,0x40,0x0a,0x90,0x38,0x3a,0x6b,0x80,0x38,0x40,
0x0a,0x90,0x33,0x3a,0x6e,0x80,0x47,0x40,0x00,0x80,0x33,0x40,0x0a,0x90,0x44,
0x3f,0x02,0x90,0x38,0x3a,0x5b,0x80,0x44,0x40,0x00,0x80,0x38,0x40,0x0a,0x90,
0x2c,0x3a,0x11,0x90,0x43,0x3f,0x6e,0x80,0x2c,0x40,0x0a,0x90,0x3a,0x3a,0x6e,
0x80,0x3a,0x40,0x0a,0x90,0x33,0x3a,0x6e,0x80,0x33,0x40,0x0a,0x90,0x3a,0x3a,
0x5c,0x80,0x43,0x40,0x00,0x80,0x3a,0x40,0x0a,0x90,0x43,0x3a,0x00,0x90,0x3d,
0x3a,0x12,0x90,0x4b,0x3f,0x00,0x90,0x2c,0x3a,0x6e,0x80,0x2c,0x40,0x0a,0x90,
0x3a,0x3a,0x71,0x80,0x3a,0x40,0x0a,0x90,0x33,0x3a,0x6e,0x80,0x43,0x40,0x00,
0x80,0x33,0x40,0x00,0x80,0x4b,0x40,0x00,0x80,0x3d,0x40,0x0a,0x90,0x3a,0x3a,
0x59,0x80,0x3a,0x40,0x08,0x90,0x4b,0x3f,0x00,0x90,0x43,0x3a,0x02,0x90,0x3d,
0x3a,0x15,0x90,0x2c,0x3a,0x6e,0x80,0x2c,0x40,0x0a,0x90,0x3a,0x3a,0x6b,0x80,
0x3a,0x40,0x0a,0x90,0x33,0x3a,0x6e,0x80,0x4b,0x40,0x00,0x80,0x33,0x40,0x00,
0x80,0x3d,0x40,0x00,0x80,0x43,0x40,0x0a,0x90,0x3a,0x3a,0x67,0x90,0x4b,0x3f,
0x00,0x90,0x43,0x3a,0x00,0x90,0x3d,0x3a,0x07,0x80,0x3a,0x40,0x0a,0x90,0x2c,
0x3a,0x6e,0x80,0x2c,0x40,0x0a,0x90,0x3a,0x3a,0x6e,0x80,0x3a,0x40,0x0a,0x90,
0x33,0x3a,0x6e,0x80,0x3d,0x40,0x00,0x80,0x33,0x40,0x00,0x80,0x43,0x40,0x00,
0x80,0x4b,0x40,0x0a,0x90,0x3a,0x3a,0x64,0x90,0x3b,0x3f,0x0a,0x80,0x3a,0x40,
0x0a,0x90,0x2c,0x3a,0x64,0x90,0x44,0x3f,0x0a,0x80,0x3b,0x40,0x00,0x80,0x2c,
0x40,0x0a,0x90,0x38,0x3a,0x5a,0x80,0x38,0x40,0x0a,0x90,0x4b,0x3f,0x0a,0x80,
0x44,0x40,0x0a,0x90,0x33,0x3a,0x71,0x80,0x33,0x40,0x0a,0x90,0x38,0x3a,0x6e,
0x80,0x38,0x40,0x0a,0x90,0x2c,0x3a,0x6b,0x80,0x2c,0x40,0x0a,0x90,0x38,0x3a,
0x6e,0x80,0x38,0x40,0x0a,0x90,0x33,0x3a,0x6e,0x80,0x33,0x40,0x0a,0x90,0x38,
0x3a,0x6e,0x80,0x38,0x40,0x0a,0x90,0x2c,0x3a,0x6e,0x80,0x2c,0x40,0x0a,0x90,
0x38,0x3a,0x6e,0x80,0x38,0x40,0x0a,0x90,0x33,0x3a,0x6e,0x80,0x33,0x40,0x0a,
0x90,0x38,0x3a,0x71,0x80,0x4b,0x40,0x00,0x80,0x38,0x40,0x0a,0x90,0x53,0x3f,
0x00,0x90,0x2c,0x3a,0x6e,0x80,0x2c,0x40,0x0a,0x90,0x38,0x3a,0x6e,0x80,0x38,
0x40,0x0a,0x90,0x33,0x3a,0x6b,0x80,0x53,0x40,0x00,0x80,0x33,0x40,0x0a,0x90,
0x50,0x3f,0x03,0x90,0x38,0x3a,0x6b,0x80,0x50,0x40,0x00,0x80,0x38,0x40,0x0a,
0x90,0x4f,0x3f,0x02,0x90,0x2c,0x3a,0x6c,0x80,0x2c,0x40,0x0a,0x90,0x3a,0x3a,
0x6e,0x80,0x3a,0x40,0x0a,0x90,0x33,0x3a,0x6e,0x80,0x33,0x40,0x0a,0x90,0x3a,
0x3a,0x5c,0x80,0x4f,0x40,0x0a,0x90,0x4f,0x3a,0x00,0x90,0x49,0x3a,0x08,0x80,
0x3a,0x40,0x0a,0x90,0x57,0x3f,0x00,0x90,0x2c,0x3a,0x6e,0x80,0x2c,0x40,0x0a,
0x90,0x3a,0x3a,0x6e,0x80,0x3a,0x40,0x0a,0x90,0x33,0x3a,0x6e,0x80,0x49,0x40,
0x00,0x80,0x33,0x40,0x00,0x80,0x57,0x40,0x00,0x80,0x4f,0x40,0x0a,0x90,0x3a,
0x3a,0x5c,0x80,0x3a,0x40,0x08,0x90,0x57,0x3f,0x00,0x90,0x4f,0x3a,0x02,0x90,
0x49,0x3a,0x15,0x90,0x2c,0x3a,0x6e,0x80,0x2c,0x40,0x0a,0x90,0x3a,0x3a,0x6e,
0x80,0x3a,0x40,0x0a,0x90,0x33,0x3a,0x6b,0x80,0x57,0x40,0x00,0x80,0x33,0x40,
0x00,0x80,0x49,0x40,0x00,0x80,0x4f,0x40,0x0a,0x90,0x3a,0x3a,0x60,0x80,0x3a,
0x40,0x07,0x90,0x57,0x3f,0x00,0x90,0x4f,0x3a,0x03,0x90,0x49,0x3a,0x0e,0x90,
0x2c,0x3a,0x6e,0x80,0x2c,0x40,0x0a,0x90,0x3a,0x3a,0x6e,0x80,0x3a,0x40,0x0a,
0x90,0x33,0x3a,0x6e,0x80,0x57,0x40,0x00,0x80,0x33,0x40,0x00,0x80,0x49,0x40,
0x00,0x80,0x4f,0x40,0x0a,0x90,0x3a,0x3a,0x64,0x90,0x47,0x3f,0x0a,0x80,0x3a,
0x40,0x0a,0x90,0x2c,0x3a,0x64,0x90,0x50,0x3f,0x0a,0x80,0x47,0x40,0x00,0x80,
0x2c,0x40,0x0a,0x90,0x38,0x3a,0x64,0x90,0x57,0x3f,0x0a,0x80,0x50,0x40,0x00,
0x80,0x38,0x40,0x0a,0x90,0x33,0x3a,0x71,0x80,0x33,0x40,0x0a,0x90,0x38,0x3a,
0x6e,0x80,0x38,0x40,0x0a,0x90,0x2c,0x3a,0x6e,0x80,0x2c,0x40,0x0a,0x90,0x38,
0x3a,0x6e,0x80,0x38,0x40,0x0a,0x90,0x33,0x3a,0x6b,0x80,0x33,0x40,0x0a,0x90,
0x38,0x3a,0x6e,0x80,0x57,0x40,0x00,0x80,0x38,0x40,0x0a,0x90,0x49,0x3f,0x02,
0x90,0x2c,0x3a,0x5b,0x80,0x2c,0x40,0x0a,0x90,0x4f,0x3f,0x07,0x80,0x49,0x40,
0x0a,0x90,0x3a,0x3a,0x64,0x90,0x57,0x3f,0x0a,0x80,0x4f,0x40,0x00,0x80,0x3a,
0x40,0x0a,0x90,0x33,0x3a,0x6e,0x80,0x33,0x40,0x0a,0x90,0x3a,0x3a,0x6e,0x80,
0x3a,0x40,0x0a,0x90,0x2c,0x3a,0x6e,0x80,0x2c,0x40,0x0a,0x90,0x3a,0x3a,0x71,
0x80,0x3a,0x40,0x0a,0x90,0x33,0x3a,0x6e,0x80,0x33,0x40,0x0a,0x90,0x3a,0x3a,
0x6e,0x80,0x57,0x40,0x00,0x80,0x3a,0x40,0x0a,0x90,0x47,0x3f,0x00,0x90,0x2c,
0x3a,0x57,0x80,0x2c,0x40,0x0a,0x90,0x50,0x3f,0x0a,0x80,0x47,0x40,0x0a,0x90,
0x38,0x3a,0x5d,0x80,0x38,0x40,0x0a,0x90,0x57,0x3f,0x09,0x80,0x50,0x40,0x0a,
0x90,0x33,0x3a,0x6c,0x80,0x33,0x40,0x0a,0x90,0x38,0x3a,0x6e,0x80,0x38,0x40,
0x0a,0x90,0x2c,0x3a,0x6e,0x80,0x2c,0x40,0x0a,0x90,0x38,0x3a,0x6e,0x80,0x38,
0x40,0x0a,0x90,0x33,0x3a,0x6e,0x80,0x33,0x40,0x0a,0x90,0x38,0x3a,0x6e,0x80,
0x57,0x40,0x00,0x80,0x38,0x40,0x0a,0x90,0x49,0x3f,0x00,0x90,0x2c,0x3a,0x64,
0x90,0x4f,0x3f,0x0a,0x80,0x49,0x40,0x00,0x80,0x2c,0x40,0x0a,0x90,0x3a,0x3a,
0x5a,0x80,0x3a,0x40,0x0a,0x90,0x57,0x3f,0x0a,0x80,0x4f,0x40,0x0a,0x90,0x33,
0x3a,0x71,0x80,0x33,0x40,0x0a,0x90,0x3a,0x3a,0x6e,0x80,0x3a,0x40,0x0a,0x90,
0x2c,0x3a,0x6d,0x80,0x2c,0x40,0x0a,0x90,0x3a,0x3a,0x6c,0x80,0x3a,0x40,0x0a,
0x90,0x33,0x3a,0x6e,0x80,0x33,0x40,0x0a,0x90,0x3a,0x3a,0x6e,0x80,0x57,0x40,
0x00,0x80,0x3a,0x40,0x0a,0x90,0x3b,0x3f,0x02,0x90,0x2c,0x3a,0x6c,0x80,0x3b,
0x40,0x00,0x80,0x2c,0x40,0x0a,0x90,0x44,0x3f,0x00,0x90,0x38,0x3a,0x6e,0x80,
0x44,0x40,0x00,0x80,0x38,0x40,0x0a,0x90,0x3f,0x3f,0x00,0x90,0x33,0x3a,0x6e,
0x80,0x3f,0x40,0x00,0x80,0x33,0x40,0x0a,0x90,0x44,0x3f,0x00,0x90,0x38,0x3a,
0x6e,0x80,0x44,0x40,0x00,0x80,0x38,0x40,0x0a,0x90,0x3b,0x3f,0x00,0x90,0x2c,
0x3a,0x71,0x80,0x3b,0x40,0x00,0x80,0x2c,0x40,0x0a,0x90,0x44,0x3f,0x00,0x90,
0x38,0x3a,0x6e,0x80,0x44,0x40,0x00,0x80,0x38,0x40,0x0a,0x90,0x3f,0x3f,0x00,
0x90,0x33,0x3a,0x6e,0x80,0x3f,0x40,0x00,0x80,0x33,0x40,0x0a,0x90,0x44,0x3f,
0x00,0x90,0x38,0x3a,0x6b,0x80,0x44,0x40,0x00,0x80,0x38,0x40,0x0a,0x90,0x3b,
0x3a,0x03,0x90,0x2c,0x3a,0x6b,0x80,0x3b,0x40,0x00,0x80,0x2c,0x40,0x0a,0x90,
0x44,0x3a,0x02,0x90,0x38,0x3a,0x6c,0x80,0x44,0x40,0x00,0x80,0x38,0x40,0x0a,
0x90,0x3f,0x3a,0x02,0x90,0x33,0x3a,0x6c,0x80,0x3f,0x40,0x00,0x80,0x33,0x40,
0x0a,0x90,0x44,0x3a,0x02,0x90,0x38,0x3a,0x6c,0x80,0x44,0x40,0x00,0x80,0x38,
0x40,0x0a,0x90,0x3b,0x3a,0x00,0x90,0x2c,0x3a,0x6e,0x80,0x3b,0x40,0x00,0x80,
0x2c,0x40,0x0a,0x90,0x44,0x3a,0x00,0x90,0x38,0x3a,0x6e,0x80,0x44,0x40,0x00,
0x80,0x38,0x40,0x0a,0x90,0x3f,0x3a,0x00,0x90,0x33,0x3a,0x6e,0x80,0x3f,0x40,
0x00,0x80,0x33,0x40,0x0a,0x90,0x44,0x3a,0x00,0x90,0x38,0x3a,0x71,0x80,0x44,
0x40,0x00,0x80,0x38,0x40,0x0a,0x90,0x3c,0x3d,0x00,0x90,0x2c,0x3d,0x6e,0x80,
0x3c,0x40,0x00,0x80,0x2c,0x40,0x0a,0x90,0x42,0x3d,0x00,0x90,0x36,0x3d,0x6e,
0x80,0x42,0x40,0x00,0x80,0x36,0x40,0x0a,0x90,0x3f,0x3d,0x00,0x90,0x33,0x3d,
0x6b,0x80,0x3f,0x40,0x00,0x80,0x33,0x40,0x0a,0x90,0x42,0x3d,0x03,0x90,0x36,
0x3d,0x6b,0x80,0x42,0x40,0x00,0x80,0x36,0x40,0x0a,0x90,0x3c,0x3d,0x02,0x90,
0x2c,0x3d,0x6c,0x80,0x3c,0x40,0x00,0x80,0x2c,0x40,0x0a,0x90,0x42,0x3d,0x02,
0x90,0x36,0x3d,0x6c,0x80,0x42,0x40,0x00,0x80,0x36,0x40,0x0a,0x90,0x3f,0x3d,
0x02,0x90,0x33,0x3d,0x6c,0x80,0x3f,0x40,0x00,0x80,0x33,0x40,0x0a,0x90,0x42,
0x3d,0x00,0x90,0x36,0x3d,0x6e,0x80,0x42,0x40,0x00,0x80,0x36,0x40,0x0a,0x90,
0x3c,0x40,0x00,0x90,0x2c,0x40,0x6e,0x80,0x3c,0x40,0x00,0x80,0x2c,0x40,0x0a,
0x90,0x42,0x40,0x00,0x90,0x36,0x40,0x6e,0x80,0x42,0x40,0x00,0x80,0x36,0x40,
0x0a,0x90,0x3f,0x40,0x00,0x90,0x33,0x40,0x71,0x80,0x3f,0x40,0x00,0x80,0x33,
0x40,0x0a,0x90,0x42,0x40,0x00,0x90,0x36,0x40,0x6e,0x80,0x42,0x40,0x00,0x80,
0x36,0x40,0x0a,0x90,0x3c,0x40,0x00,0x90,0x2c,0x40,0x6e,0x80,0x3c,0x40,0x00,
0x80,0x2c,0x40,0x0a,0x90,0x42,0x40,0x00,0x90,0x36,0x40,0x6b,0x80,0x42,0x40,
0x00,0x80,0x36,0x40,0x0a,0x90,0x3f,0x40,0x03,0x90,0x33,0x40,0x6b,0x80,0x3f,
0x40,0x00,0x80,0x33,0x40,0x0a,0x90,0x42,0x40,0x02,0x90,0x36,0x40,0x5e,0x80,
0x42,0x40,0x04,0x80,0x36,0x40,0x06,0x90,0x3d,0x47,0x04,0x90,0x38,0x47,0x00,
0x90,0x35,0x47,0x0a,0x90,0x41,0x47,0x02,0x90,0x25,0x47,0x6c,0x80,0x3d,0x40,
0x00,0x80,0x38,0x40,0x00,0x80,0x41,0x40,0x00,0x80,0x35,0x40,0x0a,0x90,0x31,
0x3a,0x5d,0x80,0x25,0x40,0x00,0x80,0x31,0x40,0x0a,0x90,0x2c,0x3a,0x11,0x90,
0x35,0x3a,0x6e,0x80,0x35,0x40,0x0a,0x90,0x38,0x3a,0x5c,0x80,0x2c,0x40,0x00,
0x80,0x38,0x40,0x0a,0x90,0x25,0x3a,0x12,0x90,0x3d,0x3a,0x6e,0x80,0x3d,0x40,
0x0a,0x90,0x35,0x3a,0x5c,0x80,0x25,0x40,0x00,0x80,0x35,0x40,0x0a,0x90,0x2c,
0x3a,0x12,0x90,0x38,0x3a,0x71,0x80,0x38,0x40,0x0a,0x90,0x3d,0x3a,0x57,0x80,
0x2c,0x40,0x00,0x80,0x3d,0x40,0x0a,0x90,0x25,0x3a,0x17,0x90,0x41,0x3a,0x6e,
0x80,0x41,0x40,0x0a,0x90,0x38,0x3a,0x57,0x80,0x25,0x40,0x00,0x80,0x38,0x40,
0x0a,0x90,0x2c,0x3a,0x14,0x90,0x3d,0x3a,0x6e,0x80,0x3d,0x40,0x0a,0x90,0x41,
0x3a,0x5d,0x80,0x2c,0x40,0x00,0x80,0x41,0x40,0x0a,0x90,0x25,0x3a,0x11,0x90,
0x44,0x3a,0x6e,0x80,0x44,0x40,0x0a,0x90,0x3d,0x3a,0x5d,0x80,0x25,0x40,0x00,
0x80,0x3d,0x40,0x0a,0x90,0x2c,0x3a,0x11,0x90,0x41,0x3a,0x6e,0x80,0x41,0x40,
0x0a,0x90,0x44,0x3a,0x5c,0x80,0x2c,0x40,0x00,0x80,0x44,0x40,0x0a,0x90,0x25,
0x3a,0x12,0x90,0x49,0x3a,0x6e,0x80,0x49,0x40,0x0a,0x90,0x41,0x3a,0x5c,0x80,
0x25,0x40,0x00,0x80,0x41,0x40,0x0a,0x90,0x2c,0x3a,0x15,0x90,0x44,0x3a,0x6e,
0x80,0x44,0x40,0x0a,0x90,0x49,0x3a,0x57,0x80,0x2c,0x40,0x00,0x80,0x49,0x40,
0x0a,0x90,0x25,0x3a,0x17,0x90,0x4d,0x3a,0x6b,0x80,0x4d,0x40,0x0a,0x90,0x44,
0x3a,0x5d,0x80,0x25,0x40,0x00,0x80,0x44,0x40,0x0a,0x90,0x2c,0x3a,0x11,0x90,
0x49,0x3a,0x6e,0x80,0x49,0x40,0x0a,0x90,0x4d,0x3a,0x5d,0x80,0x2c,0x40,0x00,
0x80,0x4d,0x40,0x0a,0x90,0x25,0x3a,0x11,0x90,0x50,0x3a,0x6e,0x80,0x50,0x40,
0x0a,0x90,0x49,0x3a,0x5c,0x80,0x25,0x40,0x00,0x80,0x49,0x40,0x0a,0x90,0x2c,
0x3a,0x12,0x90,0x4d,0x3a,0x6e,0x80,0x4d,0x40,0x0a,0x90,0x50,0x3a,0x5c,0x80,
0x2c,0x40,0x00,0x80,0x50,0x40,0x0a,0x90,0x50,0x3a,0x00,0x90,0x4d,0x4b,0x00,
0x90,0x25,0x3a,0x01,0xb0,0x40,0x7f,0x02,0x90,0x49,0x3a,0x00,0x90,0x31,0x3a,
0x0f,0x90,0x55,0x4b,0x81,0x52,0x80,0x50,0x40,0x00,0x80,0x55,0x40,0x00,0x80,
0x31,0x40,0x00,0x80,0x49,0x40,0x00,0x80,0x25,0x40,0x00,0x80,0x4d,0x40,0x0a,
0x90,0x55,0x4b,0x00,0x90,0x50,0x3a,0x02,0x90,0x4d,0x4b,0x00,0x90,0x2c,0x3a,
0x03,0x90,0x49,0x3a,0x81,0x61,0x80,0x55,0x40,0x00,0x80,0x49,0x40,0x00,0x80,
0x2c,0x40,0x00,0x80,0x4d,0x40,0x00,0x80,0x50,0x40,0x09,0xb0,0x40,0x00,0x01,
0x90,0x23,0x3a,0x7b,0x90,0x31,0x3a,0x6e,0x80,0x23,0x40,0x00,0x80,0x31,0x40,
0x0a,0x90,0x2c,0x3a,0x11,0x90,0x35,0x3a,0x6e,0x80,0x35,0x40,0x0a,0x90,0x38,
0x3a,0x5d,0x80,0x2c,0x40,0x00,0x80,0x38,0x40,0x0a,0x90,0x23,0x3a,0x11,0x90,
0x3d,0x3a,0x6e,0x80,0x3d,0x40,0x0a,0x90,0x35,0x3a,0x5c,0x80,0x23,0x40,0x00,
0x80,0x35,0x40,0x0a,0x90,0x2c,0x3a,0x12,0x90,0x38,0x3a,0x6e,0x80,0x38,0x40,
0x0a,0x90,0x3d,0x3a,0x5c,0x80,0x2c,0x40,0x00,0x80,0x3d,0x40,0x0a,0x90,0x23,
0x3a,0x12,0x90,0x41,0x3a,0x71,0x80,0x41,0x40,0x0a,0x90,0x38,0x3a,0x57,0x80,
0x23,0x40,0x00,0x80,0x38,0x40,0x0a,0x90,0x2c,0x3a,0x17,0x90,0x3d,0x3a,0x6e,
0x80,0x3d,0x40,0x0a,0x90,0x41,0x3a,0x57,0x80,0x2c,0x40,0x00,0x80,0x41,0x40,
0x0a,0x90,0x23,0x3a,0x14,0x90,0x44,0x3a,0x6e,0x80,0x44,0x40,0x0a,0x90,0x3d,
0x3a,0x5d,0x80,0x23,0x40,0x00,0x80,0x3d,0x40,0x0a,0x90,0x2c,0x3a,0x11,0x90,
0x41,0x3a,0x6e,0x80,0x41,0x40,0x0a,0x90,0x44,0x3a,0x5d,0x80,0x2c,0x40,0x00,
0x80,0x44,0x40,0x0a,0x90,0x23,0x3a,0x11,0x90,0x49,0x3a,0x6e,0x80,0x49,0x40,
0x0a,0x90,0x41,0x3a,0x5c,0x80,0x23,0x40,0x00,0x80,0x41,0x40,0x0a,0x90,0x2c,
0x3a,0x12,0x90,0x44,0x3a,0x6e,0x80,0x44,0x40,0x0a,0x90,0x49,0x3a,0x5c,0x80,
0x2c,0x40,0x00,0x80,0x49,0x40,0x0a,0x90,0x23,0x3a,0x15,0x90,0x4d,0x3a,0x6e,
0x80,0x4d,0x40,0x0a,0x90,0x44,0x3a,0x57,0x80,0x23,0x40,0x00,0x80,0x44,0x40,
0x0a,0x90,0x2c,0x3a,0x17,0x90,0x49,0x3a,0x6b,0x80,0x49,0x40,0x0a,0x90,0x4d,
0x3a,0x5d,0x80,0x2c,0x40,0x00,0x80,0x4d,0x40,0x0a,0x90,0x23,0x3a,0x11,0x90,
0x50,0x3a,0x6e,0x80,0x50,0x40,0x0a,0x90,0x49,0x3a,0x5d,0x80,0x23,0x40,0x00,
0x80,0x49,0x40,0x0a,0x90,0x2c,0x3a,0x11,0x90,0x4d,0x3a,0x6e,0x80,0x4d,0x40,
0x0a,0x90,0x50,0x3a,0x5d,0x80,0x2c,0x40,0x00,0x80,0x50,0x40,0x0a,0xb0,0x40,
0x7f,0x00,0x90,0x50,0x4b,0x00,0x90,0x4d,0x4b,0x03,0x90,0x23,0x3a,0x00,0x90,
0x49,0x4b,0x00,0x90,0x2f,0x4b,0x0e,0x90,0x55,0x4b,0x81,0x52,0x80,0x50,0x40,
0x00,0x80,0x55,0x40,0x00,0x80,0x2f,0x40,0x00,0x80,0x49,0x40,0x00,0x80,0x23,
0x40,0x00,0x80,0x4d,0x40,0x0a,0x90,0x55,0x4b,0x02,0x90,0x50,0x4b,0x00,0x90,
0x4d,0x4b,0x00,0x90,0x2c,0x3a,0x03,0x90,0x49,0x4b,0x81,0x61,0x80,0x55,0x40,
0x00,0x80,0x49,0x40,0x00,0x80,0x2c,0x40,0x00,0x80,0x4d,0x40,0x00,0x80,0x50,
0x40,0x09,0xb0,0x40,0x00,0x01,0x90,0x21,0x3a,0x78,0x90,0x31,0x3a,0x6e,0x80,
0x21,0x40,0x0a,0x90,0x36,0x3a,0x00,0x90,0x2d,0x3a,0x71,0x80,0x31,0x40,0x0a,
0x90,0x39,0x3a,0x6e,0x80,0x2d,0x40,0x00,0x80,0x39,0x40,0x00,0x80,0x36,0x40,
0x0a,0x90,0x21,0x3a,0x11,0x90,0x3d,0x3a,0x5d,0x80,0x3d,0x40,0x0a,0x90,0x3d,
0x3a,0x6e,0x80,0x21,0x40,0x0a,0x90,0x42,0x3a,0x00,0x90,0x2d,0x3a,0x6b,0x80,
0x3d,0x40,0x0a,0x90,0x45,0x3a,0x71,0x80,0x2d,0x40,0x00,0x80,0x45,0x40,0x00,
0x80,0x42,0x40,0x0a,0x90,0x21,0x3a,0x11,0x90,0x49,0x3a,0x5a,0x80,0x49,0x40,
0x0a,0x90,0x49,0x3a,0x6e,0x80,0x21,0x40,0x0a,0x90,0x4e,0x3a,0x02,0x90,0x2d,
0x3a,0x6c,0x80,0x49,0x40,0x0a,0x90,0x51,0x3a,0x6e,0x80,0x2d,0x40,0x00,0x80,
0x51,0x40,0x00,0x80,0x4e,0x40,0x0a,0x90,0x51,0x4b,0x02,0x90,0x4e,0x4b,0x00,
0x90,0x21,0x3a,0x01,0xb0,0x40,0x7f,0x02,0x90,0x49,0x4b,0x12,0x90,0x55,0x4b,
0x81,0x4f,0x80,0x51,0x40,0x00,0x80,0x55,0x40,0x00,0x80,0x49,0x40,0x00,0x80,
0x21,0x40,0x00,0x80,0x4e,0x40,0x0a,0x90,0x55,0x4b,0x00,0x90,0x51,0x4b,0x02,
0x90,0x4e,0x4b,0x00,0x90,0x2d,0x3a,0x00,0x90,0x49,0x4b,0x81,0x67,0x80,0x55,
0x40,0x00,0x80,0x49,0x40,0x00,0x80,0x2d,0x40,0x00,0x80,0x4e,0x40,0x00,0x80,
0x51,0x40,0x06,0xb0,0x40,0x00,0x04,0x90,0x1d,0x3a,0x78,0x90,0x31,0x3a,0x6e,
0x80,0x1d,0x40,0x00,0x80,0x31,0x40,0x0a,0x90,0x29,0x3a,0x11,0x90,0x38,0x3a,
0x6e,0x80,0x38,0x40,0x0a,0x90,0x3b,0x3a,0x5c,0x80,0x29,0x40,0x00,0x80,0x3b,
0x40,0x0a,0x90,0x1d,0x3a,0x12,0x90,0x3d,0x3a,0x5a,0x80,0x3d,0x40,0x0a,0x90,
0x3d,0x3a,0x70,0x80,0x1d,0x40,0x00,0x80,0x3d,0x40,0x0a,0x90,0x29,0x3a,0x15,
0x90,0x44,0x3a,0x6e,0x80,0x44,0x40,0x0a,0x90,0x47,0x3a,0x57,0x80,0x29,0x40,
0x00,0x80,0x47,0x40,0x0a,0x90,0x1d,0x3a,0x17,0x90,0x49,0x3a,0x57,0x80,0x49,
0x40,0x0a,0x90,0x49,0x3a,0x71,0x80,0x1d,0x40,0x00,0x80,0x49,0x40,0x0a,0x90,
0x29,0x3a,0x11,0x90,0x50,0x3a,0x6e,0x80,0x50,0x40,0x0a,0x90,0x53,0x3a,0x5d,
0x80,0x29,0x40,0x00,0x80,0x53,0x40,0x0a,0xb0,0x40,0x7f,0x00,0x90,0x53,0x4b,
0x00,0x90,0x50,0x4b,0x03,0x90,0x1d,0x3a,0x00,0x90,0x49,0x4b,0x0e,0x90,0x55,
0x4b,0x81,0x52,0x80,0x53,0x40,0x00,0x80,0x55,0x40,0x00,0x80,0x49,0x40,0x00,
0x80,0x1d,0x40,0x00,0x80,0x50,0x40,0x0a,0x90,0x55,0x4b,0x02,0x90,0x53,0x4b,
0x00,0x90,0x50,0x4b,0x03,0x90,0x29,0x3a,0x00,0x90,0x49,0x4b,0x81,0x61,0x80,
0x55,0x40,0x00,0x80,0x49,0x40,0x00,0x80,0x29,0x40,0x00,0x80,0x50,0x40,0x00,
0x80,0x53,0x40,0x09,0xb0,0x40,0x00,0x01,0x90,0x55,0x4b,0x02,0x90,0x51,0x4b,
0x00,0x90,0x4e,0x4b,0x00,0x90,0x2a,0x3a,0x03,0x90,0x49,0x4b,0x00,0x90,0x1e,
0x4b,0x81,0x00,0x80,0x2a,0x40,0x00,0x80,0x1e,0x40,0x0a,0x90,0x3d,0x3a,0x6e,
0x80,0x3d,0x40,0x0a,0x90,0x39,0x3a,0x6e,0x80,0x55,0x40,0x00,0x80,0x39,0x40,
0x00,0x80,0x51,0x40,0x00,0x80,0x4e,0x40,0x00,0x80,0x49,0x40,0x0a,0x90,0x3d,
0x3a,0x57,0x80,0x3d,0x40,0x0a,0x90,0x49,0x41,0x17,0x90,0x36,0x3a,0x6b,0x80,
0x36,0x40,0x0a,0x90,0x3d,0x3a,0x6e,0x80,0x3d,0x40,0x0a,0x90,0x39,0x3a,0x6e,
0x80,0x39,0x40,0x0a,0x90,0x3d,0x3a,0x6e,0x80,0x3d,0x40,0x0a,0x90,0x36,0x3a,
0x6e,0x80,0x36,0x40,0x0a,0x90,0x3d,0x3a,0x6e,0x80,0x3d,0x40,0x0a,0x90,0x39,
0x3a,0x6e,0x80,0x39,0x40,0x0a,0x90,0x3d,0x3a,0x64,0x90,0x45,0x3f,0x0a,0x80,
0x49,0x40,0x00,0x80,0x3d,0x40,0x0a,0x90,0x36,0x3a,0x71,0x80,0x36,0x40,0x0a,
0x90,0x3d,0x3a,0x6e,0x80,0x3d,0x40,0x0a,0x90,0x39,0x3a,0x57,0x80,0x39,0x40,
0x0a,0x90,0x42,0x3f,0x0a,0x80,0x45,0x40,0x0a,0x90,0x3d,0x3a,0x6e,0x80,0x42,
0x40,0x00,0x80,0x3d,0x40,0x0a,0x90,0x41,0x3a,0x02,0x90,0x38,0x3a,0x3a,0x90,
0x42,0x3a,0x32,0x80,0x41,0x40,0x00,0x80,0x38,0x40,0x0a,0x90,0x3d,0x3a,0x14,
0x90,0x44,0x3a,0x49,0x80,0x42,0x40,0x00,0x80,0x3d,0x40,0x0a,0x90,0x42,0x3a,
0x09,0x80,0x44,0x40,0x0a,0x90,0x3b,0x3a,0x6c,0x80,0x3b,0x40,0x0a,0x90,0x3d,
0x3a,0x64,0x90,0x41,0x3a,0x0a,0x80,0x42,0x40,0x00,0x80,0x3d,0x40,0x0a,0x90,
0x38,0x3a,0x6e,0x80,0x38,0x40,0x0a,0x90,0x3d,0x3a,0x6e,0x80,0x3d,0x40,0x0a,
0x90,0x3b,0x3a,0x6e,0x80,0x3b,0x40,0x0a,0x90,0x3d,0x3a,0x71,0x80,0x3d,0x40,
0x0a,0x90,0x38,0x3a,0x6e,0x80,0x38,0x40,0x0a,0x90,0x3d,0x3a,0x6e,0x80,0x41,
0x40,0x00,0x80,0x3d,0x40,0x0a,0x90,0x41,0x3a,0x00,0x90,0x3b,0x3a,0x6e,0x80,
0x3b,0x40,0x0a,0x90,0x3d,0x3a,0x5a,0x80,0x3d,0x40,0x0a,0x90,0x49,0x3a,0x09,
0x80,0x41,0x40,0x0a,0x90,0x38,0x3a,0x6c,0x80,0x38,0x40,0x0a,0x90,0x3d,0x3a,
0x6e,0x80,0x3d,0x40,0x0a,0x90,0x3b,0x3a,0x5d,0x80,0x3b,0x40,0x0a,0x90,0x41,
0x3a,0x07,0x80,0x49,0x40,0x0a,0x90,0x3d,0x3a,0x6e,0x80,0x41,0x40,0x00,0x80,
0x3d,0x40,0x0a,0x90,0x44,0x3a,0x00,0x90,0x39,0x3a,0x6e,0x80,0x39,0x40,0x0a,
0x90,0x3d,0x3a,0x6e,0x80,0x3d,0x40,0x0a,0x90,0x39,0x3a,0x71,0x80,0x39,0x40,
0x0a,0x90,0x3d,0x3a,0x57,0x80,0x3d,0x40,0x0a,0x90,0x42,0x3a,0x0a,0x80,0x44,
0x40,0x0a,0x90,0x39,0x3a,0x71,0x80,0x39,0x40,0x0a,0x90,0x3d,0x3a,0x6e,0x80,
0x3d,0x40,0x0a,0x90,0x39,0x3a,0x6b,0x80,0x39,0x40,0x0a,0x90,0x3d,0x3a,0x6e,
0x80,0x3d,0x40,0x0a,0x90,0x39,0x3a,0x6e,0x80,0x39,0x40,0x0a,0x90,0x3d,0x3a,
0x6e,0x80,0x42,0x40,0x00,0x80,0x3d,0x40,0x0a,0x90,0x42,0x3a,0x00,0x90,0x39,
0x3a,0x6e,0x80,0x39,0x40,0x0a,0x90,0x3d,0x3a,0x64,0x90,0x49,0x3a,0x0a,0x80,
0x42,0x40,0x00,0x80,0x3d,0x40,0x0a,0x90,0x39,0x3a,0x6e,0x80,0x39,0x40,0x0a,
0x90,0x3d,0x3a,0x6e,0x80,0x3d,0x40,0x0a,0x90,0x39,0x3a,0x5a,0x80,0x39,0x40,
0x0a,0x90,0x42,0x3a,0x0a,0x80,0x49,0x40,0x0a,0x90,0x3d,0x3a,0x71,0x80,0x42,
0x40,0x00,0x80,0x3d,0x40,0x0a,0x90,0x45,0x3a,0x00,0x90,0x35,0x3a,0x6e,0x80,
0x35,0x40,0x0a,0x90,0x3d,0x3a,0x6b,0x80,0x3d,0x40,0x0a,0x90,0x35,0x3a,0x6e,
0x80,0x35,0x40,0x0a,0x90,0x3d,0x3a,0x5d,0x80,0x3d,0x40,0x0a,0x90,0x44,0x3a,
0x09,0x80,0x45,0x40,0x0a,0x90,0x35,0x3a,0x6c,0x80,0x35,0x40,0x0a,0x90,0x3d,
0x3a,0x6e,0x80,0x3d,0x40,0x0a,0x90,0x35,0x3a,0x6e,0x80,0x35,0x40,0x0a,0x90,
0x3d,0x3a,0x6e,0x80,0x3d,0x40,0x0a,0x90,0x35,0x3a,0x6e,0x80,0x35,0x40,0x0a,
0x90,0x3d,0x3a,0x71,0x80,0x44,0x40,0x00,0x80,0x3d,0x40,0x0a,0x90,0x44,0x3a,
0x00,0x90,0x35,0x3a,0x6e,0x80,0x35,0x40,0x0a,0x90,0x3d,0x3a,0x57,0x80,0x3d,
0x40,0x0a,0x90,0x49,0x3a,0x0a,0x80,0x44,0x40,0x0a,0x90,0x35,0x3a,0x71,0x80,
0x35,0x40,0x0a,0x90,0x3d,0x3a,0x6b,0x80,0x3d,0x40,0x0a,0x90,0x35,0x3a,0x5d,
0x80,0x35,0x40,0x0a,0x90,0x44,0x3a,0x09,0x80,0x49,0x40,0x0a,0x90,0x3d,0x3a,
0x6c,0x80,0x44,0x40,0x00,0x80,0x3d,0x40,0x0a,0x90,0x45,0x3a,0x02,0x90,0x36,
0x3f,0x6c,0x80,0x45,0x40,0x0a,0x90,0x49,0x3a,0x6e,0x80,0x49,0x40,0x0a,0x90,
0x45,0x3a,0x6e,0x80,0x36,0x40,0x00,0x80,0x45,0x40,0x0a,0x90,0x49,0x3a,0x5c,
0x80,0x49,0x40,0x0a,0x90,0x3d,0x3f,0x12,0x90,0x42,0x3a,0x71,0x80,0x42,0x40,
0x0a,0x90,0x49,0x3a,0x6e,0x80,0x49,0x40,0x0a,0x90,0x45,0x3a,0x6e,0x80,0x45,
0x40,0x0a,0x90,0x49,0x3a,0x6b,0x80,0x49,0x40,0x0a,0x90,0x42,0x3a,0x6e,0x80,
0x42,0x40,0x0a,0x90,0x49,0x3a,0x6e,0x80,0x49,0x40,0x0a,0x90,0x45,0x3a,0x6e,
0x80,0x45,0x40,0x0a,0x90,0x49,0x3a,0x5d,0x80,0x49,0x40,0x0a,0x90,0x39,0x3f,
0x07,0x80,0x3d,0x40,0x0a,0x90,0x42,0x3a,0x6e,0x80,0x42,0x40,0x0a,0x90,0x49,
0x3a,0x6e,0x80,0x49,0x40,0x0a,0x90,0x45,0x3a,0x5c,0x80,0x45,0x40,0x0a,0x90,
0x36,0x3f,0x08,0x80,0x39,0x40,0x0a,0x90,0x49,0x3a,0x6e,0x80,0x36,0x40,0x00,
0x80,0x49,0x40,0x0a,0x90,0x44,0x3a,0x00,0x90,0x36,0x3f,0x71,0x80,0x44,0x40,
0x0a,0x90,0x49,0x3a,0x6e,0x80,0x49,0x40,0x0a,0x90,0x47,0x3a,0x6b,0x80,0x47,
0x40,0x0a,0x90,0x49,0x3a,0x5d,0x80,0x49,0x40,0x0a,0x90,0x35,0x3f,0x09,0x80,
0x36,0x40,0x0a,0x90,0x44,0x3a,0x6c,0x80,0x44,0x40,0x0a,0x90,0x49,0x3a,0x6e,
0x80,0x49,0x40,0x0a,0x90,0x47,0x3a,0x6e,0x80,0x47,0x40,0x0a,0x90,0x49,0x3a,
0x6e,0x80,0x49,0x40,0x0a,0x90,0x44,0x3a,0x6e,0x80,0x44,0x40,0x0a,0x90,0x49,
0x3a,0x6e,0x80,0x35,0x40,0x00,0x80,0x49,0x40,0x0a,0x90,0x47,0x3a,0x00,0x90,
0x35,0x3f,0x6e,0x80,0x47,0x40,0x0a,0x90,0x49,0x3a,0x5c,0x80,0x49,0x40,0x0a,
0x90,0x3d,0x47,0x08,0x80,0x35,0x40,0x0a,0x90,0x44,0x3a,0x71,0x80,0x44,0x40,
0x0a,0x90,0x49,0x3a,0x6e,0x80,0x49,0x40,0x0a,0x90,0x47,0x3a,0x57,0x80,0x47,
0x40,0x0a,0x90,0x35,0x3f,0x0d,0x80,0x3d,0x40,0x0a,0x90,0x49,0x3a,0x6b,0x80,
0x35,0x40,0x00,0x80,0x49,0x40,0x0a,0x90,0x42,0x3a,0x02,0x90,0x38,0x3f,0x6c,
0x80,0x42,0x40,0x0a,0x90,0x49,0x3a,0x6e,0x80,0x49,0x40,0x0a,0x90,0x45,0x3a,
0x6e,0x80,0x45,0x40,0x0a,0x90,0x49,0x3a,0x5c,0x80,0x49,0x40,0x0a,0x90,0x36,
0x3f,0x08,0x80,0x38,0x40,0x0a,0x90,0x42,0x3a,0x6e,0x80,0x42,0x40,0x0a,0x90,
0x49,0x3a,0x6e,0x80,0x49,0x40,0x0a,0x90,0x45,0x3a,0x71,0x80,0x45,0x40,0x0a,
0x90,0x49,0x3a,0x6e,0x80,0x49,0x40,0x0a,0x90,0x42,0x3a,0x6e,0x80,0x42,0x40,
0x0a,0x90,0x49,0x3a,0x6b,0x80,0x36,0x40,0x00,0x80,0x49,0x40,0x0a,0x90,0x45,
0x3a,0x03,0x90,0x36,0x3f,0x6b,0x80,0x45,0x40,0x0a,0x90,0x49,0x3a,0x5d,0x80,
0x49,0x40,0x0a,0x90,0x3d,0x47,0x09,0x80,0x36,0x40,0x0a,0x90,0x42,0x3a,0x6c,
0x80,0x42,0x40,0x0a,0x90,0x49,0x3a,0x6e,0x80,0x49,0x40,0x0a,0x90,0x45,0x3a,
0x5d,0x80,0x45,0x40,0x0a,0x90,0x36,0x3f,0x07,0x80,0x3d,0x40,0x0a,0x90,0x49,
0x3a,0x6e,0x80,0x36,0x40,0x00,0x80,0x49,0x40,0x0a,0x90,0x42,0x3a,0x00,0x90,
0x36,0x3f,0x6e,0x80,0x42,0x40,0x0a,0x90,0x4a,0x3a,0x5c,0x80,0x36,0x40,0x00,
0x80,0x4a,0x40,0x0a,0x90,0x36,0x3f,0x15,0x90,0x45,0x3a,0x6e,0x80,0x45,0x40,
0x0a,0x90,0x4a,0x3a,0x57,0x80,0x4a,0x40,0x0a,0x90,0x3e,0x47,0x0a,0x80,0x36,
0x40,0x0a,0x90,0x42,0x3a,0x6e,0x80,0x42,0x40,0x0a,0x90,0x4a,0x3a,0x6e,0x80,
0x4a,0x40,0x0a,0x90,0x45,0x3a,0x5d,0x80,0x45,0x40,0x0a,0x90,0x36,0x3f,0x09,
0x80,0x3e,0x40,0x0a,0x90,0x4a,0x3a,0x6c,0x80,0x36,0x40,0x00,0x80,0x4a,0x40,
0x0a,0x90,0x45,0x3a,0x02,0x90,0x36,0x3f,0x6c,0x80,0x45,0x40,0x0a,0x90,0x4a,
0x3a,0x5c,0x80,0x36,0x40,0x00,0x80,0x4a,0x40,0x0a,0x90,0x36,0x3f,0x12,0x90,
0x48,0x3a,0x6e,0x80,0x48,0x40,0x0a,0x90,0x4a,0x3a,0x5c,0x80,0x4a,0x40,0x0a,
0x90,0x3e,0x47,0x08,0x80,0x36,0x40,0x0a,0x90,0x45,0x3a,0x6e,0x80,0x45,0x40,
0x0a,0x90,0x4a,0x3a,0x71,0x80,0x4a,0x40,0x0a,0x90,0x48,0x3a,0x57,0x80,0x48,
0x40,0x0a,0x90,0x36,0x3f,0x0a,0x80,0x3e,0x40,0x0a,0x90,0x4a,0x3a,0x71,0x80,
0x36,0x40,0x00,0x80,0x4a,0x40,0x0a,0x90,0x43,0x3a,0x00,0x90,0x37,0x4f,0x6b,
0x80,0x43,0x40,0x0a,0x90,0x4a,0x3a,0x6e,0x80,0x4a,0x40,0x0a,0x90,0x47,0x3a,
0x6e,0x80,0x37,0x40,0x00,0x80,0x47,0x40,0x0a,0x90,0x4a,0x3a,0x5d,0x80,0x4a,
0x40,0x0a,0x90,0x32,0x3f,0x11,0x90,0x43,0x3a,0x6e,0x80,0x43,0x40,0x0a,0x90,
0x4a,0x3a,0x6e,0x80,0x4a,0x40,0x0a,0x90,0x47,0x3a,0x6e,0x80,0x47,0x40,0x0a,
0x90,0x4a,0x3a,0x6e,0x80,0x4a,0x40,0x0a,0x90,0x43,0x3a,0x71,0x80,0x43,0x40,
0x0a,0x90,0x4a,0x3a,0x6e,0x80,0x4a,0x40,0x0a,0x90,0x47,0x3a,0x6e,0x80,0x47,
0x40,0x0a,0x90,0x4a,0x3a,0x57,0x80,0x4a,0x40,0x0a,0x90,0x2f,0x3f,0x0a,0x80,
0x32,0x40,0x0a,0x90,0x43,0x3a,0x6e,0x80,0x43,0x40,0x0a,0x90,0x4a,0x3a,0x6e,
0x80,0x4a,0x40,0x0a,0x90,0x47,0x3a,0x5d,0x80,0x47,0x40,0x0a,0x90,0x2b,0x3f,
0x09,0x80,0x2f,0x40,0x0a,0x90,0x4a,0x3a,0x6c,0x80,0x2b,0x40,0x00,0x80,0x4a,
0x40,0x0a,0x90,0x45,0x3a,0x00,0x90,0x2b,0x3f,0x6e,0x80,0x45,0x40,0x0a,0x90,
0x4a,0x3a,0x6e,0x80,0x4a,0x40,0x0a,0x90,0x48,0x3a,0x6e,0x80,0x48,0x40,0x0a,
0x90,0x4a,0x3a,0x5c,0x80,0x4a,0x40,0x0a,0x90,0x2a,0x3f,0x08,0x80,0x2b,0x40,
0x0a,0x90,0x45,0x3a,0x71,0x80,0x45,0x40,0x0a,0x90,0x4a,0x3a,0x6e,0x80,0x4a,
0x40,0x0a,0x90,0x48,0x3a,0x6b,0x80,0x48,0x40,0x0a,0x90,0x4a,0x3a,0x6e,0x80,
0x4a,0x40,0x0a,0x90,0x45,0x3a,0x6e,0x80,0x45,0x40,0x0a,0x90,0x4a,0x3a,0x6e,
0x80,0x2a,0x40,0x00,0x80,0x4a,0x40,0x0a,0x90,0x48,0x3a,0x02,0x90,0x2a,0x3f,
0x6c,0x80,0x48,0x40,0x0a,0x90,0x4a,0x3a,0x5d,0x80,0x4a,0x40,0x0a,0x90,0x32,
0x47,0x07,0x80,0x2a,0x40,0x0a,0x90,0x45,0x3a,0x6e,0x80,0x45,0x40,0x0a,0x90,
0x4a,0x3a,0x6e,0x80,0x4a,0x40,0x0a,0x90,0x48,0x3a,0x5c,0x80,0x48,0x40,0x0a,
0x90,0x2a,0x3f,0x08,0x80,0x32,0x40,0x0a,0x90,0x4a,0x3a,0x71,0x80,0x2a,0x40,
0x00,0x80,0x4a,0x40,0x0a,0x90,0x43,0x3a,0x00,0x90,0x2d,0x3f,0x6e,0x80,0x43,
0x40,0x0a,0x90,0x4a,0x3a,0x6e,0x80,0x4a,0x40,0x0a,0x90,0x47,0x3a,0x6b,0x80,
0x47,0x40,0x0a,0x90,0x4a,0x3a,0x5d,0x80,0x4a,0x40,0x0a,0x90,0x2b,0x3f,0x09,
0x80,0x2d,0x40,0x0a,0x90,0x43,0x3a,0x6c,0x80,0x43,0x40,0x0a,0x90,0x4a,0x3a,
0x6e,0x80,0x4a,0x40,0x0a,0x90,0x47,0x3a,0x6e,0x80,0x47,0x40,0x0a,0x90,0x4a,
0x3a,0x6e,0x80,0x4a,0x40,0x0a,0x90,0x43,0x3a,0x6e,0x80,0x43,0x40,0x0a,0x90,
0x4a,0x3a,0x6e,0x80,0x2b,0x40,0x00,0x80,0x4a,0x40,0x0a,0x90,0x47,0x3a,0x00,
0x90,0x2b,0x3f,0x71,0x80,0x47,0x40,0x0a,0x90,0x4a,0x3a,0x57,0x80,0x4a,0x40,
0x0a,0x90,0x32,0x47,0x0a,0x80,0x2b,0x40,0x0a,0x90,0x42,0x3a,0x71,0x80,0x42,
0x40,0x0a,0x90,0x4a,0x3a,0x6b,0x80,0x4a,0x40,0x0a,0x90,0x47,0x3a,0x5d,0x80,
0x47,0x40,0x0a,0x90,0x2a,0x3f,0x09,0x80,0x32,0x40,0x0a,0x90,0x4a,0x3a,0x6c,
0x80,0x2a,0x40,0x00,0x80,0x4a,0x40,0x0a,0x90,0x44,0x3a,0x02,0x90,0x2a,0x3f,
0x6c,0x80,0x44,0x40,0x0a,0x90,0x4a,0x3a,0x6e,0x80,0x4a,0x40,0x0a,0x90,0x47,
0x3a,0x6e,0x80,0x47,0x40,0x0a,0x90,0x4a,0x3a,0x5c,0x80,0x4a,0x40,0x0a,0x90,
0x29,0x3f,0x08,0x80,0x2a,0x40,0x0a,0x90,0x44,0x3a,0x6e,0x80,0x44,0x40,0x0a,
0x90,0x49,0x3a,0x71,0x80,0x49,0x40,0x0a,0x90,0x47,0x3a,0x6e,0x80,0x47,0x40,
0x0a,0x90,0x49,0x3a,0x6e,0x80,0x49,0x40,0x0a,0x90,0x44,0x3a,0x6b,0x80,0x44,
0x40,0x0a,0x90,0x49,0x3a,0x6e,0x80,0x29,0x40,0x00,0x80,0x49,0x40,0x0a,0x90,
0x47,0x3a,0x02,0x90,0x29,0x3f,0x6c,0x80,0x47,0x40,0x0a,0x90,0x49,0x3a,0x5d,
0x80,0x49,0x40,0x0a,0x90,0x31,0x47,0x09,0x80,0x29,0x40,0x0a,0x90,0x44,0x3a,
0x6c,0x80,0x44,0x40,0x0a,0x90,0x49,0x3a,0x6e,0x80,0x49,0x40,0x0a,0x90,0x47,
0x3a,0x5d,0x80,0x47,0x40,0x0a,0x90,0x29,0x3f,0x07,0x80,0x31,0x40,0x0a,0x90,
0x49,0x3a,0x6e,0x80,0x29,0x40,0x00,0x80,0x49,0x40,0x0a,0x90,0x42,0x3a,0x00,
0x90,0x2a,0x47,0x6e,0x80,0x42,0x40,0x0a,0x90,0x49,0x3a,0x5c,0x80,0x2a,0x40,
0x00,0x80,0x49,0x40,0x0a,0x90,0x2a,0x3f,0x15,0x90,0x45,0x3a,0x6e,0x80,0x45,
0x40,0x0a,0x90,0x49,0x3a,0x57,0x80,0x49,0x40,0x0a,0x90,0x2d,0x3f,0x0a,0x80,
0x2a,0x40,0x0a,0x90,0x42,0x3a,0x6e,0x80,0x42,0x40,0x0a,0x90,0x49,0x3a,0x5d,
0x80,0x49,0x40,0x0a,0x90,0x2a,0x3f,0x09,0x80,0x2d,0x40,0x0a,0x90,0x45,0x3a,
0x6c,0x80,0x45,0x40,0x0a,0x90,0x49,0x3a,0x6e,0x80,0x2a,0x40,0x00,0x80,0x49,
0x40,0x0a,0x90,0x42,0x3a,0x02,0x90,0x26,0x47,0x6c,0x80,0x42,0x40,0x0a,0x90,
0x4e,0x3a,0x5c,0x80,0x26,0x40,0x00,0x80,0x4e,0x40,0x0a,0x90,0x26,0x3f,0x12,
0x90,0x45,0x3a,0x6e,0x80,0x45,0x40,0x0a,0x90,0x4e,0x3a,0x5c,0x80,0x4e,0x40,
0x0a,0x90,0x2a,0x3f,0x08,0x80,0x26,0x40,0x0a,0x90,0x42,0x3a,0x71,0x80,0x42,
0x40,0x0a,0x90,0x4e,0x3a,0x57,0x80,0x4e,0x40,0x0a,0x90,0x26,0x3f,0x0a,0x80,
0x2a,0x40,0x0a,0x90,0x45,0x3a,0x71,0x80,0x45,0x40,0x0a,0x90,0x4e,0x3a,0x6b,
0x80,0x26,0x40,0x00,0x80,0x4e,0x40,0x0a,0x90,0x42,0x3a,0x03,0x90,0x24,0x47,
0x6b,0x80,0x42,0x40,0x0a,0x90,0x4e,0x3a,0x5d,0x80,0x4e,0x40,0x0a,0x90,0x44,
0x3a,0x11,0x90,0x4b,0x3a,0x6e,0x80,0x44,0x40,0x00,0x80,0x4b,0x40,0x0a,0x90,
0x4e,0x3a,0x6e,0x80,0x4e,0x40,0x0a,0x90,0x42,0x3a,0x6e,0x80,0x42,0x40,0x0a,
0x90,0x4e,0x3a,0x5c,0x80,0x4e,0x40,0x0a,0x90,0x44,0x3a,0x12,0x90,0x4b,0x3a,
0x6e,0x80,0x44,0x40,0x00,0x80,0x4b,0x40,0x0a,0x90,0x4e,0x3a,0x71,0x80,0x4e,
0x40,0x0a,0x90,0x42,0x3a,0x6e,0x80,0x42,0x40,0x0a,0x90,0x4e,0x3a,0x57,0x80,
0x4e,0x40,0x0a,0x90,0x44,0x3a,0x0d,0x80,0x24,0x40,0x0a,0x90,0x4b,0x3a,0x00,
0x90,0x24,0x3f,0x6b,0x80,0x44,0x40,0x00,0x80,0x4b,0x40,0x0a,0x90,0x4e,0x3a,
0x5d,0x80,0x4e,0x40,0x0a,0x90,0x27,0x3f,0x09,0x80,0x24,0x40,0x0a,0x90,0x42,
0x3a,0x6c,0x80,0x42,0x40,0x0a,0x90,0x4e,0x3a,0x5d,0x80,0x4e,0x40,0x0a,0x90,
0x44,0x3a,0x00,0x90,0x24,0x3f,0x09,0x80,0x27,0x40,0x0a,0x90,0x4b,0x3a,0x6c,
0x80,0x44,0x40,0x00,0x80,0x4b,0x40,0x0a,0x90,0x4e,0x3a,0x6e,0x80,0x24,0x40,
0x00,0x80,0x4e,0x40,0x0a,0x90,0x40,0x3a,0x00,0x90,0x25,0x47,0x6e,0x80,0x40,
0x40,0x0a,0x90,0x4c,0x3a,0x5c,0x80,0x25,0x40,0x00,0x80,0x4c,0x40,0x0a,0x90,
0x25,0x3f,0x12,0x90,0x49,0x3a,0x6e,0x80,0x49,0x40,0x0a,0x90,0x4c,0x3a,0x5a,
0x80,0x4c,0x40,0x0a,0x90,0x28,0x3f,0x0a,0x80,0x25,0x40,0x0a,0x90,0x40,0x3a,
0x71,0x80,0x40,0x40,0x0a,0x90,0x4c,0x3a,0x57,0x80,0x4c,0x40,0x0a,0x90,0x25,
0x3f,0x0a,0x80,0x28,0x40,0x0a,0x90,0x49,0x3a,0x6e,0x80,0x49,0x40,0x0a,0x90,
0x4c,0x3a,0x6e,0x80,0x25,0x40,0x00,0x80,0x4c,0x40,0x0a,0x90,0x40,0x3a,0x02,
0x90,0x21,0x47,0x6c,0x80,0x40,0x40,0x0a,0x90,0x4c,0x3a,0x5d,0x80,0x21,0x40,
0x00,0x80,0x4c,0x40,0x0a,0x90,0x21,0x3f,0x11,0x90,0x49,0x3a,0x6e,0x80,0x49,
0x40,0x0a,0x90,0x4c,0x3a,0x5d,0x80,0x4c,0x40,0x0a,0x90,0x25,0x3f,0x07,0x80,
0x21,0x40,0x0a,0x90,0x40,0x3a,0x6e,0x80,0x40,0x40,0x0a,0x90,0x4c,0x3a,0x5c,
0x80,0x4c,0x40,0x0a,0x90,0x21,0x3f,0x08,0x80,0x25,0x40,0x0a,0x90,0x49,0x3a,
0x71,0x80,0x49,0x40,0x0a,0x90,0x4c,0x3a,0x6e,0x80,0x21,0x40,0x00,0x80,0x4c,
0x40,0x0a,0x90,0x3f,0x3a,0x00,0x90,0x1e,0x47,0x6e,0x80,0x3f,0x40,0x0a,0x90,
0x4b,0x3a,0x57,0x80,0x1e,0x40,0x00,0x80,0x4b,0x40,0x0a,0x90,0x1e,0x3f,0x14,
0x90,0x49,0x3a,0x6e,0x80,0x49,0x40,0x0a,0x90,0x4b,0x3a,0x5d,0x80,0x4b,0x40,
0x0a,0x90,0x21,0x3f,0x09,0x80,0x1e,0x40,0x0a,0x90,0x3f,0x3a,0x6c,0x80,0x3f,
0x40,0x0a,0x90,0x4b,0x3a,0x5d,0x80,0x4b,0x40,0x0a,0x90,0x1e,0x3f,0x07,0x80,
0x21,0x40,0x0a,0x90,0x49,0x3a,0x6e,0x80,0x49,0x40,0x0a,0x90,0x4b,0x3a,0x6e,
0x80,0x1e,0x40,0x00,0x80,0x4b,0x40,0x0a,0x90,0x3f,0x3a,0x00,0x90,0x1f,0x47,
0x6e,0x80,0x3f,0x40,0x0a,0x90,0x4b,0x3a,0x5c,0x80,0x1f,0x40,0x00,0x80,0x4b,
0x40,0x0a,0x90,0x1f,0x3f,0x15,0x90,0x49,0x3a,0x6e,0x80,0x49,0x40,0x0a,0x90,
0x4b,0x3a,0x57,0x80,0x4b,0x40,0x0a,0x90,0x22,0x3f,0x0a,0x80,0x1f,0x40,0x0a,
0x90,0x3f,0x3a,0x6e,0x80,0x3f,0x40,0x0a,0x90,0x4b,0x3a,0x5d,0x80,0x4b,0x40,
0x0a,0x90,0x1f,0x3f,0x09,0x80,0x22,0x40,0x0a,0x90,0x49,0x3a,0x6c,0x80,0x49,
0x40,0x0a,0x90,0x4b,0x3a,0x5d,0x80,0x4b,0x40,0x0a,0x90,0x48,0x47,0x00,0x90,
0x3f,0x47,0x07,0x80,0x1f,0x40,0x0a,0x90,0x4b,0x47,0x02,0x90,0x20,0x3a,0x6c,
0x80,0x20,0x40,0x0a,0x90,0x2c,0x3a,0x6e,0x80,0x2c,0x40,0x0a,0x90,0x20,0x3a,
0x6e,0x80,0x3f,0x40,0x00,0x80,0x20,0x40,0x00,0x80,0x4b,0x40,0x00,0x80,0x48,
0x40,0x0a,0x90,0x2c,0x3a,0x64,0x90,0x44,0x3f,0x0a,0x80,0x2c,0x40,0x0a,0x90,
0x20,0x3a,0x6e,0x80,0x20,0x40,0x0a,0x90,0x2c,0x3a,0x71,0x80,0x2c,0x40,0x0a,
0x90,0x20,0x3a,0x6e,0x80,0x20,0x40,0x0a,0x90,0x2c,0x3a,0x6e,0x80,0x2c,0x40,
0x0a,0x90,0x20,0x3a,0x6b,0x80,0x20,0x40,0x0a,0x90,0x2c,0x3a,0x6e,0x80,0x2c,
0x40,0x0a,0x90,0x20,0x3a,0x6e,0x80,0x20,0x40,0x0a,0x90,0x2c,0x3a,0x5d,0x80,
0x2c,0x40,0x0a,0x90,0x45,0x3f,0x07,0x80,0x44,0x40,0x0a,0x90,0x20,0x3a,0x6e,
0x80,0x20,0x40,0x0a,0x90,0x2c,0x3a,0x64,0x90,0x44,0x3f,0x0a,0x80,0x45,0x40,
0x00,0x80,0x2c,0x40,0x0a,0x90,0x20,0x3a,0x6e,0x80,0x20,0x40,0x0a,0x90,0x2c,
0x3a,0x5c,0x80,0x2c,0x40,0x08,0x90,0x42,0x3f,0x02,0x90,0x3d,0x3a,0x00,0x90,
0x39,0x3a,0x08,0x80,0x44,0x40,0x0a,0x90,0x20,0x3a,0x71,0x80,0x20,0x40,0x0a,
0x90,0x2c,0x3a,0x6e,0x80,0x2c,0x40,0x0a,0x90,0x20,0x3a,0x6e,0x80,0x20,0x40,
0x0a,0x90,0x2c,0x3a,0x57,0x80,0x2c,0x40,0x0a,0x90,0x44,0x3f,0x0d,0x80,0x42,
0x40,0x0a,0x90,0x20,0x3a,0x6b,0x80,0x20,0x40,0x0a,0x90,0x2c,0x3a,0x5d,0x80,
0x2c,0x40,0x0a,0x90,0x42,0x3f,0x09,0x80,0x44,0x40,0x0a,0x90,0x20,0x3a,0x6c,
0x80,0x20,0x40,0x0a,0x90,0x2c,0x3a,0x5d,0x80,0x39,0x40,0x00,0x80,0x3d,0x40,
0x0a,0x90,0x40,0x3f,0x07,0x80,0x2c,0x40,0x00,0x80,0x42,0x40,0x0a,0x90,0x3b,
0x3a,0x02,0x90,0x38,0x3a,0x00,0x90,0x20,0x3a,0x6c,0x80,0x20,0x40,0x0a,0x90,
0x2c,0x3a,0x6e,0x80,0x2c,0x40,0x0a,0x90,0x20,0x3a,0x6e,0x80,0x20,0x40,0x0a,
0x90,0x2c,0x3a,0x64,0x90,0x42,0x3f,0x0a,0x80,0x40,0x40,0x00,0x80,0x2c,0x40,
0x0a,0x90,0x20,0x3a,0x71,0x80,0x20,0x40,0x0a,0x90,0x2c,0x3a,0x57,0x80,0x2c,
0x40,0x0a,0x90,0x40,0x3f,0x0a,0x80,0x42,0x40,0x0a,0x90,0x20,0x3a,0x71,0x80,
0x20,0x40,0x0a,0x90,0x2c,0x3a,0x5a,0x80,0x3b,0x40,0x0a,0x90,0x3f,0x3f,0x09,
0x80,0x2c,0x40,0x00,0x80,0x40,0x40,0x00,0x80,0x38,0x40,0x0a,0x90,0x39,0x3a,
0x00,0x90,0x36,0x3a,0x00,0x90,0x20,0x3a,0x6c,0x80,0x20,0x40,0x0a,0x90,0x2c,
0x3a,0x6e,0x80,0x2c,0x40,0x0a,0x90,0x20,0x3a,0x6e,0x80,0x20,0x40,0x0a,0x90,
0x2c,0x3a,0x64,0x90,0x40,0x3f,0x0a,0x80,0x3f,0x40,0x00,0x80,0x2c,0x40,0x0a,
0x90,0x20,0x3a,0x6e,0x80,0x20,0x40,0x0a,0x90,0x2c,0x3a,0x64,0x90,0x3f,0x3f,
0x0a,0x80,0x40,0x40,0x00,0x80,0x2c,0x40,0x0a,0x90,0x20,0x3a,0x6e,0x80,0x20,
0x40,0x0a,0x90,0x2c,0x3a,0x5a,0x80,0x39,0x40,0x0a,0x90,0x3d,0x3f,0x0a,0x80,
0x2c,0x40,0x00,0x80,0x3f,0x40,0x00,0x80,0x36,0x40,0x0a,0x90,0x38,0x3a,0x00,
0x90,0x34,0x3a,0x02,0x90,0x20,0x3a,0x6f,0x80,0x20,0x40,0x0a,0x90,0x2c,0x3a,
0x6e,0x80,0x2c,0x40,0x0a,0x90,0x20,0x3a,0x6b,0x80,0x20,0x40,0x0a,0x90,0x2c,
0x3a,0x5d,0x80,0x2c,0x40,0x0a,0x90,0x3f,0x3f,0x09,0x80,0x3d,0x40,0x0a,0x90,
0x20,0x3a,0x6c,0x80,0x20,0x40,0x0a,0x90,0x2c,0x3a,0x5d,0x80,0x2c,0x40,0x0a,
0x90,0x3d,0x3f,0x07,0x80,0x3f,0x40,0x0a,0x90,0x20,0x3a,0x6e,0x80,0x20,0x40,
0x0a,0x90,0x2c,0x3a,0x64,0x90,0x3c,0x3f,0x0a,0x80,0x38,0x40,0x00,0x80,0x3d,
0x40,0x00,0x80,0x2c,0x40,0x00,0x80,0x34,0x40,0x0a,0x90,0x36,0x3a,0x02,0x90,
0x33,0x3a,0x00,0x90,0x20,0x3a,0x6c,0x80,0x20,0x40,0x0a,0x90,0x2c,0x3a,0x6e,
0x80,0x2c,0x40,0x0a,0x90,0x20,0x3a,0x71,0x80,0x20,0x40,0x0a,0x90,0x2c,0x3a,
0x6e,0x80,0x2c,0x40,0x0a,0x90,0x20,0x3a,0x6e,0x80,0x20,0x40,0x0a,0x90,0x2c,
0x3a,0x6e,0x80,0x2c,0x40,0x0a,0x90,0x20,0x3a,0x6b,0x80,0x20,0x40,0x0a,0x90,
0x2c,0x3a,0x5d,0x80,0x36,0x40,0x00,0x80,0x33,0x40,0x0a,0x90,0x3d,0x3f,0x09,
0x80,0x2c,0x40,0x00,0x80,0x3c,0x40,0x0a,0x90,0x34,0x3a,0x00,0x90,0x31,0x3a,
0x00,0x90,0x20,0x3a,0x6c,0x80,0x20,0x40,0x0a,0x90,0x2c,0x3a,0x6e,0x80,0x2c,
0x40,0x0a,0x90,0x20,0x3a,0x6e,0x80,0x20,0x40,0x0a,0x90,0x2c,0x3a,0x6e,0x80,
0x2c,0x40,0x0a,0x90,0x20,0x3a,0x6e,0x80,0x20,0x40,0x0a,0x90,0x2c,0x3a,0x71,
0x80,0x2c,0x40,0x0a,0x90,0x20,0x3a,0x6e,0x80,0x20,0x40,0x0a,0x90,0x2c,0x3a,
0x57,0x80,0x34,0x40,0x0a,0x90,0x30,0x3f,0x0a,0x80,0x2c,0x40,0x00,0x80,0x3d,
0x40,0x00,0x80,0x31,0x40,0x0a,0x90,0x20,0x3a,0x3f,0x90,0x38,0x3f,0x32,0x80,
0x30,0x40,0x00,0x80,0x20,0x40,0x0a,0x90,0x2c,0x3a,0x11,0x90,0x3f,0x3f,0x5a,
0x80,0x38,0x40,0x00,0x80,0x2c,0x40,0x0a,0x90,0x20,0x3a,0x6e,0x80,0x20,0x40,
0x0a,0x90,0x2c,0x3a,0x6e,0x80,0x3f,0x40,0x00,0x80,0x2c,0x40,0x0a,0x90,0x50,
0x3f,0x02,0x90,0x20,0x3a,0x6c,0x80,0x20,0x40,0x0a,0x90,0x2c,0x3a,0x6e,0x80,
0x2c,0x40,0x0a,0x90,0x20,0x3a,0x6e,0x80,0x20,0x40,0x0a,0x90,0x2c,0x3a,0x6e,
0x80,0x2c,0x40,0x0a,0x90,0x20,0x3a,0x6e,0x80,0x20,0x40,0x0a,0x90,0x2c,0x3a,
0x71,0x80,0x50,0x40,0x00,0x80,0x2c,0x40,0x0a,0x90,0x50,0x3f,0x00,0x90,0x20,
0x3a,0x6e,0x80,0x20,0x40,0x0a,0x90,0x2c,0x3a,0x57,0x80,0x50,0x40,0x00,0x80,
0x2c,0x40,0x0a,0x90,0x51,0x3f,0x17,0x90,0x20,0x3a,0x6b,0x80,0x20,0x40,0x0a,
0x90,0x2c,0x3a,0x5d,0x80,0x51,0x40,0x00,0x80,0x2c,0x40,0x0a,0x90,0x50,0x3f,
0x11,0x90,0x20,0x3a,0x6e,0x80,0x20,0x40,0x0a,0x90,0x2c,0x3a,0x5d,0x80,0x50,
0x40,0x00,0x80,0x2c,0x40,0x0a,0x90,0x4e,0x3f,0x11,0x90,0x20,0x3a,0x6e,0x80,
0x20,0x40,0x0a,0x90,0x2c,0x3a,0x5a,0x80,0x4e,0x40,0x0a,0x90,0x4e,0x41,0x02,
0x90,0x49,0x41,0x00,0x90,0x45,0x41,0x08,0x80,0x2c,0x40,0x0a,0x90,0x20,0x3a,
0x6e,0x80,0x20,0x40,0x0a,0x90,0x2c,0x3a,0x5a,0x80,0x4e,0x40,0x00,0x80,0x45,
0x40,0x00,0x80,0x49,0x40,0x02,0x80,0x2c,0x40,0x08,0x90,0x50,0x43,0x02,0x90,
0x4b,0x43,0x00,0x90,0x47,0x43,0x12,0x90,0x20,0x3b,0x71,0x80,0x20,0x40,0x0a,
0x90,0x2c,0x3b,0x57,0x80,0x4b,0x40,0x00,0x80,0x50,0x40,0x00,0x80,0x47,0x40,
0x02,0x80,0x2c,0x40,0x08,0x90,0x4e,0x45,0x00,0x90,0x49,0x45,0x02,0x90,0x45,
0x45,0x15,0x90,0x20,0x3d,0x6e,0x80,0x20,0x40,0x0a,0x90,0x2c,0x3d,0x57,0x80,
0x49,0x40,0x00,0x80,0x4e,0x40,0x00,0x80,0x45,0x40,0x02,0x80,0x2c,0x40,0x08,
0x90,0x4c,0x47,0x00,0x90,0x47,0x47,0x02,0x90,0x44,0x47,0x15,0x90,0x20,0x3f,
0x6b,0x80,0x20,0x40,0x0a,0x90,0x2c,0x3f,0x5d,0x80,0x47,0x40,0x00,0x80,0x4c,
0x40,0x00,0x80,0x44,0x40,0x0a,0x90,0x4c,0x47,0x00,0x90,0x47,0x47,0x00,0x90,
0x44,0x47,0x07,0x80,0x2c,0x40,0x0a,0x90,0x20,0x3f,0x6e,0x80,0x20,0x40,0x0a,
0x90,0x2c,0x3f,0x5a,0x80,0x4c,0x40,0x00,0x80,0x44,0x40,0x00,0x80,0x47,0x40,
0x0a,0x90,0x4e,0x47,0x03,0x90,0x49,0x47,0x00,0x90,0x45,0x47,0x07,0x80,0x2c,
0x40,0x0a,0x90,0x20,0x3f,0x6e,0x80,0x20,0x40,0x0a,0x90,0x2c,0x3f,0x5a,0x80,
0x4e,0x40,0x00,0x80,0x45,0x40,0x00,0x80,0x49,0x40,0x02,0x80,0x2c,0x40,0x08,
0x90,0x4c,0x47,0x02,0x90,0x47,0x47,0x00,0x90,0x44,0x47,0x12,0x90,0x20,0x3f,
0x6e,0x80,0x20,0x40,0x0a,0x90,0x2c,0x3f,0x5a,0x80,0x47,0x40,0x00,0x80,0x4c,
0x40,0x00,0x80,0x44,0x40,0x02,0x80,0x2c,0x40,0x08,0x90,0x4b,0x47,0x02,0x90,
0x45,0x47,0x00,0x90,0x42,0x47,0x15,0x90,0x20,0x3f,0x6e,0x80,0x20,0x40,0x0a,
0x90,0x2c,0x3f,0x57,0x80,0x45,0x40,0x00,0x80,0x4b,0x40,0x00,0x80,0x42,0x40,
0x02,0x80,0x2c,0x40,0x08,0x90,0x4b,0x47,0x00,0x90,0x45,0x47,0x02,0x90,0x42,
0x47,0x15,0x90,0x20,0x3f,0x6e,0x80,0x20,0x40,0x0a,0x90,0x2c,0x3f,0x5a,0x80,
0x45,0x40,0x00,0x80,0x4b,0x40,0x00,0x80,0x42,0x40,0x03,0x80,0x2c,0x40,0x07,
0x90,0x4c,0x47,0x00,0x90,0x47,0x47,0x03,0x90,0x44,0x47,0x0e,0x90,0x20,0x3f,
0x6e,0x80,0x20,0x40,0x0a,0x90,0x2c,0x3f,0x5d,0x80,0x47,0x40,0x00,0x80,0x4c,
0x40,0x00,0x80,0x44,0x40,0x0a,0x90,0x4b,0x47,0x00,0x90,0x45,0x47,0x00,0x90,
0x42,0x47,0x07,0x80,0x2c,0x40,0x0a,0x90,0x20,0x3f,0x6e,0x80,0x20,0x40,0x0a,
0x90,0x2c,0x3f,0x5a,0x80,0x4b,0x40,0x00,0x80,0x42,0x40,0x00,0x80,0x45,0x40,
0x0a,0x90,0x49,0x47,0x02,0x90,0x44,0x47,0x00,0x90,0x40,0x47,0x08,0x80,0x2c,
0x40,0x0a,0x90,0x20,0x3f,0x6e,0x80,0x20,0x40,0x0a,0x90,0x2c,0x3f,0x5a,0x80,
0x49,0x40,0x00,0x80,0x40,0x40,0x00,0x80,0x44,0x40,0x02,0x80,0x2c,0x40,0x08,
0x90,0x49,0x47,0x02,0x90,0x44,0x47,0x00,0x90,0x40,0x47,0x12,0x90,0x20,0x3f,
0x71,0x80,0x20,0x40,0x0a,0x90,0x2c,0x3f,0x57,0x80,0x44,0x40,0x00,0x80,0x49,
0x40,0x00,0x80,0x40,0x40,0x02,0x80,0x2c,0x40,0x08,0x90,0x4b,0x47,0x00,0x90,
0x45,0x47,0x02,0x90,0x42,0x47,0x15,0x90,0x20,0x3f,0x6e,0x80,0x20,0x40,0x0a,
0x90,0x2c,0x3f,0x57,0x80,0x45,0x40,0x00,0x80,0x4b,0x40,0x00,0x80,0x42,0x40,
0x02,0x80,0x2c,0x40,0x08,0x90,0x49,0x47,0x00,0x90,0x44,0x47,0x02,0x90,0x40,
0x47,0x15,0x90,0x20,0x3f,0x6b,0x80,0x20,0x40,0x0a,0x90,0x2c,0x3f,0x5d,0x80,
0x44,0x40,0x00,0x80,0x49,0x40,0x00,0x80,0x40,0x40,0x03,0x80,0x2c,0x40,0x07,
0x90,0x48,0x3a,0x00,0x90,0x42,0x3a,0x03,0x90,0x3f,0x3a,0x0e,0x90,0x20,0x3a,
0x6e,0x80,0x20,0x40,0x0a,0x90,0x2c,0x3a,0x6e,0x80,0x2c,0x40,0x0a,0x90,0x20,
0x3a,0x6e,0x80,0x20,0x40,0x0a,0x90,0x2c,0x3a,0x6e,0x80,0x2c,0x40,0x0a,0x90,
0x20,0x3a,0x6e,0x80,0x20,0x40,0x0a,0x90,0x2c,0x3a,0x6e,0x80,0x42,0x40,0x00,
0x80,0x2c,0x40,0x00,0x80,0x3f,0x40,0x00,0x80,0x48,0x40,0x0a,0x90,0x20,0x3a,
0x71,0x80,0x20,0x40,0x0a,0x90,0x2c,0x3a,0x59,0x80,0x2c,0x40,0x08,0x90,0x49,
0x3a,0x00,0x90,0x40,0x3a,0x02,0x90,0x3d,0x3a,0x15,0x90,0x20,0x3a,0x6e,0x80,
0x20,0x40,0x0a,0x90,0x2c,0x3a,0x6e,0x80,0x2c,0x40,0x0a,0x90,0x20,0x3a,0x6b,
0x80,0x20,0x40,0x0a,0x90,0x2c,0x3a,0x6e,0x80,0x2c,0x40,0x0a,0x90,0x20,0x3a,
0x6e,0x80,0x20,0x40,0x0a,0x90,0x2c,0x3a,0x6e,0x80,0x40,0x40,0x00,0x80,0x2c,
0x40,0x00,0x80,0x3d,0x40,0x00,0x80,0x49,0x40,0x0a,0x90,0x20,0x3a,0x6e,0x80,
0x20,0x40,0x0a,0x90,0x2c,0x3a,0x64,0x90,0x3c,0x3f,0x0a,0x80,0x2c,0x40,0x0a,
0x90,0x20,0x3a,0x3c,0x90,0x42,0x3f,0x32,0x80,0x3c,0x40,0x00,0x80,0x20,0x40,
0x0a,0x90,0x2c,0x3a,0x17,0x90,0x4b,0x3f,0x5a,0x80,0x2c,0x40,0x0a,0x90,0x20,
0x3a,0x6e,0x80,0x20,0x40,0x0a,0x90,0x2c,0x3a,0x6e,0x80,0x2c,0x40,0x0a,0x90,
0x20,0x3a,0x6e,0x80,0x20,0x40,0x0a,0x90,0x2c,0x3a,0x6b,0x80,0x2c,0x40,0x0a,
0x90,0x20,0x3a,0x6e,0x80,0x20,0x40,0x0a,0x90,0x2c,0x3a,0x6e,0x80,0x2c,0x40,
0x0a,0x90,0x20,0x3a,0x6e,0x80,0x20,0x40,0x0a,0x90,0x2c,0x3a,0x6e,0x80,0x2c,
0x40,0x0a,0x90,0x20,0x3a,0x6e,0x80,0x20,0x40,0x0a,0x90,0x2c,0x3a,0x5c,0x80,
0x4b,0x40,0x00,0x80,0x2c,0x40,0x00,0x80,0x42,0x40,0x0a,0x90,0x3d,0x3a,0x12,
0x90,0x49,0x3a,0x00,0x90,0x40,0x3a,0x02,0x90,0x20,0x3a,0x6f,0x80,0x20,0x40,
0x0a,0x90,0x2c,0x3a,0x6e,0x80,0x2c,0x40,0x0a,0x90,0x20,0x3a,0x6e,0x80,0x20,
0x40,0x0a,0x90,0x2c,0x3a,0x6b,0x80,0x49,0x40,0x00,0x80,0x2c,0x40,0x00,0x80,
0x40,0x40,0x00,0x80,0x3d,0x40,0x0a,0x90,0x48,0x3a,0x03,0x90,0x42,0x3a,0x00,
0x90,0x3f,0x3a,0x03,0x90,0x20,0x3a,0x68,0x80,0x20,0x40,0x0a,0x90,0x2c,0x3a,
0x6e,0x80,0x2c,0x40,0x0a,0x90,0x20,0x3a,0x6e,0x80,0x48,0x40,0x00,0x80,0x20,
0x40,0x00,0x80,0x3f,0x40,0x00,0x80,0x42,0x40,0x0a,0x90,0x2c,0x3a,0x67,0x90,
0x48,0x3d,0x00,0x90,0x42,0x3d,0x00,0x90,0x3f,0x3d,0x07,0x80,0x2c,0x40,0x0a,
0x90,0x20,0x3a,0x6e,0x80,0x20,0x40,0x0a,0x90,0x2c,0x3a,0x6e,0x80,0x2c,0x40,
0x0a,0x90,0x20,0x3a,0x6e,0x80,0x3f,0x40,0x00,0x80,0x20,0x40,0x00,0x80,0x42,
0x40,0x00,0x80,0x48,0x40,0x0a,0x90,0x2c,0x3a,0x5c,0x80,0x2c,0x40,0x08,0x90,
0x49,0x3f,0x02,0x90,0x40,0x3f,0x00,0x90,0x3d,0x3f,0x12,0x90,0x20,0x3a,0x71,
0x80,0x20,0x40,0x0a,0x90,0x2c,0x3a,0x6e,0x80,0x2c,0x40,0x0a,0x90,0x20,0x3a,
0x6e,0x80,0x49,0x40,0x00,0x80,0x20,0x40,0x00,0x80,0x3d,0x40,0x00,0x80,0x40,
0x40,0x0a,0x90,0x2c,0x3a,0x59,0x80,0x2c,0x40,0x08,0x90,0x49,0x41,0x00,0x90,
0x40,0x41,0x02,0x90,0x3d,0x41,0x15,0x90,0x20,0x3a,0x6b,0x80,0x20,0x40,0x0a,
0x90,0x2c,0x3a,0x6e,0x80,0x2c,0x40,0x0a,0x90,0x20,0x3a,0x6e,0x80,0x49,0x40,
0x00,0x80,0x20,0x40,0x00,0x80,0x3d,0x40,0x00,0x80,0x40,0x40,0x0a,0x90,0x2c,
0x3a,0x64,0x90,0x3c,0x41,0x0a,0x80,0x2c,0x40,0x0a,0x90,0x20,0x3a,0x3c,0x90,
0x42,0x41,0x32,0x80,0x3c,0x40,0x00,0x80,0x20,0x40,0x0a,0x90,0x2c,0x3a,0x17,
0x90,0x4b,0x41,0x57,0x80,0x2c,0x40,0x0a,0x90,0x20,0x3a,0x6e,0x80,0x20,0x40,
0x0a,0x90,0x2c,0x3a,0x71,0x80,0x2c,0x40,0x0a,0x90,0x20,0x3a,0x6e,0x80,0x20,
0x40,0x0a,0x90,0x2c,0x3a,0x6e,0x80,0x2c,0x40,0x0a,0x90,0x20,0x3a,0x6e,0x80,
0x20,0x40,0x0a,0x90,0x2c,0x3a,0x6b,0x80,0x2c,0x40,0x0a,0x90,0x20,0x3a,0x6e,
0x80,0x20,0x40,0x0a,0x90,0x2c,0x3a,0x6e,0x80,0x2c,0x40,0x0a,0x90,0x20,0x3a,
0x6e,0x80,0x20,0x40,0x0a,0x90,0x2c,0x3a,0x6e,0x80,0x4b,0x40,0x00,0x80,0x2c,
0x40,0x00,0x80,0x42,0x40,0x0a,0x90,0x40,0x41,0x00,0x90,0x3d,0x41,0x02,0x90,
0x20,0x3a,0x6c,0x80,0x20,0x40,0x0a,0x90,0x2c,0x3a,0x64,0x90,0x49,0x41,0x0a,
0x80,0x40,0x40,0x00,0x80,0x3d,0x40,0x00,0x80,0x2c,0x40,0x0a,0x90,0x20,0x3a,
0x71,0x80,0x20,0x40,0x0a,0x90,0x2c,0x3a,0x57,0x80,0x49,0x40,0x0a,0x90,0x3f,
0x41,0x0d,0x80,0x2c,0x40,0x0a,0x90,0x42,0x41,0x00,0x90,0x20,0x3a,0x6e,0x80,
0x20,0x40,0x0a,0x90,0x2c,0x3a,0x57,0x80,0x3f,0x40,0x0a,0x90,0x48,0x41,0x0a,
0x80,0x2c,0x40,0x00,0x80,0x42,0x40,0x0a,0x90,0x20,0x3a,0x6e,0x80,0x20,0x40,
0x0a,0x90,0x2c,0x3a,0x5d,0x80,0x48,0x40,0x00,0x80,0x2c,0x40,0x0a,0x90,0x3f,
0x41,0x11,0x90,0x42,0x41,0x02,0x90,0x20,0x3a,0x6c,0x80,0x20,0x40,0x0a,0x90,
0x2c,0x3a,0x5d,0x80,0x3f,0x40,0x00,0x80,0x2c,0x40,0x0a,0x90,0x48,0x41,0x07,
0x80,0x42,0x40,0x0a,0x90,0x20,0x3a,0x6e,0x80,0x20,0x40,0x0a,0x90,0x2c,0x3a,
0x5c,0x80,0x48,0x40,0x00,0x80,0x2c,0x40,0x0a,0x90,0x3d,0x41,0x12,0x90,0x40,
0x41,0x00,0x90,0x20,0x3a,0x6e,0x80,0x20,0x40,0x0a,0x90,0x2c,0x3a,0x64,0x90,
0x49,0x41,0x0a,0x80,0x3d,0x40,0x00,0x80,0x40,0x40,0x00,0x80,0x2c,0x40,0x0a,
0x90,0x20,0x3a,0x71,0x80,0x20,0x40,0x0a,0x90,0x2c,0x3a,0x59,0x80,0x49,0x40,
0x00,0x80,0x2c,0x40,0x0a,0x90,0x3d,0x41,0x15,0x90,0x40,0x41,0x00,0x90,0x20,
0x3a,0x6e,0x80,0x20,0x40,0x0a,0x90,0x2c,0x3a,0x57,0x80,0x3d,0x40,0x0a,0x90,
0x49,0x41,0x0d,0x80,0x2c,0x40,0x00,0x80,0x40,0x40,0x0a,0x90,0x20,0x3a,0x6b,
0x80,0x20,0x40,0x0a,0x90,0x2c,0x3a,0x5d,0x80,0x49,0x40,0x00,0x80,0x2c,0x40,
0x0a,0x90,0x3c,0x41,0x11,0x90,0x42,0x41,0x02,0x90,0x20,0x3a,0x6c,0x80,0x20,
0x40,0x0a,0x90,0x2c,0x3a,0x64,0x90,0x4b,0x41,0x0a,0x80,0x3c,0x40,0x00,0x80,
0x42,0x40,0x00,0x80,0x2c,0x40,0x0a,0x90,0x20,0x3a,0x6e,0x80,0x20,0x40,0x0a,
0x90,0x2c,0x3a,0x5c,0x80,0x4b,0x40,0x00,0x80,0x2c,0x40,0x0a,0x90,0x3c,0x41,
0x12,0x90,0x42,0x41,0x00,0x90,0x20,0x3a,0x6e,0x80,0x20,0x40,0x0a,0x90,0x2c,
0x3a,0x64,0x90,0x4b,0x41,0x0a,0x80,0x3c,0x40,0x00,0x80,0x42,0x40,0x00,0x80,
0x2c,0x40,0x0a,0x90,0x20,0x3a,0x71,0x80,0x20,0x40,0x0a,0x90,0x2c,0x3a,0x57,
0x80,0x4b,0x40,0x0a,0x90,0x3d,0x41,0x0d,0x80,0x2c,0x40,0x0a,0x90,0x40,0x41,
0x00,0x90,0x20,0x3a,0x6e,0x80,0x20,0x40,0x0a,0x90,0x2c,0x3a,0x5a,0x80,0x3d,
0x40,0x0a,0x90,0x49,0x41,0x09,0x80,0x2c,0x40,0x00,0x80,0x40,0x40,0x0a,0x90,
0x20,0x3a,0x6c,0x80,0x20,0x40,0x0a,0x90,0x2c,0x3a,0x5d,0x80,0x49,0x40,0x00,
0x80,0x2c,0x40,0x0a,0x90,0x3d,0x41,0x11,0x90,0x40,0x41,0x02,0x90,0x20,0x3a,
0x6c,0x80,0x20,0x40,0x0a,0x90,0x2c,0x3a,0x64,0x90,0x49,0x41,0x0a,0x80,0x3d,
0x40,0x00,0x80,0x40,0x40,0x00,0x80,0x2c,0x40,0x0a,0x90,0x20,0x3a,0x6e,0x80,
0x20,0x40,0x0a,0x90,0x2c,0x3a,0x5c,0x80,0x49,0x40,0x03,0x80,0x2c,0x40,0x07,
0x90,0x3f,0x3a,0x00,0x90,0x3d,0x3a,0x03,0x90,0x39,0x3a,0x00,0x90,0x2a,0x3a,
0x0f,0x90,0x45,0x3a,0x00,0x90,0x1e,0x3a,0x8e,0x76,0x80,0x3f,0x40,0x00,0x80,
0x1e,0x40,0x00,0x80,0x45,0x40,0x00,0x80,0x2a,0x40,0x00,0x80,0x39,0x40,0x00,
0x80,0x3d,0x40,0x0a,0x90,0x44,0x3a,0x02,0x90,0x3f,0x3a,0x00,0x90,0x3c,0x3a,
0x03,0x90,0x20,0x3a,0x00,0x90,0x38,0x3a,0x00,0x90,0x2c,0x3a,0x8e,0x71,0x80,
0x44,0x40,0x00,0x80,0x2c,0x40,0x00,0x80,0x38,0x40,0x00,0x80,0x20,0x40,0x00,
0x80,0x3c,0x40,0x00,0x80,0x3f,0x40,0x0a,0x90,0x25,0x3a,0x64,0x90,0x2c,0x3a,
0x70,0x80,0x25,0x40,0x00,0x80,0x2c,0x40,0x0a,0x90,0x2c,0x3a,0x12,0x90,0x31,
0x3a,0x71,0x80,0x31,0x40,0x0a,0x90,0x34,0x3a,0x57,0x80,0x2c,0x40,0x00,0x80,
0x34,0x40,0x0a,0x90,0x25,0x3a,0x17,0x90,0x38,0x3a,0x6e,0x80,0x38,0x40,0x0a,
0x90,0x31,0x3a,0x57,0x80,0x25,0x40,0x00,0x80,0x31,0x40,0x0a,0x90,0x2c,0x3a,
0x14,0x90,0x34,0x3a,0x6e,0x80,0x34,0x40,0x0a,0x90,0x38,0x3a,0x5d,0x80,0x2c,
0x40,0x00,0x80,0x38,0x40,0x0a,0x90,0x25,0x3a,0x11,0x90,0x3d,0x3a,0x6e,0x80,
0x3d,0x40,0x0a,0x90,0x34,0x3a,0x5d,0x80,0x25,0x40,0x00,0x80,0x34,0x40,0x0a,
0x90,0x2c,0x3a,0x11,0x90,0x38,0x3a,0x6e,0x80,0x38,0x40,0x0a,0x90,0x3d,0x3a,
0x5c,0x80,0x2c,0x40,0x00,0x80,0x3d,0x40,0x0a,0x90,0x25,0x3a,0x12,0x90,0x40,
0x3a,0x6e,0x80,0x40,0x40,0x0a,0x90,0x38,0x3a,0x5c,0x80,0x25,0x40,0x00,0x80,
0x38,0x40,0x0a,0x90,0x2c,0x3a,0x12,0x90,0x3d,0x3a,0x71,0x80,0x3d,0x40,0x0a,
0x90,0x40,0x3a,0x57,0x80,0x2c,0x40,0x00,0x80,0x40,0x40,0x0a,0x90,0x25,0x3a,
0x17,0x90,0x44,0x3a,0x6b,0x80,0x44,0x40,0x0a,0x90,0x3d,0x3a,0x5d,0x80,0x25,
0x40,0x00,0x80,0x3d,0x40,0x0a,0x90,0x2c,0x3a,0x11,0x90,0x40,0x3a,0x6e,0x80,
0x40,0x40,0x0a,0x90,0x44,0x3a,0x5d,0x80,0x2c,0x40,0x00,0x80,0x44,0x40,0x0a,
0x90,0x25,0x3a,0x11,0x90,0x49,0x3a,0x6e,0x80,0x49,0x40,0x0a,0x90,0x40,0x3a,
0x5c,0x80,0x25,0x40,0x00,0x80,0x40,0x40,0x0a,0x90,0x2c,0x3a,0x12,0x90,0x44,
0x3a,0x6e,0x80,0x44,0x40,0x0a,0x90,0x49,0x3a,0x5c,0x80,0x2c,0x40,0x00,0x80,
0x49,0x40,0x0a,0x90,0x25,0x3a,0x12,0x90,0x4c,0x3a,0x6e,0x80,0x4c,0x40,0x0a,
0x90,0x44,0x3a,0x5a,0x80,0x25,0x40,0x00,0x80,0x44,0x40,0x0a,0x90,0x2c,0x3a,
0x17,0x90,0x49,0x3a,0x6e,0x80,0x49,0x40,0x0a,0x90,0x4c,0x3a,0x57,0x80,0x2c,
0x40,0x00,0x80,0x4c,0x40,0x0a,0x90,0x31,0x3a,0x02,0x90,0x4c,0x3f,0x00,0x90,
0x49,0x3f,0x01,0xb0,0x40,0x7f,0x02,0x90,0x44,0x3f,0x00,0x90,0x25,0x3a,0x12,
0x90,0x50,0x3f,0x81,0x52,0x80,0x31,0x40,0x00,0x80,0x25,0x40,0x00,0x80,0x50,
0x40,0x0a,0x90,0x2c,0x3a,0x07,0x80,0x44,0x40,0x00,0x80,0x49,0x40,0x00,0x80,
0x4c,0x40,0x0a,0x90,0x50,0x3f,0x02,0x90,0x4c,0x3f,0x00,0x90,0x49,0x3f,0x03,
0x90,0x44,0x3f,0x81,0x50,0x80,0x2c,0x40,0x00,0x80,0x50,0x40,0x00,0x80,0x4c,
0x40,0x06,0xb0,0x40,0x00,0x04,0x90,0x24,0x3a,0x6e,0x80,0x49,0x40,0x00,0x80,
0x44,0x40,0x0a,0x90,0x2c,0x3a,0x6d,0x80,0x24,0x40,0x00,0x80,0x2c,0x40,0x0a,
0x90,0x2c,0x3a,0x12,0x90,0x30,0x3a,0x6e,0x80,0x30,0x40,0x0a,0x90,0x33,0x3a,
0x5c,0x80,0x2c,0x40,0x00,0x80,0x33,0x40,0x0a,0x90,0x24,0x3a,0x12,0x90,0x38,
0x3a,0x71,0x80,0x38,0x40,0x0a,0x90,0x30,0x3a,0x57,0x80,0x24,0x40,0x00,0x80,
0x30,0x40,0x0a,0x90,0x2c,0x3a,0x17,0x90,0x33,0x3a,0x6e,0x80,0x33,0x40,0x0a,
0x90,0x38,0x3a,0x57,0x80,0x2c,0x40,0x00,0x80,0x38,0x40,0x0a,0x90,0x24,0x3a,
0x14,0x90,0x3c,0x3a,0x6e,0x80,0x3c,0x40,0x0a,0x90,0x33,0x3a,0x5d,0x80,0x24,
0x40,0x00,0x80,0x33,0x40,0x0a,0x90,0x2c,0x3a,0x11,0x90,0x38,0x3a,0x6e,0x80,
0x38,0x40,0x0a,0x90,0x3c,0x3a,0x5d,0x80,0x2c,0x40,0x00,0x80,0x3c,0x40,0x0a,
0x90,0x24,0x3a,0x11,0x90,0x3f,0x3a,0x6e,0x80,0x3f,0x40,0x0a,0x90,0x38,0x3a,
0x5c,0x80,0x24,0x40,0x00,0x80,0x38,0x40,0x0a,0x90,0x2c,0x3a,0x12,0x90,0x3c,
0x3a,0x6e,0x80,0x3c,0x40,0x0a,0x90,0x3f,0x3a,0x5c,0x80,0x2c,0x40,0x00,0x80,
0x3f,0x40,0x0a,0x90,0x24,0x3a,0x15,0x90,0x44,0x3a,0x6e,0x80,0x44,0x40,0x0a,
0x90,0x3c,0x3a,0x57,0x80,0x24,0x40,0x00,0x80,0x3c,0x40,0x0a,0x90,0x2c,0x3a,
0x17,0x90,0x3f,0x3a,0x6b,0x80,0x3f,0x40,0x0a,0x90,0x44,0x3a,0x5d,0x80,0x2c,
0x40,0x00,0x80,0x44,0x40,0x0a,0x90,0x24,0x3a,0x11,0x90,0x48,0x3a,0x6e,0x80,
0x48,0x40,0x0a,0x90,0x3f,0x3a,0x5d,0x80,0x24,0x40,0x00,0x80,0x3f,0x40,0x0a,
0x90,0x2c,0x3a,0x11,0x90,0x44,0x3a,0x6e,0x80,0x44,0x40,0x0a,0x90,0x48,0x3a,
0x5c,0x80,0x2c,0x40,0x00,0x80,0x48,0x40,0x0a,0x90,0x24,0x3a,0x12,0x90,0x4b,
0x3a,0x6e,0x80,0x4b,0x40,0x0a,0x90,0x44,0x3a,0x5c,0x80,0x24,0x40,0x00,0x80,
0x44,0x40,0x0a,0x90,0x2c,0x3a,0x12,0x90,0x48,0x3a,0x6e,0x80,0x48,0x40,0x0a,
0x90,0x4b,0x3a,0x5c,0x80,0x2c,0x40,0x00,0x80,0x4b,0x40,0x0a,0x90,0x24,0x3a,
0x00,0x90,0x4b,0x3f,0x00,0x90,0x48,0x3f,0x01,0xb0,0x40,0x7f,0x02,0x90,0x44,
0x3f,0x00,0x90,0x30,0x3a,0x12,0x90,0x50,0x3f,0x81,0x4f,0x80,0x24,0x40,0x00,
0x80,0x50,0x40,0x0a,0x90,0x2c,0x3a,0x0d,0x80,0x30,0x40,0x00,0x80,0x4b,0x40,
0x00,0x80,0x44,0x40,0x00,0x80,0x48,0x40,0x0a,0x90,0x50,0x3f,0x00,0x90,0x4b,
0x3f,0x00,0x90,0x48,0x3f,0x03,0x90,0x44,0x3f,0x81,0x4f,0x80,0x2c,0x40,0x00,
0x80,0x50,0x40,0x06,0xb0,0x40,0x00,0x04,0x90,0x23,0x3a,0x6e,0x80,0x48,0x40,
0x00,0x80,0x44,0x40,0x00,0x80,0x4b,0x40,0x0a,0x90,0x31,0x3a,0x6e,0x80,0x23,
0x40,0x00,0x80,0x31,0x40,0x0a,0x90,0x2c,0x3a,0x11,0x90,0x35,0x3a,0x6e,0x80,
0x35,0x40,0x0a,0x90,0x38,0x3a,0x5c,0x80,0x2c,0x40,0x00,0x80,0x38,0x40,0x0a,
0x90,0x23,0x3a,0x12,0x90,0x3d,0x3a,0x6e,0x80,0x3d,0x40,0x0a,0x90,0x35,0x3a,
0x5c,0x80,0x23,0x40,0x00,0x80,0x35,0x40,0x0a,0x90,0x2c,0x3a,0x12,0x90,0x38,
0x3a,0x71,0x80,0x38,0x40,0x0a,0x90,0x3d,0x3a,0x57,0x80,0x2c,0x40,0x00,0x80,
0x3d,0x40,0x0a,0x90,0x23,0x3a,0x17,0x90,0x41,0x3a,0x6e,0x80,0x41,0x40,0x0a,
0x90,0x38,0x3a,0x57,0x80,0x23,0x40,0x00,0x80,0x38,0x40,0x0a,0x90,0x2c,0x3a,
0x14,0x90,0x3d,0x3a,0x6e,0x80,0x3d,0x40,0x0a,0x90,0x41,0x3a,0x5d,0x80,0x2c,
0x40,0x00,0x80,0x41,0x40,0x0a,0x90,0x23,0x3a,0x11,0x90,0x44,0x3a,0x6e,0x80,
0x44,0x40,0x0a,0x90,0x3d,0x3a,0x5d,0x80,0x23,0x40,0x00,0x80,0x3d,0x40,0x0a,
0x90,0x2c,0x3a,0x11,0x90,0x41,0x3a,0x6e,0x80,0x41,0x40,0x0a,0x90,0x44,0x3a,
0x5d,0x80,0x2c,0x40,0x00,0x80,0x44,0x40,0x0a,0x90,0x23,0x3a,0x11,0x90,0x49,
0x3a,0x6e,0x80,0x49,0x40,0x0a,0x90,0x41,0x3a,0x5c,0x80,0x23,0x40,0x00,0x80,
0x41,0x40,0x0a,0x90,0x2c,0x3a,0x15,0x90,0x44,0x3a,0x6e,0x80,0x44,0x40,0x0a,
0x90,0x49,0x3a,0x57,0x80,0x2c,0x40,0x00,0x80,0x49,0x40,0x0a,0x90,0x23,0x3a,
0x17,0x90,0x4d,0x3a,0x6b,0x80,0x4d,0x40,0x0a,0x90,0x44,0x3a,0x5d,0x80,0x23,
0x40,0x00,0x80,0x44,0x40,0x0a,0x90,0x2c,0x3a,0x11,0x90,0x49,0x3a,0x6e,0x80,
0x49,0x40,0x0a,0x90,0x4d,0x3a,0x5d,0x80,0x2c,0x40,0x00,0x80,0x4d,0x40,0x0a,
0x90,0x23,0x3a,0x11,0x90,0x50,0x3a,0x6e,0x80,0x50,0x40,0x0a,0x90,0x49,0x3a,
0x5d,0x80,0x23,0x40,0x00,0x80,0x49,0x40,0x0a,0x90,0x2c,0x3a,0x11,0x90,0x4d,
0x3a,0x6e,0x80,0x4d,0x40,0x0a,0x90,0x50,0x3a,0x5c,0x80,0x2c,0x40,0x00,0x80,
0x50,0x40,0x0a,0x90,0x23,0x3a,0x00,0x90,0x50,0x3f,0x00,0x90,0x4d,0x3f,0x01,
0xb0,0x40,0x7f,0x02,0x90,0x49,0x3f,0x00,0x90,0x2f,0x3a,0x0f,0x90,0x55,0x3f,
0x81,0x52,0x80,0x23,0x40,0x00,0x80,0x2f,0x40,0x00,0x80,0x55,0x40,0x0a,0x90,
0x2c,0x3a,0x0d,0x80,0x49,0x40,0x00,0x80,0x4d,0x40,0x00,0x80,0x50,0x40,0x0a,
0x90,0x55,0x3f,0x00,0x90,0x50,0x3f,0x00,0x90,0x4d,0x3f,0x03,0x90,0x49,0x3f,
0x81,0x4c,0x80,0x2c,0x40,0x00,0x80,0x55,0x40,0x09,0xb0,0x40,0x00,0x01,0x90,
0x21,0x3a,0x6e,0x80,0x4d,0x40,0x00,0x80,0x49,0x40,0x00,0x80,0x50,0x40,0x0a,
0x90,0x31,0x3a,0x71,0x80,0x21,0x40,0x0a,0x90,0x36,0x3a,0x00,0x90,0x2d,0x3a,
0x6e,0x80,0x31,0x40,0x0a,0x90,0x39,0x3a,0x6e,0x80,0x2d,0x40,0x00,0x80,0x39,
0x40,0x00,0x80,0x36,0x40,0x0a,0x90,0x21,0x3a,0x11,0x90,0x3d,0x3a,0x6e,0x80,
0x3d,0x40,0x0a,0x90,0x3d,0x3f,0x5a,0x80,0x21,0x40,0x0a,0x90,0x42,0x3f,0x02,
0x90,0x2d,0x3a,0x6c,0x80,0x3d,0x40,0x0a,0x90,0x45,0x3f,0x70,0x80,0x2d,0x40,
0x00,0x80,0x45,0x40,0x00,0x80,0x42,0x40,0x0a,0x90,0x21,0x3a,0x12,0x90,0x49,
0x3f,0x71,0x80,0x49,0x40,0x0a,0x90,0x49,0x47,0x57,0x80,0x21,0x40,0x0a,0x90,
0x4e,0x47,0x00,0x90,0x2d,0x3a,0x6e,0x80,0x49,0x40,0x0a,0x90,0x51,0x47,0x6e,
0x80,0x2d,0x40,0x00,0x80,0x51,0x40,0x00,0x80,0x4e,0x40,0x0a,0x90,0x21,0x3a,
0x02,0x90,0x4e,0x47,0x00,0x90,0x49,0x47,0x01,0xb0,0x40,0x7f,0x11,0x90,0x55,
0x4f,0x81,0x55,0x80,0x21,0x40,0x00,0x80,0x55,0x40,0x00,0x80,0x4e,0x40,0x0a,
0x90,0x2d,0x3a,0x07,0x80,0x49,0x40,0x0a,0x90,0x55,0x4f,0x02,0x90,0x4e,0x47,
0x00,0x90,0x49,0x47,0x81,0x53,0x80,0x2d,0x40,0x00,0x80,0x55,0x40,0x00,0x80,
0x4e,0x40,0x06,0xb0,0x40,0x00,0x04,0x90,0x21,0x3a,0x6b,0x80,0x49,0x40,0x0a,
0x90,0x31,0x3a,0x6e,0x80,0x21,0x40,0x0a,0x90,0x34,0x3a,0x02,0x90,0x2d,0x3a,
0x6c,0x80,0x31,0x40,0x0a,0x90,0x37,0x3a,0x70,0x80,0x2d,0x40,0x00,0x80,0x37,
0x40,0x00,0x80,0x34,0x40,0x0a,0x90,0x21,0x3a,0x15,0x90,0x3d,0x3a,0x6e,0x80,
0x3d,0x40,0x0a,0x90,0x3d,0x3f,0x57,0x80,0x21,0x40,0x0a,0x90,0x40,0x3f,0x00,
0x90,0x2d,0x3a,0x6e,0x80,0x3d,0x40,0x0a,0x90,0x43,0x3f,0x71,0x80,0x2d,0x40,
0x00,0x80,0x43,0x40,0x00,0x80,0x40,0x40,0x0a,0x90,0x21,0x3a,0x11,0x90,0x49,
0x3f,0x6e,0x80,0x49,0x40,0x0a,0x90,0x49,0x47,0x5d,0x80,0x21,0x40,0x0a,0x90,
0x4c,0x47,0x00,0x90,0x2d,0x3a,0x6e,0x80,0x49,0x40,0x0a,0x90,0x4f,0x47,0x6d,
0x80,0x2d,0x40,0x00,0x80,0x4f,0x40,0x00,0x80,0x4c,0x40,0x0a,0x90,0x21,0x3a,
0x00,0x90,0x4f,0x47,0x01,0xb0,0x40,0x7f,0x02,0x90,0x49,0x47,0x0f,0x90,0x55,
0x4f,0x81,0x54,0x80,0x21,0x40,0x00,0x80,0x55,0x40,0x00,0x80,0x49,0x40,0x00,
0x80,0x4f,0x40,0x0a,0x90,0x2d,0x3a,0x12,0x90,0x55,0x4f,0x00,0x90,0x4f,0x47,
0x02,0x90,0x49,0x47,0x81,0x52,0x80,0x2d,0x40,0x00,0x80,0x49,0x40,0x00,0x80,
0x4f,0x40,0x00,0x80,0x55,0x40,0x07,0xb0,0x40,0x00,0x03,0x90,0x2c,0x4f,0x03,
0x90,0x20,0x4f,0x12,0x90,0x54,0x4f,0x00,0x90,0x50,0x4f,0x00,0x90,0x48,0x47,
0x81,0x66,0x80,0x2c,0x40,0x00,0x80,0x48,0x40,0x00,0x80,0x50,0x40,0x00,0x80,
0x54,0x40,0x00,0x80,0x20,0x40,0x0a,0x90,0x44,0x4f,0x00,0x90,0x3c,0x4f,0x00,
0x90,0x38,0x4f,0x6b,0x80,0x44,0x40,0x0a,0x90,0x50,0x4f,0x6e,0x80,0x3c,0x40,
0x00,0x80,0x50,0x40,0x0a,0x90,0x44,0x4f,0x02,0x90,0x3c,0x4f,0x6c,0x80,0x44,
0x40,0x0a,0x90,0x50,0x4f,0x6e,0x80,0x3c,0x40,0x00,0x80,0x50,0x40,0x0a,0x90,
0x46,0x4f,0x02,0x90,0x3d,0x4f,0x6c,0x80,0x46,0x40,0x0a,0x90,0x50,0x4f,0x6e,
0x80,0x3d,0x40,0x00,0x80,0x50,0x40,0x0a,0x90,0x48,0x4f,0x00,0x90,0x3f,0x4f,
0x6e,0x80,0x48,0x40,0x0a,0x90,0x50,0x4f,0x6e,0x80,0x3f,0x40,0x00,0x80,0x50,
0x40,0x0a,0x90,0x49,0x4f,0x00,0x90,0x40,0x4f,0x71,0x80,0x49,0x40,0x0a,0x90,
0x50,0x4f,0x6e,0x80,0x40,0x40,0x00,0x80,0x50,0x40,0x0a,0x90,0x4b,0x4f,0x00,
0x90,0x42,0x4f,0x6e,0x80,0x4b,0x40,0x0a,0x90,0x50,0x4f,0x6b,0x80,0x42,0x40,
0x00,0x80,0x50,0x40,0x0a,0x90,0x48,0x4f,0x03,0x90,0x3f,0x4f,0x6b,0x80,0x48,
0x40,0x0a,0x90,0x50,0x4f,0x6e,0x80,0x3f,0x40,0x00,0x80,0x50,0x40,0x0a,0x90,
0x4b,0x4f,0x02,0x90,0x42,0x4f,0x6c,0x80,0x4b,0x40,0x0a,0x90,0x50,0x4f,0x6e,
0x80,0x42,0x40,0x00,0x80,0x50,0x40,0x0a,0x90,0x49,0x4f,0x00,0x90,0x40,0x4f,
0x6e,0x80,0x49,0x40,0x0a,0x90,0x50,0x4f,0x6e,0x80,0x40,0x40,0x00,0x80,0x50,
0x40,0x0a,0x90,0x4e,0x4f,0x00,0x90,0x45,0x4f,0x6e,0x80,0x4e,0x40,0x0a,0x90,
0x50,0x4f,0x71,0x80,0x45,0x40,0x00,0x80,0x50,0x40,0x0a,0x90,0x4c,0x4f,0x00,
0x90,0x44,0x4f,0x6e,0x80,0x4c,0x40,0x0a,0x90,0x50,0x4f,0x6e,0x80,0x44,0x40,
0x00,0x80,0x50,0x40,0x0a,0x90,0x4b,0x4f,0x00,0x90,0x42,0x4f,0x6b,0x80,0x4b,
0x40,0x0a,0x90,0x50,0x4f,0x6e,0x80,0x42,0x40,0x00,0x80,0x50,0x40,0x0a,0x90,
0x49,0x4f,0x02,0x90,0x40,0x4f,0x6c,0x80,0x49,0x40,0x0a,0x90,0x50,0x4f,0x6e,
0x80,0x40,0x40,0x00,0x80,0x50,0x40,0x0a,0x90,0x48,0x4f,0x02,0x90,0x3f,0x4f,
0x6c,0x80,0x48,0x40,0x0a,0x90,0x50,0x4f,0x6e,0x80,0x3f,0x40,0x00,0x80,0x50,
0x40,0x0a,0x90,0x45,0x4f,0x00,0x90,0x3d,0x4f,0x6e,0x80,0x45,0x40,0x0a,0x90,
0x4f,0x4f,0x6e,0x80,0x3d,0x40,0x00,0x80,0x4f,0x40,0x00,0x80,0x38,0x40,0x0a,
0x90,0x44,0x4f,0x00,0x90,0x3c,0x4f,0x02,0x90,0x38,0x4f,0x6c,0x80,0x44,0x40,
0x0a,0x90,0x50,0x4f,0x71,0x80,0x3c,0x40,0x00,0x80,0x50,0x40,0x0a,0x90,0x44,
0x4f,0x00,0x90,0x3c,0x4f,0x6e,0x80,0x44,0x40,0x0a,0x90,0x50,0x4f,0x6e,0x80,
0x3c,0x40,0x00,0x80,0x50,0x40,0x0a,0x90,0x44,0x4f,0x00,0x90,0x3c,0x4f,0x6b,
0x80,0x44,0x40,0x0a,0x90,0x50,0x4f,0x6e,0x80,0x3c,0x40,0x00,0x80,0x50,0x40,
0x0a,0x90,0x46,0x4f,0x02,0x90,0x3d,0x4f,0x6c,0x80,0x46,0x40,0x0a,0x90,0x50,
0x4f,0x6e,0x80,0x3d,0x40,0x00,0x80,0x50,0x40,0x0a,0x90,0x48,0x4f,0x02,0x90,
0x3f,0x4f,0x6c,0x80,0x48,0x40,0x0a,0x90,0x50,0x4f,0x6e,0x80,0x3f,0x40,0x00,
0x80,0x50,0x40,0x0a,0x90,0x49,0x4f,0x00,0x90,0x40,0x4f,0x6e,0x80,0x49,0x40,
0x0a,0x90,0x50,0x4f,0x6e,0x80,0x40,0x40,0x00,0x80,0x50,0x40,0x0a,0x90,0x4b,
0x4f,0x00,0x90,0x42,0x4f,0x71,0x80,0x4b,0x40,0x0a,0x90,0x50,0x4f,0x6e,0x80,
0x42,0x40,0x00,0x80,0x50,0x40,0x0a,0x90,0x48,0x4f,0x00,0x90,0x3f,0x4f,0x6e,
0x80,0x48,0x40,0x0a,0x90,0x50,0x4f,0x6b,0x80,0x3f,0x40,0x00,0x80,0x50,0x40,
0x0a,0x90,0x4b,0x4f,0x03,0x90,0x42,0x4f,0x6b,0x80,0x4b,0x40,0x0a,0x90,0x50,
0x4f,0x6e,0x80,0x42,0x40,0x00,0x80,0x50,0x40,0x0a,0x90,0x49,0x4f,0x02,0x90,
0x40,0x4f,0x6c,0x80,0x49,0x40,0x0a,0x90,0x50,0x4f,0x6e,0x80,0x40,0x40,0x00,
0x80,0x50,0x40,0x0a,0x90,0x4e,0x4f,0x00,0x90,0x45,0x4f,0x6e,0x80,0x4e,0x40,
0x0a,0x90,0x50,0x4f,0x6e,0x80,0x45,0x40,0x00,0x80,0x50,0x40,0x0a,0x90,0x4c,
0x4f,0x00,0x90,0x44,0x4f,0x6e,0x80,0x4c,0x40,0x0a,0x90,0x50,0x4f,0x71,0x80,
0x44,0x40,0x00,0x80,0x50,0x40,0x0a,0x90,0x4b,0x4f,0x00,0x90,0x42,0x4f,0x6e,
0x80,0x4b,0x40,0x0a,0x90,0x50,0x4f,0x6e,0x80,0x42,0x40,0x00,0x80,0x50,0x40,
0x0a,0x90,0x49,0x4f,0x00,0x90,0x40,0x4f,0x6b,0x80,0x49,0x40,0x0a,0x90,0x50,
0x4f,0x6e,0x80,0x40,0x40,0x00,0x80,0x50,0x40,0x0a,0x90,0x48,0x4f,0x02,0x90,
0x3f,0x4f,0x6c,0x80,0x48,0x40,0x0a,0x90,0x50,0x4f,0x6e,0x80,0x3f,0x40,0x00,
0x80,0x50,0x40,0x0a,0x90,0x45,0x4f,0x02,0x90,0x3d,0x4f,0x6c,0x80,0x45,0x40,
0x0a,0x90,0x4f,0x4f,0x6e,0x80,0x3d,0x40,0x00,0x80,0x4f,0x40,0x00,0x80,0x38,
0x40,0x0a,0x90,0x44,0x4f,0x00,0x90,0x3c,0x4f,0x02,0x90,0x38,0x4f,0x6c,0x80,
0x44,0x40,0x0a,0x90,0x50,0x4f,0x6e,0x80,0x38,0x40,0x00,0x80,0x50,0x40,0x00,
0x80,0x3c,0x40,0x0a,0x90,0x45,0x4f,0x00,0x90,0x3d,0x4f,0x02,0x90,0x38,0x4f,
0x6c,0x80,0x45,0x40,0x0a,0x90,0x4f,0x4f,0x71,0x80,0x38,0x40,0x00,0x80,0x4f,
0x40,0x00,0x80,0x3d,0x40,0x0a,0x90,0x44,0x4f,0x00,0x90,0x3c,0x4f,0x00,0x90,
0x38,0x4f,0x6e,0x80,0x44,0x40,0x0a,0x90,0x50,0x4f,0x6b,0x80,0x38,0x40,0x00,
0x80,0x50,0x40,0x00,0x80,0x3c,0x40,0x0a,0x90,0x45,0x4f,0x03,0x90,0x3d,0x4f,
0x00,0x90,0x38,0x4f,0x6b,0x80,0x45,0x40,0x0a,0x90,0x4f,0x4f,0x6e,0x80,0x38,
0x40,0x00,0x80,0x4f,0x40,0x00,0x80,0x3d,0x40,0x0a,0x90,0x44,0x4f,0x02,0x90,
0x3c,0x4f,0x00,0x90,0x38,0x4f,0x6c,0x80,0x44,0x40,0x0a,0x90,0x50,0x4f,0x6e,
0x80,0x38,0x40,0x00,0x80,0x50,0x40,0x00,0x80,0x3c,0x40,0x0a,0x90,0x45,0x4f,
0x02,0x90,0x3d,0x4f,0x00,0x90,0x38,0x4f,0x6c,0x80,0x45,0x40,0x0a,0x90,0x4f,
0x4f,0x6e,0x80,0x38,0x40,0x00,0x80,0x4f,0x40,0x00,0x80,0x3d,0x40,0x0a,0x90,
0x44,0x4f,0x00,0x90,0x3c,0x4f,0x02,0x90,0x38,0x4f,0x6c,0x80,0x44,0x40,0x0a,
0x90,0x50,0x4f,0x6e,0x80,0x38,0x40,0x00,0x80,0x50,0x40,0x00,0x80,0x3c,0x40,
0x0a,0x90,0x45,0x4f,0x00,0x90,0x3d,0x4f,0x02,0x90,0x38,0x4f,0x6f,0x80,0x45,
0x40,0x0a,0x90,0x4f,0x4f,0x6e,0x80,0x38,0x40,0x00,0x80,0x4f,0x40,0x00,0x80,
0x3d,0x40,0x0a,0x90,0x50,0x4f,0x00,0x90,0x3c,0x4f,0x00,0x90,0x38,0x4f,0x83,
0x53,0x80,0x50,0x40,0x00,0x80,0x38,0x40,0x00,0x80,0x3c,0x40,0x0a,0x90,0x20,
0x4f,0x00,0x90,0x2c,0x4f,0x00,0x90,0x38,0x4f,0x8e,0x76,0x80,0x20,0x40,0x00,
0x80,0x38,0x40,0x00,0x80,0x2c,0x40,0x0a,0x90,0x31,0x3a,0x7c,0x80,0x31,0x40,
0x0a,0x90,0x38,0x3a,0x6e,0x80,0x38,0x40,0x0a,0x90,0x34,0x3a,0x6e,0x80,0x34,
0x40,0x0a,0x90,0x38,0x3a,0x64,0x90,0x44,0x3f,0x0a,0x80,0x38,0x40,0x0a,0x90,
0x31,0x3a,0x6e,0x80,0x31,0x40,0x0a,0x90,0x38,0x3a,0x71,0x80,0x38,0x40,0x0a,
0x90,0x34,0x3a,0x6e,0x80,0x34,0x40,0x0a,0x90,0x38,0x3a,0x6e,0x80,0x38,0x40,
0x0a,0x90,0x31,0x3a,0x6b,0x80,0x31,0x40,0x0a,0x90,0x38,0x3a,0x6e,0x80,0x38,
0x40,0x0a,0x90,0x34,0x3a,0x6e,0x80,0x34,0x40,0x0a,0x90,0x38,0x3a,0x6e,0x80,
0x44,0x40,0x00,0x80,0x38,0x40,0x0a,0x90,0x40,0x3f,0x02,0x90,0x31,0x3a,0x6c,
0x80,0x31,0x40,0x0a,0x90,0x38,0x3a,0x6e,0x80,0x38,0x40,0x0a,0x90,0x34,0x3a,
0x6e,0x80,0x40,0x40,0x00,0x80,0x34,0x40,0x0a,0x90,0x3d,0x3f,0x00,0x90,0x38,
0x3a,0x6e,0x80,0x3d,0x40,0x00,0x80,0x38,0x40,0x0a,0x90,0x3c,0x3f,0x00,0x90,
0x33,0x3a,0x3f,0x90,0x3d,0x3f,0x32,0x80,0x3c,0x40,0x00,0x80,0x33,0x40,0x0a,
0x90,0x38,0x3a,0x11,0x90,0x3f,0x3f,0x46,0x80,0x3d,0x40,0x00,0x80,0x38,0x40,
0x0a,0x90,0x3d,0x3f,0x0a,0x80,0x3f,0x40,0x0a,0x90,0x36,0x3a,0x71,0x80,0x36,
0x40,0x0a,0x90,0x38,0x3a,0x57,0x80,0x38,0x40,0x0a,0x90,0x3c,0x3f,0x0d,0x80,
0x3d,0x40,0x0a,0x90,0x33,0x3a,0x6b,0x80,0x33,0x40,0x0a,0x90,0x38,0x3a,0x6e,
0x80,0x38,0x40,0x0a,0x90,0x36,0x3a,0x6e,0x80,0x36,0x40,0x0a,0x90,0x38,0x3a,
0x6e,0x80,0x38,0x40,0x0a,0x90,0x33,0x3a,0x6e,0x80,0x33,0x40,0x0a,0x90,0x38,
0x3a,0x6e,0x80,0x3c,0x40,0x00,0x80,0x38,0x40,0x0a,0x90,0x3c,0x3f,0x00,0x90,
0x36,0x3a,0x6e,0x80,0x36,0x40,0x0a,0x90,0x38,0x3a,0x64,0x90,0x44,0x3f,0x0a,
0x80,0x3c,0x40,0x00,0x80,0x38,0x40,0x0a,0x90,0x33,0x3a,0x71,0x80,0x33,0x40,
0x0a,0x90,0x38,0x3a,0x6e,0x80,0x38,0x40,0x0a,0x90,0x36,0x3a,0x57,0x80,0x36,
0x40,0x0a,0x90,0x3c,0x3f,0x0a,0x80,0x44,0x40,0x0a,0x90,0x38,0x3a,0x6e,0x80,
0x3c,0x40,0x00,0x80,0x38,0x40,0x0a,0x90,0x3f,0x3f,0x02,0x90,0x34,0x3a,0x6c,
0x80,0x34,0x40,0x0a,0x90,0x38,0x3a,0x6e,0x80,0x38,0x40,0x0a,0x90,0x34,0x3a,
0x6e,0x80,0x34,0x40,0x0a,0x90,0x38,0x3a,0x6e,0x80,0x3f,0x40,0x00,0x80,0x38,
0x40,0x0a,0x90,0x3d,0x3f,0x00,0x90,0x34,0x3a,0x6e,0x80,0x34,0x40,0x0a,0x90,
0x38,0x3a,0x6e,0x80,0x38,0x40,0x0a,0x90,0x34,0x3a,0x71,0x80,0x34,0x40,0x0a,
0x90,0x38,0x3a,0x6e,0x80,0x38,0x40,0x0a,0x90,0x34,0x3a,0x6e,0x80,0x34,0x40,
0x0a,0x90,0x38,0x3a,0x6b,0x80,0x3d,0x40,0x00,0x80,0x38,0x40,0x0a,0x90,0x3d,
0x3f,0x03,0x90,0x34,0x3a,0x6b,0x80,0x34,0x40,0x0a,0x90,0x38,0x3a,0x6e,0x80,
0x3d,0x40,0x00,0x80,0x38,0x40,0x0a,0x90,0x44,0x3f,0x02,0x90,0x34,0x3a,0x6c,
0x80,0x34,0x40,0x0a,0x90,0x38,0x3a,0x6e,0x80,0x38,0x40,0x0a,0x90,0x34,0x3a,
0x6e,0x80,0x44,0x40,0x00,0x80,0x34,0x40,0x0a,0x90,0x3d,0x3f,0x00,0x90,0x38,
0x3a,0x6e,0x80,0x3d,0x40,0x00,0x80,0x38,0x40,0x0a,0x90,0x40,0x3f,0x00,0x90,
0x30,0x3a,0x6e,0x80,0x30,0x40,0x0a,0x90,0x38,0x3a,0x6e,0x80,0x38,0x40,0x0a,
0x90,0x30,0x3a,0x71,0x80,0x30,0x40,0x0a,0x90,0x38,0x3a,0x6e,0x80,0x40,0x40,
0x00,0x80,0x38,0x40,0x0a,0x90,0x3f,0x3f,0x00,0x90,0x30,0x3a,0x6e,0x80,0x30,
0x40,0x0a,0x90,0x38,0x3a,0x6e,0x80,0x38,0x40,0x0a,0x90,0x30,0x3a,0x6b,0x80,
0x30,0x40,0x0a,0x90,0x38,0x3a,0x6e,0x80,0x38,0x40,0x0a,0x90,0x30,0x3a,0x6e,
0x80,0x30,0x40,0x0a,0x90,0x38,0x3a,0x6e,0x80,0x3f,0x40,0x00,0x80,0x38,0x40,
0x0a,0x90,0x3f,0x3f,0x00,0x90,0x30,0x3a,0x6e,0x80,0x30,0x40,0x0a,0x90,0x38,
0x3a,0x6e,0x80,0x3f,0x40,0x00,0x80,0x38,0x40,0x0a,0x90,0x44,0x3f,0x00,0x90,
0x30,0x3a,0x6e,0x80,0x30,0x40,0x0a,0x90,0x38,0x3a,0x71,0x80,0x38,0x40,0x0a,
0x90,0x30,0x3a,0x6e,0x80,0x44,0x40,0x00,0x80,0x30,0x40,0x0a,0x90,0x3f,0x3f,
0x00,0x90,0x38,0x3a,0x6e,0x80,0x3f,0x40,0x00,0x80,0x38,0x40,0x0a,0x90,0x40,
0x3f,0x00,0x90,0x31,0x3a,0x6e,0x80,0x31,0x40,0x0a,0x90,0x38,0x3a,0x5a,0x80,
0x40,0x40,0x0a,0x90,0x50,0x3f,0x00,0x90,0x44,0x3a,0x07,0x80,0x38,0x40,0x0a,
0x90,0x34,0x3a,0x6e,0x80,0x34,0x40,0x0a,0x90,0x38,0x3a,0x6e,0x80,0x38,0x40,
0x0a,0x90,0x31,0x3a,0x6e,0x80,0x31,0x40,0x0a,0x90,0x38,0x3a,0x6e,0x80,0x44,
0x40,0x00,0x80,0x38,0x40,0x00,0x80,0x50,0x40,0x0a,0x90,0x50,0x3f,0x00,0x90,
0x44,0x3a,0x02,0x90,0x34,0x3a,0x6c,0x80,0x34,0x40,0x0a,0x90,0x38,0x3a,0x6e,
0x80,0x38,0x40,0x0a,0x90,0x31,0x3a,0x71,0x80,0x31,0x40,0x0a,0x90,0x38,0x3a,
0x6e,0x80,0x50,0x40,0x00,0x80,0x38,0x40,0x00,0x80,0x44,0x40,0x0a,0x90,0x50,
0x3f,0x00,0x90,0x44,0x3a,0x00,0x90,0x34,0x3a,0x6e,0x80,0x34,0x40,0x0a,0x90,
0x38,0x3a,0x57,0x80,0x50,0x40,0x00,0x80,0x44,0x40,0x0a,0x90,0x4c,0x3f,0x00,
0x90,0x40,0x3a,0x0d,0x80,0x38,0x40,0x0a,0x90,0x31,0x3a,0x6b,0x80,0x31,0x40,
0x0a,0x90,0x38,0x3a,0x5d,0x80,0x40,0x40,0x00,0x80,0x38,0x40,0x00,0x80,0x4c,
0x40,0x0a,0x90,0x49,0x3f,0x00,0x90,0x3d,0x3a,0x11,0x90,0x34,0x3a,0x6e,0x80,
0x34,0x40,0x0a,0x90,0x38,0x3a,0x5d,0x80,0x49,0x40,0x00,0x80,0x38,0x40,0x00,
0x80,0x3d,0x40,0x0a,0x90,0x49,0x3f,0x00,0x90,0x3d,0x3a,0x11,0x90,0x33,0x3a,
0x6e,0x80,0x33,0x40,0x0a,0x90,0x38,0x3a,0x5a,0x80,0x49,0x40,0x00,0x80,0x3d,
0x40,0x02,0x80,0x38,0x40,0x08,0x90,0x48,0x3f,0x02,0x90,0x3c,0x3a,0x12,0x90,
0x36,0x3a,0x6e,0x80,0x36,0x40,0x0a,0x90,0x38,0x3a,0x6e,0x80,0x38,0x40,0x0a,
0x90,0x33,0x3a,0x71,0x80,0x33,0x40,0x0a,0x90,0x38,0x3a,0x6e,0x80,0x48,0x40,
0x00,0x80,0x38,0x40,0x00,0x80,0x3c,0x40,0x0a,0x90,0x48,0x3f,0x00,0x90,0x3c,
0x3a,0x00,0x90,0x36,0x3a,0x6e,0x80,0x36,0x40,0x0a,0x90,0x38,0x3a,0x6e,0x80,
0x38,0x40,0x0a,0x90,0x33,0x3a,0x6b,0x80,0x33,0x40,0x0a,0x90,0x38,0x3a,0x6e,
0x80,0x48,0x40,0x00,0x80,0x38,0x40,0x00,0x80,0x3c,0x40,0x0a,0x90,0x48,0x3f,
0x02,0x90,0x3c,0x3a,0x00,0x90,0x36,0x3a,0x6c,0x80,0x36,0x40,0x0a,0x90,0x38,
0x3a,0x5a,0x80,0x48,0x40,0x00,0x80,0x3c,0x40,0x03,0x80,0x38,0x40,0x07,0x90,
0x50,0x3f,0x03,0x90,0x44,0x3a,0x11,0x90,0x33,0x3a,0x6e,0x80,0x33,0x40,0x0a,
0x90,0x38,0x3a,0x5a,0x80,0x50,0x40,0x00,0x80,0x44,0x40,0x02,0x80,0x38,0x40,
0x08,0x90,0x48,0x3f,0x02,0x90,0x3c,0x3a,0x12,0x90,0x36,0x3a,0x6e,0x80,0x36,
0x40,0x0a,0x90,0x38,0x3a,0x5a,0x80,0x48,0x40,0x00,0x80,0x3c,0x40,0x02,0x80,
0x38,0x40,0x08,0x90,0x4b,0x3f,0x02,0x90,0x3f,0x3a,0x15,0x90,0x34,0x3a,0x6e,
0x80,0x34,0x40,0x0a,0x90,0x38,0x3a,0x57,0x80,0x4b,0x40,0x00,0x80,0x3f,0x40,
0x0a,0x90,0x49,0x3f,0x00,0x90,0x3d,0x3a,0x0d,0x80,0x38,0x40,0x0a,0x90,0x34,
0x3a,0x6e,0x80,0x34,0x40,0x0a,0x90,0x38,0x3a,0x6b,0x80,0x38,0x40,0x0a,0x90,
0x34,0x3a,0x6e,0x80,0x34,0x40,0x0a,0x90,0x38,0x3a,0x6e,0x80,0x3d,0x40,0x00,
0x80,0x38,0x40,0x00,0x80,0x49,0x40,0x0a,0x90,0x49,0x3f,0x02,0x90,0x3d,0x3a,
0x00,0x90,0x34,0x3a,0x6c,0x80,0x34,0x40,0x0a,0x90,0x38,0x3a,0x6e,0x80,0x38,
0x40,0x0a,0x90,0x34,0x3a,0x6e,0x80,0x34,0x40,0x0a,0x90,0x38,0x3a,0x6e,0x80,
0x49,0x40,0x00,0x80,0x38,0x40,0x00,0x80,0x3d,0x40,0x0a,0x90,0x49,0x3f,0x00,
0x90,0x3d,0x3a,0x02,0x90,0x34,0x3a,0x6f,0x80,0x34,0x40,0x0a,0x90,0x38,0x3a,
0x57,0x80,0x49,0x40,0x00,0x80,0x3d,0x40,0x0a,0x90,0x50,0x3f,0x00,0x90,0x44,
0x3a,0x0d,0x80,0x38,0x40,0x0a,0x90,0x34,0x3a,0x6e,0x80,0x34,0x40,0x0a,0x90,
0x38,0x3a,0x57,0x80,0x44,0x40,0x00,0x80,0x50,0x40,0x0a,0x90,0x49,0x3f,0x00,
0x90,0x3d,0x3a,0x0d,0x80,0x38,0x40,0x0a,0x90,0x34,0x3a,0x6b,0x80,0x34,0x40,
0x0a,0x90,0x38,0x3a,0x5d,0x80,0x3d,0x40,0x00,0x80,0x38,0x40,0x00,0x80,0x49,
0x40,0x0a,0x90,0x4c,0x3f,0x00,0x90,0x40,0x3a,0x11,0x90,0x30,0x3a,0x6e,0x80,
0x30,0x40,0x0a,0x90,0x38,0x3a,0x5d,0x80,0x4c,0x40,0x00,0x80,0x38,0x40,0x00,
0x80,0x40,0x40,0x0a,0x90,0x4b,0x3f,0x00,0x90,0x3f,0x3a,0x11,0x90,0x30,0x3a,
0x6e,0x80,0x30,0x40,0x0a,0x90,0x38,0x3a,0x6e,0x80,0x38,0x40,0x0a,0x90,0x30,
0x3a,0x6e,0x80,0x30,0x40,0x0a,0x90,0x38,0x3a,0x6e,0x80,0x4b,0x40,0x00,0x80,
0x38,0x40,0x00,0x80,0x3f,0x40,0x0a,0x90,0x4b,0x3f,0x00,0x90,0x3f,0x3a,0x02,
0x90,0x30,0x3a,0x6f,0x80,0x30,0x40,0x0a,0x90,0x38,0x3a,0x6e,0x80,0x38,0x40,
0x0a,0x90,0x30,0x3a,0x6e,0x80,0x30,0x40,0x0a,0x90,0x38,0x3a,0x6b,0x80,0x4b,
0x40,0x00,0x80,0x38,0x40,0x00,0x80,0x3f,0x40,0x0a,0x90,0x4b,0x3f,0x03,0x90,
0x3f,0x3a,0x00,0x90,0x30,0x3a,0x6b,0x80,0x30,0x40,0x0a,0x90,0x38,0x3a,0x5e,
0x80,0x4b,0x40,0x00,0x80,0x38,0x40,0x00,0x80,0x3f,0x40,0x0a,0x90,0x50,0x3f,
0x00,0x90,0x44,0x3a,0x10,0x90,0x30,0x3a,0x6e,0x80,0x30,0x40,0x0a,0x90,0x38,
0x3a,0x5a,0x80,0x50,0x40,0x00,0x80,0x44,0x40,0x03,0x80,0x38,0x40,0x07,0x90,
0x4b,0x3f,0x03,0x90,0x3f,0x3a,0x11,0x90,0x30,0x3a,0x6e,0x80,0x30,0x40,0x0a,
0x90,0x38,0x3a,0x5a,0x80,0x4b,0x40,0x00,0x80,0x3f,0x40,0x02,0x80,0x38,0x40,
0x08,0x90,0x4d,0x3f,0x02,0x90,0x41,0x3a,0x12,0x90,0x2f,0x3a,0x6e,0x80,0x2f,
0x40,0x0a,0x90,0x38,0x3a,0x71,0x80,0x38,0x40,0x0a,0x90,0x31,0x3a,0x6e,0x80,
0x31,0x40,0x0a,0x90,0x38,0x3a,0x6e,0x80,0x38,0x40,0x0a,0x90,0x2f,0x3a,0x6e,
0x80,0x2f,0x40,0x0a,0x90,0x38,0x3a,0x6b,0x80,0x38,0x40,0x0a,0x90,0x31,0x3a,
0x6e,0x80,0x31,0x40,0x0a,0x90,0x38,0x3a,0x6e,0x80,0x4d,0x40,0x00,0x80,0x38,
0x40,0x00,0x80,0x41,0x40,0x0a,0x90,0x4e,0x3f,0x02,0x90,0x42,0x3a,0x00,0x90,
0x2d,0x3a,0x6c,0x80,0x2d,0x40,0x0a,0x90,0x36,0x3a,0x6e,0x80,0x36,0x40,0x0a,
0x90,0x31,0x3a,0x6e,0x80,0x31,0x40,0x0a,0x90,0x36,0x3a,0x6e,0x80,0x36,0x40,
0x0a,0x90,0x2d,0x3a,0x71,0x80,0x2d,0x40,0x0a,0x90,0x36,0x3a,0x6e,0x80,0x36,
0x40,0x0a,0x90,0x31,0x3a,0x6e,0x80,0x31,0x40,0x0a,0x90,0x36,0x3a,0x6b,0x80,
0x4e,0x40,0x00,0x80,0x36,0x40,0x00,0x80,0x42,0x40,0x0a,0x90,0x4b,0x3f,0x03,
0x90,0x3f,0x3a,0x00,0x90,0x2d,0x3a,0x39,0x90,0x4c,0x3f,0x32,0x80,0x4b,0x40,
0x00,0x80,0x2d,0x40,0x0a,0x90,0x36,0x3a,0x14,0x90,0x4b,0x3f,0x5a,0x80,0x4c,
0x40,0x00,0x80,0x4b,0x40,0x00,0x80,0x36,0x40,0x0a,0x90,0x49,0x3f,0x02,0x90,
0x2f,0x3a,0x5b,0x80,0x2f,0x40,0x0a,0x90,0x4b,0x3f,0x09,0x80,0x49,0x40,0x0a,
0x90,0x36,0x3a,0x5b,0x80,0x3f,0x40,0x00,0x80,0x36,0x40,0x0a,0x90,0x4c,0x3f,
0x07,0x80,0x4b,0x40,0x0a,0x90,0x40,0x3a,0x02,0x90,0x2c,0x3a,0x6c,0x80,0x2c,
0x40,0x0a,0x90,0x34,0x3a,0x6e,0x80,0x34,0x40,0x0a,0x90,0x2f,0x3a,0x6e,0x80,
0x2f,0x40,0x0a,0x90,0x34,0x3a,0x6e,0x80,0x34,0x40,0x0a,0x90,0x2c,0x3a,0x71,
0x80,0x2c,0x40,0x0a,0x90,0x34,0x3a,0x6e,0x80,0x34,0x40,0x0a,0x90,0x2f,0x3a,
0x6e,0x80,0x2f,0x40,0x0a,0x90,0x34,0x3a,0x6e,0x80,0x34,0x40,0x0a,0x90,0x2c,
0x3a,0x6b,0x80,0x2c,0x40,0x0a,0x90,0x34,0x3a,0x6e,0x80,0x34,0x40,0x0a,0x90,
0x2f,0x3a,0x6e,0x80,0x2f,0x40,0x0a,0x90,0x34,0x3a,0x6e,0x80,0x4c,0x40,0x00,
0x80,0x34,0x40,0x00,0x80,0x40,0x40,0x0a,0x90,0x49,0x3f,0x00,0x90,0x3d,0x3a,
0x02,0x90,0x2b,0x3a,0x6c,0x80,0x2b,0x40,0x0a,0x90,0x34,0x3a,0x6e,0x80,0x34,
0x40,0x0a,0x90,0x2d,0x3a,0x6e,0x80,0x2d,0x40,0x0a,0x90,0x34,0x3a,0x71,0x80,
0x34,0x40,0x0a,0x90,0x2b,0x3a,0x6e,0x80,0x2b,0x40,0x0a,0x90,0x34,0x3a,0x6e,
0x80,0x34,0x40,0x0a,0x90,0x2d,0x3a,0x6e,0x80,0x2d,0x40,0x0a,0x90,0x34,0x3a,
0x6b,0x80,0x49,0x40,0x00,0x80,0x34,0x40,0x00,0x80,0x3d,0x40,0x0a,0x90,0x4a,
0x3f,0x02,0x90,0x3e,0x3a,0x00,0x90,0x2a,0x3a,0x6c,0x80,0x2a,0x40,0x0a,0x90,
0x32,0x3a,0x6e,0x80,0x32,0x40,0x0a,0x90,0x2d,0x3a,0x6e,0x80,0x2d,0x40,0x0a,
0x90,0x32,0x3a,0x6e,0x80,0x32,0x40,0x0a,0x90,0x2a,0x3a,0x6e,0x80,0x2a,0x40,
0x0a,0x90,0x32,0x3a,0x6e,0x80,0x32,0x40,0x0a,0x90,0x2d,0x3a,0x71,0x80,0x2d,
0x40,0x0a,0x90,0x32,0x3a,0x6e,0x80,0x4a,0x40,0x00,0x80,0x32,0x40,0x00,0x80,
0x3e,0x40,0x0a,0x90,0x48,0x3f,0x00,0x90,0x3c,0x3a,0x00,0x90,0x2a,0x3a,0x43,
0x80,0x48,0x40,0x0a,0x90,0x49,0x3f,0x21,0x80,0x2a,0x40,0x0a,0x90,0x33,0x3a,
0x1b,0x80,0x49,0x40,0x0a,0x90,0x48,0x3f,0x46,0x80,0x33,0x40,0x00,0x80,0x48,
0x40,0x0a,0x90,0x46,0x3f,0x03,0x90,0x2c,0x3a,0x6b,0x80,0x46,0x40,0x00,0x80,
0x2c,0x40,0x0a,0x90,0x48,0x3f,0x02,0x90,0x33,0x3a,0x6c,0x80,0x3c,0x40,0x00,
0x80,0x33,0x40,0x00,0x80,0x48,0x40,0x0a,0x90,0x49,0x3f,0x02,0x90,0x3d,0x3a,
0x00,0x90,0x28,0x3a,0x6c,0x80,0x28,0x40,0x0a,0x90,0x31,0x3a,0x6e,0x80,0x31,
0x40,0x0a,0x90,0x2c,0x3a,0x6e,0x80,0x2c,0x40,0x0a,0x90,0x31,0x3a,0x6e,0x80,
0x31,0x40,0x0a,0x90,0x28,0x3a,0x6e,0x80,0x28,0x40,0x0a,0x90,0x31,0x3a,0x6e,
0x80,0x31,0x40,0x0a,0x90,0x2c,0x3a,0x71,0x80,0x2c,0x40,0x0a,0x90,0x31,0x3a,
0x6e,0x80,0x31,0x40,0x0a,0x90,0x28,0x3a,0x6e,0x80,0x28,0x40,0x0a,0x90,0x31,
0x3a,0x6b,0x80,0x31,0x40,0x0a,0x90,0x2c,0x3a,0x6e,0x80,0x2c,0x40,0x0a,0x90,
0x31,0x3a,0x5d,0x80,0x49,0x40,0x00,0x80,0x3d,0x40,0x03,0x80,0x31,0x40,0x07,
0x90,0x42,0x57,0x03,0x90,0x36,0x57,0x04,0x90,0x32,0x57,0x00,0x90,0x2d,0x57,
0x00,0x90,0x2a,0x57,0x0a,0x90,0x4a,0x57,0x02,0x90,0x45,0x57,0x00,0x90,0x3e,
0x57,0x88,0x2c,0x80,0x42,0x40,0x00,0x80,0x3e,0x40,0x00,0x80,0x45,0x40,0x00,
0x80,0x4a,0x40,0x0a,0x90,0x45,0x3f,0x6e,0x80,0x45,0x40,0x0a,0x90,0x47,0x3f,
0x6e,0x80,0x47,0x40,0x0a,0x90,0x49,0x3f,0x6e,0x80,0x2a,0x40,0x00,0x80,0x49,
0x40,0x00,0x80,0x36,0x40,0x00,0x80,0x32,0x40,0x00,0x80,0x2d,0x40,0x0a,0x90,
0x4a,0x3f,0x6e,0x80,0x4a,0x40,0x0a,0x90,0x4c,0x3f,0x6e,0x80,0x4c,0x40,0x0a,
0x90,0x4e,0x3f,0x6e,0x80,0x4e,0x40,0x0a,0x90,0x4c,0x3f,0x5c,0x80,0x4c,0x40,
0x0a,0x90,0x3e,0x3a,0x00,0x90,0x39,0x3a,0x00,0x90,0x36,0x3a,0x12,0x90,0x4a,
0x3f,0x71,0x80,0x4a,0x40,0x0a,0x90,0x45,0x3f,0x6e,0x80,0x45,0x40,0x0a,0x90,
0x47,0x3f,0x6e,0x80,0x47,0x40,0x0a,0x90,0x49,0x3f,0x6b,0x80,0x39,0x40,0x00,
0x80,0x49,0x40,0x00,0x80,0x36,0x40,0x00,0x80,0x3e,0x40,0x0a,0x90,0x4a,0x3f,
0x6e,0x80,0x4a,0x40,0x0a,0x90,0x4c,0x3f,0x6e,0x80,0x4c,0x40,0x0a,0x90,0x4e,
0x3f,0x6e,0x80,0x4e,0x40,0x0a,0x90,0x4c,0x3f,0x5d,0x80,0x4c,0x40,0x0a,0x90,
0x3e,0x3a,0x00,0x90,0x39,0x3a,0x03,0x90,0x36,0x3a,0x0e,0x90,0x4a,0x3f,0x6e,
0x80,0x4a,0x40,0x0a,0x90,0x45,0x3f,0x6e,0x80,0x45,0x40,0x0a,0x90,0x47,0x3f,
0x6e,0x80,0x47,0x40,0x0a,0x90,0x49,0x3f,0x6e,0x80,0x39,0x40,0x00,0x80,0x49,
0x40,0x00,0x80,0x36,0x40,0x00,0x80,0x3e,0x40,0x0a,0x90,0x4a,0x3f,0x71,0x80,
0x4a,0x40,0x0a,0x90,0x4c,0x3f,0x6e,0x80,0x4c,0x40,0x0a,0x90,0x4e,0x3f,0x6e,
0x80,0x4e,0x40,0x0a,0x90,0x4c,0x3f,0x5c,0x80,0x4c,0x40,0x0a,0x90,0x3e,0x3a,
0x05,0x90,0x39,0x3a,0x00,0x90,0x36,0x3a,0x0a,0x90,0x4a,0x3f,0x6e,0x80,0x4a,
0x40,0x0a,0x90,0x45,0x3f,0x6e,0x80,0x45,0x40,0x0a,0x90,0x47,0x3f,0x6e,0x80,
0x47,0x40,0x0a,0x90,0x49,0x3f,0x6e,0x80,0x39,0x40,0x00,0x80,0x49,0x40,0x00,
0x80,0x36,0x40,0x00,0x80,0x3e,0x40,0x0a,0x90,0x4a,0x3f,0x00,0x90,0x3e,0x3a,
0x02,0x90,0x39,0x3a,0x00,0x90,0x36,0x3a,0x6c,0x80,0x4a,0x40,0x0a,0x90,0x4c,
0x3f,0x6e,0x80,0x4c,0x40,0x0a,0x90,0x4e,0x3f,0x6e,0x80,0x4e,0x40,0x0a,0x90,
0x4f,0x3f,0x71,0x80,0x36,0x40,0x00,0x80,0x4f,0x40,0x00,0x80,0x39,0x40,0x00,
0x80,0x3e,0x40,0x0a,0x90,0x51,0x3f,0x00,0x90,0x3e,0x3a,0x00,0x90,0x39,0x3a,
0x03,0x90,0x36,0x3a,0x6b,0x80,0x51,0x40,0x0a,0x90,0x50,0x3f,0x6e,0x80,0x50,
0x40,0x0a,0x90,0x53,0x3f,0x6b,0x80,0x53,0x40,0x0a,0x90,0x51,0x3f,0x6e,0x80,
0x36,0x40,0x00,0x80,0x51,0x40,0x00,0x80,0x39,0x40,0x00,0x80,0x3e,0x40,0x0a,
0x90,0x4f,0x3f,0x02,0x90,0x3e,0x3a,0x00,0x90,0x39,0x3a,0x00,0x90,0x36,0x3a,
0x6c,0x80,0x4f,0x40,0x0a,0x90,0x4e,0x3f,0x6e,0x80,0x4e,0x40,0x0a,0x90,0x4c,
0x3f,0x6e,0x80,0x4c,0x40,0x0a,0x90,0x4a,0x3f,0x6e,0x80,0x36,0x40,0x00,0x80,
0x4a,0x40,0x00,0x80,0x39,0x40,0x00,0x80,0x3e,0x40,0x0a,0x90,0x49,0x3f,0x00,
0x90,0x38,0x3a,0x6e,0x80,0x38,0x40,0x0a,0x90,0x40,0x3a,0x6e,0x80,0x40,0x40,
0x0a,0x90,0x3d,0x3a,0x71,0x80,0x3d,0x40,0x0a,0x90,0x40,0x3a,0x6e,0x80,0x40,
0x40,0x0a,0x90,0x38,0x3a,0x6e,0x80,0x38,0x40,0x0a,0x90,0x40,0x3a,0x6e,0x80,
0x40,0x40,0x0a,0x90,0x3d,0x3a,0x6b,0x80,0x3d,0x40,0x0a,0x90,0x40,0x3a,0x6e,
0x80,0x49,0x40,0x00,0x80,0x40,0x40,0x0a,0x90,0x4b,0x3f,0x02,0x90,0x38,0x3a,
0x3a,0x90,0x4c,0x3f,0x32,0x80,0x4b,0x40,0x00,0x80,0x38,0x40,0x0a,0x90,0x42,
0x3a,0x14,0x90,0x4b,0x3f,0x49,0x80,0x4c,0x40,0x00,0x80,0x42,0x40,0x0a,0x90,
0x4c,0x3f,0x07,0x80,0x4b,0x40,0x0a,0x90,0x3c,0x3a,0x3c,0x90,0x4b,0x3f,0x32,
0x80,0x4c,0x40,0x00,0x80,0x3c,0x40,0x0a,0x90,0x42,0x3a,0x17,0x90,0x4c,0x3f,
0x43,0x80,0x4b,0x40,0x0a,0x90,0x4b,0x3f,0x0a,0x80,0x4c,0x40,0x00,0x80,0x42,
0x40,0x0a,0x90,0x38,0x3a,0x3c,0x90,0x4c,0x3f,0x32,0x80,0x4b,0x40,0x00,0x80,
0x38,0x40,0x0a,0x90,0x42,0x3a,0x17,0x90,0x4b,0x3f,0x43,0x80,0x4c,0x40,0x0a,
0x90,0x49,0x3f,0x0a,0x80,0x4b,0x40,0x00,0x80,0x42,0x40,0x0a,0x90,0x3c,0x3a,
0x5a,0x80,0x3c,0x40,0x0a,0x90,0x4b,0x3f,0x0a,0x80,0x49,0x40,0x0a,0x90,0x42,
0x3a,0x5a,0x80,0x4b,0x40,0x02,0x80,0x42,0x40,0x08,0x90,0x40,0x3a,0x02,0x90,
0x3d,0x3a,0x03,0x90,0x39,0x3a,0x12,0x90,0x49,0x3f,0x83,0x42,0x80,0x40,0x40,
0x00,0x80,0x49,0x40,0x00,0x80,0x39,0x40,0x00,0x80,0x3d,0x40,0x0a,0x90,0x39,
0x57,0x00,0x90,0x36,0x57,0x03,0x90,0x2a,0x57,0x00,0x90,0x32,0x57,0x00,0x90,
0x26,0x57,0x04,0x90,0x21,0x57,0x00,0x90,0x1e,0x57,0x03,0x90,0x3e,0x3f,0x84,
0x55,0x80,0x39,0x40,0x00,0x80,0x3e,0x40,0x00,0x80,0x36,0x40,0x00,0x80,0x32,
0x40,0x0a,0x90,0x39,0x3f,0x71,0x80,0x39,0x40,0x0a,0x90,0x3b,0x3f,0x6e,0x80,
0x3b,0x40,0x0a,0x90,0x3d,0x3f,0x6e,0x80,0x26,0x40,0x00,0x80,0x3d,0x40,0x00,
0x80,0x1e,0x40,0x00,0x80,0x2a,0x40,0x00,0x80,0x21,0x40,0x0a,0x90,0x3e,0x3f,
0x6b,0x80,0x3e,0x40,0x0a,0x90,0x40,0x3f,0x6e,0x80,0x40,0x40,0x0a,0x90,0x42,
0x3f,0x6e,0x80,0x42,0x40,0x0a,0x90,0x40,0x3f,0x6e,0x80,0x40,0x40,0x0a,0x90,
0x3e,0x3f,0x6e,0x80,0x3e,0x40,0x0a,0x90,0x39,0x3f,0x6e,0x80,0x39,0x40,0x0a,
0x90,0x3b,0x3f,0x6e,0x80,0x3b,0x40,0x0a,0x90,0x3d,0x3f,0x5c,0x80,0x3d,0x40,
0x0a,0x90,0x32,0x3a,0x00,0x90,0x2d,0x3a,0x00,0x90,0x2a,0x3a,0x12,0x90,0x3e,
0x3f,0x71,0x80,0x3e,0x40,0x0a,0x90,0x40,0x3f,0x6e,0x80,0x40,0x40,0x0a,0x90,
0x42,0x3f,0x6e,0x80,0x42,0x40,0x0a,0x90,0x40,0x3f,0x6b,0x80,0x2d,0x40,0x00,
0x80,0x40,0x40,0x00,0x80,0x2a,0x40,0x00,0x80,0x32,0x40,0x0a,0x90,0x3e,0x3f,
0x6e,0x80,0x3e,0x40,0x0a,0x90,0x39,0x3f,0x6e,0x80,0x39,0x40,0x0a,0x90,0x3b,
0x3f,0x6e,0x80,0x3b,0x40,0x0a,0x90,0x3d,0x3f,0x5e,0x80,0x3d,0x40,0x0a,0x90,
0x32,0x3a,0x00,0x90,0x2d,0x3a,0x04,0x90,0x2a,0x3a,0x0c,0x90,0x3e,0x3f,0x6e,
0x80,0x3e,0x40,0x0a,0x90,0x40,0x3f,0x6e,0x80,0x40,0x40,0x0a,0x90,0x42,0x3f,
0x6e,0x80,0x42,0x40,0x0a,0x90,0x40,0x3f,0x71,0x80,0x2d,0x40,0x00,0x80,0x40,
0x40,0x00,0x80,0x2a,0x40,0x00,0x80,0x32,0x40,0x0a,0x90,0x3e,0x3f,0x6e,0x80,
0x3e,0x40,0x0a,0x90,0x39,0x3f,0x57,0x80,0x39,0x40,0x0a,0x90,0x32,0x3a,0x02,
0x90,0x2d,0x3a,0x00,0x90,0x2a,0x3a,0x15,0x90,0x3b,0x3f,0x6b,0x80,0x3b,0x40,
0x0a,0x90,0x3d,0x3f,0x6e,0x80,0x2d,0x40,0x00,0x80,0x3d,0x40,0x00,0x80,0x2a,
0x40,0x00,0x80,0x32,0x40,0x0a,0x90,0x3e,0x3f,0x6e,0x80,0x3e,0x40,0x0a,0x90,
0x40,0x3f,0x5d,0x80,0x40,0x40,0x0a,0x90,0x32,0x3a,0x00,0x90,0x2d,0x3a,0x03,
0x90,0x2a,0x3a,0x0e,0x90,0x42,0x3f,0x6e,0x80,0x42,0x40,0x0a,0x90,0x43,0x3f,
0x6e,0x80,0x2d,0x40,0x00,0x80,0x43,0x40,0x00,0x80,0x2a,0x40,0x00,0x80,0x32,
0x40,0x0a,0x90,0x45,0x3f,0x6e,0x80,0x45,0x40,0x0a,0x90,0x47,0x3f,0x5c,0x80,
0x47,0x40,0x0a,0x90,0x32,0x3a,0x00,0x90,0x2d,0x3a,0x00,0x90,0x2a,0x3a,0x12,
0x90,0x49,0x3f,0x6e,0x80,0x49,0x40,0x0a,0x90,0x4a,0x3f,0x71,0x80,0x2d,0x40,
0x00,0x80,0x4a,0x40,0x00,0x80,0x2a,0x40,0x00,0x80,0x32,0x40,0x0a,0x90,0x4c,
0x3f,0x6e,0x80,0x4c,0x40,0x0a,0x90,0x4e,0x3f,0x57,0x80,0x4e,0x40,0x0a,0x90,
0x32,0x3a,0x02,0x90,0x2d,0x3a,0x00,0x90,0x2a,0x3a,0x15,0x90,0x4f,0x3f,0x6b,
0x80,0x4f,0x40,0x0a,0x90,0x50,0x3f,0x6e,0x80,0x2d,0x40,0x00,0x80,0x50,0x40,
0x00,0x80,0x2a,0x40,0x00,0x80,0x32,0x40,0x0a,0x90,0x51,0x4f,0x02,0x90,0x45,
0x4f,0x00,0x90,0x2a,0x47,0x6c,0x80,0x2a,0x40,0x0a,0x90,0x32,0x47,0x6e,0x80,
0x32,0x40,0x0a,0x90,0x2d,0x47,0x6e,0x80,0x2d,0x40,0x0a,0x90,0x32,0x47,0x6e,
0x80,0x32,0x40,0x0a,0x90,0x2a,0x47,0x6e,0x80,0x2a,0x40,0x0a,0x90,0x32,0x47,
0x6e,0x80,0x32,0x40,0x0a,0x90,0x2d,0x47,0x71,0x80,0x2d,0x40,0x0a,0x90,0x32,
0x47,0x6e,0x80,0x51,0x40,0x00,0x80,0x32,0x40,0x00,0x80,0x45,0x40,0x0a,0x90,
0x49,0x4f,0x00,0x90,0x3d,0x4f,0x00,0x90,0x2b,0x47,0x6e,0x80,0x2b,0x40,0x0a,
0x90,0x34,0x47,0x6e,0x80,0x34,0x40,0x0a,0x90,0x2e,0x47,0x6b,0x80,0x2e,0x40,
0x0a,0x90,0x34,0x47,0x6e,0x80,0x34,0x40,0x0a,0x90,0x2b,0x47,0x6e,0x80,0x2b,
0x40,0x0a,0x90,0x34,0x47,0x6e,0x80,0x34,0x40,0x0a,0x90,0x2e,0x47,0x6e,0x80,
0x2e,0x40,0x0a,0x90,0x34,0x47,0x6e,0x80,0x49,0x40,0x00,0x80,0x34,0x40,0x00,
0x80,0x3d,0x40,0x0a,0x90,0x4c,0x4f,0x00,0x90,0x40,0x4f,0x02,0x90,0x2c,0x47,
0x6c,0x80,0x2c,0x40,0x0a,0x90,0x34,0x47,0x71,0x80,0x34,0x40,0x0a,0x90,0x31,
0x47,0x6e,0x80,0x31,0x40,0x0a,0x90,0x34,0x47,0x6e,0x80,0x34,0x40,0x0a,0x90,
0x2c,0x47,0x6e,0x80,0x2c,0x40,0x0a,0x90,0x34,0x47,0x6b,0x80,0x34,0x40,0x0a,
0x90,0x31,0x47,0x6e,0x80,0x31,0x40,0x0a,0x90,0x34,0x47,0x5d,0x80,0x4c,0x40,
0x00,0x80,0x40,0x40,0x0a,0x90,0x30,0x4f,0x07,0x80,0x34,0x40,0x0a,0x90,0x3c,
0x4f,0x02,0x90,0x36,0x4f,0x00,0x90,0x20,0x47,0x6c,0x80,0x20,0x40,0x0a,0x90,
0x2c,0x47,0x6e,0x80,0x2c,0x40,0x0a,0x90,0x2b,0x47,0x6e,0x80,0x2b,0x40,0x0a,
0x90,0x2c,0x47,0x6e,0x80,0x2c,0x40,0x0a,0x90,0x2b,0x47,0x6e,0x80,0x2b,0x40,
0x0a,0x90,0x2c,0x47,0x71,0x80,0x2c,0x40,0x0a,0x90,0x2b,0x47,0x6e,0x80,0x2b,
0x40,0x0a,0x90,0x2c,0x47,0x6e,0x80,0x3c,0x40,0x00,0x80,0x2c,0x40,0x00,0x80,
0x36,0x40,0x00,0x80,0x30,0x40,0x0a,0x90,0x3d,0x4f,0x00,0x90,0x34,0x4f,0x00,
0x90,0x31,0x4f,0x03,0x90,0x25,0x47,0x81,0x60,0x80,0x3d,0x40,0x00,0x80,0x25,
0x40,0x00,0x80,0x31,0x40,0x00,0x80,0x34,0x40,0x0a,0x90,0x40,0x3f,0x02,0x90,
0x38,0x3a,0x00,0x90,0x31,0x3a,0x81,0x53,0x80,0x40,0x40,0x00,0x80,0x31,0x40,
0x00,0x80,0x38,0x40,0x0a,0x90,0x40,0x3f,0x00,0x90,0x38,0x3a,0x00,0x90,0x31,
0x3a,0x81,0x63,0x80,0x40,0x40,0x00,0x80,0x31,0x40,0x00,0x80,0x38,0x40,0x0a,
0x90,0x40,0x3f,0x02,0x90,0x38,0x3a,0x00,0x90,0x31,0x3a,0x81,0x64,0x80,0x40,
0x40,0x00,0x80,0x31,0x40,0x00,0x80,0x38,0x40,0x0a,0x90,0x40,0x3f,0x04,0x90,
0x38,0x3a,0x00,0x90,0x31,0x3a,0x81,0x62,0x80,0x40,0x40,0x00,0x80,0x31,0x40,
0x00,0x80,0x38,0x40,0x0a,0x90,0x40,0x3f,0x00,0x90,0x38,0x3a,0x02,0x90,0x31,
0x3a,0x81,0x64,0x80,0x40,0x40,0x00,0x80,0x31,0x40,0x00,0x80,0x38,0x40,0x0a,
0x90,0x3f,0x3f,0x00,0x90,0x38,0x3a,0x02,0x90,0x33,0x3a,0x81,0x67,0x80,0x3f,
0x40,0x00,0x80,0x33,0x40,0x00,0x80,0x38,0x40,0x0a,0x90,0x3d,0x3f,0x00,0x90,
0x38,0x3a,0x00,0x90,0x34,0x3a,0x81,0x66,0x80,0x3d,0x40,0x00,0x80,0x34,0x40,
0x00,0x80,0x38,0x40,0x0a,0x90,0x3c,0x3f,0x00,0x90,0x38,0x3a,0x00,0x90,0x36,
0x3a,0x03,0x90,0x2c,0x3a,0x81,0x74,0x80,0x3c,0x40,0x00,0x80,0x2c,0x40,0x00,
0x80,0x36,0x40,0x00,0x80,0x38,0x40,0x0a,0x90,0x44,0x3f,0x00,0x90,0x3c,0x3a,
0x02,0x90,0x38,0x3a,0x00,0x90,0x36,0x3a,0x81,0x67,0x80,0x44,0x40,0x00,0x80,
0x36,0x40,0x00,0x80,0x38,0x40,0x00,0x80,0x3c,0x40,0x0a,0x90,0x44,0x3f,0x00,
0x90,0x3c,0x3a,0x03,0x90,0x38,0x3a,0x00,0x90,0x36,0x3a,0x81,0x63,0x80,0x44,
0x40,0x00,0x80,0x36,0x40,0x00,0x80,0x38,0x40,0x00,0x80,0x3c,0x40,0x0a,0x90,
0x44,0x3f,0x00,0x90,0x3c,0x3a,0x00,0x90,0x38,0x3a,0x03,0x90,0x36,0x3a,0x81,
0x60,0x80,0x44,0x40,0x00,0x80,0x36,0x40,0x00,0x80,0x38,0x40,0x00,0x80,0x3c,
0x40,0x0a,0x90,0x44,0x3f,0x02,0x90,0x3c,0x3a,0x00,0x90,0x38,0x3a,0x03,0x90,
0x36,0x3a,0x81,0x61,0x80,0x44,0x40,0x00,0x80,0x36,0x40,0x00,0x80,0x38,0x40,
0x00,0x80,0x3c,0x40,0x0a,0x90,0x44,0x3f,0x02,0x90,0x3c,0x3a,0x00,0x90,0x38,
0x3a,0x00,0x90,0x36,0x3a,0x81,0x64,0x80,0x44,0x40,0x00,0x80,0x36,0x40,0x00,
0x80,0x38,0x40,0x00,0x80,0x3c,0x40,0x0a,0x90,0x44,0x3f,0x00,0x90,0x3d,0x3a,
0x02,0x90,0x38,0x3a,0x00,0x90,0x34,0x3a,0x81,0x64,0x80,0x44,0x40,0x00,0x80,
0x34,0x40,0x00,0x80,0x38,0x40,0x00,0x80,0x3d,0x40,0x0a,0x90,0x44,0x3f,0x00,
0x90,0x3f,0x3a,0x02,0x90,0x38,0x3a,0x00,0x90,0x33,0x3a,0x81,0x67,0x80,0x44,
0x40,0x00,0x80,0x33,0x40,0x00,0x80,0x38,0x40,0x00,0x80,0x3f,0x40,0x0a,0x90,
0x44,0x3f,0x00,0x90,0x40,0x3a,0x00,0x90,0x31,0x3a,0x03,0x90,0x25,0x3a,0x81,
0x60,0x80,0x44,0x40,0x00,0x80,0x25,0x40,0x00,0x80,0x31,0x40,0x00,0x80,0x40,
0x40,0x0a,0x90,0x40,0x3f,0x03,0x90,0x38,0x3a,0x00,0x90,0x31,0x3a,0x81,0x63,
0x80,0x40,0x40,0x00,0x80,0x31,0x40,0x00,0x80,0x38,0x40,0x0a,0x90,0x40,0x3f,
0x02,0x90,0x38,0x3a,0x00,0x90,0x31,0x3a,0x81,0x64,0x80,0x40,0x40,0x00,0x80,
0x31,0x40,0x00,0x80,0x38,0x40,0x0a,0x90,0x40,0x3f,0x02,0x90,0x38,0x3a,0x00,
0x90,0x31,0x3a,0x81,0x64,0x80,0x40,0x40,0x00,0x80,0x31,0x40,0x00,0x80,0x38,
0x40,0x0a,0x90,0x40,0x3f,0x00,0x90,0x38,0x3a,0x02,0x90,0x31,0x3a,0x81,0x64,
0x80,0x40,0x40,0x00,0x80,0x31,0x40,0x00,0x80,0x38,0x40,0x0a,0x90,0x40,0x3f,
0x00,0x90,0x38,0x3a,0x02,0x90,0x31,0x3a,0x81,0x67,0x80,0x40,0x40,0x00,0x80,
0x31,0x40,0x00,0x80,0x38,0x40,0x0a,0x90,0x3f,0x3f,0x00,0x90,0x38,0x3a,0x00,
0x90,0x33,0x3a,0x81,0x63,0x80,0x3f,0x40,0x00,0x80,0x33,0x40,0x00,0x80,0x38,
0x40,0x0a,0x90,0x3d,0x3f,0x03,0x90,0x38,0x3a,0x00,0x90,0x34,0x3a,0x81,0x57,
0x80,0x3d,0x40,0x00,0x80,0x34,0x40,0x00,0x80,0x38,0x40,0x0a,0x90,0x2c,0x3a,
0x0c,0x90,0x3c,0x3f,0x02,0x90,0x38,0x3a,0x00,0x90,0x36,0x3a,0x81,0x64,0x80,
0x2c,0x40,0x00,0x80,0x36,0x40,0x00,0x80,0x38,0x40,0x00,0x80,0x3c,0x40,0x0a,
0x90,0x44,0x3f,0x00,0x90,0x3c,0x3a,0x02,0x90,0x38,0x3a,0x00,0x90,0x36,0x3a,
0x81,0x64,0x80,0x44,0x40,0x00,0x80,0x36,0x40,0x00,0x80,0x38,0x40,0x00,0x80,
0x3c,0x40,0x0a,0x90,0x44,0x3f,0x00,0x90,0x3c,0x3a,0x02,0x90,0x38,0x3a,0x00,
0x90,0x36,0x3a,0x81,0x67,0x80,0x44,0x40,0x00,0x80,0x36,0x40,0x00,0x80,0x38,
0x40,0x00,0x80,0x3c,0x40,0x0a,0x90,0x44,0x3f,0x00,0x90,0x3c,0x3a,0x00,0x90,
0x38,0x3a,0x03,0x90,0x36,0x3a,0x81,0x63,0x80,0x44,0x40,0x00,0x80,0x36,0x40,
0x00,0x80,0x38,0x40,0x00,0x80,0x3c,0x40,0x0a,0x90,0x44,0x3f,0x00,0x90,0x3c,
0x3a,0x00,0x90,0x38,0x3a,0x03,0x90,0x36,0x3a,0x81,0x60,0x80,0x44,0x40,0x00,
0x80,0x36,0x40,0x00,0x80,0x38,0x40,0x00,0x80,0x3c,0x40,0x0a,0x90,0x44,0x3f,
0x02,0x90,0x3c,0x3a,0x00,0x90,0x38,0x3a,0x03,0x90,0x36,0x3a,0x81,0x61,0x80,
0x44,0x40,0x00,0x80,0x36,0x40,0x00,0x80,0x38,0x40,0x00,0x80,0x3c,0x40,0x0a,
0x90,0x44,0x3f,0x02,0x90,0x3d,0x3a,0x00,0x90,0x38,0x3a,0x00,0x90,0x34,0x3a,
0x81,0x64,0x80,0x44,0x40,0x00,0x80,0x34,0x40,0x00,0x80,0x38,0x40,0x00,0x80,
0x3d,0x40,0x0a,0x90,0x44,0x3f,0x00,0x90,0x3f,0x3a,0x02,0x90,0x38,0x3a,0x00,
0x90,0x33,0x3a,0x81,0x64,0x80,0x44,0x40,0x00,0x80,0x33,0x40,0x00,0x80,0x38,
0x40,0x00,0x80,0x3f,0x40,0x0a,0x90,0x44,0x3f,0x00,0x90,0x40,0x3a,0x02,0x90,
0x31,0x3a,0x00,0x90,0x25,0x3a,0x81,0x50,0x80,0x44,0x40,0x00,0x80,0x25,0x40,
0x00,0x80,0x31,0x40,0x00,0x80,0x40,0x40,0x0a,0x90,0x44,0x3f,0x00,0x90,0x40,
0x3a,0x02,0x90,0x34,0x3a,0x00,0x90,0x31,0x3a,0x81,0x64,0x80,0x44,0x40,0x00,
0x80,0x31,0x40,0x00,0x80,0x34,0x40,0x00,0x80,0x40,0x40,0x0a,0x90,0x44,0x3f,
0x00,0x90,0x40,0x3a,0x04,0x90,0x34,0x3a,0x00,0x90,0x31,0x3a,0x81,0x6f,0x90,
0x40,0x3f,0x00,0x90,0x3d,0x3a,0x00,0x90,0x38,0x3a,0x03,0x90,0x34,0x3a,0x81,
0x74,0x80,0x44,0x40,0x00,0x80,0x34,0x40,0x00,0x80,0x38,0x40,0x00,0x80,0x3d,
0x40,0x00,0x80,0x40,0x40,0x00,0x80,0x31,0x40,0x00,0x80,0x34,0x40,0x00,0x80,
0x40,0x40,0x0a,0x90,0x2a,0x3a,0x81,0x52,0x80,0x2a,0x40,0x0a,0x90,0x45,0x3f,
0x02,0x90,0x42,0x3a,0x00,0x90,0x36,0x3a,0x03,0x90,0x31,0x3a,0x81,0x61,0x80,
0x45,0x40,0x00,0x80,0x31,0x40,0x00,0x80,0x36,0x40,0x00,0x80,0x42,0x40,0x0a,
0x90,0x45,0x3f,0x02,0x90,0x42,0x3a,0x00,0x90,0x36,0x3a,0x00,0x90,0x31,0x3a,
0x81,0x6e,0x90,0x42,0x3f,0x00,0x90,0x3d,0x3a,0x02,0x90,0x39,0x3a,0x00,0x90,
0x36,0x3a,0x81,0x7b,0x80,0x45,0x40,0x00,0x80,0x36,0x40,0x00,0x80,0x39,0x40,
0x00,0x80,0x3d,0x40,0x00,0x80,0x42,0x40,0x00,0x80,0x31,0x40,0x00,0x80,0x36,
0x40,0x00,0x80,0x42,0x40,0x0a,0x90,0x2c,0x3a,0x81,0x52,0x80,0x2c,0x40,0x0a,
0x90,0x44,0x3f,0x00,0x90,0x40,0x3a,0x00,0x90,0x34,0x3a,0x03,0x90,0x31,0x3a,
0x81,0x60,0x80,0x44,0x40,0x00,0x80,0x31,0x40,0x00,0x80,0x34,0x40,0x00,0x80,
0x40,0x40,0x0a,0x90,0x44,0x3f,0x03,0x90,0x40,0x3a,0x00,0x90,0x34,0x3a,0x03,
0x90,0x31,0x3a,0x81,0x74,0x80,0x44,0x40,0x00,0x80,0x31,0x40,0x00,0x80,0x34,
0x40,0x00,0x80,0x40,0x40,0x0a,0x90,0x40,0x3f,0x00,0x90,0x3d,0x3a,0x02,0x90,
0x38,0x3a,0x00,0x90,0x34,0x3a,0x81,0x67,0x80,0x40,0x40,0x00,0x80,0x34,0x40,
0x00,0x80,0x38,0x40,0x00,0x80,0x3d,0x40,0x0a,0x90,0x2c,0x3a,0x81,0x4f,0x80,
0x2c,0x40,0x0a,0x90,0x44,0x3f,0x00,0x90,0x3f,0x3a,0x02,0x90,0x33,0x3a,0x00,
0x90,0x30,0x3a,0x81,0x67,0x80,0x44,0x40,0x00,0x80,0x30,0x40,0x00,0x80,0x33,
0x40,0x00,0x80,0x3f,0x40,0x0a,0x90,0x44,0x3f,0x00,0x90,0x3f,0x3a,0x03,0x90,
0x33,0x3a,0x00,0x90,0x30,0x3a,0x81,0x74,0x80,0x44,0x40,0x00,0x80,0x30,0x40,
0x00,0x80,0x33,0x40,0x00,0x80,0x3f,0x40,0x0a,0x90,0x3f,0x3f,0x02,0x90,0x3c,
0x3a,0x00,0x90,0x38,0x3a,0x00,0x90,0x33,0x3a,0x81,0x64,0x80,0x3f,0x40,0x00,
0x80,0x33,0x40,0x00,0x80,0x38,0x40,0x00,0x80,0x3c,0x40,0x0a,0x90,0x40,0x3f,
0x00,0x90,0x3d,0x3a,0x02,0x90,0x31,0x3a,0x00,0x90,0x25,0x3a,0x81,0x55,0x80,
0x40,0x40,0x00,0x80,0x25,0x40,0x00,0x80,0x31,0x40,0x00,0x80,0x3d,0x40,0x0a,
0x90,0x31,0x3a,0x0f,0x90,0x4c,0x3f,0x00,0x90,0x44,0x3a,0x02,0x90,0x40,0x3a,
0x00,0x90,0x38,0x3a,0x81,0x67,0x80,0x31,0x40,0x00,0x80,0x38,0x40,0x00,0x80,
0x40,0x40,0x00,0x80,0x44,0x40,0x00,0x80,0x4c,0x40,0x0a,0x90,0x4c,0x3b,0x00,
0x90,0x44,0x3b,0x00,0x90,0x40,0x3b,0x03,0x90,0x38,0x3b,0x00,0x90,0x31,0x3b,
0x81,0x60,0x80,0x4c,0x40,0x00,0x80,0x31,0x40,0x00,0x80,0x38,0x40,0x00,0x80,
0x40,0x40,0x00,0x80,0x44,0x40,0x0a,0x90,0x4c,0x3d,0x03,0x90,0x44,0x3d,0x00,
0x90,0x40,0x3d,0x03,0x90,0x38,0x3d,0x00,0x90,0x31,0x3d,0x81,0x60,0x80,0x4c,
0x40,0x00,0x80,0x31,0x40,0x00,0x80,0x38,0x40,0x00,0x80,0x40,0x40,0x00,0x80,
0x44,0x40,0x0a,0x90,0x4c,0x40,0x02,0x90,0x44,0x40,0x00,0x90,0x40,0x40,0x00,
0x90,0x38,0x40,0x03,0x90,0x31,0x40,0x81,0x61,0x80,0x4c,0x40,0x00,0x80,0x31,
0x40,0x00,0x80,0x38,0x40,0x00,0x80,0x40,0x40,0x00,0x80,0x44,0x40,0x0a,0x90,
0x4c,0x43,0x03,0x90,0x44,0x43,0x00,0x90,0x40,0x43,0x03,0x90,0x38,0x43,0x00,
0x90,0x31,0x43,0x81,0x60,0x80,0x4c,0x40,0x00,0x80,0x31,0x40,0x00,0x80,0x38,
0x40,0x00,0x80,0x40,0x40,0x00,0x80,0x44,0x40,0x0a,0x90,0x4b,0x46,0x00,0x90,
0x42,0x46,0x02,0x90,0x3f,0x46,0x00,0x90,0x38,0x46,0x00,0x90,0x33,0x46,0x81,
0x64,0x80,0x4b,0x40,0x00,0x80,0x33,0x40,0x00,0x80,0x38,0x40,0x00,0x80,0x3f,
0x40,0x00,0x80,0x42,0x40,0x0a,0x90,0x49,0x49,0x00,0x90,0x40,0x49,0x02,0x90,
0x3d,0x49,0x00,0x90,0x38,0x49,0x03,0x90,0x34,0x49,0x81,0x52,0x80,0x49,0x40,
0x00,0x80,0x34,0x40,0x00,0x80,0x38,0x40,0x00,0x80,0x3d,0x40,0x00,0x80,0x40,
0x40,0x0a,0x90,0x2c,0x3a,0x0f,0x90,0x48,0x4c,0x00,0x90,0x3f,0x4c,0x02,0x90,
0x3c,0x4c,0x00,0x90,0x38,0x4c,0x00,0x90,0x36,0x4c,0x81,0x67,0x80,0x2c,0x40,
0x00,0x80,0x36,0x40,0x00,0x80,0x38,0x40,0x00,0x80,0x3c,0x40,0x00,0x80,0x3f,
0x40,0x00,0x80,0x48,0x40,0x0a,0x90,0x54,0x4f,0x00,0x90,0x4b,0x4f,0x00,0x90,
0x48,0x4f,0x03,0x90,0x42,0x4f,0x00,0x90,0x38,0x4f,0x81,0x60,0x80,0x54,0x40,
0x00,0x80,0x38,0x40,0x00,0x80,0x42,0x40,0x00,0x80,0x48,0x40,0x00,0x80,0x4b,
0x40,0x0a,0x90,0x54,0x4f,0x02,0x90,0x4b,0x4f,0x00,0x90,0x48,0x4f,0x00,0x90,
0x42,0x4f,0x03,0x90,0x38,0x4f,0x81,0x61,0x80,0x54,0x40,0x00,0x80,0x38,0x40,
0x00,0x80,0x42,0x40,0x00,0x80,0x48,0x40,0x00,0x80,0x4b,0x40,0x0a,0x90,0x54,
0x4f,0x02,0x90,0x4b,0x4f,0x00,0x90,0x48,0x4f,0x00,0x90,0x42,0x4f,0x03,0x90,
0x38,0x4f,0x81,0x61,0x80,0x54,0x40,0x00,0x80,0x38,0x40,0x00,0x80,0x42,0x40,
0x00,0x80,0x48,0x40,0x00,0x80,0x4b,0x40,0x0a,0x90,0x54,0x4f,0x00,0x90,0x4b,
0x4f,0x02,0x90,0x48,0x4f,0x00,0x90,0x42,0x4f,0x03,0x90,0x38,0x4f,0x81,0x61,
0x80,0x54,0x40,0x00,0x80,0x38,0x40,0x00,0x80,0x42,0x40,0x00,0x80,0x48,0x40,
0x00,0x80,0x4b,0x40,0x0a,0x90,0x54,0x4f,0x00,0x90,0x4b,0x4f,0x02,0x90,0x48,
0x4f,0x00,0x90,0x42,0x4f,0x00,0x90,0x38,0x4f,0x81,0x67,0x80,0x54,0x40,0x00,
0x80,0x38,0x40,0x00,0x80,0x42,0x40,0x00,0x80,0x48,0x40,0x00,0x80,0x4b,0x40,
0x0a,0x90,0x55,0x4f,0x00,0x90,0x4c,0x4f,0x00,0x90,0x49,0x4f,0x03,0x90,0x40,
0x4f,0x00,0x90,0x38,0x4f,0x81,0x60,0x80,0x55,0x40,0x00,0x80,0x38,0x40,0x00,
0x80,0x40,0x40,0x00,0x80,0x49,0x40,0x00,0x80,0x4c,0x40,0x0a,0x90,0x57,0x4f,
0x02,0x90,0x4e,0x4f,0x00,0x90,0x4b,0x4f,0x03,0x90,0x3f,0x4f,0x00,0x90,0x38,
0x4f,0x81,0x61,0x80,0x57,0x40,0x00,0x80,0x38,0x40,0x00,0x80,0x3f,0x40,0x00,
0x80,0x4b,0x40,0x00,0x80,0x4e,0x40,0x0a,0x90,0x58,0x4f,0x03,0x90,0x50,0x4f,
0x00,0x90,0x4c,0x4f,0x03,0x90,0x31,0x4f,0x00,0x90,0x25,0x4f,0x81,0x60,0x80,
0x58,0x40,0x00,0x80,0x25,0x40,0x00,0x80,0x31,0x40,0x00,0x80,0x4c,0x40,0x00,
0x80,0x50,0x40,0x0a,0x90,0x4c,0x3a,0x00,0x90,0x44,0x3a,0x02,0x90,0x40,0x3a,
0x00,0x90,0x38,0x3a,0x03,0x90,0x31,0x3a,0x81,0x61,0x80,0x4c,0x40,0x00,0x80,
0x31,0x40,0x00,0x80,0x38,0x40,0x00,0x80,0x40,0x40,0x00,0x80,0x44,0x40,0x0a,
0x90,0x4c,0x3b,0x00,0x90,0x44,0x3b,0x02,0x90,0x40,0x3b,0x00,0x90,0x38,0x3b,
0x00,0x90,0x31,0x3b,0x81,0x67,0x80,0x4c,0x40,0x00,0x80,0x31,0x40,0x00,0x80,
0x38,0x40,0x00,0x80,0x40,0x40,0x00,0x80,0x44,0x40,0x0a,0x90,0x4c,0x3d,0x00,
0x90,0x44,0x3d,0x00,0x90,0x40,0x3d,0x03,0x90,0x38,0x3d,0x00,0x90,0x31,0x3d,
0x81,0x60,0x80,0x4c,0x40,0x00,0x80,0x31,0x40,0x00,0x80,0x38,0x40,0x00,0x80,
0x40,0x40,0x00,0x80,0x44,0x40,0x0a,0x90,0x4c,0x40,0x03,0x90,0x44,0x40,0x00,
0x90,0x40,0x40,0x03,0x90,0x38,0x40,0x00,0x90,0x31,0x40,0x81,0x60,0x80,0x4c,
0x40,0x00,0x80,0x31,0x40,0x00,0x80,0x38,0x40,0x00,0x80,0x40,0x40,0x00,0x80,
0x44,0x40,0x0a,0x90,0x4c,0x43,0x02,0x90,0x44,0x43,0x00,0x90,0x40,0x43,0x00,
0x90,0x38,0x43,0x03,0x90,0x31,0x43,0x81,0x61,0x80,0x4c,0x40,0x00,0x80,0x31,
0x40,0x00,0x80,0x38,0x40,0x00,0x80,0x40,0x40,0x00,0x80,0x44,0x40,0x0a,0x90,
0x4b,0x46,0x02,0x90,0x42,0x46,0x00,0x90,0x3f,0x46,0x00,0x90,0x38,0x46,0x03,
0x90,0x33,0x46,0x81,0x61,0x80,0x4b,0x40,0x00,0x80,0x33,0x40,0x00,0x80,0x38,
0x40,0x00,0x80,0x3f,0x40,0x00,0x80,0x42,0x40,0x0a,0x90,0x49,0x49,0x00,0x90,
0x40,0x49,0x02,0x90,0x3d,0x49,0x00,0x90,0x38,0x49,0x00,0x90,0x34,0x49,0x81,
0x55,0x80,0x49,0x40,0x00,0x80,0x34,0x40,0x00,0x80,0x38,0x40,0x00,0x80,0x3d,
0x40,0x00,0x80,0x40,0x40,0x0a,0x90,0x2c,0x3a,0x0f,0x90,0x48,0x4c,0x00,0x90,
0x3f,0x4c,0x02,0x90,0x3c,0x4c,0x00,0x90,0x38,0x4c,0x00,0x90,0x36,0x4c,0x81,
0x67,0x80,0x2c,0x40,0x00,0x80,0x36,0x40,0x00,0x80,0x38,0x40,0x00,0x80,0x3c,
0x40,0x00,0x80,0x3f,0x40,0x00,0x80,0x48,0x40,0x0a,0x90,0x54,0x4f,0x00,0x90,
0x4b,0x4f,0x00,0x90,0x48,0x4f,0x03,0x90,0x42,0x4f,0x00,0x90,0x38,0x4f,0x81,
0x60,0x80,0x54,0x40,0x00,0x80,0x38,0x40,0x00,0x80,0x42,0x40,0x00,0x80,0x48,
0x40,0x00,0x80,0x4b,0x40,0x0a,0x90,0x54,0x4f,0x03,0x90,0x4b,0x4f,0x00,0x90,
0x48,0x4f,0x03,0x90,0x42,0x4f,0x00,0x90,0x38,0x4f,0x81,0x60,0x80,0x54,0x40,
0x00,0x80,0x38,0x40,0x00,0x80,0x42,0x40,0x00,0x80,0x48,0x40,0x00,0x80,0x4b,
0x40,0x0a,0x90,0x54,0x4f,0x02,0x90,0x4b,0x4f,0x00,0x90,0x48,0x4f,0x00,0x90,
0x42,0x4f,0x03,0x90,0x38,0x4f,0x81,0x61,0x80,0x54,0x40,0x00,0x80,0x38,0x40,
0x00,0x80,0x42,0x40,0x00,0x80,0x48,0x40,0x00,0x80,0x4b,0x40,0x0a,0x90,0x54,
0x4f,0x00,0x90,0x4b,0x4f,0x02,0x90,0x48,0x4f,0x00,0x90,0x42,0x4f,0x03,0x90,
0x38,0x4f,0x81,0x61,0x80,0x54,0x40,0x00,0x80,0x38,0x40,0x00,0x80,0x42,0x40,
0x00,0x80,0x48,0x40,0x00,0x80,0x4b,0x40,0x0a,0x90,0x54,0x4f,0x00,0x90,0x4b,
0x4f,0x02,0x90,0x48,0x4f,0x00,0x90,0x42,0x4f,0x00,0x90,0x38,0x4f,0x81,0x67,
0x80,0x54,0x40,0x00,0x80,0x38,0x40,0x00,0x80,0x42,0x40,0x00,0x80,0x48,0x40,
0x00,0x80,0x4b,0x40,0x0a,0x90,0x55,0x4f,0x00,0x90,0x4c,0x4f,0x00,0x90,0x49,
0x4f,0x03,0x90,0x40,0x4f,0x00,0x90,0x38,0x4f,0x81,0x63,0x80,0x55,0x40,0x00,
0x80,0x38,0x40,0x00,0x80,0x40,0x40,0x00,0x80,0x49,0x40,0x00,0x80,0x4c,0x40,
0x0a,0x90,0x57,0x4f,0x00,0x90,0x4e,0x4f,0x00,0x90,0x4b,0x4f,0x03,0x90,0x3f,
0x4f,0x00,0x90,0x38,0x4f,0x81,0x60,0x80,0x57,0x40,0x00,0x80,0x38,0x40,0x00,
0x80,0x3f,0x40,0x00,0x80,0x4b,0x40,0x00,0x80,0x4e,0x40,0x0a,0x90,0x58,0x4f,
0x02,0x90,0x50,0x4f,0x00,0x90,0x4c,0x4f,0x03,0x90,0x3d,0x4f,0x00,0x90,0x31,
0x4f,0x81,0x61,0x80,0x58,0x40,0x00,0x80,0x31,0x40,0x00,0x80,0x3d,0x40,0x00,
0x80,0x4c,0x40,0x00,0x80,0x50,0x40,0x0a,0x90,0x55,0x3a,0x02,0x90,0x50,0x3a,
0x00,0x90,0x3d,0x3a,0x00,0x90,0x40,0x3a,0x81,0x14,0x80,0x55,0x40,0x00,0x80,
0x40,0x40,0x00,0x80,0x3d,0x40,0x00,0x80,0x50,0x40,0x0a,0x90,0x50,0x3a,0x34,
0x80,0x50,0x40,0x08,0x90,0x55,0x3a,0x02,0x90,0x3d,0x3a,0x03,0x90,0x40,0x3a,
0x0f,0x90,0x50,0x3a,0x81,0x5c,0x90,0x50,0x3a,0x02,0x90,0x4c,0x3a,0x00,0x90,
0x40,0x3a,0x00,0x90,0x44,0x3a,0x81,0x7b,0x80,0x55,0x40,0x00,0x80,0x44,0x40,
0x00,0x80,0x40,0x40,0x00,0x80,0x4c,0x40,0x00,0x80,0x50,0x40,0x00,0x80,0x50,
0x40,0x00,0x80,0x40,0x40,0x00,0x80,0x3d,0x40,0x0a,0x90,0x36,0x3a,0x81,0x4f,
0x80,0x36,0x40,0x0a,0x90,0x55,0x3a,0x00,0x90,0x51,0x3a,0x02,0x90,0x3d,0x3a,
0x00,0x90,0x42,0x3a,0x81,0x67,0x80,0x55,0x40,0x00,0x80,0x42,0x40,0x00,0x80,
0x3d,0x40,0x00,0x80,0x51,0x40,0x0a,0x90,0x55,0x3a,0x00,0x90,0x51,0x3a,0x00,
0x90,0x3d,0x3a,0x03,0x90,0x42,0x3a,0x81,0x6d,0x90,0x51,0x3a,0x00,0x90,0x4e,
0x3a,0x00,0x90,0x42,0x3a,0x03,0x90,0x45,0x3a,0x81,0x74,0x80,0x55,0x40,0x00,
0x80,0x45,0x40,0x00,0x80,0x42,0x40,0x00,0x80,0x4e,0x40,0x00,0x80,0x51,0x40,
0x00,0x80,0x42,0x40,0x00,0x80,0x3d,0x40,0x00,0x80,0x51,0x40,0x0a,0x90,0x38,
0x3a,0x81,0x52,0x80,0x38,0x40,0x0a,0x90,0x50,0x3a,0x02,0x90,0x4c,0x3a,0x00,
0x90,0x3d,0x3a,0x00,0x90,0x40,0x3a,0x81,0x64,0x80,0x50,0x40,0x00,0x80,0x40,
0x40,0x00,0x80,0x3d,0x40,0x00,0x80,0x4c,0x40,0x0a,0x90,0x50,0x3a,0x00,0x90,
0x4c,0x3a,0x02,0x90,0x3d,0x3a,0x00,0x90,0x40,0x3a,0x81,0x71,0x90,0x4c,0x3a,
0x00,0x90,0x49,0x3a,0x03,0x90,0x40,0x3a,0x00,0x90,0x44,0x3a,0x81,0x66,0x80,
0x50,0x40,0x00,0x80,0x44,0x40,0x00,0x80,0x40,0x40,0x00,0x80,0x49,0x40,0x00,
0x80,0x4c,0x40,0x00,0x80,0x40,0x40,0x00,0x80,0x3d,0x40,0x00,0x80,0x4c,0x40,
0x0a,0x90,0x36,0x3a,0x81,0x60,0x80,0x36,0x40,0x0a,0x90,0x50,0x3a,0x03,0x90,
0x4b,0x3a,0x00,0x90,0x3c,0x3a,0x03,0x90,0x3f,0x3a,0x81,0x60,0x80,0x50,0x40,
0x00,0x80,0x3f,0x40,0x00,0x80,0x3c,0x40,0x00,0x80,0x4b,0x40,0x0a,0x90,0x50,
0x3a,0x02,0x90,0x4b,0x3a,0x00,0x90,0x3c,0x3a,0x00,0x90,0x3f,0x3a,0x81,0x6e,
0x90,0x4b,0x3a,0x02,0x90,0x48,0x3a,0x00,0x90,0x3f,0x3a,0x00,0x90,0x44,0x3a,
0x81,0x66,0x80,0x50,0x40,0x00,0x80,0x44,0x40,0x00,0x80,0x3f,0x40,0x00,0x80,
0x48,0x40,0x00,0x80,0x4b,0x40,0x00,0x80,0x3f,0x40,0x00,0x80,0x3c,0x40,0x00,
0x80,0x4b,0x40,0x0a,0x90,0x34,0x3a,0x81,0x67,0x80,0x34,0x40,0x0a,0x90,0x50,
0x3a,0x00,0x90,0x49,0x3a,0x03,0x90,0x3d,0x3a,0x00,0x90,0x38,0x3a,0x81,0x63,
0x80,0x50,0x40,0x00,0x80,0x38,0x40,0x00,0x80,0x3d,0x40,0x00,0x80,0x49,0x40,
0x0a,0x90,0x50,0x3a,0x00,0x90,0x49,0x3a,0x00,0x90,0x3d,0x3a,0x03,0x90,0x38,
0x3a,0x81,0x6a,0x90,0x4c,0x3a,0x02,0x90,0x44,0x3a,0x00,0x90,0x40,0x3a,0x03,
0x90,0x3d,0x3a,0x81,0x63,0x80,0x50,0x40,0x00,0x80,0x49,0x40,0x00,0x80,0x40,
0x40,0x00,0x80,0x44,0x40,0x00,0x80,0x4c,0x40,0x00,0x80,0x38,0x40,0x00,0x80,
0x3d,0x40,0x0a,0x90,0x2a,0x3a,0x81,0x64,0x80,0x3d,0x40,0x00,0x80,0x2a,0x40,
0x0a,0x90,0x4e,0x3a,0x00,0x90,0x45,0x3a,0x02,0x90,0x39,0x3a,0x00,0x90,0x36,
0x3a,0x81,0x64,0x80,0x4e,0x40,0x00,0x80,0x36,0x40,0x00,0x80,0x39,0x40,0x00,
0x80,0x45,0x40,0x0a,0x90,0x4e,0x3a,0x00,0x90,0x45,0x3a,0x02,0x90,0x39,0x3a,
0x00,0x90,0x36,0x3a,0x81,0x71,0x90,0x4a,0x3a,0x00,0x90,0x42,0x3a,0x00,0x90,
0x3e,0x3a,0x03,0x90,0x39,0x3a,0x81,0x66,0x80,0x4e,0x40,0x00,0x80,0x39,0x40,
0x00,0x80,0x3e,0x40,0x00,0x80,0x42,0x40,0x00,0x80,0x4a,0x40,0x00,0x80,0x36,
0x40,0x00,0x80,0x39,0x40,0x00,0x80,0x45,0x40,0x0a,0x90,0x2c,0x3a,0x81,0x60,
0x80,0x2c,0x40,0x0a,0x90,0x4c,0x3a,0x03,0x90,0x44,0x3a,0x00,0x90,0x38,0x3a,
0x03,0x90,0x34,0x3a,0x81,0x60,0x80,0x4c,0x40,0x00,0x80,0x34,0x40,0x00,0x80,
0x38,0x40,0x00,0x80,0x44,0x40,0x0a,0x90,0x4c,0x3a,0x02,0x90,0x44,0x3a,0x00,
0x90,0x38,0x3a,0x00,0x90,0x34,0x3a,0x81,0x6e,0x90,0x49,0x3a,0x00,0x90,0x40,
0x3a,0x02,0x90,0x3d,0x3a,0x00,0x90,0x38,0x3a,0x81,0x66,0x80,0x4c,0x40,0x00,
0x80,0x38,0x40,0x00,0x80,0x3d,0x40,0x00,0x80,0x40,0x40,0x00,0x80,0x49,0x40,
0x00,0x80,0x34,0x40,0x00,0x80,0x38,0x40,0x00,0x80,0x44,0x40,0x0a,0x90,0x2c,
0x3a,0x81,0x67,0x80,0x2c,0x40,0x0a,0x90,0x4b,0x3a,0x00,0x90,0x42,0x3a,0x00,
0x90,0x36,0x3a,0x03,0x90,0x33,0x3a,0x81,0x60,0x80,0x4b,0x40,0x00,0x80,0x33,
0x40,0x00,0x80,0x36,0x40,0x00,0x80,0x42,0x40,0x0a,0x90,0x4b,0x3a,0x03,0x90,
0x42,0x3a,0x00,0x90,0x36,0x3a,0x03,0x90,0x33,0x3a,0x81,0x6a,0x90,0x48,0x3a,
0x02,0x90,0x3f,0x3a,0x00,0x90,0x3c,0x3a,0x00,0x90,0x36,0x3a,0x81,0x66,0x80,
0x4b,0x40,0x00,0x80,0x42,0x40,0x00,0x80,0x3c,0x40,0x00,0x80,0x3f,0x40,0x00,
0x80,0x48,0x40,0x00,0x80,0x33,0x40,0x00,0x80,0x36,0x40,0x0a,0x90,0x25,0x3a,
0x0b,0x80,0x36,0x40,0x0a,0x90,0x49,0x3a,0x00,0x90,0x40,0x3a,0x6e,0x80,0x25,
0x40,0x0a,0x90,0x31,0x3a,0x6e,0x80,0x31,0x40,0x0a,0x90,0x2c,0x3a,0x6e,0x80,
0x2c,0x40,0x0a,0x90,0x31,0x3a,0x6b,0x80,0x40,0x40,0x00,0x80,0x31,0x40,0x00,
0x80,0x49,0x40,0x0a,0x90,0x25,0x3a,0x6e,0x80,0x25,0x40,0x0a,0x90,0x31,0x3a,
0x6e,0x80,0x31,0x40,0x0a,0x90,0x2c,0x3a,0x6e,0x80,0x2c,0x40,0x0a,0x90,0x31,
0x3a,0x6e,0x80,0x31,0x40,0x0a,0x90,0x25,0x3a,0x6e,0x80,0x25,0x40,0x0a,0x90,
0x31,0x3a,0x6e,0x80,0x31,0x40,0x0a,0x90,0x2c,0x3a,0x71,0x80,0x2c,0x40,0x0a,
0x90,0x31,0x3a,0x57,0x80,0x31,0x40,0x0a,0x90,0x40,0x3a,0x17,0x90,0x25,0x3a,
0x6e,0x80,0x25,0x40,0x0a,0x90,0x31,0x3a,0x6e,0x80,0x31,0x40,0x0a,0x90,0x2c,
0x3a,0x5a,0x80,0x2c,0x40,0x0a,0x90,0x3d,0x3a,0x09,0x80,0x40,0x40,0x0a,0x90,
0x31,0x3a,0x6c,0x80,0x3d,0x40,0x00,0x80,0x31,0x40,0x0a,0x90,0x3c,0x3a,0x02,
0x90,0x25,0x3a,0x6c,0x80,0x25,0x40,0x0a,0x90,0x33,0x3a,0x6e,0x80,0x33,0x40,
0x0a,0x90,0x2c,0x3a,0x6e,0x80,0x2c,0x40,0x0a,0x90,0x33,0x3a,0x5c,0x80,0x3c,
0x40,0x00,0x80,0x33,0x40,0x0a,0x90,0x3c,0x3a,0x00,0x90,0x36,0x3a,0x12,0x90,
0x44,0x3a,0x00,0x90,0x25,0x3a,0x6e,0x80,0x25,0x40,0x0a,0x90,0x33,0x3a,0x6e,
0x80,0x33,0x40,0x0a,0x90,0x2c,0x3a,0x71,0x80,0x3c,0x40,0x00,0x80,0x2c,0x40,
0x00,0x80,0x44,0x40,0x00,0x80,0x36,0x40,0x0a,0x90,0x33,0x3a,0x59,0x80,0x33,
0x40,0x08,0x90,0x44,0x3a,0x00,0x90,0x3c,0x3a,0x02,0x90,0x36,0x3a,0x15,0x90,
0x25,0x3a,0x6e,0x80,0x25,0x40,0x0a,0x90,0x33,0x3a,0x6b,0x80,0x33,0x40,0x0a,
0x90,0x2c,0x3a,0x6e,0x80,0x44,0x40,0x00,0x80,0x2c,0x40,0x00,0x80,0x36,0x40,
0x00,0x80,0x3c,0x40,0x0a,0x90,0x33,0x3a,0x67,0x90,0x44,0x3a,0x00,0x90,0x3c,
0x3a,0x00,0x90,0x36,0x3a,0x07,0x80,0x33,0x40,0x0a,0x90,0x25,0x3a,0x6e,0x80,
0x25,0x40,0x0a,0x90,0x33,0x3a,0x6e,0x80,0x33,0x40,0x0a,0x90,0x2c,0x3a,0x6e,
0x80,0x36,0x40,0x00,0x80,0x2c,0x40,0x00,0x80,0x3c,0x40,0x00,0x80,0x44,0x40,
0x0a,0x90,0x33,0x3a,0x64,0x90,0x34,0x3a,0x0a,0x80,0x33,0x40,0x0a,0x90,0x25,
0x3a,0x3c,0x90,0x3d,0x3a,0x32,0x80,0x34,0x40,0x00,0x80,0x25,0x40,0x0a,0x90,
0x31,0x3a,0x17,0x90,0x44,0x3a,0x5a,0x80,0x3d,0x40,0x00,0x80,0x31,0x40,0x0a,
0x90,0x2c,0x3a,0x6e,0x80,0x2c,0x40,0x0a,0x90,0x31,0x3a,0x6e,0x80,0x31,0x40,
0x0a,0x90,0x25,0x3a,0x6e,0x80,0x25,0x40,0x0a,0x90,0x31,0x3a,0x6b,0x80,0x31,
0x40,0x0a,0x90,0x2c,0x3a,0x6e,0x80,0x2c,0x40,0x0a,0x90,0x31,0x3a,0x6e,0x80,
0x31,0x40,0x0a,0x90,0x25,0x3a,0x6e,0x80,0x25,0x40,0x0a,0x90,0x31,0x3a,0x6e,
0x80,0x31,0x40,0x0a,0x90,0x2c,0x3a,0x6e,0x80,0x2c,0x40,0x0a,0x90,0x31,0x3a,
0x6e,0x80,0x44,0x40,0x00,0x80,0x31,0x40,0x0a,0x90,0x4c,0x3a,0x00,0x90,0x25,
0x3a,0x71,0x80,0x25,0x40,0x0a,0x90,0x31,0x3a,0x6e,0x80,0x31,0x40,0x0a,0x90,
0x2c,0x3a,0x57,0x80,0x2c,0x40,0x0a,0x90,0x49,0x3a,0x0a,0x80,0x4c,0x40,0x0a,
0x90,0x31,0x3a,0x6e,0x80,0x49,0x40,0x00,0x80,0x31,0x40,0x0a,0x90,0x48,0x3a,
0x03,0x90,0x25,0x3a,0x6b,0x80,0x25,0x40,0x0a,0x90,0x33,0x3a,0x6e,0x80,0x33,
0x40,0x0a,0x90,0x2c,0x3a,0x6e,0x80,0x2c,0x40,0x0a,0x90,0x33,0x3a,0x5d,0x80,
0x48,0x40,0x0a,0x90,0x48,0x3a,0x00,0x90,0x42,0x3a,0x07,0x80,0x33,0x40,0x0a,
0x90,0x50,0x3a,0x02,0x90,0x25,0x3a,0x6c,0x80,0x25,0x40,0x0a,0x90,0x33,0x3a,
0x6e,0x80,0x33,0x40,0x0a,0x90,0x2c,0x3a,0x6e,0x80,0x42,0x40,0x00,0x80,0x2c,
0x40,0x00,0x80,0x50,0x40,0x00,0x80,0x48,0x40,0x0a,0x90,0x33,0x3a,0x5c,0x80,
0x33,0x40,0x08,0x90,0x50,0x3a,0x02,0x90,0x48,0x3a,0x00,0x90,0x42,0x3a,0x12,
0x90,0x25,0x3a,0x71,0x80,0x25,0x40,0x0a,0x90,0x33,0x3a,0x6e,0x80,0x33,0x40,
0x0a,0x90,0x2c,0x3a,0x6e,0x80,0x50,0x40,0x00,0x80,0x2c,0x40,0x00,0x80,0x42,
0x40,0x00,0x80,0x48,0x40,0x0a,0x90,0x33,0x3a,0x5d,0x80,0x33,0x40,0x07,0x90,
0x50,0x3a,0x00,0x90,0x48,0x3a,0x03,0x90,0x42,0x3a,0x0e,0x90,0x25,0x3a,0x6e,
0x80,0x25,0x40,0x0a,0x90,0x33,0x3a,0x6e,0x80,0x33,0x40,0x0a,0x90,0x2c,0x3a,
0x6e,0x80,0x50,0x40,0x00,0x80,0x2c,0x40,0x00,0x80,0x42,0x40,0x00,0x80,0x48,
0x40,0x0a,0x90,0x33,0x3a,0x64,0x90,0x40,0x3a,0x0a,0x80,0x33,0x40,0x0a,0x90,
0x25,0x3a,0x3c,0x90,0x49,0x3a,0x32,0x80,0x40,0x40,0x00,0x80,0x25,0x40,0x0a,
0x90,0x31,0x3a,0x17,0x90,0x50,0x3a,0x57,0x80,0x49,0x40,0x00,0x80,0x31,0x40,
0x0a,0x90,0x2c,0x3a,0x6e,0x80,0x2c,0x40,0x0a,0x90,0x31,0x3a,0x71,0x80,0x31,
0x40,0x0a,0x90,0x25,0x3a,0x6e,0x80,0x25,0x40,0x0a,0x90,0x31,0x3a,0x6e,0x80,
0x31,0x40,0x0a,0x90,0x2c,0x3a,0x6e,0x80,0x2c,0x40,0x0a,0x90,0x31,0x3a,0x6b,
0x80,0x50,0x40,0x00,0x80,0x31,0x40,0x0a,0x90,0x42,0x3a,0x02,0x90,0x25,0x3a,
0x3a,0x90,0x48,0x3a,0x32,0x80,0x42,0x40,0x00,0x80,0x25,0x40,0x0a,0x90,0x33,
0x3a,0x14,0x90,0x50,0x3a,0x5a,0x80,0x48,0x40,0x00,0x80,0x33,0x40,0x0a,0x90,
0x2c,0x3a,0x6e,0x80,0x2c,0x40,0x0a,0x90,0x33,0x3a,0x6e,0x80,0x33,0x40,0x0a,
0x90,0x25,0x3a,0x6e,0x80,0x25,0x40,0x0a,0x90,0x33,0x3a,0x6e,0x80,0x33,0x40,
0x0a,0x90,0x2c,0x3a,0x71,0x80,0x2c,0x40,0x0a,0x90,0x33,0x3a,0x6e,0x80,0x50,
0x40,0x00,0x80,0x33,0x40,0x0a,0x90,0x40,0x3a,0x00,0x90,0x25,0x3a,0x3c,0x90,
0x49,0x3a,0x32,0x80,0x40,0x40,0x00,0x80,0x25,0x40,0x0a,0x90,0x31,0x3a,0x11,
0x90,0x50,0x3a,0x5d,0x80,0x49,0x40,0x00,0x80,0x31,0x40,0x0a,0x90,0x2c,0x3a,
0x6b,0x80,0x2c,0x40,0x0a,0x90,0x31,0x3a,0x6e,0x80,0x31,0x40,0x0a,0x90,0x25,
0x3a,0x6e,0x80,0x25,0x40,0x0a,0x90,0x31,0x3a,0x6e,0x80,0x31,0x40,0x0a,0x90,
0x2c,0x3a,0x6e,0x80,0x2c,0x40,0x0a,0x90,0x31,0x3a,0x6e,0x80,0x50,0x40,0x00,
0x80,0x31,0x40,0x0a,0x90,0x42,0x3a,0x00,0x90,0x25,0x3a,0x3c,0x90,0x48,0x3a,
0x32,0x80,0x42,0x40,0x00,0x80,0x25,0x40,0x0a,0x90,0x33,0x3a,0x17,0x90,0x50,
0x3a,0x5a,0x80,0x48,0x40,0x00,0x80,0x33,0x40,0x0a,0x90,0x2c,0x3a,0x6e,0x80,
0x2c,0x40,0x0a,0x90,0x33,0x3a,0x6e,0x80,0x33,0x40,0x0a,0x90,0x25,0x3a,0x6e,
0x80,0x25,0x40,0x0a,0x90,0x33,0x3a,0x6b,0x80,0x33,0x40,0x0a,0x90,0x2c,0x3a,
0x6e,0x80,0x2c,0x40,0x0a,0x90,0x33,0x3a,0x6e,0x80,0x50,0x40,0x00,0x80,0x33,
0x40,0x0a,0x90,0x34,0x3a,0x02,0x90,0x25,0x3a,0x6c,0x80,0x34,0x40,0x00,0x80,
0x25,0x40,0x0a,0x90,0x3d,0x3a,0x02,0x90,0x31,0x3a,0x6c,0x80,0x3d,0x40,0x00,
0x80,0x31,0x40,0x0a,0x90,0x38,0x3a,0x00,0x90,0x2c,0x3a,0x6e,0x80,0x38,0x40,
0x00,0x80,0x2c,0x40,0x0a,0x90,0x3d,0x3a,0x00,0x90,0x31,0x3a,0x6e,0x80,0x3d,
0x40,0x00,0x80,0x31,0x40,0x0a,0x90,0x34,0x3a,0x00,0x90,0x25,0x3a,0x6e,0x80,
0x34,0x40,0x00,0x80,0x25,0x40,0x0a,0x90,0x3d,0x3a,0x00,0x90,0x31,0x3a,0x71,
0x80,0x3d,0x40,0x00,0x80,0x31,0x40,0x0a,0x90,0x38,0x3a,0x00,0x90,0x2c,0x3a,
0x6e,0x80,0x38,0x40,0x00,0x80,0x2c,0x40,0x0a,0x90,0x3d,0x3a,0x00,0x90,0x31,
0x3a,0x6e,0x80,0x3d,0x40,0x00,0x80,0x31,0x40,0x0a,0x90,0x34,0x41,0x00,0x90,
0x25,0x41,0x6b,0x80,0x34,0x40,0x00,0x80,0x25,0x40,0x0a,0x90,0x3d,0x41,0x03,
0x90,0x31,0x41,0x6b,0x80,0x3d,0x40,0x00,0x80,0x31,0x40,0x0a,0x90,0x38,0x41,
0x02,0x90,0x2c,0x41,0x6c,0x80,0x38,0x40,0x00,0x80,0x2c,0x40,0x0a,0x90,0x3d,
0x41,0x02,0x90,0x31,0x41,0x6c,0x80,0x3d,0x40,0x00,0x80,0x31,0x40,0x0a,0x90,
0x34,0x43,0x02,0x90,0x25,0x43,0x6c,0x80,0x34,0x40,0x00,0x80,0x25,0x40,0x0a,
0x90,0x3d,0x43,0x00,0x90,0x31,0x43,0x6e,0x80,0x3d,0x40,0x00,0x80,0x31,0x40,
0x0a,0x90,0x38,0x43,0x00,0x90,0x2c,0x43,0x6e,0x80,0x38,0x40,0x00,0x80,0x2c,
0x40,0x0a,0x90,0x3d,0x43,0x00,0x90,0x31,0x43,0x5c,0x80,0x3d,0x40,0x00,0x80,
0x31,0x40,0x0a,0x90,0x31,0x3a,0x12,0x90,0x35,0x45,0x00,0x90,0x23,0x45,0x71,
0x80,0x31,0x40,0x00,0x80,0x23,0x40,0x00,0x80,0x35,0x40,0x0a,0x90,0x3d,0x45,
0x00,0x90,0x2f,0x45,0x6e,0x80,0x3d,0x40,0x00,0x80,0x2f,0x40,0x0a,0x90,0x38,
0x45,0x00,0x90,0x25,0x45,0x6e,0x80,0x38,0x40,0x00,0x80,0x25,0x40,0x0a,0x90,
0x3d,0x45,0x00,0x90,0x2f,0x45,0x57,0x80,0x3d,0x40,0x0a,0x90,0x31,0x3a,0x0a,
0x80,0x2f,0x40,0x0a,0x90,0x35,0x47,0x03,0x90,0x23,0x47,0x6b,0x80,0x31,0x40,
0x00,0x80,0x23,0x40,0x00,0x80,0x35,0x40,0x0a,0x90,0x3d,0x47,0x02,0x90,0x2f,
0x47,0x6c,0x80,0x3d,0x40,0x00,0x80,0x2f,0x40,0x0a,0x90,0x38,0x47,0x02,0x90,
0x25,0x47,0x6c,0x80,0x38,0x40,0x00,0x80,0x25,0x40,0x0a,0x90,0x3d,0x47,0x02,
0x90,0x2f,0x47,0x5b,0x80,0x3d,0x40,0x00,0x80,0x2f,0x40,0x0a,0x90,0x31,0x3a,
0x11,0x90,0x35,0x49,0x00,0x90,0x23,0x49,0x6e,0x80,0x31,0x40,0x00,0x80,0x23,
0x40,0x00,0x80,0x35,0x40,0x0a,0x90,0x3d,0x49,0x00,0x90,0x2f,0x49,0x6e,0x80,
0x3d,0x40,0x00,0x80,0x2f,0x40,0x0a,0x90,0x38,0x49,0x00,0x90,0x25,0x49,0x6e,
0x80,0x38,0x40,0x00,0x80,0x25,0x40,0x0a,0x90,0x3d,0x49,0x00,0x90,0x2f,0x49,
0x5c,0x80,0x3d,0x40,0x00,0x80,0x2f,0x40,0x0a,0x90,0x31,0x3a,0x12,0x90,0x35,
0x49,0x00,0x90,0x23,0x49,0x71,0x80,0x31,0x40,0x00,0x80,0x23,0x40,0x00,0x80,
0x35,0x40,0x0a,0x90,0x3d,0x49,0x00,0x90,0x2f,0x49,0x6e,0x80,0x3d,0x40,0x00,
0x80,0x2f,0x40,0x0a,0x90,0x38,0x49,0x00,0x90,0x25,0x49,0x6b,0x80,0x38,0x40,
0x00,0x80,0x25,0x40,0x0a,0x90,0x3d,0x49,0x03,0x90,0x2f,0x49,0x5a,0x80,0x3d,
0x40,0x03,0x80,0x2f,0x40,0x07,0x90,0x39,0x4d,0x03,0x90,0x33,0x4d,0x00,0x90,
0x31,0x4d,0x04,0x90,0x2d,0x4d,0x0a,0x90,0x3d,0x4d,0x02,0x90,0x21,0x4d,0x6c,
0x80,0x39,0x40,0x00,0x80,0x33,0x40,0x00,0x80,0x3d,0x40,0x00,0x80,0x31,0x40,
0x0a,0x90,0x31,0x3f,0x5d,0x80,0x2d,0x40,0x00,0x80,0x31,0x40,0x00,0x80,0x21,
0x40,0x0a,0x90,0x2a,0x3a,0x11,0x90,0x36,0x3f,0x6e,0x80,0x36,0x40,0x0a,0x90,
0x39,0x3f,0x5c,0x80,0x2a,0x40,0x00,0x80,0x39,0x40,0x0a,0x90,0x21,0x3a,0x12,
0x90,0x3d,0x3f,0x6e,0x80,0x3d,0x40,0x0a,0x90,0x36,0x3f,0x5c,0x80,0x21,0x40,
0x00,0x80,0x36,0x40,0x0a,0x90,0x2a,0x3a,0x12,0x90,0x39,0x3f,0x6e,0x80,0x39,
0x40,0x0a,0x90,0x3d,0x3f,0x5a,0x80,0x2a,0x40,0x00,0x80,0x3d,0x40,0x0a,0x90,
0x21,0x3a,0x17,0x90,0x42,0x3f,0x6e,0x80,0x42,0x40,0x0a,0x90,0x39,0x3f,0x57,
0x80,0x21,0x40,0x00,0x80,0x39,0x40,0x0a,0x90,0x2a,0x3a,0x17,0x90,0x3d,0x3f,
0x6b,0x80,0x3d,0x40,0x0a,0x90,0x42,0x3f,0x5d,0x80,0x2a,0x40,0x00,0x80,0x42,
0x40,0x0a,0x90,0x21,0x3a,0x11,0x90,0x45,0x3f,0x6e,0x80,0x45,0x40,0x0a,0x90,
0x3d,0x3f,0x5d,0x80,0x21,0x40,0x00,0x80,0x3d,0x40,0x0a,0x90,0x2a,0x3a,0x11,
0x90,0x42,0x3f,0x6e,0x80,0x42,0x40,0x0a,0x90,0x45,0x3f,0x5c,0x80,0x2a,0x40,
0x00,0x80,0x45,0x40,0x0a,0x90,0x21,0x3a,0x12,0x90,0x49,0x3f,0x6e,0x80,0x49,
0x40,0x0a,0x90,0x42,0x3f,0x5c,0x80,0x21,0x40,0x00,0x80,0x42,0x40,0x0a,0x90,
0x2a,0x3a,0x12,0x90,0x45,0x3f,0x71,0x80,0x45,0x40,0x0a,0x90,0x49,0x3f,0x57,
0x80,0x2a,0x40,0x00,0x80,0x49,0x40,0x0a,0x90,0x21,0x3a,0x17,0x90,0x4e,0x3f,
0x6e,0x80,0x4e,0x40,0x0a,0x90,0x45,0x3f,0x57,0x80,0x21,0x40,0x00,0x80,0x45,
0x40,0x0a,0x90,0x2a,0x3a,0x14,0x90,0x49,0x3f,0x6e,0x80,0x49,0x40,0x0a,0x90,
0x4e,0x3f,0x5d,0x80,0x2a,0x40,0x00,0x80,0x4e,0x40,0x0a,0x90,0x21,0x3a,0x11,
0x90,0x51,0x3f,0x6e,0x80,0x51,0x40,0x0a,0x90,0x49,0x3f,0x5d,0x80,0x21,0x40,
0x00,0x80,0x49,0x40,0x0a,0x90,0x2a,0x3a,0x11,0x90,0x4e,0x3f,0x6e,0x80,0x4e,
0x40,0x0a,0x90,0x51,0x3f,0x5c,0x80,0x2a,0x40,0x00,0x80,0x51,0x40,0x0a,0x90,
0x51,0x4d,0x00,0x90,0x4e,0x4d,0x00,0x90,0x21,0x3a,0x01,0xb0,0x40,0x7f,0x02,
0x90,0x49,0x4d,0x00,0x90,0x2d,0x4d,0x0f,0x90,0x55,0x3f,0x81,0x52,0x80,0x51,
0x40,0x00,0x80,0x55,0x40,0x00,0x80,0x2d,0x40,0x00,0x80,0x49,0x40,0x00,0x80,
0x21,0x40,0x00,0x80,0x4e,0x40,0x0a,0x90,0x55,0x3f,0x02,0x90,0x51,0x4d,0x00,
0x90,0x4e,0x4d,0x00,0x90,0x2a,0x3a,0x03,0x90,0x49,0x4d,0x81,0x61,0x80,0x55,
0x40,0x00,0x80,0x49,0x40,0x00,0x80,0x2a,0x40,0x00,0x80,0x4e,0x40,0x00,0x80,
0x51,0x40,0x09,0xb0,0x40,0x00,0x01,0x90,0x20,0x3a,0x78,0x90,0x31,0x3f,0x71,
0x80,0x20,0x40,0x00,0x80,0x31,0x40,0x0a,0x90,0x28,0x3a,0x11,0x90,0x34,0x3f,
0x6e,0x80,0x34,0x40,0x0a,0x90,0x38,0x3f,0x5d,0x80,0x28,0x40,0x00,0x80,0x38,
0x40,0x0a,0x90,0x20,0x3a,0x11,0x90,0x3d,0x3f,0x6e,0x80,0x3d,0x40,0x0a,0x90,
0x34,0x3f,0x5d,0x80,0x20,0x40,0x00,0x80,0x34,0x40,0x0a,0x90,0x28,0x3a,0x11,
0x90,0x38,0x3f,0x6e,0x80,0x38,0x40,0x0a,0x90,0x3d,0x3f,0x5c,0x80,0x28,0x40,
0x00,0x80,0x3d,0x40,0x0a,0x90,0x20,0x3a,0x12,0x90,0x40,0x3f,0x6e,0x80,0x40,
0x40,0x0a,0x90,0x38,0x3f,0x5a,0x80,0x20,0x40,0x00,0x80,0x38,0x40,0x0a,0x90,
0x28,0x3a,0x17,0x90,0x3d,0x3f,0x6e,0x80,0x3d,0x40,0x0a,0x90,0x40,0x3f,0x57,
0x80,0x28,0x40,0x00,0x80,0x40,0x40,0x0a,0x90,0x20,0x3a,0x17,0x90,0x44,0x3f,
0x6b,0x80,0x44,0x40,0x0a,0x90,0x3d,0x3f,0x5d,0x80,0x20,0x40,0x00,0x80,0x3d,
0x40,0x0a,0x90,0x28,0x3a,0x11,0x90,0x40,0x3f,0x6e,0x80,0x40,0x40,0x0a,0x90,
0x44,0x3f,0x5d,0x80,0x28,0x40,0x00,0x80,0x44,0x40,0x0a,0x90,0x20,0x3a,0x11,
0x90,0x49,0x3f,0x6e,0x80,0x49,0x40,0x0a,0x90,0x40,0x3f,0x5c,0x80,0x20,0x40,
0x00,0x80,0x40,0x40,0x0a,0x90,0x28,0x3a,0x12,0x90,0x44,0x3f,0x6e,0x80,0x44,
0x40,0x0a,0x90,0x49,0x3f,0x5c,0x80,0x28,0x40,0x00,0x80,0x49,0x40,0x0a,0x90,
0x20,0x3a,0x12,0x90,0x4c,0x3f,0x71,0x80,0x4c,0x40,0x0a,0x90,0x44,0x3f,0x57,
0x80,0x20,0x40,0x00,0x80,0x44,0x40,0x0a,0x90,0x28,0x3a,0x17,0x90,0x49,0x3f,
0x6e,0x80,0x49,0x40,0x0a,0x90,0x4c,0x3f,0x57,0x80,0x28,0x40,0x00,0x80,0x4c,
0x40,0x0a,0x90,0x20,0x3a,0x17,0x90,0x50,0x3f,0x6b,0x80,0x50,0x40,0x0a,0x90,
0x49,0x3f,0x5d,0x80,0x20,0x40,0x00,0x80,0x49,0x40,0x0a,0x90,0x28,0x3a,0x11,
0x90,0x4c,0x3f,0x6e,0x80,0x4c,0x40,0x0a,0x90,0x50,0x3f,0x5d,0x80,0x28,0x40,
0x00,0x80,0x50,0x40,0x0a,0xb0,0x40,0x7f,0x00,0x90,0x50,0x4d,0x00,0x90,0x4c,
0x4d,0x03,0x90,0x20,0x3a,0x00,0x90,0x49,0x4d,0x00,0x90,0x2c,0x4d,0x0e,0x90,
0x55,0x3f,0x81,0x52,0x80,0x50,0x40,0x00,0x80,0x55,0x40,0x00,0x80,0x2c,0x40,
0x00,0x80,0x49,0x40,0x00,0x80,0x20,0x40,0x00,0x80,0x4c,0x40,0x0a,0x90,0x55,
0x3f,0x02,0x90,0x50,0x4d,0x00,0x90,0x4c,0x4d,0x00,0x90,0x28,0x3a,0x03,0x90,
0x49,0x4d,0x81,0x4d,0x80,0x55,0x40,0x00,0x80,0x49,0x40,0x00,0x80,0x28,0x40,
0x00,0x80,0x4c,0x40,0x00,0x80,0x50,0x40,0x0a,0x90,0x1f,0x47,0x13,0xb0,0x40,
0x00,0x81,0x5a,0x90,0x31,0x47,0x3c,0x90,0x34,0x47,0x3c,0x90,0x37,0x47,0x3c,
0x90,0x3a,0x47,0x3c,0x90,0x3d,0x47,0x81,0x72,0x80,0x1f,0x40,0x0a,0x90,0x1f,
0x47,0x30,0x90,0x22,0x47,0x3c,0x90,0x28,0x47,0x3c,0x80,0x1f,0x40,0x0a,0x90,
0x2b,0x47,0x82,0x22,0x80,0x3d,0x40,0x0a,0x90,0x3d,0x47,0x34,0x80,0x31,0x40,
0x0a,0x90,0x40,0x47,0x30,0x80,0x34,0x40,0x0a,0x90,0x43,0x47,0x34,0x80,0x37,
0x40,0x0a,0x90,0x46,0x47,0x30,0x80,0x3a,0x40,0x0a,0x90,0x49,0x47,0x81,0x68,
0x80,0x2b,0x40,0x00,0x80,0x28,0x40,0x00,0x80,0x22,0x40,0x0a,0x90,0x2b,0x47,
0x30,0x90,0x2e,0x47,0x3c,0x90,0x31,0x47,0x3e,0x80,0x3d,0x40,0x0a,0x90,0x34,
0x47,0x30,0x90,0x44,0x47,0x81,0x72,0x80,0x46,0x40,0x00,0x80,0x43,0x40,0x00,
0x80,0x44,0x40,0x00,0x80,0x40,0x40,0x00,0x80,0x49,0x40,0x0a,0x90,0x49,0x47,
0x30,0x90,0x4c,0x47,0x3c,0x90,0x4f,0x47,0x3c,0x90,0x52,0x47,0x3c,0x80,0x34,
0x40,0x00,0x80,0x2e,0x40,0x00,0x80,0x31,0x40,0x00,0x80,0x2b,0x40,0x0a,0x90,
0x37,0x47,0x00,0x90,0x3a,0x47,0x00,0x90,0x3d,0x47,0x00,0x90,0x40,0x47,0x8e,
0x77,0x80,0x49,0x40,0x00,0x80,0x40,0x40,0x00,0x80,0x3d,0x40,0x00,0x80,0x3a,
0x40,0x00,0x80,0x37,0x40,0x00,0x80,0x52,0x40,0x00,0x80,0x4c,0x40,0x00,0x80,
0x4f,0x40,0x0a,0xb0,0x40,0x7f,0x00,0x90,0x1e,0x47,0x81,0x65,0x90,0x2d,0x47,
0x3c,0x90,0x30,0x47,0x3c,0x90,0x33,0x47,0x3d,0x90,0x36,0x47,0x3c,0x90,0x39,
0x47,0x81,0x71,0x80,0x1e,0x40,0x0a,0x90,0x1e,0x47,0x30,0x90,0x21,0x47,0x3c,
0x90,0x24,0x47,0x3e,0x80,0x1e,0x40,0x0a,0x90,0x27,0x47,0x82,0x22,0x80,0x39,
0x40,0x0a,0x90,0x39,0x47,0x32,0x80,0x2d,0x40,0x0a,0x90,0x3c,0x47,0x32,0x80,
0x30,0x40,0x0a,0x90,0x3f,0x47,0x32,0x80,0x33,0x40,0x0a,0x90,0x42,0x47,0x32,
0x80,0x36,0x40,0x0a,0x90,0x45,0x47,0x81,0x64,0x80,0x27,0x40,0x00,0x80,0x24,
0x40,0x00,0x80,0x21,0x40,0x0a,0x90,0x2b,0x47,0x32,0x90,0x2d,0x47,0x3d,0x90,
0x30,0x47,0x3b,0x80,0x39,0x40,0x0a,0x90,0x33,0x47,0x33,0x90,0x44,0x47,0x79,
0x80,0x3f,0x40,0x00,0x80,0x45,0x40,0x0a,0x90,0x45,0x47,0x81,0x1e,0x80,0x44,
0x40,0x00,0x80,0x3c,0x40,0x00,0x80,0x42,0x40,0x0a,0x90,0x48,0x47,0x3c,0x90,
0x4b,0x47,0x3c,0x90,0x51,0x47,0x3c,0x80,0x2b,0x40,0x00,0x80,0x30,0x40,0x00,
0x80,0x33,0x40,0x00,0x80,0x2d,0x40,0x0a,0x90,0x36,0x47,0x00,0x90,0x39,0x47,
0x00,0x90,0x3c,0x47,0x00,0x90,0x3f,0x47,0x8e,0x6f,0x80,0x51,0x40,0x00,0x80,
0x4b,0x40,0x00,0x80,0x3c,0x40,0x00,0x80,0x39,0x40,0x00,0x80,0x36,0x40,0x00,
0x80,0x45,0x40,0x00,0x80,0x48,0x40,0x0a,0xb0,0x40,0x00,0x00,0x90,0x31,0x3f,
0x57,0x80,0x3f,0x40,0x0a,0x90,0x44,0x3a,0x81,0x02,0x80,0x44,0x40,0x0a,0x90,
0x40,0x3a,0x6e,0x80,0x31,0x40,0x00,0x80,0x40,0x40,0x0a,0x90,0x44,0x3a,0x5d,
0x80,0x44,0x40,0x0a,0x90,0x38,0x3f,0x11,0x90,0x3d,0x3a,0x6e,0x80,0x3d,0x40,
0x0a,0x90,0x44,0x3a,0x6e,0x80,0x44,0x40,0x0a,0x90,0x40,0x3a,0x6e,0x80,0x40,
0x40,0x0a,0x90,0x44,0x3a,0x6e,0x80,0x44,0x40,0x0a,0x90,0x3d,0x3a,0x6e,0x80,
0x3d,0x40,0x0a,0x90,0x44,0x3a,0x6e,0x80,0x44,0x40,0x0a,0x90,0x40,0x3a,0x71,
0x80,0x40,0x40,0x0a,0x90,0x44,0x3a,0x57,0x80,0x44,0x40,0x0a,0x90,0x34,0x3f,
0x0a,0x80,0x38,0x40,0x0a,0x90,0x3d,0x3a,0x71,0x80,0x3d,0x40,0x0a,0x90,0x44,
0x3a,0x6b,0x80,0x44,0x40,0x0a,0x90,0x40,0x3a,0x5d,0x80,0x40,0x40,0x0a,0x90,
0x31,0x3f,0x09,0x80,0x34,0x40,0x0a,0x90,0x44,0x3a,0x6c,0x80,0x31,0x40,0x00,
0x80,0x44,0x40,0x0a,0x90,0x3f,0x3a,0x02,0x90,0x31,0x3f,0x6c,0x80,0x3f,0x40,
0x0a,0x90,0x44,0x3a,0x6e,0x80,0x44,0x40,0x0a,0x90,0x42,0x3a,0x6e,0x80,0x42,
0x40,0x0a,0x90,0x44,0x3a,0x5c,0x80,0x44,0x40,0x0a,0x90,0x30,0x3f,0x08,0x80,
0x31,0x40,0x0a,0x90,0x3f,0x3a,0x6e,0x80,0x3f,0x40,0x0a,0x90,0x44,0x3a,0x71,
0x80,0x44,0x40,0x0a,0x90,0x42,0x3a,0x6e,0x80,0x42,0x40,0x0a,0x90,0x44,0x3a,
0x6e,0x80,0x44,0x40,0x0a,0x90,0x3f,0x3a,0x6b,0x80,0x3f,0x40,0x0a,0x90,0x44,
0x3a,0x6e,0x80,0x30,0x40,0x00,0x80,0x44,0x40,0x0a,0x90,0x42,0x3a,0x02,0x90,
0x30,0x3f,0x6c,0x80,0x42,0x40,0x0a,0x90,0x44,0x3a,0x5d,0x80,0x44,0x40,0x0a,
0x90,0x38,0x3f,0x09,0x80,0x30,0x40,0x0a,0x90,0x3f,0x3a,0x6c,0x80,0x3f,0x40,
0x0a,0x90,0x44,0x3a,0x6e,0x80,0x44,0x40,0x0a,0x90,0x42,0x3a,0x5c,0x80,0x42,
0x40,0x0a,0x90,0x30,0x3f,0x08,0x80,0x38,0x40,0x0a,0x90,0x44,0x3a,0x6e,0x80,
0x30,0x40,0x00,0x80,0x44,0x40,0x0a,0x90,0x3d,0x3a,0x00,0x90,0x33,0x3f,0x71,
0x80,0x3d,0x40,0x0a,0x90,0x44,0x3a,0x6e,0x80,0x44,0x40,0x0a,0x90,0x40,0x3a,
0x6e,0x80,0x40,0x40,0x0a,0x90,0x44,0x3a,0x57,0x80,0x44,0x40,0x0a,0x90,0x31,
0x3f,0x0a,0x80,0x33,0x40,0x0a,0x90,0x3d,0x3a,0x6e,0x80,0x3d,0x40,0x0a,0x90,
0x44,0x3a,0x6e,0x80,0x44,0x40,0x0a,0x90,0x40,0x3a,0x6e,0x80,0x40,0x40,0x0a,
0x90,0x44,0x3a,0x6e,0x80,0x44,0x40,0x0a,0x90,0x3d,0x3a,0x6e,0x80,0x3d,0x40,
0x0a,0x90,0x44,0x3a,0x6e,0x80,0x31,0x40,0x00,0x80,0x44,0x40,0x0a,0x90,0x40,
0x3a,0x00,0x90,0x31,0x3f,0x6e,0x80,0x40,0x40,0x0a,0x90,0x44,0x3a,0x5c,0x80,
0x44,0x40,0x0a,0x90,0x38,0x3f,0x08,0x80,0x31,0x40,0x0a,0x90,0x3d,0x3a,0x71,
0x80,0x3d,0x40,0x0a,0x90,0x44,0x3a,0x6e,0x80,0x44,0x40,0x0a,0x90,0x40,0x3a,
0x57,0x80,0x40,0x40,0x0a,0x90,0x31,0x3f,0x0a,0x80,0x38,0x40,0x0a,0x90,0x44,
0x3a,0x6e,0x80,0x31,0x40,0x00,0x80,0x44,0x40,0x0a,0x90,0x3c,0x3a,0x03,0x90,
0x34,0x3f,0x6b,0x80,0x3c,0x40,0x0a,0x90,0x44,0x3a,0x6e,0x80,0x44,0x40,0x0a,
0x90,0x42,0x3a,0x6e,0x80,0x42,0x40,0x0a,0x90,0x44,0x3a,0x5d,0x80,0x44,0x40,
0x0a,0x90,0x33,0x3f,0x07,0x80,0x34,0x40,0x0a,0x90,0x3c,0x3a,0x6e,0x80,0x3c,
0x40,0x0a,0x90,0x44,0x3a,0x6e,0x80,0x44,0x40,0x0a,0x90,0x42,0x3a,0x6e,0x80,
0x42,0x40,0x0a,0x90,0x44,0x3a,0x71,0x80,0x44,0x40,0x0a,0x90,0x3c,0x3a,0x6e,
0x80,0x3c,0x40,0x0a,0x90,0x44,0x3a,0x6e,0x80,0x33,0x40,0x00,0x80,0x44,0x40,
0x0a,0x90,0x42,0x3a,0x00,0x90,0x33,0x3f,0x6b,0x80,0x42,0x40,0x0a,0x90,0x44,
0x3a,0x5d,0x80,0x44,0x40,0x0a,0x90,0x38,0x3f,0x09,0x80,0x33,0x40,0x0a,0x90,
0x3c,0x3a,0x6c,0x80,0x3c,0x40,0x0a,0x90,0x44,0x3a,0x6e,0x80,0x44,0x40,0x0a,
0x90,0x42,0x3a,0x5d,0x80,0x42,0x40,0x0a,0x90,0x33,0x3f,0x07,0x80,0x38,0x40,
0x0a,0x90,0x44,0x3a,0x5d,0x80,0x44,0x40,0x0a,0x90,0x40,0x3a,0x00,0x90,0x3d,
0x3a,0x07,0x80,0x33,0x40,0x0a,0x90,0x44,0x3a,0x00,0x90,0x34,0x3a,0x6e,0x80,
0x34,0x40,0x0a,0x90,0x38,0x3a,0x6e,0x80,0x38,0x40,0x0a,0x90,0x34,0x3a,0x71,
0x80,0x3d,0x40,0x00,0x80,0x34,0x40,0x00,0x80,0x44,0x40,0x00,0x80,0x40,0x40,
0x0a,0x90,0x38,0x3a,0x59,0x80,0x38,0x40,0x08,0x90,0x50,0x3f,0x02,0x90,0x44,
0x3a,0x15,0x90,0x34,0x3a,0x6e,0x80,0x34,0x40,0x0a,0x90,0x38,0x3a,0x6e,0x80,
0x38,0x40,0x0a,0x90,0x34,0x3a,0x6b,0x80,0x34,0x40,0x0a,0x90,0x38,0x3a,0x6e,
0x80,0x38,0x40,0x0a,0x90,0x34,0x3a,0x6e,0x80,0x34,0x40,0x0a,0x90,0x38,0x3a,
0x6e,0x80,0x38,0x40,0x0a,0x90,0x34,0x3a,0x6e,0x80,0x34,0x40,0x0a,0x90,0x38,
0x3a,0x6e,0x80,0x50,0x40,0x00,0x80,0x38,0x40,0x00,0x80,0x44,0x40,0x0a,0x90,
0x4c,0x3f,0x00,0x90,0x40,0x3a,0x02,0x90,0x34,0x3a,0x6c,0x80,0x34,0x40,0x0a,
0x90,0x38,0x3a,0x6e,0x80,0x38,0x40,0x0a,0x90,0x34,0x3a,0x71,0x80,0x4c,0x40,
0x00,0x80,0x34,0x40,0x00,0x80,0x40,0x40,0x0a,0x90,0x49,0x3f,0x00,0x90,0x3d,
0x3a,0x00,0x90,0x38,0x3a,0x6e,0x80,0x49,0x40,0x00,0x80,0x38,0x40,0x00,0x80,
0x3d,0x40,0x0a,0x90,0x49,0x3f,0x00,0x90,0x3d,0x3a,0x00,0x90,0x36,0x3a,0x6e,
0x80,0x36,0x40,0x0a,0x90,0x38,0x3a,0x6e,0x80,0x38,0x40,0x0a,0x90,0x36,0x3a,
0x6b,0x80,0x36,0x40,0x0a,0x90,0x38,0x3a,0x5d,0x80,0x38,0x40,0x0a,0x90,0x48,
0x3f,0x00,0x90,0x3c,0x3a,0x07,0x80,0x49,0x40,0x00,0x80,0x3d,0x40,0x0a,0x90,
0x36,0x3a,0x6e,0x80,0x36,0x40,0x0a,0x90,0x38,0x3a,0x6e,0x80,0x38,0x40,0x0a,
0x90,0x36,0x3a,0x6e,0x80,0x36,0x40,0x0a,0x90,0x38,0x3a,0x6e,0x80,0x38,0x40,
0x0a,0x90,0x36,0x3a,0x6e,0x80,0x36,0x40,0x0a,0x90,0x38,0x3a,0x71,0x80,0x48,
0x40,0x00,0x80,0x38,0x40,0x00,0x80,0x3c,0x40,0x0a,0x90,0x48,0x3f,0x00,0x90,
0x3c,0x3a,0x00,0x90,0x36,0x3a,0x6e,0x80,0x36,0x40,0x0a,0x90,0x38,0x3a,0x61,
0x90,0x50,0x3f,0x00,0x90,0x44,0x3a,0x0a,0x80,0x48,0x40,0x00,0x80,0x3c,0x40,
0x00,0x80,0x38,0x40,0x0a,0x90,0x36,0x3a,0x71,0x80,0x36,0x40,0x0a,0x90,0x38,
0x3a,0x6b,0x80,0x38,0x40,0x0a,0x90,0x36,0x3a,0x5d,0x80,0x36,0x40,0x0a,0x90,
0x48,0x3f,0x00,0x90,0x3c,0x3a,0x07,0x80,0x50,0x40,0x00,0x80,0x44,0x40,0x0a,
0x90,0x38,0x3a,0x6e,0x80,0x48,0x40,0x00,0x80,0x38,0x40,0x00,0x80,0x3c,0x40,
0x0a,0x90,0x4b,0x3f,0x02,0x90,0x3f,0x3a,0x00,0x90,0x34,0x3a,0x6c,0x80,0x34,
0x40,0x0a,0x90,0x38,0x3a,0x6e,0x80,0x38,0x40,0x0a,0x90,0x34,0x3a,0x6e,0x80,
0x34,0x40,0x0a,0x90,0x38,0x3a,0x5c,0x80,0x38,0x40,0x08,0x90,0x49,0x3f,0x02,
0x90,0x3d,0x3a,0x0a,0x80,0x4b,0x40,0x00,0x80,0x3f,0x40,0x0a,0x90,0x34,0x3a,
0x6f,0x80,0x34,0x40,0x0a,0x90,0x38,0x3a,0x6e,0x80,0x38,0x40,0x0a,0x90,0x34,
0x3a,0x6e,0x80,0x34,0x40,0x0a,0x90,0x38,0x3a,0x6e,0x80,0x38,0x40,0x0a,0x90,
0x34,0x3a,0x6b,0x80,0x34,0x40,0x0a,0x90,0x38,0x3a,0x6e,0x80,0x49,0x40,0x00,
0x80,0x38,0x40,0x00,0x80,0x3d,0x40,0x0a,0x90,0x49,0x3f,0x02,0x90,0x3d,0x3a,
0x00,0x90,0x34,0x3a,0x6c,0x80,0x34,0x40,0x0a,0x90,0x38,0x3a,0x5d,0x80,0x38,
0x40,0x0a,0x90,0x50,0x3f,0x00,0x90,0x44,0x3a,0x07,0x80,0x49,0x40,0x00,0x80,
0x3d,0x40,0x0a,0x90,0x34,0x3a,0x6e,0x80,0x34,0x40,0x0a,0x90,0x38,0x3a,0x6e,
0x80,0x38,0x40,0x0a,0x90,0x34,0x3a,0x5c,0x80,0x34,0x40,0x08,0x90,0x49,0x3f,
0x02,0x90,0x3d,0x3a,0x0a,0x80,0x50,0x40,0x00,0x80,0x44,0x40,0x0a,0x90,0x38,
0x3a,0x6c,0x80,0x49,0x40,0x00,0x80,0x38,0x40,0x00,0x80,0x3d,0x40,0x0a,0x90,
0x4c,0x3f,0x00,0x90,0x40,0x3a,0x02,0x90,0x30,0x3a,0x6f,0x80,0x30,0x40,0x0a,
0x90,0x38,0x3a,0x6e,0x80,0x38,0x40,0x0a,0x90,0x30,0x3a,0x6e,0x80,0x30,0x40,
0x0a,0x90,0x38,0x3a,0x61,0x90,0x4b,0x3f,0x00,0x90,0x3f,0x3a,0x0a,0x80,0x4c,
0x40,0x00,0x80,0x40,0x40,0x00,0x80,0x38,0x40,0x0a,0x90,0x30,0x3a,0x6e,0x80,
0x30,0x40,0x0a,0x90,0x38,0x3a,0x6e,0x80,0x38,0x40,0x0a,0x90,0x30,0x3a,0x6e,
0x80,0x30,0x40,0x0a,0x90,0x38,0x3a,0x6e,0x80,0x38,0x40,0x0a,0x90,0x30,0x3a,
0x6e,0x80,0x30,0x40,0x0a,0x90,0x38,0x3a,0x6e,0x80,0x4b,0x40,0x00,0x80,0x38,
0x40,0x00,0x80,0x3f,0x40,0x0a,0x90,0x4b,0x3f,0x00,0x90,0x3f,0x3a,0x02,0x90,
0x30,0x3a,0x6c,0x80,0x30,0x40,0x0a,0x90,0x38,0x3a,0x5c,0x80,0x38,0x40,0x08,
0x90,0x50,0x3f,0x02,0x90,0x44,0x3a,0x08,0x80,0x4b,0x40,0x00,0x80,0x3f,0x40,
0x0a,0x90,0x30,0x3a,0x71,0x80,0x30,0x40,0x0a,0x90,0x38,0x3a,0x6e,0x80,0x38,
0x40,0x0a,0x90,0x30,0x3a,0x61,0x90,0x4b,0x3f,0x00,0x90,0x3f,0x3a,0x0a,0x80,
0x50,0x40,0x00,0x80,0x44,0x40,0x00,0x80,0x30,0x40,0x0a,0x90,0x38,0x3a,0x6e,
0x80,0x4b,0x40,0x00,0x80,0x38,0x40,0x00,0x80,0x3f,0x40,0x0a,0x90,0x4e,0x3f,
0x02,0x90,0x42,0x3a,0x00,0x90,0x31,0x3a,0x6c,0x80,0x31,0x40,0x0a,0x90,0x38,
0x3a,0x5d,0x80,0x38,0x40,0x0a,0x90,0x4c,0x3f,0x00,0x90,0x40,0x3a,0x07,0x80,
0x4e,0x40,0x00,0x80,0x42,0x40,0x0a,0x90,0x31,0x3a,0x6e,0x80,0x31,0x40,0x0a,
0x90,0x38,0x3a,0x6e,0x80,0x4c,0x40,0x00,0x80,0x38,0x40,0x00,0x80,0x40,0x40,
0x0a,0x90,0x55,0x3f,0x00,0x90,0x49,0x3a,0x02,0x90,0x31,0x3a,0x6c,0x80,0x31,
0x40,0x0a,0x90,0x38,0x3a,0x5a,0x80,0x55,0x40,0x00,0x80,0x49,0x40,0x02,0x80,
0x38,0x40,0x08,0x90,0x4c,0x3f,0x02,0x90,0x40,0x3a,0x12,0x90,0x31,0x3a,0x71,
0x80,0x31,0x40,0x0a,0x90,0x38,0x3a,0x57,0x80,0x4c,0x40,0x00,0x80,0x40,0x40,
0x02,0x80,0x38,0x40,0x08,0x90,0x4e,0x42,0x02,0x90,0x42,0x42,0x15,0x90,0x2f,
0x3c,0x6e,0x80,0x2f,0x40,0x0a,0x90,0x31,0x3c,0x61,0x90,0x4d,0x42,0x00,0x90,
0x41,0x42,0x0a,0x80,0x4e,0x40,0x00,0x80,0x42,0x40,0x00,0x80,0x31,0x40,0x0a,
0x90,0x2f,0x3c,0x6e,0x80,0x2f,0x40,0x0a,0x90,0x31,0x3c,0x6e,0x80,0x4d,0x40,
0x00,0x80,0x31,0x40,0x00,0x80,0x41,0x40,0x0a,0x90,0x55,0x42,0x02,0x90,0x49,
0x42,0x00,0x90,0x2f,0x3c,0x6c,0x80,0x2f,0x40,0x0a,0x90,0x31,0x3c,0x5d,0x80,
0x55,0x40,0x00,0x80,0x31,0x40,0x00,0x80,0x49,0x40,0x0a,0x90,0x4d,0x42,0x00,
0x90,0x41,0x42,0x11,0x90,0x2f,0x3c,0x6e,0x80,0x2f,0x40,0x0a,0x90,0x31,0x3c,
0x5a,0x80,0x4d,0x40,0x00,0x80,0x41,0x40,0x03,0x80,0x31,0x40,0x07,0x90,0x50,
0x46,0x03,0x90,0x44,0x46,0x11,0x90,0x2d,0x40,0x6e,0x80,0x2d,0x40,0x0a,0x90,
0x31,0x40,0x5c,0x80,0x31,0x40,0x08,0x90,0x4e,0x46,0x02,0x90,0x42,0x46,0x08,
0x80,0x50,0x40,0x00,0x80,0x44,0x40,0x0a,0x90,0x2d,0x40,0x71,0x80,0x2d,0x40,
0x0a,0x90,0x31,0x40,0x6e,0x80,0x4e,0x40,0x00,0x80,0x31,0x40,0x00,0x80,0x42,
0x40,0x0a,0x90,0x55,0x46,0x00,0x90,0x49,0x46,0x00,0x90,0x2d,0x40,0x6e,0x80,
0x2d,0x40,0x0a,0x90,0x31,0x40,0x5a,0x80,0x55,0x40,0x00,0x80,0x49,0x40,0x0a,
0x90,0x4e,0x46,0x00,0x90,0x42,0x46,0x07,0x80,0x31,0x40,0x0a,0x90,0x2d,0x40,
0x6e,0x80,0x2d,0x40,0x0a,0x90,0x31,0x40,0x5d,0x80,0x42,0x40,0x00,0x80,0x31,
0x40,0x00,0x80,0x4e,0x40,0x0a,0x90,0x51,0x4b,0x00,0x90,0x45,0x4b,0x11,0x90,
0x29,0x45,0x6e,0x80,0x29,0x40,0x0a,0x90,0x31,0x45,0x5d,0x80,0x31,0x40,0x07,
0x90,0x50,0x4b,0x03,0x90,0x44,0x4b,0x09,0x80,0x51,0x40,0x00,0x80,0x45,0x40,
0x0a,0x90,0x29,0x45,0x6c,0x80,0x29,0x40,0x0a,0x90,0x31,0x45,0x6e,0x80,0x50,
0x40,0x00,0x80,0x31,0x40,0x00,0x80,0x44,0x40,0x0a,0x90,0x55,0x4b,0x00,0x90,
0x49,0x4b,0x02,0x90,0x29,0x45,0x6c,0x80,0x29,0x40,0x0a,0x90,0x31,0x45,0x5a,
0x80,0x55,0x40,0x00,0x80,0x49,0x40,0x0a,0x90,0x50,0x4b,0x00,0x90,0x44,0x4b,
0x0d,0x80,0x31,0x40,0x0a,0x90,0x29,0x45,0x6e,0x80,0x29,0x40,0x0a,0x90,0x31,
0x45,0x57,0x80,0x44,0x40,0x00,0x80,0x50,0x40,0x02,0x80,0x31,0x40,0x08,0x90,
0x51,0x4f,0x00,0x90,0x2a,0x4f,0x02,0x90,0x25,0x4f,0x15,0x90,0x1e,0x4f,0x81,
0x09,0x90,0x4e,0x4f,0x81,0x16,0x80,0x51,0x40,0x0a,0x90,0x49,0x4f,0x81,0x19,
0x80,0x4e,0x40,0x0a,0x90,0x45,0x4f,0x81,0x16,0x80,0x49,0x40,0x0a,0x90,0x42,
0x4f,0x81,0x13,0x80,0x45,0x40,0x0a,0x90,0x3d,0x4f,0x81,0x2a,0x80,0x42,0x40,
0x00,0x80,0x3d,0x40,0x0a,0x90,0x45,0x4f,0x81,0x0c,0x90,0x42,0x4f,0x81,0x19,
0x80,0x45,0x40,0x0a,0x90,0x3d,0x4f,0x81,0x13,0x80,0x42,0x40,0x0a,0x90,0x39,
0x4f,0x81,0x16,0x80,0x3d,0x40,0x0a,0x90,0x36,0x4f,0x81,0x16,0x80,0x39,0x40,
0x0a,0x90,0x31,0x4f,0x81,0x2a,0x80,0x36,0x40,0x00,0x80,0x31,0x40,0x0a,0x90,
0x39,0x4f,0x64,0x90,0x36,0x4f,0x6e,0x80,0x39,0x40,0x0a,0x90,0x31,0x4f,0x6e,
0x80,0x36,0x40,0x0a,0x90,0x2d,0x4f,0x6e,0x80,0x31,0x40,0x0a,0x90,0x31,0x4f,
0x6e,0x80,0x2d,0x40,0x0a,0x90,0x36,0x4f,0x6e,0x80,0x31,0x40,0x0a,0x90,0x39,
0x4f,0x6e,0x80,0x36,0x40,0x0a,0x90,0x3d,0x4f,0x71,0x80,0x39,0x40,0x0a,0x90,
0x42,0x4f,0x6e,0x80,0x3d,0x40,0x0a,0x90,0x45,0x4f,0x6e,0x80,0x42,0x40,0x0a,
0x90,0x49,0x4f,0x6e,0x80,0x45,0x40,0x0a,0x90,0x4e,0x4f,0x6b,0x80,0x49,0x40,
0x0a,0x90,0x51,0x4f,0x6e,0x80,0x4e,0x40,0x0a,0x90,0x4e,0x4f,0x6e,0x80,0x51,
0x40,0x0a,0x90,0x49,0x4f,0x6e,0x80,0x4e,0x40,0x0a,0x90,0x45,0x4f,0x81,0x05,
0x80,0x49,0x40,0x00,0x80,0x45,0x40,0x00,0x80,0x1e,0x40,0x00,0x80,0x25,0x40,
0x00,0x80,0x2a,0x40,0x0a,0x90,0x51,0x4f,0x00,0x90,0x2a,0x4f,0x00,0x90,0x26,
0x4f,0x03,0x90,0x1e,0x4f,0x81,0x06,0x90,0x4e,0x4f,0x81,0x19,0x80,0x51,0x40,
0x0a,0x90,0x4a,0x4f,0x81,0x16,0x80,0x4e,0x40,0x0a,0x90,0x45,0x4f,0x81,0x13,
0x80,0x4a,0x40,0x0a,0x90,0x42,0x4f,0x81,0x16,0x80,0x45,0x40,0x0a,0x90,0x3e,
0x4f,0x81,0x2a,0x80,0x42,0x40,0x00,0x80,0x3e,0x40,0x0a,0x90,0x45,0x4f,0x81,
0x0f,0x90,0x42,0x4f,0x81,0x13,0x80,0x45,0x40,0x0a,0x90,0x3e,0x4f,0x81,0x16,
0x80,0x42,0x40,0x0a,0x90,0x39,0x4f,0x81,0x16,0x80,0x3e,0x40,0x0a,0x90,0x36,
0x4f,0x81,0x16,0x80,0x39,0x40,0x0a,0x90,0x32,0x4f,0x81,0x2a,0x80,0x36,0x40,
0x00,0x80,0x32,0x40,0x0a,0x90,0x39,0x4f,0x67,0x90,0x36,0x4f,0x6e,0x80,0x39,
0x40,0x0a,0x90,0x32,0x4f,0x6b,0x80,0x36,0x40,0x0a,0x90,0x2d,0x4f,0x6e,0x80,
0x32,0x40,0x0a,0x90,0x32,0x4f,0x6e,0x80,0x2d,0x40,0x0a,0x90,0x36,0x4f,0x6e,
0x80,0x32,0x40,0x0a,0x90,0x39,0x4f,0x6e,0x80,0x36,0x40,0x0a,0x90,0x3e,0x4f,
0x6e,0x80,0x39,0x40,0x0a,0x90,0x42,0x4f,0x6e,0x80,0x3e,0x40,0x0a,0x90,0x45,
0x4f,0x71,0x80,0x42,0x40,0x0a,0x90,0x4a,0x4f,0x6e,0x80,0x45,0x40,0x0a,0x90,
0x4e,0x4f,0x6e,0x80,0x4a,0x40,0x0a,0x90,0x51,0x4f,0x6e,0x80,0x4e,0x40,0x0a,
0x90,0x4e,0x4f,0x6b,0x80,0x51,0x40,0x0a,0x90,0x4a,0x4f,0x6e,0x80,0x4e,0x40,
0x0a,0x90,0x45,0x4f,0x81,0x02,0x80,0x4a,0x40,0x00,0x80,0x45,0x40,0x00,0x80,
0x1e,0x40,0x00,0x80,0x26,0x40,0x00,0x80,0x2a,0x40,0x0a,0x90,0x55,0x4f,0x00,
0x90,0x2b,0x4f,0x02,0x90,0x25,0x4f,0x00,0x90,0x1f,0x4f,0x81,0x0a,0x90,0x52,
0x4f,0x81,0x19,0x80,0x55,0x40,0x0a,0x90,0x4f,0x4f,0x81,0x13,0x80,0x52,0x40,
0x0a,0x90,0x4c,0x4f,0x81,0x16,0x80,0x4f,0x40,0x0a,0x90,0x49,0x4f,0x81,0x16,
0x80,0x4c,0x40,0x0a,0x90,0x46,0x4f,0x81,0x2a,0x80,0x49,0x40,0x00,0x80,0x46,
0x40,0x0a,0x90,0x4c,0x4f,0x81,0x0f,0x90,0x49,0x4f,0x81,0x13,0x80,0x4c,0x40,
0x0a,0x90,0x46,0x4f,0x81,0x16,0x80,0x49,0x40,0x0a,0x90,0x43,0x4f,0x6e,0x80,
0x46,0x40,0x0a,0x90,0x40,0x4f,0x6e,0x80,0x43,0x40,0x0a,0x90,0x3d,0x4f,0x6e,
0x80,0x40,0x40,0x0a,0x90,0x3a,0x4f,0x81,0x02,0x80,0x3d,0x40,0x00,0x80,0x3a,
0x40,0x0a,0x90,0x40,0x4f,0x67,0x90,0x3d,0x4f,0x6e,0x80,0x40,0x40,0x0a,0x90,
0x3a,0x4f,0x6e,0x80,0x3d,0x40,0x0a,0x90,0x37,0x4f,0x6e,0x80,0x3a,0x40,0x0a,
0x90,0x34,0x4f,0x6b,0x80,0x37,0x40,0x0a,0x90,0x31,0x4f,0x6e,0x80,0x34,0x40,
0x0a,0x90,0x34,0x4f,0x6e,0x80,0x31,0x40,0x0a,0x90,0x37,0x4f,0x6e,0x80,0x34,
0x40,0x0a,0x90,0x3a,0x4f,0x49,0x80,0x37,0x40,0x0a,0x90,0x3d,0x4f,0x43,0x80,
0x3a,0x40,0x0a,0x90,0x40,0x4f,0x46,0x80,0x3d,0x40,0x0a,0x90,0x43,0x4f,0x49,
0x80,0x40,0x40,0x0a,0x90,0x46,0x4f,0x43,0x80,0x43,0x40,0x0a,0x90,0x49,0x4f,
0x49,0x80,0x46,0x40,0x0a,0x90,0x4c,0x4f,0x43,0x80,0x49,0x40,0x0a,0x90,0x4f,
0x4f,0x46,0x80,0x4c,0x40,0x0a,0x90,0x52,0x4f,0x49,0x80,0x4f,0x40,0x0a,0x90,
0x55,0x4f,0x43,0x80,0x52,0x40,0x0a,0x90,0x52,0x4f,0x46,0x80,0x55,0x40,0x0a,
0x90,0x4c,0x4f,0x5a,0x80,0x52,0x40,0x00,0x80,0x4c,0x40,0x00,0x80,0x1f,0x40,
0x00,0x80,0x25,0x40,0x00,0x80,0x2b,0x40,0x0a,0x90,0x58,0x4f,0x00,0x90,0x2c,
0x4f,0x02,0x90,0x25,0x4f,0x00,0x90,0x20,0x4f,0x81,0x0d,0x90,0x55,0x4f,0x81,
0x13,0x80,0x58,0x40,0x0a,0x90,0x50,0x4f,0x81,0x16,0x80,0x55,0x40,0x0a,0x90,
0x4c,0x4f,0x81,0x16,0x80,0x50,0x40,0x0a,0x90,0x49,0x4f,0x81,0x19,0x80,0x4c,
0x40,0x0a,0x90,0x44,0x4f,0x81,0x16,0x80,0x49,0x40,0x0a,0x90,0x4c,0x4f,0x81,
0x13,0x80,0x44,0x40,0x0a,0x90,0x49,0x4f,0x81,0x16,0x80,0x4c,0x40,0x0a,0x90,
0x44,0x4f,0x81,0x16,0x80,0x49,0x40,0x0a,0x90,0x40,0x4f,0x6e,0x80,0x44,0x40,
0x0a,0x90,0x49,0x4f,0x6e,0x80,0x40,0x40,0x0a,0x90,0x44,0x4f,0x6e,0x80,0x49,
0x40,0x0a,0x90,0x40,0x4f,0x6e,0x80,0x44,0x40,0x0a,0x90,0x3d,0x4f,0x6e,0x80,
0x40,0x40,0x0a,0x90,0x44,0x4f,0x6e,0x80,0x3d,0x40,0x0a,0x90,0x40,0x4f,0x71,
0x80,0x44,0x40,0x0a,0x90,0x3d,0x4f,0x6e,0x80,0x40,0x40,0x0a,0x90,0x38,0x4f,
0x6e,0x80,0x3d,0x40,0x0a,0x90,0x40,0x4f,0x6e,0x80,0x38,0x40,0x0a,0x90,0x3d,
0x4f,0x6b,0x80,0x40,0x40,0x0a,0x90,0x38,0x4f,0x6e,0x80,0x3d,0x40,0x0a,0x90,
0x34,0x4f,0x6e,0x80,0x38,0x40,0x0a,0x90,0x3d,0x4f,0x6e,0x80,0x34,0x40,0x0a,
0x90,0x38,0x4f,0x6e,0x80,0x3d,0x40,0x0a,0x90,0x34,0x4f,0x6e,0x80,0x38,0x40,
0x0a,0x90,0x31,0x4f,0x6e,0x80,0x34,0x40,0x0a,0x90,0x38,0x4f,0x71,0x80,0x31,
0x40,0x0a,0x90,0x34,0x4f,0x6e,0x80,0x38,0x40,0x0a,0x90,0x31,0x4f,0x7f,0x80,
0x34,0x40,0x00,0x80,0x31,0x40,0x00,0x80,0x20,0x40,0x00,0x80,0x25,0x40,0x00,
0x80,0x2c,0x40,0x0a,0x90,0x2c,0x4f,0x6e,0x80,0x2c,0x40,0x0a,0x90,0x2d,0x4f,
0x6e,0x80,0x2d,0x40,0x0a,0x90,0x2e,0x4f,0x6e,0x80,0x2e,0x40,0x0a,0x90,0x2f,
0x4f,0x6e,0x80,0x2f,0x40,0x0a,0x90,0x30,0x4f,0x6e,0x80,0x30,0x40,0x0a,0x90,
0x31,0x4f,0x71,0x80,0x31,0x40,0x0a,0x90,0x32,0x4f,0x6e,0x80,0x32,0x40,0x0a,
0x90,0x33,0x4f,0x6e,0x80,0x33,0x40,0x0a,0x90,0x34,0x4f,0x75,0x90,0x35,0x4f,
0x6e,0x80,0x34,0x40,0x00,0x80,0x35,0x40,0x0a,0x90,0x36,0x4f,0x6e,0x80,0x36,
0x40,0x0a,0x90,0x37,0x4f,0x6e,0x80,0x37,0x40,0x0a,0x90,0x38,0x4f,0x6e,0x80,
0x38,0x40,0x0a,0x90,0x39,0x4f,0x6e,0x80,0x39,0x40,0x0a,0x90,0x3a,0x4f,0x6e,
0x80,0x3a,0x40,0x0a,0x90,0x3b,0x4f,0x71,0x80,0x3b,0x40,0x0a,0x90,0x3c,0x4f,
0x65,0x80,0x3c,0x40,0x0a,0x90,0x3d,0x4f,0x64,0x80,0x3d,0x40,0x0a,0x90,0x3e,
0x4f,0x64,0x80,0x3e,0x40,0x0a,0x90,0x3f,0x4f,0x65,0x80,0x3f,0x40,0x0a,0x90,
0x40,0x4f,0x4e,0x80,0x40,0x40,0x0a,0x90,0x41,0x4f,0x51,0x80,0x41,0x40,0x0a,
0x90,0x42,0x4f,0x55,0x90,0x43,0x4f,0x4e,0x80,0x42,0x40,0x00,0x80,0x43,0x40,
0x0a,0x90,0x44,0x4f,0x4f,0x80,0x44,0x40,0x0a,0x90,0x45,0x4f,0x4e,0x80,0x45,
0x40,0x0a,0x90,0x46,0x4f,0x51,0x80,0x46,0x40,0x0a,0x90,0x47,0x4f,0x55,0x90,
0x48,0x4f,0x4e,0x80,0x47,0x40,0x00,0x80,0x48,0x40,0x0a,0x90,0x49,0x4f,0x52,
0x80,0x49,0x40,0x0a,0x90,0x4a,0x4f,0x81,0x00,0x90,0x4b,0x4f,0x7e,0x80,0x4a,
0x40,0x0a,0x90,0x4c,0x4f,0x7b,0x80,0x4b,0x40,0x0a,0x90,0x4d,0x4f,0x22,0x80,
0x4c,0x40,0x00,0x80,0x4d,0x40,0x0a,0x90,0x4e,0x4f,0x22,0x80,0x4e,0x40,0x0a,
0x90,0x4f,0x4f,0x22,0x80,0x4f,0x40,0x0a,0x90,0x50,0x4f,0x28,0xb0,0x40,0x7f,
0x00,0x90,0x42,0x4f,0x00,0x90,0x3c,0x4f,0x03,0x90,0x51,0x4f,0x00,0x90,0x38,
0x4f,0x1c,0x80,0x50,0x40,0x0a,0x90,0x51,0x47,0x51,0x80,0x51,0x40,0x0a,0x90,
0x53,0x47,0x46,0x80,0x53,0x40,0x0a,0x90,0x51,0x47,0x3b,0x80,0x51,0x40,0x0a,
0x90,0x53,0x47,0x50,0x80,0x53,0x40,0x0a,0x90,0x51,0x47,0x47,0x80,0x51,0x40,
0x0a,0x90,0x53,0x47,0x3b,0x80,0x53,0x40,0x0a,0x90,0x51,0x47,0x50,0x80,0x51,
0x40,0x0a,0x90,0x53,0x47,0x47,0x80,0x53,0x40,0x0a,0x90,0x51,0x47,0x3b,0x80,
0x51,0x40,0x0a,0x90,0x53,0x47,0x50,0x80,0x53,0x40,0x0a,0x90,0x51,0x47,0x47,
0x80,0x51,0x40,0x0a,0x90,0x53,0x47,0x52,0x80,0x53,0x40,0x0a,0x90,0x51,0x47,
0x51,0x80,0x51,0x40,0x0a,0x90,0x53,0x47,0x46,0x80,0x53,0x40,0x0a,0x90,0x51,
0x47,0x3b,0x80,0x51,0x40,0x0a,0x90,0x53,0x47,0x50,0x80,0x53,0x40,0x0a,0x90,
0x51,0x47,0x47,0x80,0x51,0x40,0x0a,0x90,0x53,0x47,0x3b,0x80,0x53,0x40,0x0a,
0x90,0x51,0x47,0x50,0x80,0x51,0x40,0x0a,0x90,0x53,0x47,0x47,0x80,0x53,0x40,
0x0a,0x90,0x51,0x47,0x3b,0x80,0x51,0x40,0x0a,0x90,0x53,0x47,0x50,0x80,0x53,
0x40,0x0a,0x90,0x51,0x47,0x47,0x80,0x51,0x40,0x0a,0x90,0x53,0x47,0x13,0xb0,
0x40,0x00,0x1b,0x90,0x50,0x3a,0x81,0x66,0x80,0x53,0x40,0x00,0x80,0x50,0x40,
0x0a,0x90,0x4e,0x3a,0x81,0x66,0x80,0x4e,0x40,0x0a,0x90,0x4c,0x3a,0x81,0x66,
0x80,0x4c,0x40,0x0a,0x90,0x4b,0x3a,0x81,0x68,0x80,0x4b,0x40,0x0a,0x90,0x4e,
0x3a,0x81,0x6e,0x90,0x49,0x3a,0x81,0x66,0x80,0x4e,0x40,0x00,0x80,0x49,0x40,
0x0a,0x90,0x48,0x3a,0x81,0x66,0x80,0x48,0x40,0x0a,0x90,0x4b,0x3a,0x81,0x66,
0x80,0x38,0x40,0x00,0x80,0x4b,0x40,0x0a,0x90,0x45,0x3a,0x81,0x66,0x80,0x45,
0x40,0x0a,0x90,0x44,0x3a,0x81,0x69,0x80,0x44,0x40,0x0a,0x90,0x42,0x3a,0x81,
0x6d,0x90,0x45,0x3a,0x81,0x69,0x80,0x42,0x40,0x00,0x80,0x45,0x40,0x0a,0x90,
0x40,0x3a,0x81,0x6d,0x90,0x3f,0x3a,0x81,0x69,0x80,0x40,0x40,0x00,0x80,0x3f,
0x40,0x0a,0x90,0x42,0x3a,0x81,0x6d,0x90,0x3d,0x3a,0x81,0x66,0x80,0x51,0x40,
0x00,0x80,0x3d,0x40,0x00,0x80,0x42,0x40,0x00,0x80,0x3c,0x40,0x00,0x80,0x42,
0x40,0x0a,0x90,0x3c,0x3a,0x81,0x66,0x80,0x3c,0x40,0x0a,0x90,0x3f,0x3a,0x81,
0x69,0x80,0x3f,0x40,0x0a,0x90,0x39,0x3a,0x81,0x6d,0x90,0x38,0x3a,0x81,0x69,
0x80,0x39,0x40,0x00,0x80,0x38,0x40,0x0a,0x90,0x36,0x3a,0x81,0x6d,0x90,0x39,
0x3a,0x81,0x66,0x80,0x36,0x40,0x00,0x80,0x39,0x40,0x0a,0x90,0x34,0x3a,0x81,
0x66,0x80,0x34,0x40,0x0a,0x90,0x33,0x3a,0x81,0x66,0x80,0x33,0x40,0x0a,0x90,
0x36,0x3a,0x81,0x66,0x80,0x36,0x40,0x0a,0x90,0x31,0x3a,0x81,0x66,0x80,0x31,
0x40,0x0a,0x90,0x30,0x3a,0x81,0x66,0x80,0x30,0x40,0x0a,0x90,0x33,0x3a,0x83,
0x56,0x80,0x33,0x40,0x0a,0x90,0x2d,0x37,0x83,0x59,0x80,0x2d,0x40,0x0a,0x90,
0x2c,0x35,0x84,0x1c,0x80,0x2c,0x40,0x0a,0x90,0x1f,0x3a,0x00,0x90,0x2b,0x3a,
0x96,0x4a,0x80,0x1f,0x40,0x00,0x80,0x2b,0x40,0x0a,0x90,0x20,0x3a,0x00,0x90,
0x2c,0x3a,0x96,0x2f,0x90,0x25,0x3a,0x07,0x80,0x20,0x40,0x00,0x80,0x2c,0x40,
0x0a,0x90,0x31,0x3a,0x6e,0x80,0x25,0x40,0x0a,0x90,0x31,0x3a,0x6e,0x80,0x31,
0x40,0x0a,0x90,0x2c,0x3a,0x6e,0x80,0x2c,0x40,0x0a,0x90,0x31,0x3a,0x6e,0x80,
0x31,0x40,0x00,0x80,0x31,0x40,0x0a,0x90,0x25,0x3a,0x6e,0x80,0x25,0x40,0x0a,
0x90,0x31,0x3a,0x6e,0x80,0x31,0x40,0x0a,0x90,0x2c,0x3a,0x6e,0x80,0x2c,0x40,
0x0a,0x90,0x31,0x3a,0x71,0x80,0x31,0x40,0x0a,0x90,0x25,0x3a,0x6e,0x80,0x25,
0x40,0x0a,0x90,0x31,0x3a,0x6e,0x80,0x31,0x40,0x0a,0x90,0x2c,0x3a,0x6b,0x80,
0x2c,0x40,0x0a,0x90,0x31,0x3a,0x5d,0x80,0x31,0x40,0x0a,0x90,0x40,0x3f,0x11,
0x90,0x25,0x3a,0x6e,0x80,0x25,0x40,0x0a,0x90,0x31,0x3a,0x6e,0x80,0x31,0x40,
0x0a,0x90,0x2c,0x3a,0x64,0x90,0x3d,0x3f,0x0a,0x80,0x40,0x40,0x00,0x80,0x2c,
0x40,0x0a,0x90,0x31,0x3a,0x6e,0x80,0x3d,0x40,0x00,0x80,0x31,0x40,0x0a,0x90,
0x3c,0x3f,0x00,0x90,0x25,0x3a,0x6e,0x80,0x25,0x40,0x0a,0x90,0x33,0x3a,0x6e,
0x80,0x33,0x40,0x0a,0x90,0x2c,0x3a,0x6e,0x80,0x2c,0x40,0x0a,0x90,0x33,0x3a,
0x5a,0x80,0x3c,0x40,0x02,0x80,0x33,0x40,0x08,0x90,0x3c,0x3a,0x02,0x90,0x36,
0x3a,0x15,0x90,0x44,0x3f,0x00,0x90,0x25,0x3a,0x6e,0x80,0x25,0x40,0x0a,0x90,
0x33,0x3a,0x6e,0x80,0x33,0x40,0x0a,0x90,0x2c,0x3a,0x6b,0x80,0x3c,0x40,0x00,
0x80,0x2c,0x40,0x00,0x80,0x44,0x40,0x00,0x80,0x36,0x40,0x0a,0x90,0x33,0x3a,
0x67,0x90,0x44,0x3f,0x00,0x90,0x3c,0x3a,0x00,0x90,0x36,0x3a,0x07,0x80,0x33,
0x40,0x0a,0x90,0x25,0x3a,0x6e,0x80,0x25,0x40,0x0a,0x90,0x33,0x3a,0x6e,0x80,
0x33,0x40,0x0a,0x90,0x2c,0x3a,0x6e,0x80,0x36,0x40,0x00,0x80,0x2c,0x40,0x00,
0x80,0x3c,0x40,0x00,0x80,0x44,0x40,0x0a,0x90,0x33,0x3a,0x5c,0x80,0x33,0x40,
0x08,0x90,0x44,0x3f,0x02,0x90,0x3c,0x3a,0x00,0x90,0x36,0x3a,0x12,0x90,0x25,
0x3a,0x6e,0x80,0x25,0x40,0x0a,0x90,0x33,0x3a,0x71,0x80,0x33,0x40,0x0a,0x90,
0x2c,0x3a,0x6e,0x80,0x44,0x40,0x00,0x80,0x2c,0x40,0x00,0x80,0x36,0x40,0x00,
0x80,0x3c,0x40,0x0a,0x90,0x33,0x3a,0x57,0x80,0x33,0x40,0x0a,0x90,0x34,0x3f,
0x17,0x90,0x25,0x3a,0x57,0x80,0x25,0x40,0x0a,0x90,0x3d,0x3f,0x0d,0x80,0x34,
0x40,0x0a,0x90,0x31,0x3a,0x5a,0x80,0x31,0x40,0x0a,0x90,0x44,0x3f,0x07,0x80,
0x3d,0x40,0x0a,0x90,0x2c,0x3a,0x6e,0x80,0x2c,0x40,0x0a,0x90,0x31,0x3a,0x6e,
0x80,0x31,0x40,0x0a,0x90,0x25,0x3a,0x6e,0x80,0x25,0x40,0x0a,0x90,0x31,0x3a,
0x6e,0x80,0x31,0x40,0x0a,0x90,0x2c,0x3a,0x6e,0x80,0x2c,0x40,0x0a,0x90,0x31,
0x3a,0x6e,0x80,0x31,0x40,0x0a,0x90,0x25,0x3a,0x71,0x80,0x25,0x40,0x0a,0x90,
0x31,0x3a,0x6e,0x80,0x31,0x40,0x0a,0x90,0x2c,0x3a,0x6e,0x80,0x2c,0x40,0x0a,
0x90,0x31,0x3a,0x6e,0x80,0x44,0x40,0x00,0x80,0x31,0x40,0x0a,0x90,0x4c,0x3f,
0x00,0x90,0x25,0x3a,0x6b,0x80,0x25,0x40,0x0a,0x90,0x31,0x3a,0x6e,0x80,0x31,
0x40,0x0a,0x90,0x2c,0x3a,0x5d,0x80,0x2c,0x40,0x0a,0x90,0x49,0x3f,0x09,0x80,
0x4c,0x40,0x0a,0x90,0x31,0x3a,0x6c,0x80,0x49,0x40,0x00,0x80,0x31,0x40,0x0a,
0x90,0x48,0x3f,0x00,0x90,0x25,0x3a,0x6e,0x80,0x25,0x40,0x0a,0x90,0x33,0x3a,
0x6e,0x80,0x33,0x40,0x0a,0x90,0x2c,0x3a,0x6e,0x80,0x2c,0x40,0x0a,0x90,0x33,
0x3a,0x5c,0x80,0x48,0x40,0x00,0x80,0x33,0x40,0x0a,0x90,0x48,0x3a,0x00,0x90,
0x42,0x3a,0x12,0x90,0x50,0x3f,0x00,0x90,0x25,0x3a,0x71,0x80,0x25,0x40,0x0a,
0x90,0x33,0x3a,0x6e,0x80,0x33,0x40,0x0a,0x90,0x2c,0x3a,0x6e,0x80,0x48,0x40,
0x00,0x80,0x2c,0x40,0x00,0x80,0x50,0x40,0x00,0x80,0x42,0x40,0x0a,0x90,0x33,
0x3a,0x5d,0x80,0x33,0x40,0x07,0x90,0x50,0x3f,0x00,0x90,0x48,0x3a,0x03,0x90,
0x42,0x3a,0x0e,0x90,0x25,0x3a,0x6e,0x80,0x25,0x40,0x0a,0x90,0x33,0x3a,0x6e,
0x80,0x33,0x40,0x0a,0x90,0x2c,0x3a,0x6e,0x80,0x50,0x40,0x00,0x80,0x2c,0x40,
0x00,0x80,0x42,0x40,0x00,0x80,0x48,0x40,0x0a,0x90,0x33,0x3a,0x64,0x90,0x50,
0x3f,0x03,0x90,0x48,0x3a,0x00,0x90,0x42,0x3a,0x07,0x80,0x33,0x40,0x0a,0x90,
0x25,0x3a,0x6e,0x80,0x25,0x40,0x0a,0x90,0x33,0x3a,0x6e,0x80,0x33,0x40,0x0a,
0x90,0x2c,0x3a,0x6e,0x80,0x42,0x40,0x00,0x80,0x2c,0x40,0x00,0x80,0x48,0x40,
0x00,0x80,0x50,0x40,0x0a,0x90,0x33,0x3a,0x5a,0x80,0x33,0x40,0x0a,0x90,0x40,
0x3f,0x14,0x90,0x25,0x3a,0x5a,0x80,0x25,0x40,0x0a,0x90,0x49,0x3f,0x0a,0x80,
0x40,0x40,0x0a,0x90,0x31,0x3a,0x5a,0x80,0x31,0x40,0x0a,0x90,0x50,0x3f,0x0a,
0x80,0x49,0x40,0x0a,0x90,0x2c,0x3a,0x71,0x80,0x2c,0x40,0x0a,0x90,0x31,0x3a,
0x6b,0x80,0x31,0x40,0x0a,0x90,0x25,0x3a,0x6e,0x80,0x25,0x40,0x0a,0x90,0x31,
0x3a,0x6e,0x80,0x31,0x40,0x0a,0x90,0x2c,0x3a,0x6e,0x80,0x2c,0x40,0x0a,0x90,
0x31,0x3a,0x6e,0x80,0x50,0x40,0x00,0x80,0x31,0x40,0x0a,0x90,0x42,0x43,0x00,
0x90,0x25,0x3b,0x64,0x90,0x48,0x43,0x0a,0x80,0x42,0x40,0x00,0x80,0x25,0x40,
0x0a,0x90,0x33,0x3b,0x64,0x90,0x50,0x43,0x0a,0x80,0x48,0x40,0x00,0x80,0x33,
0x40,0x0a,0x90,0x2c,0x3b,0x71,0x80,0x2c,0x40,0x0a,0x90,0x33,0x3b,0x6e,0x80,
0x33,0x40,0x0a,0x90,0x25,0x3b,0x6e,0x80,0x25,0x40,0x0a,0x90,0x33,0x3b,0x6e,
0x80,0x33,0x40,0x0a,0x90,0x2c,0x3b,0x6d,0x80,0x2c,0x40,0x0a,0x90,0x33,0x3b,
0x6c,0x80,0x50,0x40,0x00,0x80,0x33,0x40,0x0a,0x90,0x40,0x47,0x02,0x90,0x25,
0x3f,0x5b,0x80,0x25,0x40,0x0a,0x90,0x49,0x47,0x07,0x80,0x40,0x40,0x0a,0x90,
0x31,0x3f,0x5d,0x80,0x31,0x40,0x0a,0x90,0x50,0x47,0x07,0x80,0x49,0x40,0x0a,
0x90,0x2c,0x3f,0x6e,0x80,0x2c,0x40,0x0a,0x90,0x31,0x3f,0x6e,0x80,0x31,0x40,
0x0a,0x90,0x25,0x3f,0x6e,0x80,0x25,0x40,0x0a,0x90,0x31,0x3f,0x6e,0x80,0x31,
0x40,0x0a,0x90,0x2c,0x3f,0x71,0x80,0x2c,0x40,0x0a,0x90,0x31,0x3f,0x6e,0x80,
0x50,0x40,0x00,0x80,0x31,0x40,0x0a,0x90,0x42,0x4b,0x00,0x90,0x25,0x43,0x57,
0x80,0x25,0x40,0x0a,0x90,0x48,0x4b,0x0a,0x80,0x42,0x40,0x0a,0x90,0x33,0x43,
0x5d,0x80,0x33,0x40,0x0a,0x90,0x50,0x4b,0x09,0x80,0x48,0x40,0x0a,0x90,0x2c,
0x43,0x6c,0x80,0x2c,0x40,0x0a,0x90,0x33,0x43,0x6e,0x80,0x33,0x40,0x0a,0x90,
0x25,0x43,0x6e,0x80,0x25,0x40,0x0a,0x90,0x33,0x43,0x6e,0x80,0x33,0x40,0x0a,
0x90,0x2c,0x43,0x6e,0x80,0x2c,0x40,0x0a,0x90,0x33,0x43,0x5c,0x80,0x50,0x40,
0x00,0x80,0x33,0x40,0x0a,0x90,0x31,0x47,0x00,0x90,0x2c,0x47,0x12,0x90,0x50,
0x4f,0x00,0x90,0x25,0x47,0x78,0x90,0x40,0x4f,0x00,0x90,0x34,0x47,0x16,0x80,
0x31,0x40,0x00,0x80,0x2c,0x40,0x12,0x80,0x25,0x40,0x00,0x80,0x50,0x40,0x53,
0x90,0x44,0x4f,0x00,0x90,0x38,0x47,0x25,0x80,0x34,0x40,0x00,0x80,0x40,0x40,
0x53,0x90,0x49,0x4f,0x00,0x90,0x3d,0x47,0x28,0x80,0x44,0x40,0x00,0x80,0x38,
0x40,0x50,0x90,0x4c,0x4f,0x00,0x90,0x40,0x47,0x28,0x80,0x49,0x40,0x00,0x80,
0x3d,0x40,0x4d,0x90,0x44,0x4f,0x03,0x90,0x38,0x47,0x28,0x80,0x4c,0x40,0x00,
0x80,0x40,0x40,0x4d,0x90,0x49,0x4f,0x02,0x90,0x3d,0x47,0x26,0x80,0x44,0x40,
0x03,0x80,0x38,0x40,0x4d,0x90,0x4c,0x4f,0x02,0x90,0x40,0x47,0x26,0x80,0x49,
0x40,0x02,0x80,0x3d,0x40,0x4e,0x90,0x50,0x4f,0x02,0x90,0x44,0x47,0x26,0x80,
0x4c,0x40,0x02,0x80,0x40,0x40,0x4e,0x90,0x49,0x4f,0x00,0x90,0x3d,0x47,0x28,
0x80,0x50,0x40,0x02,0x80,0x44,0x40,0x4e,0x90,0x4c,0x4f,0x00,0x90,0x40,0x47,
0x28,0x80,0x49,0x40,0x00,0x80,0x3d,0x40,0x50,0x90,0x50,0x4f,0x00,0x90,0x44,
0x47,0x28,0x80,0x4c,0x40,0x00,0x80,0x40,0x40,0x50,0x90,0x55,0x4f,0x00,0x90,
0x49,0x47,0x28,0x80,0x50,0x40,0x00,0x80,0x44,0x40,0x50,0x90,0x4c,0x4f,0x00,
0x90,0x40,0x47,0x28,0x80,0x55,0x40,0x00,0x80,0x49,0x40,0x53,0x90,0x50,0x4f,
0x00,0x90,0x44,0x47,0x25,0x80,0x4c,0x40,0x00,0x80,0x40,0x40,0x53,0x90,0x55,
0x4f,0x00,0x90,0x49,0x47,0x28,0x80,0x50,0x40,0x00,0x80,0x44,0x40,0x4d,0x90,
0x58,0x4f,0x03,0x90,0x4c,0x4f,0x28,0x80,0x55,0x40,0x00,0x80,0x49,0x40,0x4d,
0x90,0x55,0x4f,0x02,0x90,0x49,0x47,0x26,0x80,0x58,0x40,0x03,0x80,0x4c,0x40,
0x4d,0x90,0x50,0x4f,0x02,0x90,0x44,0x47,0x26,0x80,0x55,0x40,0x02,0x80,0x49,
0x40,0x4e,0x90,0x4c,0x4f,0x02,0x90,0x40,0x47,0x26,0x80,0x50,0x40,0x02,0x80,
0x44,0x40,0x4e,0x90,0x55,0x4f,0x00,0x90,0x49,0x47,0x28,0x80,0x4c,0x40,0x02,
0x80,0x40,0x40,0x4e,0x90,0x50,0x4f,0x00,0x90,0x44,0x47,0x28,0x80,0x55,0x40,
0x00,0x80,0x49,0x40,0x50,0x90,0x4c,0x4f,0x00,0x90,0x40,0x47,0x28,0x80,0x50,
0x40,0x00,0x80,0x44,0x40,0x50,0x90,0x49,0x4f,0x00,0x90,0x3d,0x47,0x28,0x80,
0x4c,0x40,0x00,0x80,0x40,0x40,0x50,0x90,0x50,0x4f,0x00,0x90,0x44,0x47,0x28,
0x80,0x49,0x40,0x00,0x80,0x3d,0x40,0x53,0x90,0x4c,0x4f,0x00,0x90,0x40,0x47,
0x25,0x80,0x50,0x40,0x00,0x80,0x44,0x40,0x53,0x90,0x49,0x4f,0x00,0x90,0x3d,
0x47,0x28,0x80,0x4c,0x40,0x00,0x80,0x40,0x40,0x4d,0x90,0x44,0x4f,0x03,0x90,
0x38,0x47,0x28,0x80,0x49,0x40,0x00,0x80,0x3d,0x40,0x4f,0x90,0x4c,0x4f,0x00,
0x90,0x40,0x47,0x26,0x80,0x44,0x40,0x03,0x80,0x38,0x40,0x4d,0x90,0x49,0x4f,
0x02,0x90,0x3d,0x47,0x28,0x80,0x4c,0x40,0x00,0x80,0x40,0x40,0x4e,0x90,0x44,
0x4f,0x02,0x90,0x38,0x47,0x26,0x80,0x49,0x40,0x02,0x80,0x3d,0x40,0x4e,0x90,
0x40,0x4f,0x02,0x90,0x34,0x47,0x26,0x80,0x44,0x40,0x02,0x80,0x38,0x40,0x4e,
0x90,0x49,0x4f,0x00,0x90,0x3d,0x47,0x28,0x80,0x40,0x40,0x02,0x80,0x34,0x40,
0x4e,0x90,0x44,0x4f,0x00,0x90,0x38,0x47,0x28,0x80,0x49,0x40,0x00,0x80,0x3d,
0x40,0x50,0x90,0x40,0x4f,0x00,0x90,0x34,0x47,0x28,0x80,0x44,0x40,0x00,0x80,
0x38,0x40,0x50,0x90,0x3d,0x4f,0x00,0x90,0x31,0x47,0x28,0x80,0x40,0x40,0x00,
0x80,0x34,0x40,0x53,0x90,0x44,0x4f,0x00,0x90,0x38,0x47,0x25,0x80,0x3d,0x40,
0x00,0x80,0x31,0x40,0x53,0x90,0x40,0x4f,0x00,0x90,0x34,0x47,0x28,0x80,0x44,
0x40,0x00,0x80,0x38,0x40,0x50,0x90,0x3d,0x4f,0x00,0x90,0x31,0x47,0x28,0x80,
0x40,0x40,0x00,0x80,0x34,0x40,0x4d,0x90,0x38,0x4f,0x03,0x90,0x2c,0x47,0x28,
0x80,0x3d,0x40,0x00,0x80,0x31,0x40,0x4d,0x90,0x40,0x4f,0x02,0x90,0x34,0x47,
0x26,0x80,0x38,0x40,0x03,0x80,0x2c,0x40,0x4d,0x90,0x3d,0x4f,0x02,0x90,0x31,
0x47,0x26,0x80,0x40,0x40,0x02,0x80,0x34,0x40,0x4e,0x90,0x38,0x4f,0x02,0x90,
0x2c,0x47,0x26,0x80,0x3d,0x40,0x02,0x80,0x31,0x40,0x4e,0x90,0x34,0x4f,0x02,
0x90,0x28,0x47,0x26,0x80,0x38,0x40,0x02,0x80,0x2c,0x40,0x4e,0x90,0x3d,0x4f,
0x00,0x90,0x31,0x47,0x28,0x80,0x34,0x40,0x02,0x80,0x28,0x40,0x4e,0x90,0x38,
0x4f,0x00,0x90,0x2c,0x47,0x28,0x80,0x3d,0x40,0x00,0x80,0x31,0x40,0x50,0x90,
0x34,0x4f,0x00,0x90,0x28,0x47,0x28,0x80,0x38,0x40,0x00,0x80,0x2c,0x40,0x53,
0x90,0x38,0x4f,0x00,0x90,0x2c,0x47,0x25,0x80,0x34,0x40,0x00,0x80,0x28,0x40,
0x3e,0x90,0x31,0x4f,0x00,0x90,0x25,0x4f,0x03,0x90,0x2c,0x4f,0x00,0x90,0x28,
0x4f,0x3a,0x80,0x38,0x40,0x00,0x80,0x2c,0x40,0x83,0x23,0x80,0x25,0x40,0x00,
0x80,0x31,0x40,0x03,0x80,0x28,0x40,0x00,0x80,0x2c,0x40,0x83,0x5d,0x90,0x55,
0x62,0x00,0x90,0x50,0x62,0x00,0x90,0x4c,0x62,0x00,0x90,0x49,0x62,0x00,0x90,
0x31,0x62,0x00,0x90,0x2c,0x62,0x00,0x90,0x28,0x62,0x00,0x90,0x25,0x62,0x82,
0x68,0x80,0x55,0x40,0x00,0x80,0x25,0x40,0x00,0x80,0x28,0x40,0x00,0x80,0x2c,
0x40,0x00,0x80,0x31,0x40,0x00,0x80,0x49,0x40,0x00,0x80,0x4c,0x40,0x00,0x80,
0x50,0x40,0x84,0x59,0x90,0x49,0x62,0x00,0x90,0x44,0x62,0x00,0x90,0x40,0x62,
0x00,0x90,0x3d,0x62,0x00,0x90,0x31,0x62,0x00,0x90,0x2c,0x62,0x00,0x90,0x28,
0x62,0x00,0x90,0x25,0x62,0x82,0x68,0x80,0x49,0x40,0x00,0x80,0x25,0x40,0x00,
0x80,0x28,0x40,0x00,0x80,0x2c,0x40,0x00,0x80,0x31,0x40,0x00,0x80,0x3d,0x40,
0x00,0x80,0x40,0x40,0x00,0x80,0x44,0x40,0x00,0xff,0x2f,0x00
};
